<?xml version="1.0" encoding="utf-8"?>
<!-- Generator: Adobe Illustrator 27.1.0, SVG Export Plug-In . SVG Version: 6.00 Build 0)  -->
<svg version="1.1" id="Layer_1" xmlns="http://www.w3.org/2000/svg" xmlns:xlink="http://www.w3.org/1999/xlink" x="0px" y="0px"
	 viewBox="0 0 200 200" style="enable-background:new 0 0 200 200;" xml:space="preserve">
<style type="text/css">
	.st0{fill:#2B388F;}
	.st1{fill:#FFFFFF;}
	.st2{fill:#913F88;}
	.st3{fill:#EC1C24;}
	.st4{fill:#96C93D;}
	.st5{fill:#8BC53F;}
	.st6{fill:#00A551;}
	.st7{fill:#F6921E;}
	.st8{fill:#DF1F26;}
	.st9{fill:#2F2F80;}
	.st10{fill:#9DC33B;}
	.st11{fill:#009448;}
</style>
<g>
	<g>
		<g>
			<path class="st4" d="M66.3,148.5c0,0.2,0,0.4,0,0.6c0,0.2,0,0.3-0.1,0.4c0,0.1-0.1,0.2-0.1,0.3c0,0.1-0.1,0.2-0.2,0.3
				c-0.1,0.1-0.3,0.2-0.6,0.4c-0.3,0.2-0.6,0.3-1,0.5c-0.4,0.1-0.9,0.3-1.4,0.4c-0.5,0.1-1.1,0.1-1.7,0.1c-1.2,0-2.2-0.2-3.2-0.5
				c-0.9-0.4-1.7-0.9-2.4-1.6c-0.7-0.7-1.2-1.6-1.5-2.7c-0.4-1.1-0.5-2.3-0.5-3.7c0-1.5,0.2-2.7,0.6-3.9c0.4-1.1,0.9-2.1,1.6-2.8
				c0.7-0.8,1.5-1.3,2.5-1.7c1-0.4,2-0.6,3.2-0.6c0.5,0,0.9,0,1.4,0.1c0.4,0.1,0.8,0.2,1.2,0.3c0.4,0.1,0.7,0.3,1,0.4
				c0.3,0.2,0.5,0.3,0.6,0.4c0.1,0.1,0.2,0.2,0.2,0.3c0,0.1,0.1,0.2,0.1,0.3c0,0.1,0,0.3,0.1,0.4c0,0.2,0,0.4,0,0.6
				c0,0.3,0,0.5,0,0.7c0,0.2,0,0.3-0.1,0.4c0,0.1-0.1,0.2-0.2,0.2c-0.1,0.1-0.1,0.1-0.2,0.1c-0.1,0-0.3-0.1-0.5-0.2
				c-0.2-0.2-0.5-0.3-0.8-0.5c-0.3-0.2-0.7-0.4-1.1-0.5c-0.4-0.2-1-0.2-1.6-0.2c-0.7,0-1.3,0.1-1.8,0.4c-0.5,0.3-1,0.7-1.4,1.2
				c-0.4,0.5-0.7,1.1-0.9,1.9c-0.2,0.7-0.3,1.6-0.3,2.5c0,1,0.1,1.9,0.3,2.6c0.2,0.7,0.5,1.3,0.9,1.8c0.4,0.5,0.8,0.8,1.4,1.1
				c0.5,0.2,1.1,0.3,1.8,0.3c0.6,0,1.1-0.1,1.6-0.2c0.4-0.1,0.8-0.3,1.2-0.5c0.3-0.2,0.6-0.3,0.8-0.5c0.2-0.1,0.4-0.2,0.5-0.2
				c0.1,0,0.2,0,0.2,0.1c0.1,0,0.1,0.1,0.1,0.2c0,0.1,0.1,0.3,0.1,0.4C66.3,148,66.3,148.2,66.3,148.5z"/>
			<path class="st4" d="M76.2,140c0,0.3,0,0.6,0,0.8c0,0.2,0,0.4-0.1,0.5c0,0.1-0.1,0.2-0.1,0.2c-0.1,0-0.1,0.1-0.2,0.1
				c-0.1,0-0.2,0-0.2,0c-0.1,0-0.2-0.1-0.3-0.1s-0.2-0.1-0.4-0.1c-0.1,0-0.3,0-0.4,0c-0.2,0-0.4,0-0.6,0.1c-0.2,0.1-0.4,0.2-0.6,0.4
				c-0.2,0.2-0.4,0.4-0.6,0.6c-0.2,0.3-0.4,0.6-0.7,1v7.3c0,0.1,0,0.2-0.1,0.2c-0.1,0.1-0.1,0.1-0.3,0.2c-0.1,0-0.3,0.1-0.5,0.1
				c-0.2,0-0.5,0-0.8,0s-0.6,0-0.8,0c-0.2,0-0.4-0.1-0.5-0.1c-0.1,0-0.2-0.1-0.3-0.2c-0.1-0.1-0.1-0.1-0.1-0.2v-11.8
				c0-0.1,0-0.2,0.1-0.2c0-0.1,0.1-0.1,0.2-0.2c0.1,0,0.3-0.1,0.4-0.1c0.2,0,0.4,0,0.7,0c0.3,0,0.5,0,0.7,0c0.2,0,0.3,0.1,0.4,0.1
				c0.1,0,0.2,0.1,0.2,0.2c0,0.1,0.1,0.1,0.1,0.2v1.5c0.3-0.4,0.6-0.8,0.9-1.1c0.3-0.3,0.5-0.5,0.8-0.7s0.5-0.3,0.7-0.4
				c0.2-0.1,0.5-0.1,0.7-0.1c0.1,0,0.2,0,0.4,0c0.1,0,0.3,0,0.4,0.1c0.1,0,0.3,0.1,0.4,0.1c0.1,0,0.2,0.1,0.2,0.1
				c0,0,0.1,0.1,0.1,0.1c0,0.1,0,0.1,0.1,0.2c0,0.1,0,0.2,0,0.4C76.2,139.4,76.2,139.7,76.2,140z"/>
			<path class="st4" d="M89.4,150.7c0,0.1,0,0.2-0.1,0.2c0,0.1-0.1,0.1-0.2,0.2c-0.1,0-0.3,0.1-0.4,0.1c-0.2,0-0.4,0-0.7,0
				c-0.3,0-0.5,0-0.7,0c-0.2,0-0.3-0.1-0.4-0.1c-0.1,0-0.2-0.1-0.2-0.2s-0.1-0.1-0.1-0.2v-1.4c-0.7,0.7-1.3,1.2-2,1.6
				c-0.7,0.4-1.4,0.5-2.1,0.5c-0.8,0-1.5-0.1-2-0.4c-0.5-0.3-1-0.6-1.3-1.1c-0.3-0.5-0.6-1-0.7-1.6c-0.1-0.6-0.2-1.4-0.2-2.2v-7.2
				c0-0.1,0-0.2,0.1-0.2c0-0.1,0.1-0.1,0.3-0.2c0.1,0,0.3-0.1,0.5-0.1c0.2,0,0.5,0,0.8,0c0.3,0,0.6,0,0.8,0c0.2,0,0.4,0.1,0.5,0.1
				c0.1,0,0.2,0.1,0.3,0.2c0.1,0.1,0.1,0.1,0.1,0.2v6.6c0,0.6,0,1.1,0.1,1.4c0.1,0.3,0.2,0.6,0.4,0.8c0.2,0.2,0.4,0.4,0.6,0.5
				c0.2,0.1,0.5,0.2,0.9,0.2c0.4,0,0.8-0.2,1.3-0.5c0.4-0.3,0.9-0.8,1.4-1.3v-7.8c0-0.1,0-0.2,0.1-0.2c0-0.1,0.1-0.1,0.3-0.2
				c0.1,0,0.3-0.1,0.5-0.1c0.2,0,0.5,0,0.8,0s0.6,0,0.8,0c0.2,0,0.4,0.1,0.5,0.1c0.1,0,0.2,0.1,0.3,0.2c0.1,0.1,0.1,0.1,0.1,0.2
				V150.7z"/>
			<path class="st4" d="M101,147.4c0,0.7-0.1,1.3-0.4,1.8c-0.3,0.5-0.6,0.9-1.1,1.3c-0.5,0.3-1,0.6-1.6,0.8c-0.6,0.2-1.3,0.3-2,0.3
				c-0.4,0-0.9,0-1.3-0.1c-0.4-0.1-0.8-0.1-1.1-0.2c-0.3-0.1-0.6-0.2-0.8-0.3c-0.2-0.1-0.4-0.2-0.5-0.3c-0.1-0.1-0.2-0.2-0.2-0.4
				c-0.1-0.2-0.1-0.5-0.1-0.9c0-0.3,0-0.5,0-0.6c0-0.2,0-0.3,0.1-0.4c0-0.1,0.1-0.2,0.1-0.2c0.1,0,0.1,0,0.2,0
				c0.1,0,0.2,0.1,0.4,0.2c0.2,0.1,0.4,0.2,0.7,0.4c0.3,0.1,0.6,0.3,1,0.4c0.4,0.1,0.8,0.2,1.3,0.2c0.3,0,0.6,0,0.8-0.1
				c0.2-0.1,0.4-0.2,0.6-0.3c0.2-0.1,0.3-0.3,0.4-0.4c0.1-0.2,0.1-0.4,0.1-0.6c0-0.3-0.1-0.5-0.2-0.7c-0.2-0.2-0.4-0.4-0.6-0.5
				c-0.3-0.1-0.6-0.3-0.9-0.4c-0.3-0.1-0.7-0.3-1-0.4c-0.4-0.2-0.7-0.3-1-0.5s-0.6-0.4-0.9-0.7c-0.3-0.3-0.5-0.6-0.6-1
				c-0.2-0.4-0.2-0.9-0.2-1.4c0-0.6,0.1-1.1,0.3-1.5c0.2-0.5,0.5-0.9,0.9-1.2c0.4-0.3,0.9-0.6,1.5-0.8c0.6-0.2,1.3-0.3,2-0.3
				c0.4,0,0.7,0,1.1,0.1c0.3,0.1,0.7,0.1,0.9,0.2c0.3,0.1,0.5,0.2,0.7,0.3c0.2,0.1,0.3,0.2,0.4,0.2c0.1,0.1,0.1,0.1,0.2,0.2
				c0,0.1,0.1,0.1,0.1,0.2c0,0.1,0,0.2,0,0.3c0,0.1,0,0.3,0,0.5c0,0.2,0,0.4,0,0.6c0,0.2,0,0.3-0.1,0.4c0,0.1-0.1,0.1-0.1,0.2
				c-0.1,0-0.1,0-0.2,0c-0.1,0-0.2,0-0.4-0.1c-0.2-0.1-0.4-0.2-0.6-0.3c-0.3-0.1-0.5-0.2-0.9-0.3c-0.3-0.1-0.7-0.1-1.1-0.1
				c-0.3,0-0.6,0-0.8,0.1c-0.2,0.1-0.4,0.2-0.5,0.3c-0.1,0.1-0.2,0.2-0.3,0.4c-0.1,0.2-0.1,0.3-0.1,0.5c0,0.3,0.1,0.5,0.2,0.7
				c0.2,0.2,0.4,0.3,0.7,0.5c0.3,0.1,0.6,0.3,0.9,0.4c0.3,0.1,0.7,0.3,1.1,0.4c0.4,0.1,0.7,0.3,1.1,0.5s0.7,0.4,0.9,0.7
				c0.3,0.3,0.5,0.6,0.7,1C100.9,146.4,101,146.8,101,147.4z"/>
			<path class="st4" d="M113.5,150.7c0,0.1,0,0.2-0.1,0.3c-0.1,0.1-0.2,0.1-0.4,0.2c-0.2,0-0.5,0-0.8,0c-0.4,0-0.7,0-0.9,0
				c-0.2,0-0.3-0.1-0.4-0.2c-0.1-0.1-0.1-0.2-0.1-0.3v-0.9c-0.5,0.5-1,0.9-1.7,1.2c-0.6,0.3-1.3,0.4-2.1,0.4c-0.6,0-1.2-0.1-1.7-0.2
				c-0.5-0.2-1-0.4-1.4-0.7c-0.4-0.3-0.7-0.7-0.9-1.2c-0.2-0.5-0.3-1-0.3-1.7c0-0.7,0.1-1.3,0.4-1.8s0.7-0.9,1.2-1.3
				c0.5-0.3,1.2-0.6,2-0.7c0.8-0.2,1.7-0.2,2.8-0.2h1.1v-0.7c0-0.4,0-0.7-0.1-1c-0.1-0.3-0.2-0.5-0.4-0.7c-0.2-0.2-0.4-0.3-0.7-0.4
				c-0.3-0.1-0.6-0.1-1.1-0.1c-0.6,0-1,0.1-1.5,0.2c-0.4,0.1-0.8,0.3-1.2,0.4c-0.3,0.2-0.6,0.3-0.8,0.4c-0.2,0.1-0.4,0.2-0.5,0.2
				c-0.1,0-0.2,0-0.3-0.1c-0.1-0.1-0.1-0.1-0.2-0.3c0-0.1-0.1-0.3-0.1-0.4c0-0.2,0-0.4,0-0.6c0-0.3,0-0.5,0.1-0.6
				c0-0.2,0.1-0.3,0.3-0.4c0.1-0.1,0.3-0.3,0.6-0.4c0.3-0.2,0.7-0.3,1.1-0.4c0.4-0.1,0.9-0.2,1.4-0.3c0.5-0.1,1-0.1,1.5-0.1
				c0.9,0,1.7,0.1,2.4,0.3c0.7,0.2,1.2,0.5,1.6,0.8c0.4,0.4,0.7,0.9,0.9,1.4c0.2,0.6,0.3,1.3,0.3,2.1V150.7z M110.2,145.7H109
				c-0.5,0-1,0-1.4,0.1c-0.4,0.1-0.7,0.2-0.9,0.4c-0.2,0.2-0.4,0.4-0.5,0.6c-0.1,0.2-0.2,0.5-0.2,0.8c0,0.5,0.2,0.9,0.5,1.2
				c0.3,0.3,0.7,0.4,1.3,0.4c0.5,0,0.9-0.1,1.3-0.4c0.4-0.2,0.8-0.6,1.2-1V145.7z"/>
			<path class="st4" d="M128,150.7c0,0.1,0,0.2-0.1,0.2c0,0.1-0.1,0.1-0.2,0.2c-0.1,0-0.2,0.1-0.4,0.1c-0.2,0-0.4,0-0.7,0
				c-0.3,0-0.5,0-0.7,0c-0.2,0-0.3,0-0.4-0.1c-0.1,0-0.2-0.1-0.2-0.2c0-0.1-0.1-0.1-0.1-0.2v-1.3c-0.6,0.7-1.2,1.2-1.9,1.5
				c-0.7,0.4-1.4,0.5-2.2,0.5c-0.9,0-1.7-0.2-2.3-0.5s-1.1-0.8-1.5-1.4c-0.4-0.6-0.7-1.3-0.9-2.1c-0.2-0.8-0.3-1.6-0.3-2.5
				c0-1,0.1-2,0.3-2.8c0.2-0.8,0.6-1.5,1-2.1s1-1,1.6-1.4c0.6-0.3,1.4-0.5,2.2-0.5c0.7,0,1.3,0.1,1.8,0.4c0.5,0.3,1.1,0.7,1.6,1.2
				v-6.4c0-0.1,0-0.2,0.1-0.2c0-0.1,0.1-0.1,0.3-0.2c0.1,0,0.3-0.1,0.5-0.1c0.2,0,0.5,0,0.8,0s0.6,0,0.8,0c0.2,0,0.4,0.1,0.5,0.1
				c0.1,0,0.2,0.1,0.3,0.2c0.1,0.1,0.1,0.1,0.1,0.2V150.7z M124.7,142.8c-0.5-0.6-0.9-1.1-1.4-1.4c-0.4-0.3-0.9-0.5-1.4-0.5
				c-0.4,0-0.8,0.1-1.1,0.3c-0.3,0.2-0.6,0.5-0.8,0.9c-0.2,0.4-0.3,0.8-0.4,1.2c-0.1,0.4-0.1,0.9-0.1,1.4c0,0.5,0,1,0.1,1.4
				c0.1,0.5,0.2,0.9,0.4,1.2s0.4,0.7,0.7,0.9c0.3,0.2,0.7,0.3,1.1,0.3c0.2,0,0.5,0,0.7-0.1c0.2-0.1,0.4-0.2,0.7-0.3
				c0.2-0.1,0.5-0.3,0.7-0.6c0.2-0.2,0.5-0.5,0.8-0.9V142.8z"/>
			<path class="st4" d="M142.2,144.5c0,0.4-0.1,0.7-0.3,0.9c-0.2,0.2-0.4,0.3-0.7,0.3H134c0,0.5,0.1,1,0.2,1.4
				c0.1,0.4,0.3,0.8,0.6,1c0.3,0.3,0.6,0.5,1,0.7c0.4,0.2,0.9,0.2,1.5,0.2c0.6,0,1.1,0,1.5-0.1c0.4-0.1,0.8-0.2,1.1-0.3
				c0.3-0.1,0.6-0.2,0.8-0.3c0.2-0.1,0.4-0.1,0.5-0.1c0.1,0,0.1,0,0.2,0c0.1,0,0.1,0.1,0.1,0.2c0,0.1,0.1,0.2,0.1,0.3
				c0,0.1,0,0.3,0,0.5c0,0.2,0,0.4,0,0.5c0,0.1,0,0.3,0,0.3c0,0.1,0,0.2-0.1,0.2c0,0.1-0.1,0.1-0.1,0.2c-0.1,0.1-0.2,0.1-0.5,0.2
				c-0.3,0.1-0.6,0.2-1,0.3c-0.4,0.1-0.8,0.2-1.4,0.3c-0.5,0.1-1.1,0.1-1.6,0.1c-1,0-2-0.1-2.7-0.4c-0.8-0.3-1.4-0.7-2-1.2
				c-0.5-0.5-0.9-1.2-1.2-2c-0.3-0.8-0.4-1.8-0.4-2.9c0-1,0.1-2,0.4-2.8c0.3-0.8,0.7-1.6,1.2-2.1c0.5-0.6,1.1-1,1.9-1.3
				c0.7-0.3,1.6-0.5,2.5-0.5c1,0,1.8,0.1,2.5,0.4c0.7,0.3,1.3,0.7,1.7,1.2c0.4,0.5,0.8,1.1,1,1.8c0.2,0.7,0.3,1.5,0.3,2.3V144.5z
				 M138.9,143.5c0-0.9-0.2-1.7-0.6-2.2c-0.4-0.5-1-0.8-1.9-0.8c-0.4,0-0.8,0.1-1.1,0.2c-0.3,0.2-0.6,0.4-0.8,0.6
				c-0.2,0.3-0.4,0.6-0.5,0.9c-0.1,0.4-0.2,0.8-0.2,1.2H138.9z"/>
			<path class="st4" d="M152.4,140c0,0.3,0,0.6,0,0.8c0,0.2,0,0.4-0.1,0.5c0,0.1-0.1,0.2-0.1,0.2c-0.1,0-0.1,0.1-0.2,0.1
				c-0.1,0-0.2,0-0.2,0c-0.1,0-0.2-0.1-0.3-0.1c-0.1,0-0.2-0.1-0.4-0.1c-0.1,0-0.3,0-0.4,0c-0.2,0-0.4,0-0.6,0.1
				c-0.2,0.1-0.4,0.2-0.6,0.4c-0.2,0.2-0.4,0.4-0.6,0.6c-0.2,0.3-0.4,0.6-0.7,1v7.3c0,0.1,0,0.2-0.1,0.2c-0.1,0.1-0.1,0.1-0.3,0.2
				c-0.1,0-0.3,0.1-0.5,0.1c-0.2,0-0.5,0-0.8,0s-0.6,0-0.8,0c-0.2,0-0.4-0.1-0.5-0.1c-0.1,0-0.2-0.1-0.3-0.2
				c-0.1-0.1-0.1-0.1-0.1-0.2v-11.8c0-0.1,0-0.2,0.1-0.2c0-0.1,0.1-0.1,0.2-0.2c0.1,0,0.3-0.1,0.4-0.1c0.2,0,0.4,0,0.7,0
				c0.3,0,0.5,0,0.7,0c0.2,0,0.3,0.1,0.4,0.1c0.1,0,0.2,0.1,0.2,0.2c0,0.1,0.1,0.1,0.1,0.2v1.5c0.3-0.4,0.6-0.8,0.9-1.1
				c0.3-0.3,0.5-0.5,0.8-0.7c0.2-0.2,0.5-0.3,0.7-0.4s0.5-0.1,0.7-0.1c0.1,0,0.2,0,0.4,0c0.1,0,0.3,0,0.4,0.1c0.1,0,0.3,0.1,0.4,0.1
				c0.1,0,0.2,0.1,0.2,0.1c0,0,0.1,0.1,0.1,0.1c0,0.1,0,0.1,0.1,0.2c0,0.1,0,0.2,0,0.4C152.4,139.4,152.4,139.7,152.4,140z"/>
		</g>
		<g>
			<path class="st4" d="M102,177.2c0,0.1,0,0.2-0.1,0.2c0,0.1-0.1,0.1-0.3,0.2c-0.1,0-0.3,0.1-0.5,0.1c-0.2,0-0.5,0-0.8,0
				c-0.3,0-0.6,0-0.8,0c-0.2,0-0.4-0.1-0.5-0.1c-0.1,0-0.2-0.1-0.3-0.2c-0.1-0.1-0.1-0.2-0.1-0.2v-13.9h0l-4.9,13.9
				c0,0.1-0.1,0.2-0.2,0.3c-0.1,0.1-0.2,0.1-0.3,0.2c-0.1,0-0.3,0.1-0.5,0.1c-0.2,0-0.5,0-0.8,0c-0.3,0-0.6,0-0.8,0
				c-0.2,0-0.4-0.1-0.5-0.1c-0.1,0-0.2-0.1-0.3-0.2c-0.1-0.1-0.1-0.2-0.2-0.3l-4.8-13.9h0v13.9c0,0.1,0,0.2-0.1,0.2
				c0,0.1-0.1,0.1-0.3,0.2c-0.1,0-0.3,0.1-0.5,0.1s-0.5,0-0.8,0c-0.3,0-0.6,0-0.8,0c-0.2,0-0.4-0.1-0.5-0.1c-0.1,0-0.2-0.1-0.3-0.2
				c0-0.1-0.1-0.2-0.1-0.2V162c0-0.4,0.1-0.8,0.4-1c0.2-0.2,0.6-0.4,0.9-0.4h2.3c0.4,0,0.8,0,1,0.1c0.3,0.1,0.5,0.2,0.8,0.3
				c0.2,0.2,0.4,0.4,0.5,0.6c0.1,0.2,0.3,0.6,0.4,0.9l3.7,10.2h0.1l3.8-10.1c0.1-0.4,0.2-0.7,0.4-0.9c0.1-0.3,0.3-0.5,0.5-0.6
				c0.2-0.2,0.4-0.3,0.6-0.3c0.2-0.1,0.5-0.1,0.9-0.1h2.3c0.2,0,0.4,0,0.6,0.1c0.2,0.1,0.3,0.2,0.4,0.3c0.1,0.1,0.2,0.3,0.3,0.4
				c0.1,0.2,0.1,0.4,0.1,0.6V177.2z"/>
			<path class="st4" d="M109.1,161.5c0,0.7-0.1,1.1-0.4,1.4c-0.3,0.3-0.8,0.4-1.5,0.4c-0.7,0-1.3-0.1-1.5-0.4
				c-0.3-0.2-0.4-0.7-0.4-1.3c0-0.7,0.1-1.1,0.4-1.4c0.3-0.3,0.8-0.4,1.5-0.4c0.7,0,1.2,0.1,1.5,0.4
				C109,160.4,109.1,160.9,109.1,161.5z M108.9,177.3c0,0.1,0,0.2-0.1,0.2c-0.1,0.1-0.1,0.1-0.3,0.2c-0.1,0-0.3,0.1-0.5,0.1
				c-0.2,0-0.5,0-0.8,0s-0.6,0-0.8,0c-0.2,0-0.4-0.1-0.5-0.1c-0.1,0-0.2-0.1-0.3-0.2c-0.1-0.1-0.1-0.1-0.1-0.2v-11.7
				c0-0.1,0-0.2,0.1-0.2c0.1-0.1,0.1-0.1,0.3-0.2c0.1,0,0.3-0.1,0.5-0.1c0.2,0,0.5,0,0.8,0s0.6,0,0.8,0c0.2,0,0.4,0.1,0.5,0.1
				c0.1,0,0.2,0.1,0.3,0.2c0.1,0.1,0.1,0.1,0.1,0.2V177.3z"/>
			<path class="st4" d="M124,171.2c0,1-0.1,2-0.3,2.8c-0.2,0.8-0.6,1.5-1,2.1c-0.4,0.6-1,1-1.6,1.4c-0.6,0.3-1.3,0.5-2.1,0.5
				c-0.4,0-0.8,0-1.1-0.1c-0.3-0.1-0.7-0.2-1-0.4c-0.3-0.2-0.6-0.4-0.9-0.6c-0.3-0.3-0.6-0.6-0.9-0.9v1.3c0,0.1,0,0.2-0.1,0.2
				c0,0.1-0.1,0.1-0.2,0.2c-0.1,0-0.3,0.1-0.4,0.1c-0.2,0-0.4,0-0.7,0c-0.3,0-0.5,0-0.7,0c-0.2,0-0.3,0-0.4-0.1
				c-0.1,0-0.2-0.1-0.2-0.2c0-0.1-0.1-0.1-0.1-0.2v-17.3c0-0.1,0-0.2,0.1-0.2c0.1-0.1,0.1-0.1,0.3-0.2c0.1,0,0.3-0.1,0.5-0.1
				c0.2,0,0.5,0,0.8,0s0.6,0,0.8,0c0.2,0,0.4,0.1,0.5,0.1c0.1,0,0.2,0.1,0.3,0.2c0.1,0.1,0.1,0.2,0.1,0.2v6.5
				c0.3-0.3,0.6-0.6,0.9-0.8c0.3-0.2,0.6-0.4,0.9-0.5c0.3-0.1,0.6-0.2,0.9-0.3c0.3-0.1,0.7-0.1,1-0.1c0.9,0,1.6,0.2,2.2,0.5
				c0.6,0.3,1.1,0.8,1.5,1.4c0.4,0.6,0.7,1.3,0.8,2.1S124,170.3,124,171.2z M120.6,171.5c0-0.5,0-1-0.1-1.4
				c-0.1-0.5-0.2-0.9-0.4-1.2c-0.2-0.4-0.4-0.6-0.7-0.9c-0.3-0.2-0.7-0.3-1.1-0.3c-0.2,0-0.4,0-0.6,0.1c-0.2,0.1-0.4,0.2-0.7,0.3
				c-0.2,0.2-0.5,0.3-0.7,0.6c-0.2,0.2-0.5,0.5-0.8,0.9v3.9c0.5,0.6,0.9,1.1,1.3,1.4c0.4,0.3,0.9,0.5,1.3,0.5c0.4,0,0.8-0.1,1.1-0.3
				c0.3-0.2,0.5-0.5,0.7-0.9c0.2-0.4,0.3-0.8,0.4-1.2C120.5,172.3,120.6,171.9,120.6,171.5z"/>
		</g>
	</g>
	<g>
		<path class="st5" d="M103.1,127.6c-29.4,0-53.2-23.9-53.2-53.2s23.9-53.2,53.2-53.2s53.2,23.9,53.2,53.2S132.4,127.6,103.1,127.6z
			 M103.1,23.8c-27.9,0-50.6,22.7-50.6,50.6s22.7,50.6,50.6,50.6s50.6-22.7,50.6-50.6S131,23.8,103.1,23.8z"/>
		<circle class="st5" cx="103.1" cy="74.4" r="47.8"/>
		<g>
			<path class="st1" d="M100.3,90c1.6,0.4,3.3,0.9,5.1,1.7c11.4,4.9,18.7,6.8,28.9-0.6c0,0-3.8,7.6-16.1,7.8c0,0-5.1,0.2-13.8-4.2
				c0,0-6.8-4.1-16-4.1l-19.4,16.2l8.4-25.2V50.6c0-4.9,3.4-8.8,7.7-8.8h42.3c4.2,0,7.7,3.9,7.7,8.8v30.5c0,4.9-3.4,8.8-7.7,8.8
				h-4.1l2.3-5.6L101.5,86l12.4-5.8c0.5-1.8-0.4-6.1-0.4-6.1c-1.3-9.8-10.4-25.4-10.4-25.4s1,7.1-0.3,13.8C99.7,77.7,96,86,96,86
				l-6-0.8c0,1.8,0.5,3.5,0.8,4.3c2.2-0.4,5.2-0.5,8.9,0.3L100.3,90z"/>
			<path class="st1" d="M106.7,100c-6-3.4-12.1-5-16.6-3.7c0,0,5.7,0.5,13.9,5.3c8.2,4.9,16.6,1.8,17.3,0.6
				C121.3,102.3,112.7,103.4,106.7,100z"/>
		</g>
	</g>
</g>
</svg>
