<?xml version="1.0" encoding="utf-8"?>
<!-- Generator: Adobe Illustrator 27.1.0, SVG Export Plug-In . SVG Version: 6.00 Build 0)  -->
<svg version="1.1" id="Layer_1" xmlns="http://www.w3.org/2000/svg" xmlns:xlink="http://www.w3.org/1999/xlink" x="0px" y="0px"
	 viewBox="0 0 200 200" style="enable-background:new 0 0 200 200;" xml:space="preserve">
<style type="text/css">
	.st0{fill:#2B388F;}
	.st1{fill:#FFFFFF;}
	.st2{fill:#913F88;}
	.st3{fill:#EC1C24;}
	.st4{fill:#96C93D;}
	.st5{fill:#8BC53F;}
	.st6{fill:#00A551;}
	.st7{fill:#F6921E;}
	.st8{fill:#DF1F26;}
	.st9{fill:#2F2F80;}
	.st10{fill:#9DC33B;}
	.st11{fill:#009448;}
</style>
<g>
	<g>
		<g>
			<path class="st6" d="M65.4,148.8c0,0.2,0,0.4,0,0.6c0,0.2,0,0.3-0.1,0.4c0,0.1-0.1,0.2-0.1,0.3c0,0.1-0.1,0.2-0.2,0.3
				c-0.1,0.1-0.3,0.2-0.6,0.4c-0.3,0.2-0.6,0.3-1,0.5c-0.4,0.1-0.9,0.3-1.4,0.4c-0.5,0.1-1.1,0.1-1.7,0.1c-1.2,0-2.2-0.2-3.2-0.5
				c-0.9-0.4-1.8-0.9-2.4-1.6c-0.7-0.7-1.2-1.6-1.5-2.7c-0.4-1.1-0.5-2.3-0.5-3.8c0-1.5,0.2-2.8,0.6-3.9c0.4-1.1,0.9-2.1,1.6-2.9
				c0.7-0.8,1.5-1.4,2.5-1.8c1-0.4,2.1-0.6,3.2-0.6c0.5,0,0.9,0,1.4,0.1c0.4,0.1,0.9,0.2,1.2,0.3c0.4,0.1,0.7,0.3,1,0.4
				c0.3,0.2,0.5,0.3,0.6,0.4c0.1,0.1,0.2,0.2,0.2,0.3c0,0.1,0.1,0.2,0.1,0.3c0,0.1,0,0.3,0.1,0.4c0,0.2,0,0.4,0,0.6
				c0,0.3,0,0.5,0,0.7c0,0.2,0,0.3-0.1,0.5c0,0.1-0.1,0.2-0.2,0.3c-0.1,0.1-0.1,0.1-0.2,0.1c-0.1,0-0.3-0.1-0.5-0.2
				c-0.2-0.2-0.5-0.3-0.8-0.5c-0.3-0.2-0.7-0.4-1.2-0.5c-0.4-0.2-1-0.2-1.6-0.2c-0.7,0-1.3,0.1-1.8,0.4c-0.5,0.3-1,0.7-1.4,1.2
				s-0.7,1.1-0.9,1.9c-0.2,0.7-0.3,1.6-0.3,2.5c0,1,0.1,1.9,0.3,2.6c0.2,0.7,0.5,1.3,0.9,1.8c0.4,0.5,0.8,0.8,1.4,1.1
				c0.5,0.2,1.2,0.4,1.8,0.4c0.6,0,1.2-0.1,1.6-0.2c0.5-0.1,0.8-0.3,1.2-0.5c0.3-0.2,0.6-0.3,0.8-0.5s0.4-0.2,0.5-0.2
				c0.1,0,0.2,0,0.2,0.1c0.1,0,0.1,0.1,0.1,0.2c0,0.1,0.1,0.3,0.1,0.4C65.4,148.2,65.4,148.4,65.4,148.8z"/>
			<path class="st6" d="M75.3,140.2c0,0.3,0,0.6,0,0.8c0,0.2,0,0.4-0.1,0.5c0,0.1-0.1,0.2-0.1,0.2c-0.1,0-0.1,0.1-0.2,0.1
				c-0.1,0-0.2,0-0.2,0c-0.1,0-0.2-0.1-0.3-0.1c-0.1,0-0.2-0.1-0.4-0.1c-0.1,0-0.3,0-0.4,0c-0.2,0-0.4,0-0.6,0.1
				c-0.2,0.1-0.4,0.2-0.6,0.4c-0.2,0.2-0.4,0.4-0.6,0.6c-0.2,0.3-0.4,0.6-0.7,1v7.4c0,0.1,0,0.2-0.1,0.2c-0.1,0.1-0.1,0.1-0.3,0.2
				c-0.1,0-0.3,0.1-0.5,0.1c-0.2,0-0.5,0-0.8,0c-0.3,0-0.6,0-0.8,0c-0.2,0-0.4-0.1-0.5-0.1c-0.1,0-0.2-0.1-0.3-0.2
				c-0.1-0.1-0.1-0.1-0.1-0.2v-11.8c0-0.1,0-0.2,0.1-0.2s0.1-0.1,0.2-0.2c0.1,0,0.3-0.1,0.4-0.1c0.2,0,0.4,0,0.7,0
				c0.3,0,0.5,0,0.7,0c0.2,0,0.3,0.1,0.4,0.1c0.1,0,0.2,0.1,0.2,0.2c0,0.1,0.1,0.1,0.1,0.2v1.5c0.3-0.4,0.6-0.8,0.9-1.1
				c0.3-0.3,0.5-0.5,0.8-0.7c0.2-0.2,0.5-0.3,0.7-0.4c0.2-0.1,0.5-0.1,0.7-0.1c0.1,0,0.2,0,0.4,0c0.1,0,0.3,0,0.4,0.1
				c0.1,0,0.3,0.1,0.4,0.1c0.1,0,0.2,0.1,0.2,0.1c0,0,0.1,0.1,0.1,0.1c0,0.1,0,0.1,0.1,0.2c0,0.1,0,0.2,0,0.4
				C75.3,139.6,75.3,139.8,75.3,140.2z"/>
			<path class="st6" d="M88.6,150.9c0,0.1,0,0.2-0.1,0.2c0,0.1-0.1,0.1-0.2,0.2c-0.1,0-0.3,0.1-0.4,0.1c-0.2,0-0.4,0-0.7,0
				c-0.3,0-0.5,0-0.7,0c-0.2,0-0.3-0.1-0.4-0.1c-0.1,0-0.2-0.1-0.2-0.2c0-0.1-0.1-0.1-0.1-0.2v-1.4c-0.7,0.7-1.3,1.2-2,1.6
				c-0.7,0.4-1.4,0.5-2.1,0.5c-0.8,0-1.5-0.1-2.1-0.4c-0.6-0.3-1-0.6-1.3-1.1c-0.3-0.5-0.6-1-0.7-1.6c-0.1-0.6-0.2-1.4-0.2-2.3v-7.2
				c0-0.1,0-0.2,0.1-0.2c0-0.1,0.1-0.1,0.3-0.2c0.1,0,0.3-0.1,0.5-0.1c0.2,0,0.5,0,0.8,0c0.3,0,0.6,0,0.8,0c0.2,0,0.4,0.1,0.5,0.1
				c0.1,0,0.2,0.1,0.3,0.2c0.1,0.1,0.1,0.1,0.1,0.2v6.7c0,0.6,0,1.1,0.1,1.4c0.1,0.3,0.2,0.6,0.4,0.8c0.2,0.2,0.4,0.4,0.6,0.5
				c0.3,0.1,0.5,0.2,0.9,0.2c0.4,0,0.9-0.2,1.3-0.5c0.4-0.3,0.9-0.8,1.4-1.4v-7.9c0-0.1,0-0.2,0.1-0.2c0-0.1,0.1-0.1,0.3-0.2
				c0.1,0,0.3-0.1,0.5-0.1c0.2,0,0.5,0,0.8,0c0.3,0,0.6,0,0.8,0c0.2,0,0.4,0.1,0.5,0.1c0.1,0,0.2,0.1,0.3,0.2
				c0.1,0.1,0.1,0.1,0.1,0.2V150.9z"/>
			<path class="st6" d="M100.2,147.6c0,0.7-0.1,1.3-0.4,1.8c-0.3,0.5-0.6,0.9-1.1,1.3c-0.5,0.3-1,0.6-1.6,0.8
				c-0.6,0.2-1.3,0.3-2,0.3c-0.4,0-0.9,0-1.3-0.1c-0.4-0.1-0.8-0.1-1.1-0.3c-0.3-0.1-0.6-0.2-0.8-0.3c-0.2-0.1-0.4-0.2-0.5-0.3
				c-0.1-0.1-0.2-0.2-0.2-0.4c-0.1-0.2-0.1-0.5-0.1-0.9c0-0.3,0-0.5,0-0.6c0-0.2,0-0.3,0.1-0.4c0-0.1,0.1-0.2,0.1-0.2
				c0.1,0,0.1,0,0.2,0c0.1,0,0.2,0.1,0.4,0.2c0.2,0.1,0.4,0.2,0.7,0.4c0.3,0.1,0.6,0.3,1,0.4c0.4,0.1,0.8,0.2,1.3,0.2
				c0.3,0,0.6,0,0.8-0.1s0.4-0.2,0.6-0.3c0.2-0.1,0.3-0.3,0.4-0.4c0.1-0.2,0.1-0.4,0.1-0.6c0-0.3-0.1-0.5-0.2-0.7
				c-0.2-0.2-0.4-0.4-0.7-0.5s-0.6-0.3-0.9-0.4c-0.3-0.1-0.7-0.3-1-0.4c-0.4-0.2-0.7-0.3-1-0.5s-0.6-0.4-0.9-0.7
				c-0.3-0.3-0.5-0.6-0.7-1c-0.2-0.4-0.2-0.9-0.2-1.4c0-0.6,0.1-1.1,0.3-1.6c0.2-0.5,0.5-0.9,1-1.2c0.4-0.3,0.9-0.6,1.5-0.8
				c0.6-0.2,1.3-0.3,2-0.3c0.4,0,0.7,0,1.1,0.1c0.3,0.1,0.7,0.1,0.9,0.2c0.3,0.1,0.5,0.2,0.7,0.3c0.2,0.1,0.3,0.2,0.4,0.2
				c0.1,0.1,0.1,0.1,0.2,0.2s0.1,0.1,0.1,0.2c0,0.1,0,0.2,0,0.3c0,0.1,0,0.3,0,0.5c0,0.2,0,0.4,0,0.6c0,0.2,0,0.3-0.1,0.4
				c0,0.1-0.1,0.1-0.1,0.2c-0.1,0-0.1,0-0.2,0c-0.1,0-0.2,0-0.4-0.1c-0.2-0.1-0.4-0.2-0.6-0.3c-0.3-0.1-0.5-0.2-0.9-0.3
				c-0.3-0.1-0.7-0.1-1.1-0.1c-0.3,0-0.6,0-0.8,0.1c-0.2,0.1-0.4,0.2-0.5,0.3c-0.1,0.1-0.2,0.3-0.3,0.4c-0.1,0.2-0.1,0.3-0.1,0.5
				c0,0.3,0.1,0.5,0.3,0.7c0.2,0.2,0.4,0.3,0.7,0.5c0.3,0.1,0.6,0.3,0.9,0.4c0.3,0.1,0.7,0.3,1.1,0.4c0.4,0.1,0.7,0.3,1.1,0.5
				c0.3,0.2,0.7,0.4,0.9,0.7c0.3,0.3,0.5,0.6,0.7,1C100.2,146.6,100.2,147,100.2,147.6z"/>
			<path class="st6" d="M112.8,150.9c0,0.1,0,0.2-0.1,0.3c-0.1,0.1-0.2,0.1-0.4,0.2c-0.2,0-0.5,0-0.8,0c-0.4,0-0.7,0-0.9,0
				c-0.2,0-0.3-0.1-0.4-0.2c-0.1-0.1-0.1-0.2-0.1-0.3V150c-0.5,0.5-1,0.9-1.7,1.2c-0.6,0.3-1.3,0.4-2.1,0.4c-0.6,0-1.2-0.1-1.7-0.2
				c-0.5-0.2-1-0.4-1.4-0.7c-0.4-0.3-0.7-0.7-0.9-1.2c-0.2-0.5-0.3-1-0.3-1.7c0-0.7,0.1-1.3,0.4-1.8c0.3-0.5,0.7-0.9,1.2-1.3
				c0.5-0.3,1.2-0.6,2-0.7c0.8-0.2,1.7-0.2,2.8-0.2h1.2v-0.7c0-0.4,0-0.7-0.1-1c-0.1-0.3-0.2-0.5-0.4-0.7c-0.2-0.2-0.4-0.3-0.7-0.4
				c-0.3-0.1-0.6-0.1-1.1-0.1c-0.6,0-1.1,0.1-1.5,0.2c-0.4,0.1-0.8,0.3-1.2,0.4c-0.3,0.2-0.6,0.3-0.8,0.4c-0.2,0.1-0.4,0.2-0.6,0.2
				c-0.1,0-0.2,0-0.3-0.1c-0.1-0.1-0.1-0.1-0.2-0.3c0-0.1-0.1-0.3-0.1-0.4c0-0.2,0-0.4,0-0.6c0-0.3,0-0.5,0.1-0.7
				c0-0.2,0.1-0.3,0.3-0.4c0.1-0.1,0.3-0.3,0.7-0.4c0.3-0.2,0.7-0.3,1.1-0.4c0.4-0.1,0.9-0.2,1.4-0.3c0.5-0.1,1-0.1,1.5-0.1
				c0.9,0,1.7,0.1,2.4,0.3c0.7,0.2,1.2,0.5,1.6,0.8c0.4,0.4,0.7,0.9,0.9,1.5c0.2,0.6,0.3,1.3,0.3,2.1V150.9z M109.6,145.9h-1.3
				c-0.5,0-1,0-1.4,0.1c-0.4,0.1-0.7,0.2-0.9,0.4c-0.2,0.2-0.4,0.4-0.5,0.6c-0.1,0.2-0.2,0.5-0.2,0.8c0,0.5,0.2,0.9,0.5,1.2
				c0.3,0.3,0.7,0.4,1.3,0.4c0.5,0,0.9-0.1,1.3-0.4c0.4-0.2,0.8-0.6,1.2-1V145.9z"/>
			<path class="st6" d="M127.4,150.9c0,0.1,0,0.2-0.1,0.2c0,0.1-0.1,0.1-0.2,0.2c-0.1,0-0.2,0.1-0.4,0.1c-0.2,0-0.4,0-0.7,0
				c-0.3,0-0.5,0-0.7,0c-0.2,0-0.3,0-0.4-0.1c-0.1,0-0.2-0.1-0.2-0.2c0-0.1-0.1-0.1-0.1-0.2v-1.3c-0.6,0.7-1.2,1.2-1.9,1.5
				c-0.7,0.4-1.4,0.5-2.2,0.5c-0.9,0-1.7-0.2-2.3-0.5c-0.6-0.3-1.1-0.8-1.5-1.4c-0.4-0.6-0.7-1.3-0.9-2.1s-0.3-1.6-0.3-2.5
				c0-1.1,0.1-2,0.3-2.8c0.2-0.8,0.6-1.6,1-2.1s1-1,1.6-1.4c0.6-0.3,1.4-0.5,2.2-0.5c0.7,0,1.3,0.1,1.8,0.4c0.5,0.3,1.1,0.7,1.6,1.2
				v-6.4c0-0.1,0-0.2,0.1-0.2c0-0.1,0.1-0.1,0.3-0.2c0.1,0,0.3-0.1,0.5-0.1c0.2,0,0.5,0,0.8,0c0.3,0,0.6,0,0.8,0
				c0.2,0,0.4,0.1,0.5,0.1c0.1,0,0.2,0.1,0.3,0.2c0.1,0.1,0.1,0.2,0.1,0.2V150.9z M124.1,143c-0.5-0.6-0.9-1.1-1.4-1.4
				c-0.4-0.3-0.9-0.5-1.4-0.5c-0.4,0-0.8,0.1-1.1,0.3c-0.3,0.2-0.6,0.5-0.8,0.9c-0.2,0.4-0.3,0.8-0.4,1.2c-0.1,0.4-0.1,0.9-0.1,1.4
				c0,0.5,0,1,0.1,1.4c0.1,0.5,0.2,0.9,0.4,1.3c0.2,0.4,0.4,0.7,0.7,0.9c0.3,0.2,0.7,0.3,1.1,0.3c0.2,0,0.5,0,0.7-0.1
				c0.2-0.1,0.4-0.2,0.7-0.3c0.2-0.1,0.5-0.3,0.7-0.6c0.2-0.2,0.5-0.5,0.8-0.9V143z"/>
			<path class="st6" d="M141.7,144.6c0,0.4-0.1,0.7-0.3,0.9c-0.2,0.2-0.4,0.3-0.7,0.3h-7.2c0,0.5,0.1,1,0.2,1.4
				c0.1,0.4,0.3,0.8,0.6,1c0.3,0.3,0.6,0.5,1,0.7c0.4,0.2,0.9,0.2,1.5,0.2c0.6,0,1.1,0,1.5-0.1c0.4-0.1,0.8-0.2,1.1-0.3
				c0.3-0.1,0.6-0.2,0.8-0.3c0.2-0.1,0.4-0.1,0.5-0.1c0.1,0,0.1,0,0.2,0c0.1,0,0.1,0.1,0.1,0.2c0,0.1,0.1,0.2,0.1,0.3
				c0,0.1,0,0.3,0,0.6c0,0.2,0,0.4,0,0.5c0,0.1,0,0.3,0,0.4c0,0.1,0,0.2-0.1,0.2c0,0.1-0.1,0.1-0.1,0.2c-0.1,0.1-0.2,0.1-0.5,0.3
				c-0.3,0.1-0.6,0.2-1,0.3c-0.4,0.1-0.9,0.2-1.4,0.3c-0.5,0.1-1.1,0.1-1.6,0.1c-1.1,0-2-0.1-2.8-0.4c-0.8-0.3-1.5-0.7-2-1.2
				c-0.5-0.5-0.9-1.2-1.2-2c-0.3-0.8-0.4-1.8-0.4-2.9c0-1.1,0.1-2,0.4-2.8c0.3-0.8,0.7-1.6,1.2-2.1c0.5-0.6,1.2-1,1.9-1.3
				c0.7-0.3,1.6-0.5,2.5-0.5c1,0,1.8,0.1,2.5,0.4c0.7,0.3,1.3,0.7,1.7,1.2c0.5,0.5,0.8,1.1,1,1.8c0.2,0.7,0.3,1.5,0.3,2.3V144.6z
				 M138.4,143.7c0-0.9-0.2-1.7-0.6-2.2c-0.4-0.5-1-0.8-1.9-0.8c-0.4,0-0.8,0.1-1.1,0.2c-0.3,0.2-0.6,0.4-0.8,0.6
				c-0.2,0.3-0.4,0.6-0.5,1c-0.1,0.4-0.2,0.8-0.2,1.2H138.4z"/>
			<path class="st6" d="M152,140.2c0,0.3,0,0.6,0,0.8c0,0.2,0,0.4-0.1,0.5c0,0.1-0.1,0.2-0.1,0.2c-0.1,0-0.1,0.1-0.2,0.1
				c-0.1,0-0.2,0-0.2,0c-0.1,0-0.2-0.1-0.3-0.1c-0.1,0-0.2-0.1-0.4-0.1c-0.1,0-0.3,0-0.4,0c-0.2,0-0.4,0-0.6,0.1
				c-0.2,0.1-0.4,0.2-0.6,0.4c-0.2,0.2-0.4,0.4-0.6,0.6c-0.2,0.3-0.4,0.6-0.7,1v7.4c0,0.1,0,0.2-0.1,0.2c-0.1,0.1-0.1,0.1-0.3,0.2
				c-0.1,0-0.3,0.1-0.5,0.1c-0.2,0-0.5,0-0.8,0s-0.6,0-0.8,0c-0.2,0-0.4-0.1-0.5-0.1c-0.1,0-0.2-0.1-0.3-0.2
				c-0.1-0.1-0.1-0.1-0.1-0.2v-11.8c0-0.1,0-0.2,0.1-0.2c0-0.1,0.1-0.1,0.2-0.2c0.1,0,0.3-0.1,0.4-0.1c0.2,0,0.4,0,0.7,0
				c0.3,0,0.5,0,0.7,0c0.2,0,0.3,0.1,0.4,0.1c0.1,0,0.2,0.1,0.2,0.2c0,0.1,0.1,0.1,0.1,0.2v1.5c0.3-0.4,0.6-0.8,0.9-1.1
				c0.3-0.3,0.5-0.5,0.8-0.7c0.2-0.2,0.5-0.3,0.7-0.4c0.2-0.1,0.5-0.1,0.7-0.1c0.1,0,0.2,0,0.4,0c0.1,0,0.3,0,0.4,0.1
				c0.1,0,0.3,0.1,0.4,0.1c0.1,0,0.2,0.1,0.2,0.1c0,0,0.1,0.1,0.1,0.1c0,0.1,0,0.1,0.1,0.2c0,0.1,0,0.2,0,0.4
				C152,139.6,152,139.8,152,140.2z"/>
		</g>
		<g>
			<path class="st6" d="M91.2,175c0,0.2,0,0.4,0,0.6c0,0.2,0,0.3-0.1,0.4c0,0.1-0.1,0.2-0.1,0.3c0,0.1-0.1,0.2-0.2,0.3
				c-0.1,0.1-0.3,0.2-0.6,0.4c-0.3,0.2-0.6,0.3-1,0.5c-0.4,0.1-0.9,0.3-1.4,0.4c-0.5,0.1-1.1,0.1-1.7,0.1c-1.2,0-2.2-0.2-3.2-0.5
				c-0.9-0.4-1.8-0.9-2.4-1.6c-0.7-0.7-1.2-1.6-1.5-2.7c-0.4-1.1-0.5-2.3-0.5-3.8c0-1.5,0.2-2.8,0.6-3.9c0.4-1.1,0.9-2.1,1.6-2.9
				c0.7-0.8,1.5-1.4,2.5-1.8c1-0.4,2.1-0.6,3.2-0.6c0.5,0,0.9,0,1.4,0.1c0.4,0.1,0.9,0.2,1.2,0.3s0.7,0.3,1,0.4
				c0.3,0.2,0.5,0.3,0.6,0.4c0.1,0.1,0.2,0.2,0.2,0.3c0,0.1,0.1,0.2,0.1,0.3c0,0.1,0,0.3,0.1,0.4c0,0.2,0,0.4,0,0.6
				c0,0.3,0,0.5,0,0.7c0,0.2,0,0.3-0.1,0.5c0,0.1-0.1,0.2-0.2,0.3c-0.1,0.1-0.1,0.1-0.2,0.1c-0.1,0-0.3-0.1-0.5-0.2
				c-0.2-0.2-0.5-0.3-0.8-0.5c-0.3-0.2-0.7-0.4-1.2-0.5c-0.4-0.2-1-0.2-1.6-0.2c-0.7,0-1.3,0.1-1.8,0.4c-0.5,0.3-1,0.7-1.4,1.2
				c-0.4,0.5-0.7,1.1-0.9,1.9c-0.2,0.7-0.3,1.6-0.3,2.5c0,1,0.1,1.9,0.3,2.6s0.5,1.3,0.9,1.8c0.4,0.5,0.8,0.8,1.4,1.1
				c0.5,0.2,1.2,0.4,1.8,0.4c0.6,0,1.2-0.1,1.6-0.2c0.5-0.1,0.8-0.3,1.2-0.5c0.3-0.2,0.6-0.3,0.8-0.5s0.4-0.2,0.5-0.2
				c0.1,0,0.2,0,0.2,0.1c0.1,0,0.1,0.1,0.1,0.2c0,0.1,0.1,0.3,0.1,0.4C91.2,174.4,91.2,174.7,91.2,175z"/>
			<path class="st6" d="M105.5,171.1c0,1-0.1,1.9-0.4,2.8c-0.3,0.8-0.7,1.5-1.2,2.1c-0.5,0.6-1.2,1.1-2,1.4
				c-0.8,0.3-1.8,0.5-2.9,0.5c-1.1,0-2-0.1-2.7-0.4c-0.8-0.3-1.4-0.7-1.9-1.3s-0.9-1.2-1.1-2.1c-0.2-0.8-0.4-1.7-0.4-2.8
				c0-1,0.1-1.9,0.4-2.8c0.3-0.8,0.7-1.6,1.2-2.1c0.5-0.6,1.2-1.1,2-1.4c0.8-0.3,1.8-0.5,2.8-0.5c1.1,0,2,0.1,2.8,0.4
				c0.8,0.3,1.4,0.7,1.9,1.3s0.9,1.2,1.1,2.1C105.4,169.1,105.5,170.1,105.5,171.1z M102.1,171.3c0-0.6,0-1.1-0.1-1.6
				c-0.1-0.5-0.2-0.9-0.5-1.3c-0.2-0.4-0.5-0.6-0.9-0.8c-0.4-0.2-0.8-0.3-1.4-0.3c-0.5,0-0.9,0.1-1.3,0.3c-0.4,0.2-0.7,0.4-0.9,0.8
				s-0.4,0.8-0.5,1.3c-0.1,0.5-0.2,1.1-0.2,1.7c0,0.6,0,1.1,0.1,1.6c0.1,0.5,0.3,0.9,0.5,1.3c0.2,0.4,0.5,0.6,0.9,0.8
				c0.4,0.2,0.8,0.3,1.4,0.3c0.5,0,0.9-0.1,1.3-0.3c0.4-0.2,0.7-0.4,0.9-0.8s0.4-0.8,0.5-1.3C102,172.5,102.1,171.9,102.1,171.3z"/>
			<path class="st6" d="M111.8,161.3c0,0.7-0.1,1.1-0.4,1.4c-0.3,0.3-0.8,0.4-1.5,0.4c-0.8,0-1.3-0.1-1.5-0.4
				c-0.3-0.2-0.4-0.7-0.4-1.3c0-0.7,0.1-1.1,0.4-1.4c0.3-0.3,0.8-0.4,1.5-0.4c0.7,0,1.2,0.1,1.5,0.4
				C111.6,160.2,111.8,160.7,111.8,161.3z M111.5,177.2c0,0.1,0,0.2-0.1,0.2c-0.1,0.1-0.1,0.1-0.3,0.2c-0.1,0-0.3,0.1-0.5,0.1
				c-0.2,0-0.5,0-0.8,0c-0.3,0-0.6,0-0.8,0c-0.2,0-0.4-0.1-0.5-0.1c-0.1,0-0.2-0.1-0.3-0.2c-0.1-0.1-0.1-0.1-0.1-0.2v-11.8
				c0-0.1,0-0.2,0.1-0.2c0.1-0.1,0.1-0.1,0.3-0.2c0.1,0,0.3-0.1,0.5-0.1c0.2,0,0.5,0,0.8,0c0.3,0,0.6,0,0.8,0c0.2,0,0.4,0.1,0.5,0.1
				c0.1,0,0.2,0.1,0.3,0.2c0.1,0.1,0.1,0.1,0.1,0.2V177.2z"/>
			<path class="st6" d="M126.1,177.2c0,0.1,0,0.2-0.1,0.2c-0.1,0.1-0.1,0.1-0.3,0.2c-0.1,0-0.3,0.1-0.5,0.1c-0.2,0-0.5,0-0.8,0
				c-0.3,0-0.6,0-0.8,0c-0.2,0-0.4-0.1-0.5-0.1c-0.1,0-0.2-0.1-0.3-0.2c-0.1-0.1-0.1-0.1-0.1-0.2v-6.8c0-0.6,0-1-0.1-1.4
				c-0.1-0.3-0.2-0.6-0.4-0.8c-0.2-0.2-0.4-0.4-0.6-0.5c-0.3-0.1-0.5-0.2-0.9-0.2c-0.4,0-0.9,0.2-1.3,0.5c-0.4,0.3-0.9,0.8-1.4,1.4
				v7.9c0,0.1,0,0.2-0.1,0.2c-0.1,0.1-0.1,0.1-0.3,0.2c-0.1,0-0.3,0.1-0.5,0.1c-0.2,0-0.5,0-0.8,0s-0.6,0-0.8,0
				c-0.2,0-0.4-0.1-0.5-0.1c-0.1,0-0.2-0.1-0.3-0.2c-0.1-0.1-0.1-0.1-0.1-0.2v-11.8c0-0.1,0-0.2,0.1-0.2s0.1-0.1,0.2-0.2
				c0.1,0,0.3-0.1,0.4-0.1c0.2,0,0.4,0,0.7,0c0.3,0,0.5,0,0.7,0c0.2,0,0.3,0.1,0.4,0.1c0.1,0,0.2,0.1,0.2,0.2c0,0.1,0.1,0.1,0.1,0.2
				v1.4c0.7-0.7,1.3-1.2,2-1.6c0.7-0.4,1.4-0.5,2.1-0.5c0.8,0,1.5,0.1,2,0.4c0.6,0.3,1,0.6,1.3,1.1s0.6,1,0.7,1.6
				c0.1,0.6,0.2,1.3,0.2,2.2V177.2z"/>
		</g>
	</g>
	<g>
		<path class="st6" d="M102.5,127.8c-29.4,0-53.2-23.9-53.2-53.2c0-29.4,23.9-53.2,53.2-53.2s53.2,23.9,53.2,53.2
			C155.8,103.9,131.9,127.8,102.5,127.8z M102.5,23.9c-27.9,0-50.6,22.7-50.6,50.6s22.7,50.6,50.6,50.6s50.6-22.7,50.6-50.6
			S130.4,23.9,102.5,23.9z"/>
		<circle class="st6" cx="102.5" cy="74.5" r="47.8"/>
		<g>
			<path class="st1" d="M107.2,105.7l-0.1,6.9c0,0.3,0,0.6,0.1,0.9c0.1,0.2,0.3,0.4,0.7,0.6c0.3,0.1,0.8,0.2,1.3,0.2
				c0.6,0,1.3,0,2.2-0.1c0.7-0.1,1.3-0.2,1.8-0.3c0.5-0.1,0.8-0.2,1.1-0.4c0.3-0.1,0.4-0.3,0.5-0.5c0.1-0.2,0.1-0.4,0.1-0.6
				l-0.1-9.7C115,102.7,110.5,105.2,107.2,105.7z"/>
			<path class="st1" d="M92.7,71.7c0.9,1.6,1.9,2.9,3.2,4c1.3,1.1,2.7,1.9,4.2,2.6c1.5,0.7,3.1,1.2,4.7,1.7c1.6,0.5,3.2,0.9,4.7,1.3
				c1.5,0.4,2.9,0.9,4.1,1.4c1.2,0.6,2.2,1.3,3,2.1c0.8,0.8,1.2,1.9,1.4,3.3c0.1,1,0,1.9-0.3,2.8c0.3-0.1,0.6-0.2,0.8-0.3
				c3.8-1.6,7.5-3.7,10.8-6.3c-0.3-1.7-0.8-3.2-1.4-4.4c-0.9-1.6-1.9-2.9-3.2-3.9c-1.3-1-2.7-1.9-4.3-2.5c-1.6-0.6-3.2-1.2-4.8-1.7
				c-1.6-0.5-3.2-0.9-4.7-1.3c-1.5-0.4-2.9-0.9-4.2-1.4c-1.2-0.5-2.3-1.2-3.1-2.1c-0.8-0.8-1.3-1.9-1.4-3.3c-0.1-0.9,0-1.7,0.3-2.4
				c0.2-0.7,0.7-1.4,1.3-2c0.6-0.6,1.4-1.1,2.5-1.4c1-0.4,2.3-0.6,3.8-0.8c1.6-0.1,3.1-0.1,4.5,0.1c1.4,0.2,2.6,0.5,3.7,0.9
				c1.1,0.3,2,0.7,2.7,1c0.7,0.3,1.3,0.4,1.7,0.4c0.2,0,0.4-0.1,0.5-0.2c0.1-0.1,0.2-0.3,0.3-0.6c0.1-0.3,0.1-0.8,0.1-1.3
				c0-0.6-0.1-1.3-0.1-2.2c-0.1-0.7-0.1-1.2-0.2-1.7c-0.1-0.5-0.2-0.9-0.3-1.3c-0.1-0.3-0.2-0.6-0.4-0.9c-0.2-0.2-0.4-0.5-0.6-0.7
				c-0.3-0.2-0.7-0.5-1.4-0.7c-0.7-0.2-1.4-0.5-2.2-0.7c-0.8-0.2-1.6-0.4-2.5-0.5c-0.9-0.1-1.8-0.2-2.6-0.2l0.1-8.2
				c0-0.3-0.1-0.6-0.2-0.8c-0.1-0.2-0.3-0.4-0.7-0.6c-0.3-0.1-0.8-0.2-1.4-0.2c-0.6,0-1.3,0-2.2,0.1c-0.7,0.1-1.3,0.2-1.8,0.3
				c-0.5,0.1-0.8,0.2-1.1,0.4c-0.3,0.2-0.4,0.3-0.5,0.5c-0.1,0.2-0.1,0.4-0.1,0.6l-0.1,8.7c-2.5,0.5-4.6,1.3-6.5,2.3
				s-3.4,2.2-4.7,3.6c-1.2,1.4-2.1,3.1-2.7,4.9c-0.6,1.8-0.7,3.8-0.5,5.9C91.3,68.1,91.8,70.1,92.7,71.7z"/>
			<path class="st1" d="M91.9,89C91.9,89,91.9,89,91.9,89l0.3,0l4.4-8.6c0,0-6.8,1.2-9.1,1.5c-2.2,0.3-7.5,0.4-7.5,0.4l9.7-5.1
				c0.5-1.6-0.4-5.4-0.4-5.4c-1.1-8.8-9.5-21-9.5-21s1.1,6.1,0.8,12.2c-0.9,14-2.9,18.5-3.8,19.2L66,81.3c0,2.3,2.8,6.4,2.8,6.4
				l1.4,0.1c-1.2,0.5-1.9,0.8-1.9,0.8c12.7-1.1,22.6,4.2,22.6,4.2c11.5,5.2,18,4.6,18,4.6c15.8-1,20.2-11,20.2-11
				C116.3,96.6,106.8,94.6,91.9,89z"/>
			<path class="st1" d="M114.1,99.4c0,0-11.9,4.1-22.2-0.8c-7.6-3.6-15-5.4-20.4-3.6c0,0,7,0.2,17.3,5.7
				C99,106.2,111.5,102.7,114.1,99.4z"/>
		</g>
	</g>
</g>
</svg>
