<?xml version="1.0" encoding="utf-8"?>
<!-- Generator: Adobe Illustrator 27.1.0, SVG Export Plug-In . SVG Version: 6.00 Build 0)  -->
<svg version="1.1" id="Layer_1" xmlns="http://www.w3.org/2000/svg" xmlns:xlink="http://www.w3.org/1999/xlink" x="0px" y="0px"
	 viewBox="0 0 200 200" style="enable-background:new 0 0 200 200;" xml:space="preserve">
<style type="text/css">
	.st0{fill:#2B388F;}
	.st1{fill:#FFFFFF;}
	.st2{fill:#913F88;}
	.st3{fill:#EC1C24;}
	.st4{fill:#96C93D;}
	.st5{fill:#8BC53F;}
	.st6{fill:#00A551;}
	.st7{fill:#F6921E;}
	.st8{fill:#DF1F26;}
	.st9{fill:#2F2F80;}
	.st10{fill:#9DC33B;}
	.st11{fill:#009448;}
</style>
<g>
	<g>
		<g>
			<path class="st0" d="M98.7,149.9c0.1,0.3,0.2,0.6,0.2,0.8c0,0.2,0,0.3-0.1,0.4c-0.1,0.1-0.3,0.2-0.5,0.2c-0.3,0-0.6,0-1.1,0
				c-0.5,0-0.8,0-1.1,0c-0.3,0-0.5,0-0.6-0.1c-0.1,0-0.2-0.1-0.3-0.2c-0.1-0.1-0.1-0.2-0.1-0.3l-1.2-3.6h-6.7l-1.1,3.5
				c0,0.1-0.1,0.2-0.1,0.3c-0.1,0.1-0.2,0.2-0.3,0.2c-0.1,0.1-0.3,0.1-0.6,0.1c-0.2,0-0.6,0-1,0c-0.4,0-0.8,0-1,0
				c-0.2,0-0.4-0.1-0.5-0.2c-0.1-0.1-0.1-0.3-0.1-0.5c0-0.2,0.1-0.5,0.2-0.8l5.5-15.9c0.1-0.2,0.1-0.3,0.2-0.4
				c0.1-0.1,0.2-0.2,0.4-0.2c0.2-0.1,0.4-0.1,0.7-0.1c0.3,0,0.7,0,1.1,0c0.5,0,1,0,1.3,0c0.3,0,0.6,0,0.8,0.1
				c0.2,0.1,0.3,0.1,0.4,0.2c0.1,0.1,0.1,0.2,0.2,0.4L98.7,149.9z M90.5,136.7L90.5,136.7l-2.6,7.6H93L90.5,136.7z"/>
			<path class="st0" d="M104.2,134.2c0,0.7-0.1,1.2-0.4,1.5c-0.3,0.3-0.8,0.4-1.6,0.4c-0.8,0-1.3-0.1-1.6-0.4s-0.4-0.7-0.4-1.4
				c0-0.7,0.1-1.2,0.4-1.5c0.3-0.3,0.8-0.4,1.6-0.4c0.8,0,1.3,0.1,1.6,0.4C104.1,133.1,104.2,133.6,104.2,134.2z M103.9,150.8
				c0,0.1,0,0.2-0.1,0.2c-0.1,0.1-0.2,0.1-0.3,0.2s-0.3,0.1-0.5,0.1c-0.2,0-0.5,0-0.8,0c-0.3,0-0.6,0-0.8,0c-0.2,0-0.4-0.1-0.5-0.1
				s-0.2-0.1-0.3-0.2c-0.1-0.1-0.1-0.1-0.1-0.2v-12.3c0-0.1,0-0.2,0.1-0.2c0.1-0.1,0.2-0.1,0.3-0.2c0.1-0.1,0.3-0.1,0.5-0.1
				c0.2,0,0.5,0,0.8,0c0.3,0,0.6,0,0.8,0s0.4,0.1,0.5,0.1c0.1,0.1,0.2,0.1,0.3,0.2c0.1,0.1,0.1,0.2,0.1,0.2V150.8z"/>
			<path class="st0" d="M118.6,150.8c0,0.1,0,0.2-0.1,0.3c0,0.1-0.1,0.1-0.2,0.2c-0.1,0-0.3,0.1-0.5,0.1c-0.2,0-0.4,0-0.7,0
				c-0.3,0-0.5,0-0.7,0s-0.3-0.1-0.5-0.1c-0.1,0-0.2-0.1-0.2-0.2c-0.1-0.1-0.1-0.2-0.1-0.3v-1.4c-0.6,0.7-1.3,1.2-2,1.6
				c-0.7,0.4-1.5,0.6-2.3,0.6c-0.9,0-1.7-0.2-2.4-0.5c-0.7-0.4-1.2-0.9-1.6-1.5c-0.4-0.6-0.7-1.3-0.9-2.2c-0.2-0.8-0.3-1.7-0.3-2.6
				c0-1.1,0.1-2.1,0.4-3c0.2-0.9,0.6-1.6,1-2.2c0.5-0.6,1-1.1,1.7-1.4c0.7-0.3,1.5-0.5,2.3-0.5c0.7,0,1.3,0.1,1.9,0.4
				c0.6,0.3,1.1,0.7,1.7,1.2v-6.7c0-0.1,0-0.2,0.1-0.2s0.1-0.1,0.3-0.2c0.1-0.1,0.3-0.1,0.5-0.1c0.2,0,0.5,0,0.8,0s0.6,0,0.8,0
				s0.4,0.1,0.5,0.1c0.1,0.1,0.2,0.1,0.3,0.2s0.1,0.2,0.1,0.2V150.8z M115.1,142.5c-0.5-0.6-1-1.1-1.4-1.4c-0.5-0.3-0.9-0.5-1.4-0.5
				c-0.5,0-0.8,0.1-1.2,0.3c-0.3,0.2-0.6,0.5-0.8,0.9c-0.2,0.4-0.3,0.8-0.4,1.3c-0.1,0.5-0.1,0.9-0.1,1.4c0,0.5,0,1,0.1,1.5
				c0.1,0.5,0.2,0.9,0.4,1.3c0.2,0.4,0.4,0.7,0.8,0.9c0.3,0.2,0.7,0.3,1.2,0.3c0.2,0,0.5,0,0.7-0.1c0.2-0.1,0.5-0.2,0.7-0.3
				c0.2-0.2,0.5-0.4,0.7-0.6c0.2-0.3,0.5-0.6,0.8-0.9V142.5z"/>
		</g>
		<g>
			<g>
				<path class="st0" d="M64.1,174.8c0,0.2,0,0.4,0,0.6c0,0.2,0,0.3-0.1,0.4c0,0.1-0.1,0.2-0.1,0.3c0,0.1-0.1,0.2-0.2,0.3
					c-0.1,0.1-0.3,0.2-0.6,0.4c-0.3,0.2-0.6,0.3-1,0.5c-0.4,0.1-0.9,0.3-1.4,0.4c-0.5,0.1-1.1,0.1-1.7,0.1c-1.2,0-2.3-0.2-3.2-0.5
					c-1-0.4-1.8-0.9-2.4-1.6c-0.7-0.7-1.2-1.6-1.5-2.7s-0.5-2.4-0.5-3.8c0-1.5,0.2-2.8,0.6-3.9c0.4-1.1,0.9-2.1,1.6-2.9
					c0.7-0.8,1.6-1.4,2.5-1.8c1-0.4,2.1-0.6,3.3-0.6c0.5,0,0.9,0,1.4,0.1c0.4,0.1,0.9,0.2,1.2,0.3c0.4,0.1,0.7,0.3,1,0.4
					c0.3,0.2,0.5,0.3,0.6,0.4c0.1,0.1,0.2,0.2,0.2,0.3c0,0.1,0.1,0.2,0.1,0.3c0,0.1,0,0.3,0.1,0.4c0,0.2,0,0.4,0,0.6
					c0,0.3,0,0.5,0,0.7c0,0.2,0,0.3-0.1,0.5c0,0.1-0.1,0.2-0.2,0.3s-0.1,0.1-0.2,0.1c-0.1,0-0.3-0.1-0.5-0.2
					c-0.2-0.2-0.5-0.3-0.8-0.5c-0.3-0.2-0.7-0.4-1.2-0.5c-0.5-0.2-1-0.2-1.6-0.2c-0.7,0-1.3,0.1-1.8,0.4c-0.5,0.3-1,0.7-1.4,1.2
					c-0.4,0.5-0.7,1.2-0.9,1.9c-0.2,0.7-0.3,1.6-0.3,2.5c0,1,0.1,1.9,0.3,2.6c0.2,0.7,0.5,1.4,0.9,1.8c0.4,0.5,0.9,0.8,1.4,1.1
					c0.5,0.2,1.2,0.4,1.9,0.4c0.6,0,1.2-0.1,1.6-0.2c0.5-0.1,0.8-0.3,1.2-0.5c0.3-0.2,0.6-0.3,0.8-0.5c0.2-0.1,0.4-0.2,0.5-0.2
					c0.1,0,0.2,0,0.2,0.1c0.1,0,0.1,0.1,0.1,0.2c0,0.1,0.1,0.3,0.1,0.4C64.1,174.2,64.1,174.5,64.1,174.8z"/>
				<path class="st0" d="M73.8,166.1c0,0.3,0,0.6,0,0.8c0,0.2,0,0.4-0.1,0.5c0,0.1-0.1,0.2-0.1,0.2c-0.1,0-0.1,0.1-0.2,0.1
					c-0.1,0-0.2,0-0.2,0c-0.1,0-0.2-0.1-0.3-0.1c-0.1,0-0.2-0.1-0.4-0.1c-0.1,0-0.3,0-0.4,0c-0.2,0-0.4,0-0.6,0.1
					c-0.2,0.1-0.4,0.2-0.6,0.4c-0.2,0.2-0.4,0.4-0.6,0.6c-0.2,0.3-0.5,0.6-0.7,1v7.5c0,0.1,0,0.2-0.1,0.2c-0.1,0.1-0.1,0.1-0.3,0.2
					c-0.1,0-0.3,0.1-0.5,0.1c-0.2,0-0.5,0-0.8,0c-0.3,0-0.6,0-0.8,0c-0.2,0-0.4-0.1-0.5-0.1c-0.1,0-0.2-0.1-0.3-0.2
					c-0.1-0.1-0.1-0.1-0.1-0.2v-12c0-0.1,0-0.2,0.1-0.2c0-0.1,0.1-0.1,0.2-0.2c0.1,0,0.3-0.1,0.4-0.1c0.2,0,0.4,0,0.7,0
					c0.3,0,0.5,0,0.7,0c0.2,0,0.3,0.1,0.4,0.1c0.1,0,0.2,0.1,0.2,0.2c0,0.1,0.1,0.1,0.1,0.2v1.5c0.3-0.4,0.6-0.8,0.9-1.1
					c0.3-0.3,0.5-0.5,0.8-0.7c0.2-0.2,0.5-0.3,0.8-0.4c0.2-0.1,0.5-0.1,0.8-0.1c0.1,0,0.2,0,0.4,0c0.1,0,0.3,0,0.4,0.1
					c0.1,0,0.3,0.1,0.4,0.1c0.1,0,0.2,0.1,0.2,0.1c0,0,0.1,0.1,0.1,0.1c0,0.1,0,0.1,0.1,0.2c0,0.1,0,0.2,0,0.4
					C73.8,165.5,73.8,165.8,73.8,166.1z"/>
				<path class="st0" d="M87,177c0,0.1,0,0.2-0.1,0.2c0,0.1-0.1,0.1-0.2,0.2c-0.1,0-0.3,0.1-0.4,0.1c-0.2,0-0.4,0-0.7,0
					c-0.3,0-0.5,0-0.7,0c-0.2,0-0.3-0.1-0.4-0.1s-0.2-0.1-0.2-0.2c0-0.1-0.1-0.1-0.1-0.2v-1.4c-0.7,0.7-1.3,1.3-2,1.6
					c-0.7,0.4-1.4,0.5-2.1,0.5c-0.8,0-1.5-0.1-2.1-0.4c-0.6-0.3-1-0.6-1.4-1.1s-0.6-1-0.7-1.6c-0.1-0.6-0.2-1.4-0.2-2.3V165
					c0-0.1,0-0.2,0.1-0.2c0-0.1,0.1-0.1,0.3-0.2c0.1,0,0.3-0.1,0.5-0.1c0.2,0,0.5,0,0.8,0c0.3,0,0.6,0,0.8,0c0.2,0,0.4,0.1,0.5,0.1
					c0.1,0,0.2,0.1,0.3,0.2c0.1,0.1,0.1,0.1,0.1,0.2v6.8c0,0.6,0,1.1,0.1,1.4c0.1,0.3,0.2,0.6,0.4,0.9c0.2,0.2,0.4,0.4,0.6,0.5
					c0.3,0.1,0.6,0.2,0.9,0.2c0.4,0,0.9-0.2,1.3-0.5s0.9-0.8,1.4-1.4V165c0-0.1,0-0.2,0.1-0.2c0-0.1,0.1-0.1,0.3-0.2
					c0.1,0,0.3-0.1,0.5-0.1c0.2,0,0.5,0,0.8,0c0.3,0,0.6,0,0.8,0c0.2,0,0.4,0.1,0.5,0.1c0.1,0,0.2,0.1,0.3,0.2
					c0.1,0.1,0.1,0.1,0.1,0.2V177z"/>
				<path class="st0" d="M98.5,173.6c0,0.7-0.1,1.3-0.4,1.8c-0.3,0.5-0.6,1-1.1,1.3c-0.5,0.3-1,0.6-1.6,0.8
					c-0.6,0.2-1.3,0.3-2.1,0.3c-0.4,0-0.9,0-1.3-0.1c-0.4-0.1-0.8-0.2-1.1-0.3c-0.3-0.1-0.6-0.2-0.8-0.3c-0.2-0.1-0.4-0.2-0.5-0.3
					c-0.1-0.1-0.2-0.2-0.2-0.4c-0.1-0.2-0.1-0.5-0.1-0.9c0-0.3,0-0.5,0-0.6c0-0.2,0-0.3,0.1-0.4c0-0.1,0.1-0.2,0.1-0.2s0.1,0,0.2,0
					c0.1,0,0.2,0.1,0.4,0.2c0.2,0.1,0.4,0.2,0.7,0.4c0.3,0.1,0.6,0.3,1,0.4c0.4,0.1,0.8,0.2,1.3,0.2c0.3,0,0.6,0,0.8-0.1
					c0.2-0.1,0.4-0.2,0.6-0.3c0.2-0.1,0.3-0.3,0.4-0.4c0.1-0.2,0.1-0.4,0.1-0.6c0-0.3-0.1-0.5-0.2-0.7c-0.2-0.2-0.4-0.4-0.7-0.5
					c-0.3-0.1-0.6-0.3-0.9-0.4c-0.3-0.1-0.7-0.3-1.1-0.4c-0.4-0.2-0.7-0.3-1.1-0.5c-0.3-0.2-0.7-0.4-0.9-0.7c-0.3-0.3-0.5-0.6-0.7-1
					c-0.2-0.4-0.2-0.9-0.2-1.4c0-0.6,0.1-1.1,0.3-1.6c0.2-0.5,0.5-0.9,1-1.2c0.4-0.3,0.9-0.6,1.5-0.8c0.6-0.2,1.3-0.3,2-0.3
					c0.4,0,0.7,0,1.1,0.1c0.4,0.1,0.7,0.1,1,0.2c0.3,0.1,0.5,0.2,0.7,0.3c0.2,0.1,0.3,0.2,0.4,0.2c0.1,0.1,0.1,0.1,0.2,0.2
					c0,0.1,0.1,0.1,0.1,0.2c0,0.1,0,0.2,0,0.3c0,0.1,0,0.3,0,0.5c0,0.2,0,0.4,0,0.6c0,0.2,0,0.3-0.1,0.4s-0.1,0.2-0.1,0.2
					c-0.1,0-0.1,0-0.2,0c-0.1,0-0.2,0-0.4-0.1c-0.2-0.1-0.4-0.2-0.6-0.3c-0.3-0.1-0.5-0.2-0.9-0.3c-0.3-0.1-0.7-0.1-1.1-0.1
					c-0.3,0-0.6,0-0.8,0.1c-0.2,0.1-0.4,0.2-0.6,0.3c-0.1,0.1-0.2,0.3-0.3,0.4c-0.1,0.2-0.1,0.3-0.1,0.5c0,0.3,0.1,0.5,0.3,0.7
					c0.2,0.2,0.4,0.4,0.7,0.5c0.3,0.1,0.6,0.3,0.9,0.4c0.4,0.1,0.7,0.3,1.1,0.4c0.4,0.1,0.7,0.3,1.1,0.5c0.4,0.2,0.7,0.4,0.9,0.7
					c0.3,0.3,0.5,0.6,0.7,1C98.4,172.6,98.5,173,98.5,173.6z"/>
				<path class="st0" d="M111,177c0,0.1,0,0.2-0.1,0.3c-0.1,0.1-0.2,0.1-0.4,0.2c-0.2,0-0.5,0-0.9,0c-0.4,0-0.7,0-0.9,0
					c-0.2,0-0.3-0.1-0.4-0.2c-0.1-0.1-0.1-0.2-0.1-0.3v-1c-0.5,0.5-1.1,0.9-1.7,1.2c-0.6,0.3-1.3,0.4-2.1,0.4
					c-0.6,0-1.2-0.1-1.7-0.2c-0.5-0.2-1-0.4-1.4-0.7c-0.4-0.3-0.7-0.7-0.9-1.2c-0.2-0.5-0.3-1-0.3-1.7c0-0.7,0.1-1.3,0.4-1.8
					c0.3-0.5,0.7-0.9,1.2-1.3c0.5-0.3,1.2-0.6,2-0.7s1.7-0.2,2.8-0.2h1.2V169c0-0.4,0-0.7-0.1-1s-0.2-0.5-0.4-0.7
					c-0.2-0.2-0.4-0.3-0.7-0.4c-0.3-0.1-0.6-0.1-1.1-0.1c-0.6,0-1.1,0.1-1.5,0.2c-0.4,0.1-0.8,0.3-1.2,0.4c-0.3,0.2-0.6,0.3-0.9,0.4
					c-0.2,0.1-0.4,0.2-0.6,0.2c-0.1,0-0.2,0-0.3-0.1c-0.1-0.1-0.1-0.2-0.2-0.3c0-0.1-0.1-0.3-0.1-0.4c0-0.2,0-0.4,0-0.6
					c0-0.3,0-0.5,0.1-0.7c0-0.2,0.1-0.3,0.3-0.4c0.1-0.1,0.3-0.3,0.7-0.4c0.3-0.2,0.7-0.3,1.1-0.4c0.4-0.1,0.9-0.2,1.4-0.3
					c0.5-0.1,1-0.1,1.5-0.1c0.9,0,1.7,0.1,2.4,0.3c0.7,0.2,1.2,0.5,1.6,0.8s0.7,0.9,0.9,1.5c0.2,0.6,0.3,1.3,0.3,2.1V177z
					 M107.7,171.9h-1.3c-0.5,0-1,0-1.4,0.1c-0.4,0.1-0.7,0.2-0.9,0.4c-0.2,0.2-0.4,0.4-0.5,0.6c-0.1,0.2-0.2,0.5-0.2,0.8
					c0,0.5,0.2,0.9,0.5,1.2c0.3,0.3,0.8,0.4,1.3,0.4c0.5,0,0.9-0.1,1.3-0.4c0.4-0.2,0.8-0.6,1.2-1.1V171.9z"/>
				<path class="st0" d="M125.4,177c0,0.1,0,0.2-0.1,0.2c0,0.1-0.1,0.1-0.2,0.2c-0.1,0-0.3,0.1-0.4,0.1c-0.2,0-0.4,0-0.7,0
					c-0.3,0-0.5,0-0.7,0c-0.2,0-0.3,0-0.4-0.1c-0.1,0-0.2-0.1-0.2-0.2c0-0.1-0.1-0.2-0.1-0.2v-1.3c-0.6,0.7-1.3,1.2-1.9,1.5
					c-0.7,0.4-1.4,0.5-2.2,0.5c-0.9,0-1.7-0.2-2.3-0.5c-0.6-0.4-1.1-0.8-1.5-1.4c-0.4-0.6-0.7-1.3-0.9-2.1c-0.2-0.8-0.3-1.6-0.3-2.5
					c0-1.1,0.1-2,0.3-2.9c0.2-0.8,0.6-1.6,1-2.2c0.4-0.6,1-1.1,1.6-1.4c0.7-0.3,1.4-0.5,2.3-0.5c0.7,0,1.3,0.1,1.8,0.4
					c0.5,0.3,1.1,0.7,1.6,1.2v-6.5c0-0.1,0-0.2,0.1-0.2c0-0.1,0.1-0.1,0.3-0.2c0.1,0,0.3-0.1,0.5-0.1c0.2,0,0.5,0,0.8,0
					c0.3,0,0.6,0,0.8,0c0.2,0,0.4,0.1,0.5,0.1c0.1,0,0.2,0.1,0.3,0.2c0.1,0.1,0.1,0.2,0.1,0.2V177z M122,169
					c-0.5-0.6-0.9-1.1-1.4-1.4c-0.4-0.3-0.9-0.5-1.4-0.5c-0.4,0-0.8,0.1-1.1,0.3c-0.3,0.2-0.6,0.5-0.8,0.9c-0.2,0.4-0.3,0.8-0.4,1.2
					c-0.1,0.5-0.1,0.9-0.1,1.4c0,0.5,0,1,0.1,1.5c0.1,0.5,0.2,0.9,0.4,1.3c0.2,0.4,0.4,0.7,0.7,0.9c0.3,0.2,0.7,0.3,1.2,0.3
					c0.2,0,0.5,0,0.7-0.1c0.2-0.1,0.4-0.2,0.7-0.3c0.2-0.2,0.5-0.4,0.7-0.6c0.2-0.2,0.5-0.5,0.8-0.9V169z"/>
				<path class="st0" d="M139.6,170.6c0,0.4-0.1,0.7-0.3,0.9c-0.2,0.2-0.4,0.3-0.8,0.3h-7.3c0,0.5,0.1,1,0.2,1.4
					c0.1,0.4,0.3,0.8,0.6,1.1c0.3,0.3,0.6,0.5,1,0.7c0.4,0.2,0.9,0.2,1.5,0.2c0.6,0,1.1,0,1.6-0.1c0.4-0.1,0.8-0.2,1.2-0.3
					c0.3-0.1,0.6-0.2,0.8-0.3c0.2-0.1,0.4-0.1,0.5-0.1c0.1,0,0.1,0,0.2,0s0.1,0.1,0.1,0.2c0,0.1,0.1,0.2,0.1,0.3c0,0.1,0,0.3,0,0.6
					c0,0.2,0,0.4,0,0.5c0,0.1,0,0.3,0,0.4c0,0.1,0,0.2-0.1,0.2s-0.1,0.1-0.1,0.2c-0.1,0.1-0.2,0.1-0.5,0.3c-0.3,0.1-0.6,0.2-1,0.3
					c-0.4,0.1-0.9,0.2-1.4,0.3c-0.5,0.1-1.1,0.1-1.7,0.1c-1.1,0-2-0.1-2.8-0.4c-0.8-0.3-1.5-0.7-2-1.2c-0.5-0.5-0.9-1.2-1.2-2.1
					c-0.3-0.8-0.4-1.8-0.4-2.9c0-1.1,0.1-2,0.4-2.9c0.3-0.9,0.7-1.6,1.2-2.2c0.5-0.6,1.2-1,1.9-1.4s1.6-0.5,2.6-0.5
					c1,0,1.9,0.1,2.6,0.4s1.3,0.7,1.8,1.2c0.5,0.5,0.8,1.1,1,1.9c0.2,0.7,0.3,1.5,0.3,2.3V170.6z M136.3,169.7
					c0-0.9-0.2-1.7-0.6-2.2c-0.4-0.5-1-0.8-1.9-0.8c-0.4,0-0.8,0.1-1.1,0.2c-0.3,0.2-0.6,0.4-0.8,0.6c-0.2,0.3-0.4,0.6-0.5,1
					c-0.1,0.4-0.2,0.8-0.2,1.2H136.3z"/>
				<path class="st0" d="M149.7,166.1c0,0.3,0,0.6,0,0.8c0,0.2,0,0.4-0.1,0.5c0,0.1-0.1,0.2-0.1,0.2c-0.1,0-0.1,0.1-0.2,0.1
					c-0.1,0-0.2,0-0.2,0c-0.1,0-0.2-0.1-0.3-0.1c-0.1,0-0.2-0.1-0.4-0.1c-0.1,0-0.3,0-0.4,0c-0.2,0-0.4,0-0.6,0.1
					c-0.2,0.1-0.4,0.2-0.6,0.4c-0.2,0.2-0.4,0.4-0.6,0.6c-0.2,0.3-0.5,0.6-0.7,1v7.5c0,0.1,0,0.2-0.1,0.2c-0.1,0.1-0.1,0.1-0.3,0.2
					c-0.1,0-0.3,0.1-0.5,0.1c-0.2,0-0.5,0-0.8,0c-0.3,0-0.6,0-0.8,0c-0.2,0-0.4-0.1-0.5-0.1c-0.1,0-0.2-0.1-0.3-0.2
					c-0.1-0.1-0.1-0.1-0.1-0.2v-12c0-0.1,0-0.2,0.1-0.2c0-0.1,0.1-0.1,0.2-0.2c0.1,0,0.3-0.1,0.4-0.1c0.2,0,0.4,0,0.7,0
					c0.3,0,0.5,0,0.7,0c0.2,0,0.3,0.1,0.4,0.1c0.1,0,0.2,0.1,0.2,0.2c0,0.1,0.1,0.1,0.1,0.2v1.5c0.3-0.4,0.6-0.8,0.9-1.1
					s0.5-0.5,0.8-0.7c0.2-0.2,0.5-0.3,0.8-0.4c0.2-0.1,0.5-0.1,0.8-0.1c0.1,0,0.2,0,0.4,0c0.1,0,0.3,0,0.4,0.1
					c0.1,0,0.3,0.1,0.4,0.1c0.1,0,0.2,0.1,0.2,0.1c0,0,0.1,0.1,0.1,0.1s0,0.1,0.1,0.2c0,0.1,0,0.2,0,0.4
					C149.7,165.5,149.7,165.8,149.7,166.1z"/>
			</g>
		</g>
	</g>
	<g>
		<path class="st0" d="M100.5,127.5c-29.4,0-53.2-23.9-53.2-53.2S71.1,21,100.5,21s53.2,23.9,53.2,53.2S129.9,127.5,100.5,127.5z
			 M100.5,23.7c-27.9,0-50.6,22.7-50.6,50.6s22.7,50.6,50.6,50.6s50.6-22.7,50.6-50.6S128.4,23.7,100.5,23.7z"/>
		<circle class="st0" cx="100.5" cy="74.3" r="47.8"/>
		<g>
			<path class="st1" d="M127.2,102.9c-2.7,1.1-5.4,1.8-8.1,2c-2.7,0.3-5.4,0.1-8.1-0.4l-2-0.4c-0.7-0.1-1.3-0.4-2-0.5
				c-0.7-0.2-1.3-0.4-2-0.6c-0.7-0.2-1.3-0.4-2-0.7c-2.6-0.9-5.3-2.1-8-3.2c-2.7-1.1-5.5-2-8.4-2.7c-0.7-0.2-1.5-0.3-2.2-0.4
				c-0.7-1.1-1.6-2.8-2.2-5.2l9.4,1.2c0,0,4.1-14,5.5-18.4c3.6-12,3.2-19.6,3.2-19.6s4,6.8,7.1,15.2c0,0,4.6,12.3,3.1,16.2
				c0,0-6.7,3.9-13,6.6l21.7-1.2c0,0-0.5,3.1-1.3,5.8c0.1,0,0.2,0.1,0.3,0.1c0.5,0.1,1.1,0.2,2,0.3c0.9,0,2.1,0.1,3.7,0.1
				c1.5,0,2.7,0,3.6-0.1c0.9-0.1,1.5-0.3,1.8-0.6c0.3-0.3,0.5-0.8,0.4-1.5c-0.1-0.6-0.3-1.5-0.7-2.6c0,0-26.6-59.1-26.8-59
				c-0.1,0.1-26.8,58.9-26.8,58.9c-0.4,1.1-0.6,1.9-0.7,2.6c-0.1,0.6,0,1.1,0.3,1.4c-1.9,0.3-3.8,0.8-5.7,1.5
				c5.8,0,11.4,0.5,16.7,2.4c2.6,0.9,5.2,2,7.9,3.2l4,1.8c1.4,0.6,2.7,1.2,4.1,1.7c2.8,1,5.7,1.8,8.7,2.2c3,0.3,6,0.3,9-0.4
				c3-0.7,5.9-1.9,8.5-3.6c2.6-1.7,5.1-3.9,6.9-6.6C132.4,100.4,129.9,101.9,127.2,102.9z"/>
			<path class="st1" d="M110.4,112.9c-1.8,0-3.6-0.2-5.4-0.5c-3.5-0.6-6.8-1.8-10.1-3.3c-0.8-0.4-1.6-0.8-2.5-1.1
				c-0.8-0.4-1.6-0.8-2.5-1.2c-1.7-0.8-3.6-1.5-5.5-2c-1.9-0.5-3.8-0.8-5.7-0.9c-1.9-0.1-3.9,0-5.7,0.6c1.9,0.1,3.7,0.5,5.4,1
				c1.8,0.5,3.4,1.1,5.1,1.9c1.7,0.7,3.3,1.5,4.9,2.4c1.6,0.9,3.3,1.8,5,2.6c3.5,1.6,7.4,2.7,11.3,2.9c2,0.1,3.9-0.2,5.8-0.5
				c1.9-0.4,3.7-1.1,5.4-2C114,112.8,112.2,113,110.4,112.9z"/>
		</g>
	</g>
</g>
</svg>
