<?xml version="1.0" encoding="utf-8"?>
<!-- Generator: Adobe Illustrator 27.1.0, SVG Export Plug-In . SVG Version: 6.00 Build 0)  -->
<svg version="1.1" id="Layer_1" xmlns="http://www.w3.org/2000/svg" xmlns:xlink="http://www.w3.org/1999/xlink" x="0px" y="0px"
	 viewBox="0 0 200 200" style="enable-background:new 0 0 200 200;" xml:space="preserve">
<style type="text/css">
	.st0{fill:#2B388F;}
	.st1{fill:#FFFFFF;}
	.st2{fill:#913F88;}
	.st3{fill:#EC1C24;}
	.st4{fill:#96C93D;}
	.st5{fill:#8BC53F;}
	.st6{fill:#00A551;}
	.st7{fill:#F6921E;}
	.st8{fill:#DF1F26;}
	.st9{fill:#2F2F80;}
	.st10{fill:#9DC33B;}
	.st11{fill:#009448;}
</style>
<g>
	<g>
		<path class="st3" d="M64.1,148.4c0,0.2,0,0.4,0,0.6c0,0.2,0,0.3-0.1,0.4c0,0.1-0.1,0.2-0.1,0.3c0,0.1-0.1,0.2-0.2,0.3
			c-0.1,0.1-0.3,0.2-0.6,0.4c-0.3,0.2-0.6,0.3-1,0.5c-0.4,0.1-0.9,0.3-1.4,0.4c-0.5,0.1-1.1,0.1-1.7,0.1c-1.2,0-2.2-0.2-3.2-0.5
			c-0.9-0.4-1.7-0.9-2.4-1.6c-0.7-0.7-1.2-1.6-1.5-2.7c-0.4-1.1-0.5-2.3-0.5-3.7c0-1.4,0.2-2.7,0.6-3.9c0.4-1.1,0.9-2.1,1.6-2.8
			c0.7-0.8,1.5-1.3,2.5-1.7c1-0.4,2-0.6,3.2-0.6c0.5,0,0.9,0,1.4,0.1c0.4,0.1,0.8,0.2,1.2,0.3c0.4,0.1,0.7,0.3,1,0.4
			c0.3,0.2,0.5,0.3,0.6,0.4c0.1,0.1,0.2,0.2,0.2,0.3c0,0.1,0.1,0.2,0.1,0.3c0,0.1,0,0.3,0.1,0.4c0,0.2,0,0.4,0,0.6
			c0,0.3,0,0.5,0,0.7c0,0.2,0,0.3-0.1,0.4c0,0.1-0.1,0.2-0.2,0.2c-0.1,0.1-0.1,0.1-0.2,0.1c-0.1,0-0.3-0.1-0.5-0.2
			c-0.2-0.2-0.5-0.3-0.8-0.5c-0.3-0.2-0.7-0.4-1.1-0.5c-0.4-0.2-1-0.2-1.6-0.2c-0.7,0-1.3,0.1-1.8,0.4c-0.5,0.3-1,0.7-1.4,1.2
			c-0.4,0.5-0.7,1.1-0.8,1.9c-0.2,0.7-0.3,1.5-0.3,2.5c0,1,0.1,1.9,0.3,2.6s0.5,1.3,0.9,1.8c0.4,0.5,0.8,0.8,1.4,1.1
			c0.5,0.2,1.1,0.3,1.8,0.3c0.6,0,1.1-0.1,1.6-0.2c0.4-0.1,0.8-0.3,1.2-0.5c0.3-0.2,0.6-0.3,0.8-0.5s0.4-0.2,0.5-0.2
			c0.1,0,0.2,0,0.2,0.1c0.1,0,0.1,0.1,0.1,0.2c0,0.1,0.1,0.3,0.1,0.4C64.1,147.9,64.1,148.1,64.1,148.4z"/>
		<path class="st3" d="M73.9,139.9c0,0.3,0,0.6,0,0.8c0,0.2,0,0.4-0.1,0.5c0,0.1-0.1,0.2-0.1,0.2c-0.1,0-0.1,0.1-0.2,0.1
			c-0.1,0-0.1,0-0.2,0c-0.1,0-0.2-0.1-0.3-0.1c-0.1,0-0.2-0.1-0.4-0.1c-0.1,0-0.3,0-0.4,0c-0.2,0-0.4,0-0.6,0.1
			c-0.2,0.1-0.4,0.2-0.6,0.3c-0.2,0.2-0.4,0.4-0.6,0.6c-0.2,0.3-0.4,0.6-0.7,1v7.3c0,0.1,0,0.2-0.1,0.2c-0.1,0.1-0.1,0.1-0.3,0.2
			c-0.1,0-0.3,0.1-0.5,0.1c-0.2,0-0.5,0-0.8,0c-0.3,0-0.6,0-0.8,0s-0.4-0.1-0.5-0.1c-0.1,0-0.2-0.1-0.3-0.2
			c-0.1-0.1-0.1-0.1-0.1-0.2v-11.7c0-0.1,0-0.2,0.1-0.2s0.1-0.1,0.2-0.2c0.1,0,0.3-0.1,0.4-0.1c0.2,0,0.4,0,0.7,0c0.3,0,0.5,0,0.7,0
			c0.2,0,0.3,0.1,0.4,0.1c0.1,0,0.2,0.1,0.2,0.2c0,0.1,0.1,0.1,0.1,0.2v1.5c0.3-0.4,0.6-0.8,0.9-1.1c0.3-0.3,0.5-0.5,0.8-0.7
			c0.2-0.2,0.5-0.3,0.7-0.3c0.2-0.1,0.5-0.1,0.7-0.1c0.1,0,0.2,0,0.4,0c0.1,0,0.3,0,0.4,0.1c0.1,0,0.3,0.1,0.4,0.1
			c0.1,0,0.2,0.1,0.2,0.1c0,0,0.1,0.1,0.1,0.1c0,0.1,0,0.1,0.1,0.2c0,0.1,0,0.2,0,0.4C73.9,139.4,73.9,139.6,73.9,139.9z"/>
		<path class="st3" d="M87.1,150.6c0,0.1,0,0.2-0.1,0.2c0,0.1-0.1,0.1-0.2,0.2c-0.1,0-0.3,0.1-0.4,0.1c-0.2,0-0.4,0-0.7,0
			c-0.3,0-0.5,0-0.7,0s-0.3-0.1-0.4-0.1c-0.1,0-0.2-0.1-0.2-0.2s-0.1-0.1-0.1-0.2v-1.4c-0.6,0.7-1.3,1.2-2,1.6
			c-0.7,0.3-1.4,0.5-2.1,0.5c-0.8,0-1.5-0.1-2-0.4c-0.5-0.3-1-0.6-1.3-1.1c-0.3-0.5-0.6-1-0.7-1.6c-0.1-0.6-0.2-1.3-0.2-2.2v-7.2
			c0-0.1,0-0.2,0.1-0.2c0-0.1,0.1-0.1,0.3-0.2c0.1,0,0.3-0.1,0.5-0.1c0.2,0,0.5,0,0.8,0c0.3,0,0.6,0,0.8,0c0.2,0,0.4,0.1,0.5,0.1
			c0.1,0,0.2,0.1,0.3,0.2c0.1,0.1,0.1,0.1,0.1,0.2v6.6c0,0.6,0,1.1,0.1,1.4c0.1,0.3,0.2,0.6,0.4,0.8c0.2,0.2,0.4,0.4,0.6,0.5
			c0.2,0.1,0.5,0.2,0.9,0.2c0.4,0,0.8-0.2,1.3-0.5c0.4-0.3,0.9-0.8,1.4-1.3v-7.8c0-0.1,0-0.2,0.1-0.2c0-0.1,0.1-0.1,0.3-0.2
			c0.1,0,0.3-0.1,0.5-0.1c0.2,0,0.5,0,0.8,0c0.3,0,0.6,0,0.8,0c0.2,0,0.4,0.1,0.5,0.1c0.1,0,0.2,0.1,0.3,0.2
			c0.1,0.1,0.1,0.1,0.1,0.2V150.6z"/>
		<path class="st3" d="M98.7,147.3c0,0.7-0.1,1.3-0.4,1.8c-0.3,0.5-0.6,0.9-1.1,1.3c-0.5,0.3-1,0.6-1.6,0.8c-0.6,0.2-1.3,0.3-2,0.3
			c-0.4,0-0.9,0-1.3-0.1c-0.4-0.1-0.8-0.1-1.1-0.2c-0.3-0.1-0.6-0.2-0.8-0.3c-0.2-0.1-0.4-0.2-0.5-0.3c-0.1-0.1-0.2-0.2-0.2-0.4
			c-0.1-0.2-0.1-0.5-0.1-0.9c0-0.3,0-0.5,0-0.6c0-0.2,0-0.3,0.1-0.4c0-0.1,0.1-0.2,0.1-0.2c0.1,0,0.1,0,0.2,0c0.1,0,0.2,0.1,0.4,0.2
			c0.2,0.1,0.4,0.2,0.7,0.4c0.3,0.1,0.6,0.3,1,0.4c0.4,0.1,0.8,0.2,1.3,0.2c0.3,0,0.6,0,0.8-0.1c0.2-0.1,0.4-0.1,0.6-0.3
			c0.2-0.1,0.3-0.3,0.4-0.4c0.1-0.2,0.1-0.4,0.1-0.6c0-0.3-0.1-0.5-0.2-0.7c-0.2-0.2-0.4-0.4-0.6-0.5c-0.3-0.1-0.6-0.3-0.9-0.4
			c-0.3-0.1-0.7-0.3-1-0.4c-0.4-0.1-0.7-0.3-1-0.5c-0.3-0.2-0.6-0.4-0.9-0.7c-0.3-0.3-0.5-0.6-0.6-1c-0.2-0.4-0.2-0.9-0.2-1.4
			c0-0.6,0.1-1.1,0.3-1.5c0.2-0.5,0.5-0.9,0.9-1.2c0.4-0.3,0.9-0.6,1.5-0.8c0.6-0.2,1.3-0.3,2-0.3c0.4,0,0.7,0,1.1,0.1
			c0.3,0.1,0.7,0.1,0.9,0.2c0.3,0.1,0.5,0.2,0.7,0.3c0.2,0.1,0.3,0.2,0.4,0.2c0.1,0.1,0.1,0.1,0.2,0.2c0,0.1,0.1,0.1,0.1,0.2
			c0,0.1,0,0.2,0,0.3c0,0.1,0,0.3,0,0.5c0,0.2,0,0.4,0,0.6c0,0.1,0,0.3-0.1,0.4c0,0.1-0.1,0.1-0.1,0.2c-0.1,0-0.1,0-0.2,0
			c-0.1,0-0.2,0-0.4-0.1c-0.2-0.1-0.4-0.2-0.6-0.3s-0.5-0.2-0.9-0.3c-0.3-0.1-0.7-0.1-1.1-0.1c-0.3,0-0.6,0-0.8,0.1
			c-0.2,0.1-0.4,0.1-0.5,0.3c-0.1,0.1-0.2,0.2-0.3,0.4c-0.1,0.2-0.1,0.3-0.1,0.5c0,0.3,0.1,0.5,0.2,0.7c0.2,0.2,0.4,0.3,0.7,0.5
			s0.6,0.3,0.9,0.4c0.3,0.1,0.7,0.3,1.1,0.4c0.4,0.1,0.7,0.3,1.1,0.5c0.3,0.2,0.7,0.4,0.9,0.7s0.5,0.6,0.7,1
			C98.6,146.3,98.7,146.7,98.7,147.3z"/>
		<path class="st3" d="M111.1,150.6c0,0.1,0,0.2-0.1,0.3c-0.1,0.1-0.2,0.1-0.4,0.2c-0.2,0-0.5,0-0.8,0c-0.4,0-0.7,0-0.9,0
			c-0.2,0-0.3-0.1-0.4-0.2c-0.1-0.1-0.1-0.2-0.1-0.3v-0.9c-0.5,0.5-1,0.9-1.7,1.2c-0.6,0.3-1.3,0.4-2.1,0.4c-0.6,0-1.2-0.1-1.7-0.2
			c-0.5-0.2-1-0.4-1.4-0.7c-0.4-0.3-0.7-0.7-0.9-1.2c-0.2-0.5-0.3-1-0.3-1.7c0-0.7,0.1-1.3,0.4-1.8s0.7-0.9,1.2-1.2
			c0.5-0.3,1.2-0.6,2-0.7c0.8-0.2,1.7-0.2,2.8-0.2h1.1v-0.7c0-0.4,0-0.7-0.1-1c-0.1-0.3-0.2-0.5-0.4-0.7c-0.2-0.2-0.4-0.3-0.7-0.4
			c-0.3-0.1-0.6-0.1-1.1-0.1c-0.6,0-1,0.1-1.5,0.2c-0.4,0.1-0.8,0.3-1.2,0.4c-0.3,0.1-0.6,0.3-0.8,0.4c-0.2,0.1-0.4,0.2-0.5,0.2
			c-0.1,0-0.2,0-0.3-0.1c-0.1-0.1-0.1-0.1-0.2-0.3c0-0.1-0.1-0.3-0.1-0.4c0-0.2,0-0.4,0-0.6c0-0.3,0-0.5,0.1-0.6
			c0-0.2,0.1-0.3,0.3-0.4c0.1-0.1,0.3-0.3,0.6-0.4c0.3-0.2,0.7-0.3,1.1-0.4c0.4-0.1,0.9-0.2,1.3-0.3c0.5-0.1,1-0.1,1.5-0.1
			c0.9,0,1.7,0.1,2.4,0.3c0.7,0.2,1.2,0.5,1.6,0.8c0.4,0.4,0.7,0.9,0.9,1.4c0.2,0.6,0.3,1.3,0.3,2.1V150.6z M107.9,145.6h-1.3
			c-0.5,0-1,0-1.4,0.1c-0.4,0.1-0.7,0.2-0.9,0.4c-0.2,0.2-0.4,0.3-0.5,0.6c-0.1,0.2-0.2,0.5-0.2,0.8c0,0.5,0.2,0.9,0.5,1.2
			c0.3,0.3,0.7,0.4,1.3,0.4c0.5,0,0.9-0.1,1.3-0.4c0.4-0.2,0.8-0.6,1.2-1V145.6z"/>
		<path class="st3" d="M125.6,150.6c0,0.1,0,0.2-0.1,0.2c0,0.1-0.1,0.1-0.2,0.2c-0.1,0-0.2,0.1-0.4,0.1c-0.2,0-0.4,0-0.7,0
			c-0.3,0-0.5,0-0.7,0c-0.2,0-0.3,0-0.4-0.1c-0.1,0-0.2-0.1-0.2-0.2c0-0.1-0.1-0.1-0.1-0.2v-1.3c-0.6,0.6-1.2,1.2-1.9,1.5
			c-0.7,0.4-1.4,0.5-2.2,0.5c-0.9,0-1.7-0.2-2.3-0.5c-0.6-0.3-1.1-0.8-1.5-1.4c-0.4-0.6-0.7-1.3-0.8-2.1s-0.3-1.6-0.3-2.5
			c0-1,0.1-2,0.3-2.8c0.2-0.8,0.6-1.5,1-2.1c0.4-0.6,1-1,1.6-1.4c0.6-0.3,1.4-0.5,2.2-0.5c0.7,0,1.3,0.1,1.8,0.4
			c0.5,0.3,1.1,0.7,1.6,1.2v-6.4c0-0.1,0-0.2,0.1-0.2c0-0.1,0.1-0.1,0.3-0.2c0.1,0,0.3-0.1,0.5-0.1c0.2,0,0.5,0,0.8,0
			c0.3,0,0.6,0,0.8,0c0.2,0,0.4,0.1,0.5,0.1c0.1,0,0.2,0.1,0.3,0.2c0.1,0.1,0.1,0.1,0.1,0.2V150.6z M122.3,142.7
			c-0.5-0.6-0.9-1.1-1.4-1.4c-0.4-0.3-0.9-0.5-1.4-0.5c-0.4,0-0.8,0.1-1.1,0.3c-0.3,0.2-0.6,0.5-0.8,0.9c-0.2,0.4-0.3,0.8-0.4,1.2
			c-0.1,0.4-0.1,0.9-0.1,1.4c0,0.5,0,1,0.1,1.4c0.1,0.5,0.2,0.9,0.4,1.2c0.2,0.4,0.4,0.7,0.7,0.9c0.3,0.2,0.7,0.3,1.1,0.3
			c0.2,0,0.4,0,0.7-0.1c0.2-0.1,0.4-0.2,0.7-0.3c0.2-0.1,0.5-0.3,0.7-0.6c0.2-0.2,0.5-0.5,0.8-0.9V142.7z"/>
		<path class="st3" d="M139.8,144.4c0,0.4-0.1,0.7-0.3,0.9c-0.2,0.2-0.4,0.3-0.7,0.3h-7.1c0,0.5,0.1,1,0.2,1.4
			c0.1,0.4,0.3,0.8,0.6,1c0.3,0.3,0.6,0.5,1,0.7c0.4,0.1,0.9,0.2,1.5,0.2c0.6,0,1.1,0,1.5-0.1c0.4-0.1,0.8-0.2,1.1-0.3
			c0.3-0.1,0.6-0.2,0.8-0.3c0.2-0.1,0.4-0.1,0.5-0.1c0.1,0,0.1,0,0.2,0c0.1,0,0.1,0.1,0.1,0.2c0,0.1,0.1,0.2,0.1,0.3
			c0,0.1,0,0.3,0,0.5c0,0.2,0,0.4,0,0.5c0,0.1,0,0.3,0,0.3c0,0.1,0,0.2-0.1,0.2s-0.1,0.1-0.1,0.2c-0.1,0.1-0.2,0.1-0.5,0.2
			c-0.3,0.1-0.6,0.2-1,0.3c-0.4,0.1-0.8,0.2-1.4,0.3c-0.5,0.1-1.1,0.1-1.6,0.1c-1,0-2-0.1-2.7-0.4c-0.8-0.3-1.4-0.7-2-1.2
			s-0.9-1.2-1.2-2c-0.3-0.8-0.4-1.8-0.4-2.9c0-1,0.1-2,0.4-2.8c0.3-0.8,0.7-1.5,1.2-2.1c0.5-0.6,1.1-1,1.9-1.3
			c0.7-0.3,1.6-0.5,2.5-0.5c1,0,1.8,0.1,2.5,0.4c0.7,0.3,1.3,0.7,1.7,1.2c0.4,0.5,0.8,1.1,1,1.8c0.2,0.7,0.3,1.5,0.3,2.3V144.4z
			 M136.5,143.4c0-0.9-0.2-1.7-0.6-2.2c-0.4-0.5-1-0.8-1.8-0.8c-0.4,0-0.8,0.1-1.1,0.2c-0.3,0.2-0.6,0.4-0.8,0.6
			c-0.2,0.3-0.4,0.6-0.5,0.9c-0.1,0.4-0.2,0.8-0.2,1.2H136.5z"/>
		<path class="st3" d="M150,139.9c0,0.3,0,0.6,0,0.8c0,0.2,0,0.4-0.1,0.5c0,0.1-0.1,0.2-0.1,0.2c-0.1,0-0.1,0.1-0.2,0.1
			c-0.1,0-0.1,0-0.2,0c-0.1,0-0.2-0.1-0.3-0.1c-0.1,0-0.2-0.1-0.4-0.1c-0.1,0-0.3,0-0.4,0c-0.2,0-0.4,0-0.6,0.1
			c-0.2,0.1-0.4,0.2-0.6,0.3c-0.2,0.2-0.4,0.4-0.6,0.6c-0.2,0.3-0.4,0.6-0.7,1v7.3c0,0.1,0,0.2-0.1,0.2c-0.1,0.1-0.1,0.1-0.3,0.2
			c-0.1,0-0.3,0.1-0.5,0.1c-0.2,0-0.5,0-0.8,0c-0.3,0-0.6,0-0.8,0s-0.4-0.1-0.5-0.1c-0.1,0-0.2-0.1-0.3-0.2
			c-0.1-0.1-0.1-0.1-0.1-0.2v-11.7c0-0.1,0-0.2,0.1-0.2c0-0.1,0.1-0.1,0.2-0.2c0.1,0,0.3-0.1,0.4-0.1c0.2,0,0.4,0,0.7,0
			c0.3,0,0.5,0,0.7,0c0.2,0,0.3,0.1,0.4,0.1c0.1,0,0.2,0.1,0.2,0.2c0,0.1,0.1,0.1,0.1,0.2v1.5c0.3-0.4,0.6-0.8,0.9-1.1
			c0.3-0.3,0.5-0.5,0.8-0.7c0.2-0.2,0.5-0.3,0.7-0.3c0.2-0.1,0.5-0.1,0.7-0.1c0.1,0,0.2,0,0.4,0c0.1,0,0.3,0,0.4,0.1
			c0.1,0,0.3,0.1,0.4,0.1c0.1,0,0.2,0.1,0.2,0.1c0,0,0.1,0.1,0.1,0.1c0,0.1,0,0.1,0.1,0.2c0,0.1,0,0.2,0,0.4
			C150,139.4,150,139.6,150,139.9z"/>
		<path class="st3" d="M99,162.1c0,0.3,0,0.5,0,0.7c0,0.2-0.1,0.3-0.1,0.4c0,0.1-0.1,0.2-0.2,0.2c-0.1,0.1-0.1,0.1-0.2,0.1h-4.3
			v13.7c0,0.1,0,0.2-0.1,0.2c-0.1,0.1-0.2,0.1-0.3,0.2s-0.3,0.1-0.5,0.1c-0.2,0-0.5,0-0.8,0s-0.6,0-0.8,0c-0.2,0-0.4-0.1-0.5-0.1
			c-0.1,0-0.2-0.1-0.3-0.2c-0.1-0.1-0.1-0.1-0.1-0.2v-13.7h-4.3c-0.1,0-0.2,0-0.2-0.1c-0.1-0.1-0.1-0.1-0.2-0.2
			c0-0.1-0.1-0.3-0.1-0.4c0-0.2,0-0.4,0-0.7c0-0.3,0-0.5,0-0.7c0-0.2,0.1-0.3,0.1-0.4c0-0.1,0.1-0.2,0.2-0.2c0.1,0,0.1-0.1,0.2-0.1
			h12c0.1,0,0.2,0,0.2,0.1c0.1,0,0.1,0.1,0.2,0.2c0,0.1,0.1,0.3,0.1,0.4C98.9,161.6,99,161.8,99,162.1z"/>
		<path class="st3" d="M109.4,177.1c0,0.1-0.1,0.3-0.2,0.4c-0.1,0.1-0.2,0.2-0.3,0.2c-0.2,0-0.4,0.1-0.6,0.1c-0.3,0-0.6,0-1.1,0
			c-0.4,0-0.7,0-0.9,0c-0.3,0-0.5,0-0.6,0c-0.2,0-0.3,0-0.4-0.1c-0.1,0-0.2-0.1-0.3-0.1c-0.1-0.1-0.1-0.1-0.2-0.2
			c0-0.1-0.1-0.2-0.1-0.3L99.6,162c-0.1-0.3-0.2-0.6-0.2-0.8c0-0.2,0-0.3,0.1-0.4c0.1-0.1,0.3-0.1,0.6-0.2c0.3,0,0.6,0,1.1,0
			c0.4,0,0.7,0,0.9,0c0.2,0,0.4,0,0.5,0.1c0.1,0,0.2,0.1,0.3,0.2c0,0.1,0.1,0.2,0.1,0.3l4.1,13.1h0l4.1-13.1c0-0.1,0.1-0.3,0.1-0.4
			c0.1-0.1,0.1-0.2,0.3-0.2c0.1-0.1,0.3-0.1,0.5-0.1c0.2,0,0.6,0,1,0c0.4,0,0.7,0,0.9,0c0.2,0,0.4,0.1,0.5,0.2
			c0.1,0.1,0.1,0.2,0.1,0.4c0,0.2-0.1,0.4-0.2,0.7L109.4,177.1z"/>
	</g>
	<g>
		<path class="st3" d="M100.7,127.6c-29.4,0-53.2-23.9-53.2-53.2s23.9-53.2,53.2-53.2S154,45,154,74.3S130.1,127.6,100.7,127.6z
			 M100.7,23.7c-27.9,0-50.6,22.7-50.6,50.6s22.7,50.6,50.6,50.6s50.6-22.7,50.6-50.6S128.6,23.7,100.7,23.7z"/>
		<circle class="st3" cx="100.7" cy="74.3" r="47.8"/>
		<g>
			<g>
				<path class="st1" d="M132.5,50.1c-0.2-0.2-0.6-0.4-1.1-0.5c-0.5-0.1-1.3-0.1-2.3-0.1c-1,0-1.8,0-2.4,0.1c-0.6,0-1,0.1-1.3,0.3
					c-0.3,0.1-0.5,0.3-0.7,0.5c-0.1,0.2-0.2,0.5-0.3,0.9l-9.9,31.8h0l-10.1-32c-0.1-0.3-0.2-0.6-0.3-0.8c-0.1-0.2-0.3-0.4-0.6-0.5
					c-0.3-0.1-0.7-0.2-1.3-0.2c-0.6,0-35.2,0.1-35.2,0.1c-0.2,0-0.4,0.1-0.5,0.2c-0.1,0.1-0.3,0.3-0.4,0.6c-0.1,0.3-0.2,0.6-0.2,1.1
					c-0.1,0.4-0.1,1-0.1,1.6c0,0.6,0,1.1,0.1,1.6c0.1,0.4,0.1,0.8,0.2,1.1c0.1,0.3,0.2,0.5,0.4,0.6c0.1,0.1,0.3,0.2,0.5,0.2h11.5
					v30.7c3.9,1.4,7.7,0.7,7.7,0.7s2.7-0.6,3.6-4.2C93,69.1,90,56.7,90,56.7l-0.2-1.5c0.5,0.9,8.5,7.3,12.5,22.3
					c0,0,1.1,3.7,0.6,5.2l-12.8,5.4c0,0,4.7,0.4,10.9-0.8c5.3-1,9.3-3.5,9.3-3.5l-1.2,7.1c0.1,0.2,0.3,0.2,0.4,0.3
					c0.3,0.1,0.6,0.1,1,0.2c0.4,0,0.9,0.1,1.6,0.1c0.6,0,1.3,0,2.2,0c1.1,0,1.9,0,2.6,0c0.7,0,1.2-0.1,1.6-0.2
					c0.4-0.1,0.7-0.3,0.8-0.5c0.2-0.2,0.3-0.5,0.4-0.9L132.2,53c0.3-0.7,0.4-1.3,0.5-1.8C132.8,50.7,132.7,50.4,132.5,50.1z"/>
			</g>
			<path class="st1" d="M135,94.7c0,0-5.7,11.4-24.2,11.8c0,0-7.7,0.3-20.9-6.4c0,0-11.3-6.8-26.2-6.2c0,0,10.6-5.8,27.7,1.6
				C108.6,103,119.7,105.9,135,94.7z"/>
			<path class="st1" d="M114.3,110.3c0,0-13,1.7-22-3.4c-9-5.2-18.2-7.5-25-5.5c0,0,8.6,0.7,21,8
				C100.7,116.7,113.4,112.1,114.3,110.3z"/>
		</g>
	</g>
</g>
</svg>
