<?xml version="1.0" encoding="utf-8"?>
<!-- Generator: Adobe Illustrator 27.1.0, SVG Export Plug-In . SVG Version: 6.00 Build 0)  -->
<svg version="1.1" id="Layer_1" xmlns="http://www.w3.org/2000/svg" xmlns:xlink="http://www.w3.org/1999/xlink" x="0px" y="0px"
	 viewBox="0 0 200 200" style="enable-background:new 0 0 200 200;" xml:space="preserve">
<style type="text/css">
	.st0{fill:#2B388F;}
	.st1{fill:#FFFFFF;}
	.st2{fill:#913F88;}
	.st3{fill:#EC1C24;}
	.st4{fill:#96C93D;}
	.st5{fill:#8BC53F;}
	.st6{fill:#00A551;}
	.st7{fill:#F6921E;}
	.st8{fill:#DF1F26;}
	.st9{fill:#2F2F80;}
	.st10{fill:#9DC33B;}
	.st11{fill:#009448;}
</style>
<g>
	<g>
		<g>
			<g>
				<path class="st7" d="M98.9,127.8c-29.4,0-53.2-23.9-53.2-53.2s23.9-53.2,53.2-53.2s53.2,23.9,53.2,53.2S128.3,127.8,98.9,127.8z
					 M98.9,24C71,24,48.3,46.7,48.3,74.6s22.7,50.6,50.6,50.6s50.6-22.7,50.6-50.6S126.8,24,98.9,24z"/>
				<circle class="st7" cx="98.9" cy="74.6" r="47.8"/>
			</g>
		</g>
		<g>
			<path class="st1" d="M79.7,92.8l9,1.2c0,0,6.1-18.5,7.1-25.1c1-6.6,1.2-11.5,1.2-11.5s10.8,19.2,9.8,30.2l-12.8,6.6l21.2-1.5
				c0,0-0.7,4.8-1.7,6.2c4.5-0.1,8.3-3.5,8.9-8l4.9-36.8c0.2-1.4-0.9-2.7-2.4-2.7h-10.9l0-2.6c0-8.2-6.7-15.2-15-15.1
				c-8,0.1-14.5,6.7-14.5,14.7v3H73.7c-1.5,0-2.6,1.3-2.4,2.7l4.9,36.8c0.4,2.8,2,5.2,4.3,6.6c0.4,0,0.7,0.1,1.1,0.1
				C80.8,96.4,79.6,94,79.7,92.8z M88.3,48.6c0-6.1,5-11.1,11.1-11.1s11.1,5,11.1,11.1v3H88.3V48.6z"/>
			<g>
				<path class="st1" d="M92.6,110.4c-7.2-3.7-14.3-6.5-21.6-4.6c0,0,8,0.9,17.5,6.8c7.7,4.8,19.9,4.8,24.2,0.8
					C112.6,113.4,102.4,115.4,92.6,110.4z"/>
				<path class="st1" d="M102.9,105.1c-5.6-1.7-9.3-4-15.9-6c0,0-0.1,0-0.1,0h-1.6c-1.2,0-2.3-0.2-3.4-0.6c-0.1-0.2-0.2-0.4-0.4-0.6
					c-0.4-0.1-0.8-0.1-1.1-0.1c-7.2-0.7-13.3,1.7-13.3,1.7s6.2-0.1,12.7,1.3c5.1,1.1,14.3,5.7,14.3,5.7s10.5,5.2,19,4.1
					c11.1-1.5,17.2-10.4,17.2-10.4C121.4,107.4,109.3,107.1,102.9,105.1z"/>
			</g>
		</g>
	</g>
	<g>
		<g>
			<path class="st7" d="M61.9,148.8c0,0.2,0,0.4,0,0.6c0,0.2,0,0.3-0.1,0.4c0,0.1-0.1,0.2-0.1,0.3s-0.1,0.2-0.2,0.3
				c-0.1,0.1-0.3,0.2-0.6,0.4c-0.3,0.2-0.6,0.3-1,0.5s-0.9,0.3-1.4,0.4c-0.5,0.1-1.1,0.1-1.7,0.1c-1.2,0-2.2-0.2-3.2-0.5
				c-0.9-0.4-1.8-0.9-2.4-1.6c-0.7-0.7-1.2-1.6-1.5-2.7c-0.4-1.1-0.5-2.3-0.5-3.8c0-1.5,0.2-2.8,0.6-3.9s0.9-2.1,1.6-2.9
				c0.7-0.8,1.5-1.4,2.5-1.8c1-0.4,2.1-0.6,3.2-0.6c0.5,0,0.9,0,1.4,0.1c0.4,0.1,0.9,0.2,1.2,0.3c0.4,0.1,0.7,0.3,1,0.4
				c0.3,0.2,0.5,0.3,0.6,0.4c0.1,0.1,0.2,0.2,0.2,0.3c0,0.1,0.1,0.2,0.1,0.3c0,0.1,0,0.3,0.1,0.4c0,0.2,0,0.4,0,0.6
				c0,0.3,0,0.5,0,0.7s0,0.3-0.1,0.5c0,0.1-0.1,0.2-0.2,0.3c-0.1,0.1-0.1,0.1-0.2,0.1c-0.1,0-0.3-0.1-0.5-0.2
				c-0.2-0.2-0.5-0.3-0.8-0.5c-0.3-0.2-0.7-0.4-1.2-0.5c-0.4-0.2-1-0.2-1.6-0.2c-0.7,0-1.3,0.1-1.8,0.4c-0.5,0.3-1,0.7-1.4,1.2
				c-0.4,0.5-0.7,1.1-0.9,1.9c-0.2,0.7-0.3,1.6-0.3,2.5c0,1,0.1,1.9,0.3,2.6c0.2,0.7,0.5,1.3,0.9,1.8c0.4,0.5,0.8,0.8,1.4,1.1
				c0.5,0.2,1.2,0.4,1.8,0.4c0.6,0,1.2-0.1,1.6-0.2s0.8-0.3,1.2-0.5c0.3-0.2,0.6-0.3,0.8-0.5c0.2-0.1,0.4-0.2,0.5-0.2
				c0.1,0,0.2,0,0.2,0.1c0.1,0,0.1,0.1,0.1,0.2c0,0.1,0.1,0.3,0.1,0.4C61.9,148.3,61.9,148.5,61.9,148.8z"/>
			<path class="st7" d="M71.8,140.3c0,0.3,0,0.6,0,0.8c0,0.2,0,0.4-0.1,0.5c0,0.1-0.1,0.2-0.1,0.2c-0.1,0-0.1,0.1-0.2,0.1
				c-0.1,0-0.2,0-0.2,0c-0.1,0-0.2-0.1-0.3-0.1c-0.1,0-0.2-0.1-0.4-0.1s-0.3,0-0.4,0c-0.2,0-0.4,0-0.6,0.1c-0.2,0.1-0.4,0.2-0.6,0.4
				c-0.2,0.2-0.4,0.4-0.6,0.6s-0.4,0.6-0.7,1v7.4c0,0.1,0,0.2-0.1,0.2c-0.1,0.1-0.1,0.1-0.3,0.2c-0.1,0-0.3,0.1-0.5,0.1
				s-0.5,0-0.8,0c-0.3,0-0.6,0-0.8,0s-0.4-0.1-0.5-0.1c-0.1,0-0.2-0.1-0.3-0.2c-0.1-0.1-0.1-0.1-0.1-0.2v-11.8c0-0.1,0-0.2,0.1-0.2
				c0-0.1,0.1-0.1,0.2-0.2c0.1,0,0.3-0.1,0.4-0.1c0.2,0,0.4,0,0.7,0c0.3,0,0.5,0,0.7,0c0.2,0,0.3,0.1,0.4,0.1c0.1,0,0.2,0.1,0.2,0.2
				c0,0.1,0.1,0.1,0.1,0.2v1.5c0.3-0.4,0.6-0.8,0.9-1.1c0.3-0.3,0.5-0.5,0.8-0.7c0.2-0.2,0.5-0.3,0.7-0.4c0.2-0.1,0.5-0.1,0.7-0.1
				c0.1,0,0.2,0,0.4,0c0.1,0,0.3,0,0.4,0.1c0.1,0,0.3,0.1,0.4,0.1c0.1,0,0.2,0.1,0.2,0.1c0,0,0.1,0.1,0.1,0.1c0,0.1,0,0.1,0.1,0.2
				c0,0.1,0,0.2,0,0.4C71.8,139.7,71.8,139.9,71.8,140.3z"/>
			<path class="st7" d="M85.1,151c0,0.1,0,0.2-0.1,0.2c0,0.1-0.1,0.1-0.2,0.2c-0.1,0-0.3,0.1-0.4,0.1c-0.2,0-0.4,0-0.7,0
				c-0.3,0-0.5,0-0.7,0c-0.2,0-0.3-0.1-0.4-0.1c-0.1,0-0.2-0.1-0.2-0.2c0-0.1-0.1-0.1-0.1-0.2v-1.4c-0.7,0.7-1.3,1.2-2,1.6
				c-0.7,0.4-1.4,0.5-2.1,0.5c-0.8,0-1.5-0.1-2.1-0.4c-0.6-0.3-1-0.6-1.3-1.1c-0.3-0.5-0.6-1-0.7-1.6c-0.1-0.6-0.2-1.4-0.2-2.3v-7.3
				c0-0.1,0-0.2,0.1-0.2c0-0.1,0.1-0.1,0.3-0.2c0.1,0,0.3-0.1,0.5-0.1c0.2,0,0.5,0,0.8,0c0.3,0,0.6,0,0.8,0c0.2,0,0.4,0.1,0.5,0.1
				c0.1,0,0.2,0.1,0.3,0.2c0.1,0.1,0.1,0.1,0.1,0.2v6.7c0,0.6,0,1.1,0.1,1.4c0.1,0.3,0.2,0.6,0.4,0.8c0.2,0.2,0.4,0.4,0.6,0.5
				c0.3,0.1,0.5,0.2,0.9,0.2c0.4,0,0.9-0.2,1.3-0.5c0.4-0.3,0.9-0.8,1.4-1.4v-7.9c0-0.1,0-0.2,0.1-0.2c0-0.1,0.1-0.1,0.3-0.2
				c0.1,0,0.3-0.1,0.5-0.1c0.2,0,0.5,0,0.8,0c0.3,0,0.6,0,0.8,0c0.2,0,0.4,0.1,0.5,0.1c0.1,0,0.2,0.1,0.3,0.2
				c0.1,0.1,0.1,0.1,0.1,0.2V151z"/>
			<path class="st7" d="M96.8,147.7c0,0.7-0.1,1.3-0.4,1.8c-0.3,0.5-0.6,0.9-1.1,1.3c-0.5,0.3-1,0.6-1.6,0.8c-0.6,0.2-1.3,0.3-2,0.3
				c-0.4,0-0.9,0-1.3-0.1s-0.8-0.2-1.1-0.3c-0.3-0.1-0.6-0.2-0.8-0.3c-0.2-0.1-0.4-0.2-0.5-0.3c-0.1-0.1-0.2-0.2-0.2-0.4
				c-0.1-0.2-0.1-0.5-0.1-0.9c0-0.3,0-0.5,0-0.6c0-0.2,0-0.3,0.1-0.4c0-0.1,0.1-0.2,0.1-0.2c0.1,0,0.1,0,0.2,0
				c0.1,0,0.2,0.1,0.4,0.2c0.2,0.1,0.4,0.2,0.7,0.4c0.3,0.1,0.6,0.3,1,0.4c0.4,0.1,0.8,0.2,1.3,0.2c0.3,0,0.6,0,0.8-0.1
				c0.2-0.1,0.4-0.2,0.6-0.3c0.2-0.1,0.3-0.3,0.4-0.4c0.1-0.2,0.1-0.4,0.1-0.6c0-0.3-0.1-0.5-0.2-0.7c-0.2-0.2-0.4-0.4-0.7-0.5
				c-0.3-0.1-0.6-0.3-0.9-0.4c-0.3-0.1-0.7-0.3-1-0.4c-0.4-0.2-0.7-0.3-1-0.5c-0.3-0.2-0.6-0.4-0.9-0.7c-0.3-0.3-0.5-0.6-0.7-1
				c-0.2-0.4-0.2-0.9-0.2-1.4c0-0.6,0.1-1.1,0.3-1.6c0.2-0.5,0.5-0.9,1-1.2c0.4-0.3,0.9-0.6,1.5-0.8c0.6-0.2,1.3-0.3,2-0.3
				c0.4,0,0.7,0,1.1,0.1c0.3,0.1,0.7,0.1,0.9,0.2c0.3,0.1,0.5,0.2,0.7,0.3c0.2,0.1,0.3,0.2,0.4,0.2c0.1,0.1,0.1,0.1,0.2,0.2
				c0,0.1,0.1,0.1,0.1,0.2c0,0.1,0,0.2,0,0.3c0,0.1,0,0.3,0,0.5c0,0.2,0,0.4,0,0.6c0,0.2,0,0.3-0.1,0.4c0,0.1-0.1,0.1-0.1,0.2
				c-0.1,0-0.1,0-0.2,0c-0.1,0-0.2,0-0.4-0.1c-0.2-0.1-0.4-0.2-0.6-0.3c-0.3-0.1-0.5-0.2-0.9-0.3c-0.3-0.1-0.7-0.1-1.1-0.1
				c-0.3,0-0.6,0-0.8,0.1c-0.2,0.1-0.4,0.2-0.5,0.3c-0.1,0.1-0.2,0.3-0.3,0.4c-0.1,0.2-0.1,0.3-0.1,0.5c0,0.3,0.1,0.5,0.3,0.7
				c0.2,0.2,0.4,0.3,0.7,0.5c0.3,0.1,0.6,0.3,0.9,0.4c0.3,0.1,0.7,0.3,1.1,0.4c0.4,0.1,0.7,0.3,1.1,0.5c0.3,0.2,0.7,0.4,0.9,0.7
				c0.3,0.3,0.5,0.6,0.7,1C96.7,146.6,96.8,147.1,96.8,147.7z"/>
			<path class="st7" d="M109.4,151c0,0.1,0,0.2-0.1,0.3c-0.1,0.1-0.2,0.1-0.4,0.2c-0.2,0-0.5,0-0.8,0c-0.4,0-0.7,0-0.9,0
				c-0.2,0-0.3-0.1-0.4-0.2c-0.1-0.1-0.1-0.2-0.1-0.3v-0.9c-0.5,0.5-1,0.9-1.7,1.2c-0.6,0.3-1.3,0.4-2.1,0.4c-0.6,0-1.2-0.1-1.7-0.2
				c-0.5-0.2-1-0.4-1.4-0.7c-0.4-0.3-0.7-0.7-0.9-1.2c-0.2-0.5-0.3-1-0.3-1.7c0-0.7,0.1-1.3,0.4-1.8c0.3-0.5,0.7-0.9,1.2-1.3
				s1.2-0.6,2-0.7c0.8-0.2,1.7-0.2,2.8-0.2h1.2v-0.7c0-0.4,0-0.7-0.1-1c-0.1-0.3-0.2-0.5-0.4-0.7c-0.2-0.2-0.4-0.3-0.7-0.4
				c-0.3-0.1-0.6-0.1-1.1-0.1c-0.6,0-1.1,0.1-1.5,0.2c-0.4,0.1-0.8,0.3-1.2,0.4c-0.3,0.2-0.6,0.3-0.8,0.4c-0.2,0.1-0.4,0.2-0.6,0.2
				c-0.1,0-0.2,0-0.3-0.1c-0.1-0.1-0.1-0.2-0.2-0.3c0-0.1-0.1-0.3-0.1-0.4c0-0.2,0-0.4,0-0.6c0-0.3,0-0.5,0.1-0.7
				c0-0.2,0.1-0.3,0.3-0.4c0.1-0.1,0.3-0.3,0.7-0.4c0.3-0.2,0.7-0.3,1.1-0.4s0.9-0.2,1.4-0.3c0.5-0.1,1-0.1,1.5-0.1
				c0.9,0,1.7,0.1,2.4,0.3c0.7,0.2,1.2,0.5,1.6,0.8c0.4,0.4,0.7,0.9,0.9,1.5c0.2,0.6,0.3,1.3,0.3,2.1V151z M106.1,146h-1.3
				c-0.5,0-1,0-1.4,0.1c-0.4,0.1-0.7,0.2-0.9,0.4c-0.2,0.2-0.4,0.4-0.5,0.6c-0.1,0.2-0.2,0.5-0.2,0.8c0,0.5,0.2,0.9,0.5,1.2
				c0.3,0.3,0.8,0.4,1.3,0.4c0.5,0,0.9-0.1,1.3-0.4c0.4-0.2,0.8-0.6,1.2-1V146z"/>
			<path class="st7" d="M124,151c0,0.1,0,0.2-0.1,0.2s-0.1,0.1-0.2,0.2c-0.1,0-0.3,0.1-0.4,0.1c-0.2,0-0.4,0-0.7,0
				c-0.3,0-0.5,0-0.7,0c-0.2,0-0.3,0-0.4-0.1c-0.1,0-0.2-0.1-0.2-0.2s-0.1-0.1-0.1-0.2v-1.3c-0.6,0.7-1.3,1.2-1.9,1.5
				c-0.7,0.4-1.4,0.5-2.2,0.5c-0.9,0-1.7-0.2-2.3-0.5c-0.6-0.3-1.1-0.8-1.5-1.4c-0.4-0.6-0.7-1.3-0.9-2.1c-0.2-0.8-0.3-1.6-0.3-2.5
				c0-1.1,0.1-2,0.3-2.8c0.2-0.8,0.6-1.6,1-2.2c0.4-0.6,1-1,1.6-1.4c0.6-0.3,1.4-0.5,2.2-0.5c0.7,0,1.3,0.1,1.8,0.4
				c0.5,0.3,1.1,0.7,1.6,1.2v-6.4c0-0.1,0-0.2,0.1-0.2c0-0.1,0.1-0.1,0.3-0.2c0.1,0,0.3-0.1,0.5-0.1c0.2,0,0.5,0,0.8,0
				c0.3,0,0.6,0,0.8,0c0.2,0,0.4,0.1,0.5,0.1c0.1,0,0.2,0.1,0.3,0.2c0.1,0.1,0.1,0.2,0.1,0.2V151z M120.6,143.1
				c-0.5-0.6-0.9-1.1-1.4-1.4c-0.4-0.3-0.9-0.5-1.4-0.5c-0.4,0-0.8,0.1-1.1,0.3c-0.3,0.2-0.6,0.5-0.8,0.9c-0.2,0.4-0.3,0.8-0.4,1.2
				c-0.1,0.4-0.1,0.9-0.1,1.4c0,0.5,0,1,0.1,1.4c0.1,0.5,0.2,0.9,0.4,1.3c0.2,0.4,0.4,0.7,0.7,0.9c0.3,0.2,0.7,0.3,1.1,0.3
				c0.2,0,0.5,0,0.7-0.1s0.4-0.2,0.7-0.3c0.2-0.2,0.5-0.3,0.7-0.6c0.2-0.2,0.5-0.5,0.8-0.9V143.1z"/>
			<path class="st7" d="M138.3,144.7c0,0.4-0.1,0.7-0.3,0.9s-0.4,0.3-0.8,0.3H130c0,0.5,0.1,1,0.2,1.4c0.1,0.4,0.3,0.8,0.6,1
				c0.3,0.3,0.6,0.5,1,0.7c0.4,0.2,0.9,0.2,1.5,0.2c0.6,0,1.1,0,1.5-0.1c0.4-0.1,0.8-0.2,1.1-0.3c0.3-0.1,0.6-0.2,0.8-0.3
				c0.2-0.1,0.4-0.1,0.5-0.1c0.1,0,0.1,0,0.2,0c0.1,0,0.1,0.1,0.1,0.2c0,0.1,0.1,0.2,0.1,0.3c0,0.1,0,0.3,0,0.6c0,0.2,0,0.4,0,0.5
				c0,0.1,0,0.3,0,0.4c0,0.1,0,0.2-0.1,0.2s-0.1,0.1-0.1,0.2c-0.1,0.1-0.2,0.1-0.5,0.3c-0.3,0.1-0.6,0.2-1,0.3
				c-0.4,0.1-0.9,0.2-1.4,0.3c-0.5,0.1-1.1,0.1-1.6,0.1c-1.1,0-2-0.1-2.8-0.4c-0.8-0.3-1.5-0.7-2-1.2c-0.5-0.5-0.9-1.2-1.2-2
				c-0.3-0.8-0.4-1.8-0.4-2.9c0-1.1,0.1-2,0.4-2.8c0.3-0.8,0.7-1.6,1.2-2.2c0.5-0.6,1.2-1,1.9-1.3c0.7-0.3,1.6-0.5,2.5-0.5
				c1,0,1.8,0.1,2.5,0.4c0.7,0.3,1.3,0.7,1.7,1.2c0.5,0.5,0.8,1.1,1,1.8c0.2,0.7,0.3,1.5,0.3,2.3V144.7z M135,143.8
				c0-0.9-0.2-1.7-0.6-2.2c-0.4-0.5-1-0.8-1.9-0.8c-0.4,0-0.8,0.1-1.1,0.2c-0.3,0.2-0.6,0.4-0.8,0.6c-0.2,0.3-0.4,0.6-0.5,1
				c-0.1,0.4-0.2,0.8-0.2,1.2H135z"/>
			<path class="st7" d="M148.6,140.3c0,0.3,0,0.6,0,0.8c0,0.2,0,0.4-0.1,0.5c0,0.1-0.1,0.2-0.1,0.2c-0.1,0-0.1,0.1-0.2,0.1
				c-0.1,0-0.2,0-0.2,0c-0.1,0-0.2-0.1-0.3-0.1c-0.1,0-0.2-0.1-0.4-0.1s-0.3,0-0.4,0c-0.2,0-0.4,0-0.6,0.1c-0.2,0.1-0.4,0.2-0.6,0.4
				c-0.2,0.2-0.4,0.4-0.6,0.6c-0.2,0.3-0.4,0.6-0.7,1v7.4c0,0.1,0,0.2-0.1,0.2s-0.1,0.1-0.3,0.2c-0.1,0-0.3,0.1-0.5,0.1
				s-0.5,0-0.8,0c-0.3,0-0.6,0-0.8,0c-0.2,0-0.4-0.1-0.5-0.1c-0.1,0-0.2-0.1-0.3-0.2s-0.1-0.1-0.1-0.2v-11.8c0-0.1,0-0.2,0.1-0.2
				c0-0.1,0.1-0.1,0.2-0.2c0.1,0,0.3-0.1,0.4-0.1c0.2,0,0.4,0,0.7,0c0.3,0,0.5,0,0.7,0c0.2,0,0.3,0.1,0.4,0.1c0.1,0,0.2,0.1,0.2,0.2
				c0,0.1,0.1,0.1,0.1,0.2v1.5c0.3-0.4,0.6-0.8,0.9-1.1c0.3-0.3,0.5-0.5,0.8-0.7c0.2-0.2,0.5-0.3,0.7-0.4c0.2-0.1,0.5-0.1,0.7-0.1
				c0.1,0,0.2,0,0.4,0c0.1,0,0.3,0,0.4,0.1c0.1,0,0.3,0.1,0.4,0.1c0.1,0,0.2,0.1,0.2,0.1c0,0,0.1,0.1,0.1,0.1c0,0.1,0,0.1,0.1,0.2
				c0,0.1,0,0.2,0,0.4C148.6,139.7,148.6,139.9,148.6,140.3z"/>
		</g>
		<g>
			<path class="st7" d="M95.4,176.2c0,0.1,0,0.2-0.1,0.2c0,0.1-0.1,0.1-0.3,0.2c-0.1,0-0.3,0.1-0.5,0.1c-0.2,0-0.5,0-0.8,0
				c-0.3,0-0.6,0-0.8,0c-0.2,0-0.4-0.1-0.5-0.1c-0.1,0-0.2-0.1-0.3-0.2c-0.1-0.1-0.1-0.2-0.1-0.2v-14h0l-5,14c0,0.1-0.1,0.2-0.2,0.3
				c-0.1,0.1-0.2,0.1-0.3,0.2c-0.1,0-0.3,0.1-0.5,0.1c-0.2,0-0.5,0-0.8,0c-0.3,0-0.6,0-0.8,0s-0.4-0.1-0.5-0.1
				c-0.1,0-0.2-0.1-0.3-0.2c-0.1-0.1-0.1-0.2-0.2-0.3l-4.8-14h0v14c0,0.1,0,0.2-0.1,0.2c0,0.1-0.1,0.1-0.3,0.2
				c-0.1,0-0.3,0.1-0.5,0.1c-0.2,0-0.5,0-0.8,0c-0.3,0-0.6,0-0.8,0c-0.2,0-0.4-0.1-0.5-0.1c-0.1,0-0.2-0.1-0.3-0.2
				c0-0.1-0.1-0.2-0.1-0.2v-15.3c0-0.5,0.1-0.8,0.4-1c0.2-0.2,0.6-0.4,1-0.4H79c0.4,0,0.8,0,1,0.1c0.3,0.1,0.5,0.2,0.8,0.3
				c0.2,0.2,0.4,0.4,0.5,0.6c0.1,0.3,0.3,0.6,0.4,0.9l3.7,10.2h0.1l3.9-10.2c0.1-0.4,0.2-0.7,0.4-0.9c0.1-0.3,0.3-0.5,0.5-0.6
				c0.2-0.2,0.4-0.3,0.6-0.3c0.2-0.1,0.5-0.1,0.9-0.1H94c0.2,0,0.4,0,0.6,0.1c0.2,0.1,0.3,0.2,0.4,0.3c0.1,0.1,0.2,0.3,0.3,0.4
				c0.1,0.2,0.1,0.4,0.1,0.6V176.2z"/>
			<path class="st7" d="M109.1,176.3c0,0.1,0,0.2-0.1,0.3c-0.1,0.1-0.2,0.1-0.4,0.2c-0.2,0-0.5,0-0.8,0c-0.4,0-0.7,0-0.9,0
				c-0.2,0-0.3-0.1-0.4-0.2c-0.1-0.1-0.1-0.2-0.1-0.3v-0.9c-0.5,0.5-1,0.9-1.7,1.2c-0.6,0.3-1.3,0.4-2.1,0.4c-0.6,0-1.2-0.1-1.7-0.2
				c-0.5-0.2-1-0.4-1.4-0.7c-0.4-0.3-0.7-0.7-0.9-1.2c-0.2-0.5-0.3-1-0.3-1.7c0-0.7,0.1-1.3,0.4-1.8c0.3-0.5,0.7-0.9,1.2-1.3
				s1.2-0.6,2-0.7c0.8-0.2,1.7-0.2,2.8-0.2h1.2v-0.7c0-0.4,0-0.7-0.1-1c-0.1-0.3-0.2-0.5-0.4-0.7c-0.2-0.2-0.4-0.3-0.7-0.4
				c-0.3-0.1-0.6-0.1-1.1-0.1c-0.6,0-1.1,0.1-1.5,0.2c-0.4,0.1-0.8,0.3-1.2,0.4c-0.3,0.2-0.6,0.3-0.8,0.4c-0.2,0.1-0.4,0.2-0.6,0.2
				c-0.1,0-0.2,0-0.3-0.1c-0.1-0.1-0.1-0.2-0.2-0.3c0-0.1-0.1-0.3-0.1-0.4c0-0.2,0-0.4,0-0.6c0-0.3,0-0.5,0.1-0.7
				c0-0.2,0.1-0.3,0.3-0.4c0.1-0.1,0.3-0.3,0.7-0.4c0.3-0.2,0.7-0.3,1.1-0.4s0.9-0.2,1.4-0.3c0.5-0.1,1-0.1,1.5-0.1
				c0.9,0,1.7,0.1,2.4,0.3c0.7,0.2,1.2,0.5,1.6,0.8c0.4,0.4,0.7,0.9,0.9,1.5c0.2,0.6,0.3,1.3,0.3,2.1V176.3z M105.8,171.2h-1.3
				c-0.5,0-1,0-1.4,0.1c-0.4,0.1-0.7,0.2-0.9,0.4c-0.2,0.2-0.4,0.4-0.5,0.6c-0.1,0.2-0.2,0.5-0.2,0.8c0,0.5,0.2,0.9,0.5,1.2
				c0.3,0.3,0.8,0.4,1.3,0.4c0.5,0,0.9-0.1,1.3-0.4c0.4-0.2,0.8-0.6,1.2-1V171.2z"/>
			<path class="st7" d="M115.7,176.2c0,0.1,0,0.2-0.1,0.2c-0.1,0.1-0.1,0.1-0.3,0.2c-0.1,0-0.3,0.1-0.5,0.1s-0.5,0-0.8,0
				c-0.3,0-0.6,0-0.8,0s-0.4-0.1-0.5-0.1c-0.1,0-0.2-0.1-0.3-0.2c-0.1-0.1-0.1-0.1-0.1-0.2v-17.5c0-0.1,0-0.2,0.1-0.2
				c0.1-0.1,0.1-0.1,0.3-0.2c0.1,0,0.3-0.1,0.5-0.1c0.2,0,0.5,0,0.8,0c0.3,0,0.6,0,0.8,0c0.2,0,0.4,0.1,0.5,0.1
				c0.1,0,0.2,0.1,0.3,0.2c0.1,0.1,0.1,0.2,0.1,0.2V176.2z"/>
			<path class="st7" d="M122.4,176.2c0,0.1,0,0.2-0.1,0.2s-0.1,0.1-0.3,0.2c-0.1,0-0.3,0.1-0.5,0.1s-0.5,0-0.8,0c-0.3,0-0.6,0-0.8,0
				c-0.2,0-0.4-0.1-0.5-0.1c-0.1,0-0.2-0.1-0.3-0.2s-0.1-0.1-0.1-0.2v-17.5c0-0.1,0-0.2,0.1-0.2c0.1-0.1,0.1-0.1,0.3-0.2
				c0.1,0,0.3-0.1,0.5-0.1c0.2,0,0.5,0,0.8,0c0.3,0,0.6,0,0.8,0c0.2,0,0.4,0.1,0.5,0.1c0.1,0,0.2,0.1,0.3,0.2
				c0.1,0.1,0.1,0.2,0.1,0.2V176.2z"/>
		</g>
	</g>
</g>
</svg>
