<?xml version="1.0" encoding="utf-8"?>
<!-- Generator: Adobe Illustrator 27.1.0, SVG Export Plug-In . SVG Version: 6.00 Build 0)  -->
<svg version="1.1" id="Layer_1" xmlns="http://www.w3.org/2000/svg" xmlns:xlink="http://www.w3.org/1999/xlink" x="0px" y="0px"
	 viewBox="0 0 200 200" style="enable-background:new 0 0 200 200;" xml:space="preserve">
<style type="text/css">
	.st0{fill:#2B388F;}
	.st1{fill:#FFFFFF;}
	.st2{fill:#913F88;}
	.st3{fill:#EC1C24;}
	.st4{fill:#96C93D;}
	.st5{fill:#8BC53F;}
	.st6{fill:#00A551;}
	.st7{fill:#F6921E;}
	.st8{fill:#DF1F26;}
	.st9{fill:#2F2F80;}
	.st10{fill:#9DC33B;}
	.st11{fill:#009448;}
</style>
<g>
	<g>
		<g>
			<path class="st2" d="M101.8,127.7c-29.5,0-53.5-24-53.5-53.5s24-53.5,53.5-53.5s53.5,24,53.5,53.5S131.3,127.7,101.8,127.7z
				 M101.8,23.4c-28,0-50.8,22.8-50.8,50.8S73.8,125,101.8,125s50.8-22.8,50.8-50.8S129.9,23.4,101.8,23.4z"/>
			<circle class="st2" cx="101.8" cy="74.2" r="48"/>
		</g>
		<g>
			<g>
				<path class="st1" d="M111.1,105.7v3.8c0,0.3-0.1,0.6-0.3,0.8c-0.2,0.2-0.5,0.4-0.9,0.6c-0.4,0.1-1,0.3-1.7,0.3
					c-0.7,0.1-1.7,0.1-2.8,0.1c-1.1,0-2,0-2.8-0.1c-0.7-0.1-1.3-0.2-1.8-0.3c-0.4-0.1-0.7-0.3-0.9-0.6c-0.2-0.2-0.3-0.5-0.3-0.8
					v-2.5c0,0,4.6,0,6.2-0.2C107.2,106.6,111.1,105.7,111.1,105.7z"/>
			</g>
			<g>
				<path class="st1" d="M137.3,55.4c-0.6-1.8-1.6-3.5-2.8-4.8c-1.2-1.4-2.7-2.5-4.4-3.4c-1.7-0.9-3.4-1.5-5.1-1.8
					c-1.7-0.3-3.1-0.6-4.3-0.7c-1.2-0.1-2.5-0.2-3.8-0.2h-13.3c-1.2,0-2.1,0.3-2.8,1c-0.7,0.7-1.1,1.7-1.1,3.1v38.5
					c2.7,1,7.3,2.4,11.4,2.6v-8.5h4.7c3.7,0,6.9-0.4,9.7-1.3c2.7-0.9,5.1-2.1,6.9-3.8c1.9-1.7,3.3-3.7,4.3-6.2
					c1-2.4,1.5-5.2,1.5-8.4C138.2,59.3,137.9,57.2,137.3,55.4z M125.5,66.4c-0.4,1.2-1,2.3-1.8,3.2c-0.8,0.9-1.8,1.6-3,2.1
					c-1.2,0.5-2.7,0.7-4.5,0.7h-5.1V53.3h4.8c1.2,0,2.3,0.1,3.4,0.2c1.1,0.2,2.2,0.5,3.2,1.2c1,0.6,1.8,1.6,2.5,2.8
					c0.7,1.3,1,2.9,1,4.9C126.1,63.9,125.9,65.2,125.5,66.4z"/>
			</g>
			<g>
				<path class="st1" d="M91.6,88C91.6,88,91.6,88,91.6,88l0.3,0l5.1-9.8c0,0-7.7,1.4-10.4,1.7c-2.5,0.3-8.6,0.5-8.6,0.5l11-5.8
					c0.6-1.8-0.4-6.2-0.4-6.2c-1.3-10-10.8-23.9-10.8-23.9s1.3,7,0.9,13.9c-1,15.9-3.3,21.1-4.3,21.8l-12.3-0.9
					c0,2.6,3.1,7.3,3.1,7.3l1.6,0.1c-1.4,0.5-2.1,1-2.1,1c14.5-1.3,25.7,4.8,25.7,4.8c13.1,5.9,20.5,5.3,20.5,5.3
					c17.9-1.1,23-12.5,23-12.5C119.4,96.7,108.6,94.4,91.6,88z"/>
				<path class="st1" d="M91.6,98.9c-8.7-4.1-17.1-6.1-23.3-4.1c0,0,8,0.3,19.7,6.5c11.7,6.2,25.9,2.2,28.9-1.5
					C116.9,99.9,103.4,104.6,91.6,98.9z"/>
			</g>
		</g>
	</g>
	<g>
		<g>
			<path class="st2" d="M65.4,148.3c0,0.2,0,0.4,0,0.6c0,0.2,0,0.3-0.1,0.4c0,0.1-0.1,0.2-0.1,0.3c0,0.1-0.1,0.2-0.2,0.3
				c-0.1,0.1-0.3,0.2-0.6,0.4c-0.3,0.2-0.6,0.3-1,0.5c-0.4,0.1-0.9,0.3-1.4,0.4c-0.5,0.1-1.1,0.1-1.7,0.1c-1.2,0-2.3-0.2-3.2-0.5
				c-1-0.4-1.8-0.9-2.4-1.6c-0.7-0.7-1.2-1.6-1.5-2.7s-0.5-2.4-0.5-3.8c0-1.5,0.2-2.8,0.6-3.9c0.4-1.1,0.9-2.1,1.6-2.9
				c0.7-0.8,1.6-1.4,2.5-1.8c1-0.4,2.1-0.6,3.3-0.6c0.5,0,0.9,0,1.4,0.1c0.4,0.1,0.9,0.2,1.2,0.3c0.4,0.1,0.7,0.3,1,0.4
				c0.3,0.2,0.5,0.3,0.6,0.4c0.1,0.1,0.2,0.2,0.2,0.3c0,0.1,0.1,0.2,0.1,0.3c0,0.1,0,0.3,0.1,0.4c0,0.2,0,0.4,0,0.6
				c0,0.3,0,0.5,0,0.7c0,0.2,0,0.3-0.1,0.5c0,0.1-0.1,0.2-0.2,0.3c-0.1,0.1-0.1,0.1-0.2,0.1c-0.1,0-0.3-0.1-0.5-0.2
				c-0.2-0.2-0.5-0.3-0.8-0.5c-0.3-0.2-0.7-0.4-1.2-0.5c-0.5-0.2-1-0.2-1.6-0.2c-0.7,0-1.3,0.1-1.8,0.4c-0.5,0.3-1,0.7-1.4,1.2
				c-0.4,0.5-0.7,1.2-0.9,1.9c-0.2,0.7-0.3,1.6-0.3,2.5c0,1,0.1,1.9,0.3,2.6c0.2,0.7,0.5,1.4,0.9,1.8c0.4,0.5,0.9,0.8,1.4,1.1
				c0.5,0.2,1.2,0.4,1.9,0.4c0.6,0,1.2-0.1,1.6-0.2c0.5-0.1,0.8-0.3,1.2-0.5c0.3-0.2,0.6-0.3,0.8-0.5c0.2-0.1,0.4-0.2,0.5-0.2
				c0.1,0,0.2,0,0.2,0.1c0.1,0,0.1,0.1,0.1,0.2c0,0.1,0.1,0.3,0.1,0.4C65.4,147.7,65.4,148,65.4,148.3z"/>
			<path class="st2" d="M75.2,139.7c0,0.3,0,0.6,0,0.8c0,0.2,0,0.4-0.1,0.5c0,0.1-0.1,0.2-0.1,0.2c-0.1,0-0.1,0.1-0.2,0.1
				c-0.1,0-0.2,0-0.2,0c-0.1,0-0.2-0.1-0.3-0.1c-0.1,0-0.2-0.1-0.4-0.1c-0.1,0-0.3,0-0.4,0c-0.2,0-0.4,0-0.6,0.1
				c-0.2,0.1-0.4,0.2-0.6,0.4c-0.2,0.2-0.4,0.4-0.6,0.6c-0.2,0.3-0.5,0.6-0.7,1v7.5c0,0.1,0,0.2-0.1,0.2c-0.1,0.1-0.1,0.1-0.3,0.2
				c-0.1,0-0.3,0.1-0.5,0.1c-0.2,0-0.5,0-0.8,0c-0.3,0-0.6,0-0.8,0c-0.2,0-0.4-0.1-0.5-0.1c-0.1,0-0.2-0.1-0.3-0.2
				c-0.1-0.1-0.1-0.1-0.1-0.2v-12c0-0.1,0-0.2,0.1-0.2c0-0.1,0.1-0.1,0.2-0.2c0.1,0,0.3-0.1,0.4-0.1c0.2,0,0.4,0,0.7,0
				c0.3,0,0.5,0,0.7,0c0.2,0,0.3,0.1,0.4,0.1s0.2,0.1,0.2,0.2c0,0.1,0.1,0.1,0.1,0.2v1.5c0.3-0.4,0.6-0.8,0.9-1.1
				c0.3-0.3,0.5-0.5,0.8-0.7c0.2-0.2,0.5-0.3,0.8-0.4c0.2-0.1,0.5-0.1,0.8-0.1c0.1,0,0.2,0,0.4,0c0.1,0,0.3,0,0.4,0.1
				c0.1,0,0.3,0.1,0.4,0.1c0.1,0,0.2,0.1,0.2,0.1c0,0,0.1,0.1,0.1,0.1c0,0.1,0,0.1,0.1,0.2c0,0.1,0,0.2,0,0.4
				C75.2,139.1,75.2,139.3,75.2,139.7z"/>
			<path class="st2" d="M88.3,150.5c0,0.1,0,0.2-0.1,0.2c0,0.1-0.1,0.1-0.2,0.2c-0.1,0-0.3,0.1-0.4,0.1c-0.2,0-0.4,0-0.7,0
				c-0.3,0-0.5,0-0.7,0c-0.2,0-0.3-0.1-0.4-0.1s-0.2-0.1-0.2-0.2c0-0.1-0.1-0.1-0.1-0.2v-1.4c-0.7,0.7-1.3,1.3-2,1.6
				c-0.7,0.4-1.4,0.5-2.1,0.5c-0.8,0-1.5-0.1-2.1-0.4c-0.6-0.3-1-0.6-1.4-1.1s-0.6-1-0.7-1.6c-0.1-0.6-0.2-1.4-0.2-2.3v-7.3
				c0-0.1,0-0.2,0.1-0.2c0-0.1,0.1-0.1,0.3-0.2c0.1,0,0.3-0.1,0.5-0.1c0.2,0,0.5,0,0.8,0c0.3,0,0.6,0,0.8,0c0.2,0,0.4,0.1,0.5,0.1
				s0.2,0.1,0.3,0.2c0.1,0.1,0.1,0.1,0.1,0.2v6.8c0,0.6,0,1.1,0.1,1.4c0.1,0.3,0.2,0.6,0.4,0.9c0.2,0.2,0.4,0.4,0.6,0.5
				c0.3,0.1,0.6,0.2,0.9,0.2c0.4,0,0.9-0.2,1.3-0.5s0.9-0.8,1.4-1.4v-7.9c0-0.1,0-0.2,0.1-0.2c0-0.1,0.1-0.1,0.3-0.2
				c0.1,0,0.3-0.1,0.5-0.1c0.2,0,0.5,0,0.8,0c0.3,0,0.6,0,0.8,0c0.2,0,0.4,0.1,0.5,0.1c0.1,0,0.2,0.1,0.3,0.2
				c0.1,0.1,0.1,0.1,0.1,0.2V150.5z"/>
			<path class="st2" d="M99.9,147.1c0,0.7-0.1,1.3-0.4,1.8c-0.3,0.5-0.6,1-1.1,1.3c-0.5,0.3-1,0.6-1.6,0.8c-0.6,0.2-1.3,0.3-2.1,0.3
				c-0.4,0-0.9,0-1.3-0.1c-0.4-0.1-0.8-0.2-1.1-0.3c-0.3-0.1-0.6-0.2-0.8-0.3c-0.2-0.1-0.4-0.2-0.5-0.3c-0.1-0.1-0.2-0.2-0.2-0.4
				c-0.1-0.2-0.1-0.5-0.1-0.9c0-0.3,0-0.5,0-0.6c0-0.2,0-0.3,0.1-0.4c0-0.1,0.1-0.2,0.1-0.2s0.1,0,0.2,0c0.1,0,0.2,0.1,0.4,0.2
				c0.2,0.1,0.4,0.2,0.7,0.4c0.3,0.1,0.6,0.3,1,0.4c0.4,0.1,0.8,0.2,1.3,0.2c0.3,0,0.6,0,0.8-0.1c0.2-0.1,0.4-0.2,0.6-0.3
				c0.2-0.1,0.3-0.3,0.4-0.4c0.1-0.2,0.1-0.4,0.1-0.6c0-0.3-0.1-0.5-0.2-0.7c-0.2-0.2-0.4-0.4-0.7-0.5c-0.3-0.1-0.6-0.3-0.9-0.4
				c-0.3-0.1-0.7-0.3-1.1-0.4c-0.4-0.2-0.7-0.3-1.1-0.5c-0.3-0.2-0.7-0.4-0.9-0.7c-0.3-0.3-0.5-0.6-0.7-1c-0.2-0.4-0.2-0.9-0.2-1.4
				c0-0.6,0.1-1.1,0.3-1.6c0.2-0.5,0.5-0.9,1-1.2c0.4-0.3,0.9-0.6,1.5-0.8c0.6-0.2,1.3-0.3,2-0.3c0.4,0,0.7,0,1.1,0.1
				c0.4,0.1,0.7,0.1,1,0.2c0.3,0.1,0.5,0.2,0.7,0.3c0.2,0.1,0.3,0.2,0.4,0.2c0.1,0.1,0.1,0.1,0.2,0.2c0,0.1,0.1,0.1,0.1,0.2
				c0,0.1,0,0.2,0,0.3c0,0.1,0,0.3,0,0.5c0,0.2,0,0.4,0,0.6c0,0.2,0,0.3-0.1,0.4c0,0.1-0.1,0.2-0.1,0.2c-0.1,0-0.1,0-0.2,0
				c-0.1,0-0.2,0-0.4-0.1c-0.2-0.1-0.4-0.2-0.6-0.3c-0.3-0.1-0.5-0.2-0.9-0.3c-0.3-0.1-0.7-0.1-1.1-0.1c-0.3,0-0.6,0-0.8,0.1
				c-0.2,0.1-0.4,0.2-0.6,0.3s-0.2,0.3-0.3,0.4c-0.1,0.2-0.1,0.3-0.1,0.5c0,0.3,0.1,0.5,0.3,0.7c0.2,0.2,0.4,0.4,0.7,0.5
				c0.3,0.1,0.6,0.3,0.9,0.4c0.4,0.1,0.7,0.3,1.1,0.4c0.4,0.1,0.7,0.3,1.1,0.5c0.4,0.2,0.7,0.4,0.9,0.7c0.3,0.3,0.5,0.6,0.7,1
				C99.8,146.1,99.9,146.6,99.9,147.1z"/>
			<path class="st2" d="M112.3,150.5c0,0.1,0,0.2-0.1,0.3c-0.1,0.1-0.2,0.1-0.4,0.2c-0.2,0-0.5,0-0.9,0c-0.4,0-0.7,0-0.9,0
				c-0.2,0-0.3-0.1-0.4-0.2c-0.1-0.1-0.1-0.2-0.1-0.3v-1c-0.5,0.5-1.1,0.9-1.7,1.2c-0.6,0.3-1.3,0.4-2.1,0.4c-0.6,0-1.2-0.1-1.7-0.2
				c-0.5-0.2-1-0.4-1.4-0.7c-0.4-0.3-0.7-0.7-0.9-1.2c-0.2-0.5-0.3-1-0.3-1.7c0-0.7,0.1-1.3,0.4-1.8c0.3-0.5,0.7-0.9,1.2-1.3
				c0.5-0.3,1.2-0.6,2-0.7s1.7-0.2,2.8-0.2h1.2v-0.7c0-0.4,0-0.7-0.1-1c-0.1-0.3-0.2-0.5-0.4-0.7c-0.2-0.2-0.4-0.3-0.7-0.4
				s-0.6-0.1-1.1-0.1c-0.6,0-1.1,0.1-1.5,0.2c-0.4,0.1-0.8,0.3-1.2,0.4c-0.3,0.2-0.6,0.3-0.9,0.4c-0.2,0.1-0.4,0.2-0.6,0.2
				c-0.1,0-0.2,0-0.3-0.1c-0.1-0.1-0.1-0.2-0.2-0.3c0-0.1-0.1-0.3-0.1-0.4c0-0.2,0-0.4,0-0.6c0-0.3,0-0.5,0.1-0.7
				c0-0.2,0.1-0.3,0.3-0.4c0.1-0.1,0.3-0.3,0.7-0.4c0.3-0.2,0.7-0.3,1.1-0.4c0.4-0.1,0.9-0.2,1.4-0.3c0.5-0.1,1-0.1,1.5-0.1
				c0.9,0,1.7,0.1,2.4,0.3c0.7,0.2,1.2,0.5,1.6,0.8c0.4,0.4,0.7,0.9,0.9,1.5c0.2,0.6,0.3,1.3,0.3,2.1V150.5z M109,145.4h-1.3
				c-0.5,0-1,0-1.4,0.1c-0.4,0.1-0.7,0.2-0.9,0.4c-0.2,0.2-0.4,0.4-0.5,0.6c-0.1,0.2-0.2,0.5-0.2,0.8c0,0.5,0.2,0.9,0.5,1.2
				c0.3,0.3,0.8,0.4,1.3,0.4c0.5,0,0.9-0.1,1.3-0.4c0.4-0.2,0.8-0.6,1.2-1.1V145.4z"/>
			<path class="st2" d="M126.7,150.5c0,0.1,0,0.2-0.1,0.2c0,0.1-0.1,0.1-0.2,0.2c-0.1,0-0.3,0.1-0.4,0.1c-0.2,0-0.4,0-0.7,0
				c-0.3,0-0.5,0-0.7,0c-0.2,0-0.3,0-0.4-0.1c-0.1,0-0.2-0.1-0.2-0.2c0-0.1-0.1-0.2-0.1-0.2v-1.3c-0.6,0.7-1.3,1.2-1.9,1.5
				c-0.7,0.4-1.4,0.5-2.2,0.5c-0.9,0-1.7-0.2-2.3-0.5c-0.6-0.4-1.1-0.8-1.5-1.4c-0.4-0.6-0.7-1.3-0.9-2.1c-0.2-0.8-0.3-1.6-0.3-2.5
				c0-1.1,0.1-2,0.3-2.9c0.2-0.8,0.6-1.6,1-2.2c0.4-0.6,1-1.1,1.6-1.4c0.7-0.3,1.4-0.5,2.3-0.5c0.7,0,1.3,0.1,1.8,0.4
				c0.5,0.3,1.1,0.7,1.6,1.2v-6.5c0-0.1,0-0.2,0.1-0.2c0-0.1,0.1-0.1,0.3-0.2c0.1,0,0.3-0.1,0.5-0.1c0.2,0,0.5,0,0.8,0
				c0.3,0,0.6,0,0.8,0c0.2,0,0.4,0.1,0.5,0.1c0.1,0,0.2,0.1,0.3,0.2c0.1,0.1,0.1,0.2,0.1,0.2V150.5z M123.4,142.5
				c-0.5-0.6-0.9-1.1-1.4-1.4s-0.9-0.5-1.4-0.5c-0.4,0-0.8,0.1-1.1,0.3c-0.3,0.2-0.6,0.5-0.8,0.9c-0.2,0.4-0.3,0.8-0.4,1.2
				c-0.1,0.5-0.1,0.9-0.1,1.4c0,0.5,0,1,0.1,1.5c0.1,0.5,0.2,0.9,0.4,1.3c0.2,0.4,0.4,0.7,0.7,0.9c0.3,0.2,0.7,0.3,1.2,0.3
				c0.2,0,0.5,0,0.7-0.1c0.2-0.1,0.4-0.2,0.7-0.3c0.2-0.2,0.5-0.4,0.7-0.6c0.2-0.2,0.5-0.5,0.8-0.9V142.5z"/>
			<path class="st2" d="M140.9,144.2c0,0.4-0.1,0.7-0.3,0.9c-0.2,0.2-0.4,0.3-0.8,0.3h-7.3c0,0.5,0.1,1,0.2,1.4
				c0.1,0.4,0.3,0.8,0.6,1.1c0.3,0.3,0.6,0.5,1,0.7c0.4,0.2,0.9,0.2,1.5,0.2c0.6,0,1.1,0,1.6-0.1c0.4-0.1,0.8-0.2,1.2-0.3
				c0.3-0.1,0.6-0.2,0.8-0.3c0.2-0.1,0.4-0.1,0.5-0.1c0.1,0,0.1,0,0.2,0s0.1,0.1,0.1,0.2c0,0.1,0.1,0.2,0.1,0.3c0,0.1,0,0.3,0,0.6
				c0,0.2,0,0.4,0,0.5c0,0.1,0,0.3,0,0.4c0,0.1,0,0.2-0.1,0.2c0,0.1-0.1,0.1-0.1,0.2c-0.1,0.1-0.2,0.1-0.5,0.3
				c-0.3,0.1-0.6,0.2-1,0.3c-0.4,0.1-0.9,0.2-1.4,0.3c-0.5,0.1-1.1,0.1-1.7,0.1c-1.1,0-2-0.1-2.8-0.4c-0.8-0.3-1.5-0.7-2-1.2
				c-0.5-0.5-0.9-1.2-1.2-2.1c-0.3-0.8-0.4-1.8-0.4-2.9c0-1.1,0.1-2,0.4-2.9c0.3-0.9,0.7-1.6,1.2-2.2c0.5-0.6,1.2-1,1.9-1.4
				s1.6-0.5,2.6-0.5c1,0,1.9,0.1,2.6,0.4c0.7,0.3,1.3,0.7,1.8,1.2c0.5,0.5,0.8,1.1,1,1.9c0.2,0.7,0.3,1.5,0.3,2.3V144.2z
				 M137.6,143.2c0-0.9-0.2-1.7-0.6-2.2c-0.4-0.5-1-0.8-1.9-0.8c-0.4,0-0.8,0.1-1.1,0.2c-0.3,0.2-0.6,0.4-0.8,0.6
				c-0.2,0.3-0.4,0.6-0.5,1c-0.1,0.4-0.2,0.8-0.2,1.2H137.6z"/>
			<path class="st2" d="M151.1,139.7c0,0.3,0,0.6,0,0.8c0,0.2,0,0.4-0.1,0.5c0,0.1-0.1,0.2-0.1,0.2c-0.1,0-0.1,0.1-0.2,0.1
				c-0.1,0-0.2,0-0.2,0c-0.1,0-0.2-0.1-0.3-0.1c-0.1,0-0.2-0.1-0.4-0.1c-0.1,0-0.3,0-0.4,0c-0.2,0-0.4,0-0.6,0.1
				c-0.2,0.1-0.4,0.2-0.6,0.4c-0.2,0.2-0.4,0.4-0.6,0.6c-0.2,0.3-0.5,0.6-0.7,1v7.5c0,0.1,0,0.2-0.1,0.2c-0.1,0.1-0.1,0.1-0.3,0.2
				c-0.1,0-0.3,0.1-0.5,0.1c-0.2,0-0.5,0-0.8,0c-0.3,0-0.6,0-0.8,0c-0.2,0-0.4-0.1-0.5-0.1c-0.1,0-0.2-0.1-0.3-0.2
				c-0.1-0.1-0.1-0.1-0.1-0.2v-12c0-0.1,0-0.2,0.1-0.2c0-0.1,0.1-0.1,0.2-0.2c0.1,0,0.3-0.1,0.4-0.1c0.2,0,0.4,0,0.7,0
				c0.3,0,0.5,0,0.7,0c0.2,0,0.3,0.1,0.4,0.1c0.1,0,0.2,0.1,0.2,0.2c0,0.1,0.1,0.1,0.1,0.2v1.5c0.3-0.4,0.6-0.8,0.9-1.1
				s0.5-0.5,0.8-0.7c0.2-0.2,0.5-0.3,0.8-0.4c0.2-0.1,0.5-0.1,0.8-0.1c0.1,0,0.2,0,0.4,0s0.3,0,0.4,0.1c0.1,0,0.3,0.1,0.4,0.1
				c0.1,0,0.2,0.1,0.2,0.1c0,0,0.1,0.1,0.1,0.1s0,0.1,0.1,0.2c0,0.1,0,0.2,0,0.4C151.1,139.1,151.1,139.3,151.1,139.7z"/>
		</g>
		<g>
			<path class="st2" d="M85.7,165.3c0,1-0.2,1.8-0.5,2.6c-0.3,0.8-0.7,1.4-1.3,1.9c-0.6,0.5-1.3,0.9-2.1,1.2c-0.8,0.3-1.8,0.4-3,0.4
				h-1.4v5.5c0,0.1,0,0.2-0.1,0.2c-0.1,0.1-0.2,0.1-0.3,0.2c-0.1,0-0.3,0.1-0.5,0.1c-0.2,0-0.5,0-0.9,0c-0.3,0-0.6,0-0.9,0
				c-0.2,0-0.4-0.1-0.5-0.1c-0.1,0-0.2-0.1-0.3-0.2c-0.1-0.1-0.1-0.2-0.1-0.2v-15.6c0-0.4,0.1-0.7,0.3-0.9c0.2-0.2,0.5-0.3,0.9-0.3
				h4.1c0.4,0,0.8,0,1.2,0c0.4,0,0.8,0.1,1.3,0.2c0.5,0.1,1,0.3,1.6,0.6c0.5,0.3,1,0.6,1.4,1.1c0.4,0.4,0.7,0.9,0.9,1.5
				C85.6,163.9,85.7,164.6,85.7,165.3z M82,165.5c0-0.6-0.1-1.1-0.3-1.5c-0.2-0.4-0.5-0.7-0.8-0.9c-0.3-0.2-0.6-0.3-1-0.4
				c-0.3,0-0.7-0.1-1.1-0.1h-1.5v5.9h1.6c0.6,0,1-0.1,1.4-0.2c0.4-0.2,0.7-0.4,0.9-0.6c0.2-0.3,0.4-0.6,0.6-1
				C81.9,166.4,82,166,82,165.5z"/>
			<path class="st2" d="M91.3,176.9c0,0.1,0,0.2-0.1,0.2c-0.1,0.1-0.1,0.1-0.3,0.2c-0.1,0-0.3,0.1-0.5,0.1c-0.2,0-0.5,0-0.8,0
				s-0.6,0-0.8,0c-0.2,0-0.4-0.1-0.5-0.1c-0.1,0-0.2-0.1-0.3-0.2c-0.1-0.1-0.1-0.1-0.1-0.2v-17.6c0-0.1,0-0.2,0.1-0.2
				c0.1-0.1,0.1-0.1,0.3-0.2c0.1,0,0.3-0.1,0.5-0.1c0.2,0,0.5,0,0.8,0s0.6,0,0.8,0c0.2,0,0.4,0.1,0.5,0.1c0.1,0,0.2,0.1,0.3,0.2
				c0.1,0.1,0.1,0.2,0.1,0.2V176.9z"/>
			<path class="st2" d="M104.6,176.9c0,0.1,0,0.2-0.1,0.3c-0.1,0.1-0.2,0.1-0.4,0.2c-0.2,0-0.5,0-0.9,0c-0.4,0-0.7,0-0.9,0
				c-0.2,0-0.3-0.1-0.4-0.2c-0.1-0.1-0.1-0.2-0.1-0.3v-1c-0.5,0.5-1.1,0.9-1.7,1.2c-0.6,0.3-1.3,0.4-2.1,0.4c-0.6,0-1.2-0.1-1.7-0.2
				c-0.5-0.2-1-0.4-1.4-0.7c-0.4-0.3-0.7-0.7-0.9-1.2c-0.2-0.5-0.3-1-0.3-1.7c0-0.7,0.1-1.3,0.4-1.8c0.3-0.5,0.7-0.9,1.2-1.3
				c0.5-0.3,1.2-0.6,2-0.7c0.8-0.2,1.7-0.2,2.8-0.2h1.2V169c0-0.4,0-0.7-0.1-1c-0.1-0.3-0.2-0.5-0.4-0.7c-0.2-0.2-0.4-0.3-0.7-0.4
				s-0.6-0.1-1.1-0.1c-0.6,0-1.1,0.1-1.5,0.2c-0.4,0.1-0.8,0.3-1.2,0.4c-0.3,0.2-0.6,0.3-0.9,0.4c-0.2,0.1-0.4,0.2-0.6,0.2
				c-0.1,0-0.2,0-0.3-0.1c-0.1-0.1-0.1-0.2-0.2-0.3c0-0.1-0.1-0.3-0.1-0.4c0-0.2,0-0.4,0-0.6c0-0.3,0-0.5,0.1-0.7
				c0-0.2,0.1-0.3,0.3-0.4c0.1-0.1,0.3-0.3,0.7-0.4c0.3-0.2,0.7-0.3,1.1-0.4c0.4-0.1,0.9-0.2,1.4-0.3c0.5-0.1,1-0.1,1.5-0.1
				c0.9,0,1.7,0.1,2.4,0.3c0.7,0.2,1.2,0.5,1.6,0.8c0.4,0.4,0.7,0.9,0.9,1.5c0.2,0.6,0.3,1.3,0.3,2.1V176.9z M101.3,171.8H100
				c-0.5,0-1,0-1.4,0.1c-0.4,0.1-0.7,0.2-0.9,0.4c-0.2,0.2-0.4,0.4-0.5,0.6c-0.1,0.2-0.2,0.5-0.2,0.8c0,0.5,0.2,0.9,0.5,1.2
				c0.3,0.3,0.8,0.4,1.3,0.4c0.5,0,0.9-0.1,1.3-0.4c0.4-0.2,0.8-0.6,1.2-1.1V171.8z"/>
			<path class="st2" d="M116.7,175c0,0.2,0,0.4,0,0.6c0,0.2,0,0.3-0.1,0.4c0,0.1,0,0.2-0.1,0.3s-0.1,0.2-0.2,0.3
				c-0.1,0.1-0.3,0.2-0.5,0.4c-0.3,0.1-0.6,0.3-0.9,0.4c-0.3,0.1-0.7,0.2-1.1,0.3c-0.4,0.1-0.8,0.1-1.2,0.1c-0.9,0-1.7-0.1-2.4-0.4
				c-0.7-0.3-1.3-0.7-1.8-1.3c-0.5-0.6-0.8-1.2-1.1-2c-0.2-0.8-0.4-1.7-0.4-2.8c0-1.2,0.1-2.2,0.4-3.1c0.3-0.9,0.7-1.6,1.3-2.2
				c0.5-0.6,1.2-1,1.9-1.3s1.5-0.4,2.4-0.4c0.4,0,0.7,0,1.1,0.1c0.3,0.1,0.7,0.1,1,0.3s0.6,0.2,0.8,0.4c0.2,0.1,0.4,0.2,0.5,0.3
				c0.1,0.1,0.2,0.2,0.2,0.2c0,0.1,0.1,0.2,0.1,0.3s0,0.2,0.1,0.4c0,0.2,0,0.3,0,0.6c0,0.5,0,0.9-0.1,1.1c-0.1,0.2-0.2,0.3-0.3,0.3
				c-0.2,0-0.3-0.1-0.5-0.2c-0.2-0.1-0.4-0.3-0.6-0.4c-0.2-0.2-0.5-0.3-0.8-0.4c-0.3-0.1-0.7-0.2-1.2-0.2c-0.9,0-1.5,0.3-2,1
				c-0.5,0.7-0.7,1.7-0.7,3c0,0.6,0.1,1.2,0.2,1.7c0.1,0.5,0.3,0.9,0.5,1.2c0.2,0.3,0.5,0.6,0.9,0.7c0.3,0.2,0.7,0.2,1.2,0.2
				c0.5,0,0.9-0.1,1.2-0.2c0.3-0.1,0.6-0.3,0.9-0.5c0.2-0.2,0.5-0.3,0.6-0.5c0.2-0.1,0.3-0.2,0.4-0.2c0.1,0,0.1,0,0.2,0.1
				c0.1,0,0.1,0.1,0.1,0.2c0,0.1,0.1,0.3,0.1,0.5C116.7,174.4,116.7,174.7,116.7,175z"/>
			<path class="st2" d="M129.9,170.6c0,0.4-0.1,0.7-0.3,0.9c-0.2,0.2-0.4,0.3-0.8,0.3h-7.3c0,0.5,0.1,1,0.2,1.4
				c0.1,0.4,0.3,0.8,0.6,1.1c0.3,0.3,0.6,0.5,1,0.7c0.4,0.2,0.9,0.2,1.5,0.2c0.6,0,1.1,0,1.6-0.1c0.4-0.1,0.8-0.2,1.2-0.3
				c0.3-0.1,0.6-0.2,0.8-0.3c0.2-0.1,0.4-0.1,0.5-0.1c0.1,0,0.1,0,0.2,0s0.1,0.1,0.1,0.2c0,0.1,0.1,0.2,0.1,0.3c0,0.1,0,0.3,0,0.6
				c0,0.2,0,0.4,0,0.5c0,0.1,0,0.3,0,0.4s0,0.2-0.1,0.2c0,0.1-0.1,0.1-0.1,0.2c-0.1,0.1-0.2,0.1-0.5,0.3c-0.3,0.1-0.6,0.2-1,0.3
				c-0.4,0.1-0.9,0.2-1.4,0.3c-0.5,0.1-1.1,0.1-1.7,0.1c-1.1,0-2-0.1-2.8-0.4c-0.8-0.3-1.5-0.7-2-1.2c-0.5-0.5-0.9-1.2-1.2-2.1
				c-0.3-0.8-0.4-1.8-0.4-2.9c0-1.1,0.1-2,0.4-2.9c0.3-0.9,0.7-1.6,1.2-2.2c0.5-0.6,1.2-1,1.9-1.4s1.6-0.5,2.6-0.5
				c1,0,1.9,0.1,2.6,0.4c0.7,0.3,1.3,0.7,1.8,1.2c0.5,0.5,0.8,1.1,1,1.9c0.2,0.7,0.3,1.5,0.3,2.3V170.6z M126.7,169.6
				c0-0.9-0.2-1.7-0.6-2.2c-0.4-0.5-1-0.8-1.9-0.8c-0.4,0-0.8,0.1-1.1,0.2c-0.3,0.2-0.6,0.4-0.8,0.6c-0.2,0.3-0.4,0.6-0.5,1
				c-0.1,0.4-0.2,0.8-0.2,1.2H126.7z"/>
		</g>
	</g>
</g>
</svg>
