<svg version="1.2" xmlns="http://www.w3.org/2000/svg" viewBox="0 0 16 16" width="16" height="16">
	<title>aidcrusader</title>
	<style>
		.s0 { fill: #2B388F } 
	</style>
	<path class="s0" d="m12.9 13.6q-0.8 0.3-1.6 0.4-0.8 0-1.6-0.1l-0.3-0.1c-0.2 0-0.3-0.1-0.4-0.1l-0.4-0.1q-0.2-0.1-0.4-0.1-0.8-0.3-1.6-0.7-0.8-0.3-1.6-0.5-0.2 0-0.4-0.1-0.3-0.4-0.5-1l1.9 0.3 1-3.6q0.6-1.9 0.6-3.9 0.9 1.5 1.4 3c0 0 0.9 2.4 0.6 3.2 0 0-1.3 0.7-2.5 1.3l4.2-0.3q-0.1 0.6-0.2 1.2 0.2 0 0.4 0h0.7q0.5 0 0.7 0 0.2 0 0.4-0.1 0-0.1 0-0.1 0.1-0.1 0-0.2 0-0.3-0.1-0.5c0 0-5.2-11.5-5.2-11.5 0 0-5.2 11.5-5.2 11.5q-0.1 0.2-0.2 0.5 0 0.1 0 0.1 0.1 0.1 0.1 0.2-0.6 0.1-1.1 0.2 1.7 0 3.2 0.5 0.8 0.3 1.6 0.6l0.7 0.4q0.4 0.2 0.8 0.3 0.9 0.3 1.8 0.4 0.8 0.1 1.7 0 0.9-0.2 1.7-0.7 0.8-0.6 1.3-1.3-0.7 0.5-1.5 0.9zm-3.3 1.9q-0.5 0-1-0.1-1-0.2-2-0.6-0.2-0.1-0.5-0.3-0.2-0.1-0.5-0.2-0.5-0.2-1-0.4-0.6-0.1-1.2-0.1-0.5-0.1-1.1 0.1 0.5 0 1.1 0.2 0.5 0.1 0.9 0.4 0.5 0.2 1 0.4 0.5 0.3 1 0.5 1 0.5 2.2 0.6 0.6 0 1.1-0.1 0.6-0.1 1.1-0.4c-0.4 0-0.7 0-1.1 0z"/>
</svg>