<svg version="1.2" xmlns="http://www.w3.org/2000/svg" viewBox="0 0 100 100" width="100" height="100">
	<title>campaigns-feed-light</title>
	<style>
		.s0 { fill: #2B2D42 } 
	</style>
	<path class="s0" d="m45.9 0.2c2.8 0 5.6 0 8.5 0.1 1.1 0.1 2.2 0.1 3.1 0.3 3.2 0.8 6.4 1.4 9.5 2.5 2.5 0.9 4.9 1.3 7.5 1.2 2.3-0.1 4.6 0 6.9 0 1.2 0 2.5 0.1 3.6 0.4 6.5 1.7 11 7.3 11.1 13.8 0 3.6 0 7.1 0 10.7 0 0.6 0.2 1.3 0.4 1.9 1.6 4 2.8 8.1 3.3 12.4 0.1 0.8 0.3 1.6 0.4 2.4 0 2.8 0 5.6-0.1 8.5-0.1 1.1-0.1 2.2-0.3 3.1-0.8 3.2-1.4 6.4-2.5 9.5-0.9 2.5-1.3 4.9-1.2 7.5 0.1 2.3 0 4.6 0 6.9-0.1 1.2-0.1 2.5-0.4 3.6-1.7 6.5-7.3 11-13.8 11.1-3.6 0-7.1 0-10.7 0-0.6 0-1.3 0.2-1.9 0.4-4 1.6-8.1 2.8-12.4 3.3-0.8 0.1-1.6 0.3-2.4 0.4-2.8 0-5.6 0-8.5-0.1-1.2-0.1-2.2-0.1-3.1-0.3-3.2-0.8-6.4-1.4-9.5-2.5-2.5-0.9-4.9-1.3-7.5-1.2-2.3 0.1-4.6 0-7 0-1.2-0.1-2.4-0.1-3.6-0.4-6.4-1.7-10.9-7.3-11-13.8-0.1-3.6 0-7.1 0-10.7 0-0.6-0.2-1.3-0.4-1.9-1.6-4-2.8-8.1-3.3-12.4-0.1-0.8-0.3-1.6-0.4-2.4 0-2.8 0-5.6 0.1-8.5 0.1-1.2 0.1-2.2 0.3-3.1 0.8-3.2 1.4-6.4 2.5-9.5 0.9-2.5 1.3-4.9 1.2-7.5-0.1-2.3 0-4.6 0-7 0-1.2 0.1-2.4 0.4-3.6 1.7-6.4 7.3-10.9 13.8-11 3.6-0.1 7.1 0 10.7 0 0.6 0 1.3-0.2 1.9-0.4 4-1.6 8.1-2.8 12.4-3.3 0.8-0.1 1.6-0.3 2.4-0.4zm-16.4 51.2c0.1 0.9 0.2 1.9 0.4 2.8 0.7 3.7 2.3 6.9 4.8 9.7 2.4 2.6 5.2 4.6 8.5 5.8 3.4 1.2 6.9 1.5 10.4 1 3.3-0.6 6.3-1.9 9-3.9 3.1-2.4 5.5-5.4 6.9-9.1 1.7-4.5 1.9-9.1 0.4-13.7-1.3-4.2-3.7-7.6-7.1-10.2-3.2-2.6-6.9-3.9-11-4.3-3-0.2-6 0.2-8.9 1.3-4.9 1.9-8.5 5.2-11 9.8-1.8 3.3-2.6 6.9-2.4 10.8zm-13.5-11.2c2.1 0.4 4.2 0.7 6.3 1 3.3-9.3 9.6-15.6 18.9-18.9q-1-6-2-12.2c-14.8 4.7-24.4 14.3-29.1 29.1 0.6 0.1 1 0.2 1.5 0.3 1.4 0.2 2.8 0.5 4.4 0.7zm60-3.9c0.7 1.6 1.4 3.2 2.2 4.9q5.9-1 12.1-2c-4.7-14.8-14.4-24.4-29.1-29.1q-1.1 6.3-2.1 12.2c7.5 2.5 13 7.2 16.9 14zm-61.5 35.2c0.4 0.5 0.7 1.1 1.1 1.6 2 2.8 4.1 5.4 6.7 7.7 2.8 2.6 5.9 4.8 9.3 6.5 2.5 1.1 5 2.1 7.6 3.1 0.7-4.2 1.4-8.3 2.1-12.3-4.6-1.5-8.4-3.9-11.7-7.2-3.4-3.3-5.8-7.2-7.3-11.8q-6 1-12.1 2.1c1 3.6 2.5 6.9 4.3 10.3zm55.9-0.2c-3.2 3.2-7 5.4-11.3 6.8 0.7 4 1.4 8.1 2.1 12.2 14.8-4.7 24.4-14.3 29.1-29.1q-6.2-1.1-12.2-2.1c-1.6 4.8-4.1 8.8-7.7 12.2zm-51.5-62.7c-6.2 0.3-11.3 5.3-10.2 13.6 3.7-5.4 8.1-9.8 13.6-13.6-1.3 0-2.3 0-3.4 0zm69 8.7c1.3 1.6 2.5 3.1 3.9 4.8 1-10.7-6.8-14.5-13.4-13.4 0.1 0.1 0.1 0.2 0.2 0.3 3.2 2.1 6 4.7 8.6 7.4 0.2 0.2 0.4 0.5 0.7 0.9zm-74.8 72.7c2.7 1.8 5.7 2 8.8 1.8-2.3-2.1-4.8-4-7-6.2-2.3-2.2-4.2-4.7-6.3-7.1 0 0.9 0 1.9 0 2.8 0.1 1.9 0.4 3.8 1.5 5.3 0.9 1.1 1.9 2.2 3 3.4zm71.8-3.7q-3.3 2.7-6.5 5.5c9.7 1 14.4-5.8 13.3-13.2q-3.3 3.7-6.8 7.7z"/>
</svg>