<svg version="1.2" xmlns="http://www.w3.org/2000/svg" viewBox="0 0 180 40" width="180" height="40">
	<title>logo-line</title>
	<style>
		.s0 { fill: #2b3990 } 
	</style>
	<filter id="f0">
		<feFlood flood-color="#0081b0" flood-opacity="1" />
		<feBlend mode="normal" in2="SourceGraphic"/>
		<feComposite in2="SourceAlpha" operator="in" />
	</filter>
	<g id="Pasta 1" filter="url(#f0)">
		<path class="s0" d="m27.4 33.6q-1.9 0.7-3.8 0.9c-1.3 0.1-2.6 0.1-3.9-0.2l-0.9-0.2q-0.5-0.1-1-0.2-0.4-0.1-0.9-0.3-0.5-0.1-0.9-0.3c-1.3-0.5-2.5-1-3.8-1.5-1.3-0.5-2.6-1-3.9-1.3q-0.6-0.1-1.1-0.2c-0.3-0.5-0.7-1.3-1-2.4l4.4 0.6c0 0 2-6.6 2.6-8.7 1.7-5.7 1.5-9.2 1.5-9.2 0 0 1.9 3.2 3.3 7.1 0 0 2.2 5.8 1.5 7.7 0 0-3.2 1.8-6.1 3.1l10.1-0.6c0 0-0.2 1.5-0.6 2.7q0.1 0 0.2 0.1 0.3 0.1 0.9 0.1 0.6 0 1.7 0 1.1 0 1.7 0 0.6-0.1 0.9-0.3 0.2-0.2 0.1-0.7 0-0.4-0.3-1.2c0 0-12.5-27.8-12.5-27.8-0.1 0-12.7 27.7-12.7 27.7q-0.2 0.8-0.3 1.2-0.1 0.5 0.1 0.7-1.4 0.2-2.7 0.7c2.8 0 5.4 0.2 7.9 1.1 1.2 0.4 2.4 1 3.7 1.5l1.8 0.9q1 0.4 2 0.8c1.3 0.5 2.7 0.8 4.1 1 1.4 0.2 2.8 0.1 4.2-0.2 1.4-0.3 2.8-0.8 4-1.7 1.2-0.8 2.4-1.8 3.3-3-1.2 0.9-2.4 1.6-3.6 2.1z"/>
		<path class="s0" d="m19.4 38.2q-1.2 0-2.5-0.2c-1.6-0.3-3.2-0.9-4.7-1.6q-0.6-0.2-1.2-0.5-0.6-0.3-1.2-0.6-1.2-0.5-2.6-0.9-1.3-0.4-2.7-0.5c-0.9 0-1.8 0-2.6 0.3 0.8 0.1 1.7 0.3 2.5 0.5q1.2 0.4 2.4 0.9 1.2 0.5 2.3 1.1c0.7 0.4 1.5 0.9 2.4 1.3 1.6 0.7 3.4 1.3 5.3 1.3 0.9 0.1 1.8 0 2.7-0.2q1.4-0.3 2.6-1c-0.9 0.1-1.8 0.2-2.7 0.1z"/>
		<path class="s0" d="m52.5 25.6q0.2 0.5 0.2 0.8 0 0.3-0.1 0.4-0.2 0.2-0.6 0.2-0.3 0.1-1 0.1-0.7 0-1.1-0.1-0.4 0-0.6-0.1-0.2 0-0.3-0.1-0.1-0.1-0.1-0.3l-1.2-3.6h-6.7l-1.1 3.5q-0.1 0.2-0.2 0.3 0 0.1-0.2 0.2-0.2 0.1-0.6 0.1-0.4 0-1 0-0.6 0-0.9 0-0.4-0.1-0.5-0.2-0.2-0.2-0.1-0.5 0-0.2 0.2-0.7l5.5-15.8q0.1-0.2 0.2-0.3 0.1-0.2 0.3-0.3 0.3 0 0.7-0.1 0.4 0 1.1 0 0.8 0 1.3 0.1 0.5 0 0.7 0 0.3 0.1 0.4 0.3 0.1 0.1 0.2 0.4zm-8.1-13l-2.5 7.5h5z"/>
		<path class="s0" d="m57.9 10.1q0 1.1-0.4 1.5-0.4 0.4-1.6 0.4-1.1 0-1.5-0.4-0.4-0.4-0.4-1.4 0-1 0.4-1.4 0.4-0.4 1.6-0.4 1.1 0 1.5 0.4 0.4 0.4 0.4 1.3zm-0.2 16.4q0 0.2-0.1 0.3-0.1 0.1-0.3 0.1-0.2 0.1-0.5 0.1-0.4 0.1-0.9 0.1-0.5 0-0.8-0.1-0.3 0-0.5-0.1-0.2 0-0.3-0.1-0.1-0.1-0.1-0.3v-12.2q0-0.1 0.1-0.2 0.1-0.1 0.3-0.2 0.2-0.1 0.5-0.1 0.3-0.1 0.8-0.1 0.6 0 0.9 0.1 0.3 0 0.5 0.1 0.2 0.1 0.3 0.2 0.1 0.1 0.1 0.2z"/>
		<path class="s0" d="m72.1 26.6q0 0.1 0 0.2-0.1 0.1-0.3 0.2-0.1 0-0.4 0.1-0.3 0-0.7 0-0.4 0-0.7 0-0.3-0.1-0.5-0.1-0.1-0.1-0.2-0.2-0.1-0.1-0.1-0.3v-1.3q-0.9 1-2 1.6-1 0.5-2.3 0.5-1.4 0-2.3-0.5-1-0.6-1.6-1.5-0.6-0.9-0.9-2.1-0.3-1.3-0.2-2.6 0-1.7 0.3-3 0.4-1.3 1-2.2 0.7-0.9 1.7-1.4 1-0.5 2.3-0.5 1 0 1.9 0.4 0.8 0.5 1.6 1.3v-6.7q0-0.1 0.1-0.2 0.1-0.1 0.3-0.2 0.2-0.1 0.5-0.1 0.3 0 0.9 0 0.5 0 0.8 0 0.3 0 0.5 0.1 0.2 0.1 0.3 0.2 0.1 0.1 0.1 0.3l-0.1 18zm-3.4-8.2q-0.7-1-1.4-1.5-0.7-0.5-1.4-0.5-0.7 0-1.2 0.4-0.5 0.3-0.7 0.9-0.3 0.5-0.5 1.2-0.1 0.7-0.1 1.5 0 0.7 0.1 1.4 0.1 0.8 0.4 1.3 0.3 0.6 0.7 1 0.5 0.3 1.2 0.3 0.4 0 0.7-0.1 0.3-0.1 0.7-0.3 0.3-0.3 0.7-0.6 0.4-0.4 0.8-1v-4z"/>
		<path class="s0" d="m94.4 24.4q0 0.3 0 0.6 0 0.2 0 0.4-0.1 0.1-0.2 0.3 0 0.1-0.2 0.2-0.1 0.2-0.6 0.4-0.4 0.3-1 0.5-0.6 0.2-1.4 0.4-0.8 0.1-1.8 0.1-1.8 0-3.3-0.5-1.4-0.6-2.5-1.7-1-1.1-1.5-2.8-0.6-1.7-0.6-3.9 0-2.3 0.6-4 0.6-1.8 1.7-3 1.1-1.2 2.6-1.8 1.5-0.6 3.4-0.6 0.7 0 1.4 0.1 0.7 0.2 1.3 0.4 0.5 0.2 1 0.4 0.5 0.3 0.7 0.5 0.1 0.1 0.2 0.3 0.1 0.1 0.1 0.3 0.1 0.2 0.1 0.4 0 0.3 0 0.7 0 0.4 0 0.7 0 0.3-0.1 0.5-0.1 0.1-0.2 0.2-0.1 0.1-0.2 0.1-0.2 0-0.5-0.2-0.3-0.3-0.8-0.6-0.5-0.3-1.2-0.5-0.7-0.3-1.7-0.3-1 0-1.9 0.5-0.8 0.4-1.4 1.2-0.6 0.8-0.9 1.9-0.3 1.2-0.3 2.6 0 1.6 0.3 2.7 0.4 1.2 1 1.9 0.6 0.8 1.4 1.1 0.8 0.4 1.9 0.4 1 0 1.7-0.2 0.7-0.3 1.2-0.5 0.5-0.3 0.8-0.5 0.3-0.2 0.5-0.2 0.1 0 0.2 0 0.1 0.1 0.1 0.2 0.1 0.2 0.1 0.5 0 0.3 0 0.8z"/>
		<path class="s0" d="m104.7 15.5q0 0.5 0 0.8-0.1 0.3-0.1 0.5-0.1 0.2-0.2 0.3-0.1 0-0.2 0-0.1 0-0.2 0-0.2-0.1-0.3-0.1-0.2-0.1-0.4-0.1-0.2-0.1-0.5-0.1-0.3 0-0.6 0.1-0.2 0.2-0.5 0.4-0.4 0.2-0.7 0.7-0.3 0.4-0.7 1v7.6q0 0.1-0.1 0.2-0.1 0.1-0.3 0.2-0.2 0.1-0.5 0.1-0.4 0-0.9 0-0.5 0-0.8 0-0.3 0-0.5-0.1-0.2-0.1-0.3-0.2-0.1-0.1-0.1-0.2v-12.2q0-0.2 0.1-0.3 0.1-0.1 0.3-0.2 0.1 0 0.4-0.1 0.3 0 0.7 0 0.5 0 0.7 0 0.3 0.1 0.5 0.1 0.1 0.1 0.2 0.2 0.1 0.1 0.1 0.3v1.5q0.5-0.7 0.9-1.1 0.4-0.5 0.8-0.8 0.4-0.2 0.8-0.3 0.3-0.1 0.7-0.1 0.2 0 0.4 0 0.2 0 0.4 0.1 0.3 0 0.4 0.1 0.2 0 0.3 0.1 0 0.1 0.1 0.2 0 0.1 0 0.2 0.1 0.1 0.1 0.4 0 0.3 0 0.8z"/>
		<path class="s0" d="m118.4 26.6q0 0.2-0.1 0.3 0 0.1-0.2 0.2-0.2 0-0.5 0.1-0.2 0-0.7 0-0.4 0-0.7-0.1-0.3 0-0.4-0.1-0.2 0-0.3-0.1 0-0.1 0-0.3v-1.4q-1.1 1.1-2.1 1.7-1.1 0.5-2.2 0.5-1.2 0-2.1-0.4-0.9-0.4-1.4-1.1-0.5-0.8-0.7-1.7-0.3-0.9-0.3-2.3l0.1-7.5q0-0.2 0-0.3 0.1-0.1 0.3-0.1 0.2-0.1 0.5-0.1 0.4-0.1 0.9-0.1 0.5 0 0.8 0.1 0.3 0 0.5 0.1 0.2 0 0.3 0.1 0.1 0.1 0.1 0.3v6.9q0 1 0.1 1.5 0.1 0.5 0.4 0.8 0.2 0.4 0.6 0.6 0.4 0.2 0.9 0.2 0.7 0 1.4-0.5 0.6-0.5 1.4-1.4v-8.1q0-0.2 0.1-0.3 0-0.1 0.2-0.1 0.2-0.1 0.6-0.1 0.3-0.1 0.8-0.1 0.5 0 0.8 0.1 0.4 0 0.6 0.1 0.2 0 0.2 0.1 0.1 0.1 0.1 0.3z"/>
		<path class="s0" d="m129.4 23.2q0 1-0.4 1.8-0.4 0.8-1.1 1.4-0.8 0.5-1.7 0.8-1 0.2-2.1 0.2-0.7 0-1.3-0.1-0.7-0.1-1.2-0.2-0.5-0.2-0.8-0.4-0.3-0.1-0.5-0.3-0.1-0.1-0.2-0.4-0.1-0.3-0.1-0.9 0-0.4 0.1-0.7 0-0.2 0-0.4 0.1-0.1 0.2-0.1 0.1-0.1 0.2-0.1 0.1 0 0.4 0.2 0.3 0.2 0.8 0.4 0.4 0.2 1 0.3 0.6 0.2 1.3 0.2 0.5 0 0.8-0.1 0.4-0.1 0.7-0.2 0.2-0.2 0.4-0.5 0.1-0.3 0.1-0.6 0-0.4-0.2-0.7-0.3-0.3-0.7-0.6-0.4-0.2-1-0.4-0.5-0.2-1-0.4-0.6-0.2-1.1-0.5-0.6-0.3-1-0.8-0.4-0.4-0.6-1-0.3-0.6-0.3-1.5 0-0.9 0.4-1.6 0.3-0.8 0.9-1.3 0.7-0.5 1.6-0.8 0.9-0.3 2.1-0.3 0.6 0 1.1 0.1 0.6 0.1 1 0.2 0.4 0.2 0.7 0.3 0.3 0.1 0.5 0.2 0.1 0.1 0.1 0.3 0.1 0.1 0.1 0.2 0.1 0.1 0.1 0.4 0 0.2 0 0.5 0 0.4 0 0.6 0 0.2-0.1 0.4 0 0.1-0.1 0.2-0.1 0-0.2 0-0.1 0-0.4-0.1-0.2-0.2-0.6-0.4-0.4-0.1-0.9-0.3-0.6-0.1-1.2-0.1-0.5 0-0.8 0.1-0.4 0.1-0.6 0.3-0.2 0.1-0.3 0.4-0.1 0.2-0.1 0.5 0 0.4 0.2 0.7 0.3 0.3 0.7 0.5 0.4 0.2 1 0.4 0.5 0.2 1.1 0.4 0.5 0.3 1.1 0.6 0.5 0.3 0.9 0.7 0.5 0.5 0.7 1.1 0.3 0.6 0.3 1.4z"/>
		<path class="s0" d="m141.8 26.7q0 0.2-0.1 0.3-0.2 0.1-0.5 0.2-0.3 0-0.8 0-0.6 0-0.9 0-0.3-0.1-0.4-0.2-0.1-0.1-0.1-0.3v-1q-0.8 0.9-1.8 1.3-0.9 0.5-2.1 0.5-1 0-1.8-0.3-0.8-0.3-1.4-0.8-0.6-0.5-0.9-1.2-0.4-0.7-0.4-1.7 0-1.1 0.5-1.9 0.4-0.8 1.2-1.3 0.8-0.5 2.1-0.7 1.2-0.3 2.8-0.3h1.2v-0.7q0-0.6-0.1-1-0.1-0.5-0.4-0.8-0.2-0.2-0.7-0.4-0.4-0.1-1.1-0.1-0.8 0-1.5 0.2-0.7 0.2-1.2 0.4-0.5 0.2-0.9 0.4-0.3 0.2-0.6 0.2-0.1 0-0.2-0.1-0.1-0.1-0.2-0.3-0.1-0.1-0.1-0.4-0.1-0.3-0.1-0.6 0-0.4 0.1-0.7 0.1-0.2 0.3-0.4 0.2-0.2 0.6-0.4 0.5-0.3 1.2-0.5 0.6-0.2 1.4-0.3 0.7-0.1 1.5-0.1 1.5 0 2.5 0.2 1 0.3 1.7 0.9 0.6 0.6 0.9 1.5 0.3 0.9 0.3 2.2v8.2zm-3.4-5.2h-1.3q-0.8 0-1.4 0.1-0.6 0.1-1 0.4-0.3 0.2-0.5 0.6-0.2 0.3-0.2 0.8 0 0.7 0.5 1.2 0.5 0.4 1.4 0.4 0.7 0 1.3-0.4 0.6-0.3 1.2-1z"/>
		<path class="s0" d="m155.7 26.7q0 0.2 0 0.3-0.1 0.1-0.3 0.1-0.1 0.1-0.4 0.1-0.3 0.1-0.7 0.1-0.4 0-0.7-0.1-0.3 0-0.5-0.1-0.1 0-0.2-0.1-0.1-0.1-0.1-0.3v-1.4q-0.9 1.1-2 1.6-1 0.6-2.3 0.6-1.4 0-2.3-0.6-1-0.5-1.6-1.4-0.6-1-0.9-2.2-0.2-1.2-0.2-2.6 0-1.6 0.3-2.9 0.4-1.3 1-2.2 0.7-0.9 1.7-1.4 1-0.5 2.3-0.5 1 0 1.9 0.4 0.8 0.4 1.6 1.2v-6.6q0-0.1 0.1-0.2 0.1-0.2 0.3-0.2 0.2-0.1 0.5-0.2 0.4 0 0.9 0 0.5 0 0.8 0.1 0.3 0 0.5 0.1 0.2 0 0.3 0.2 0.1 0.1 0.1 0.2l-0.1 18zm-3.4-8.2q-0.7-0.9-1.4-1.4-0.7-0.5-1.4-0.5-0.7 0-1.2 0.3-0.5 0.4-0.7 0.9-0.3 0.6-0.5 1.3-0.1 0.7-0.1 1.4 0 0.8 0.1 1.5 0.1 0.7 0.4 1.3 0.3 0.6 0.7 0.9 0.5 0.4 1.2 0.4 0.4 0 0.7-0.1 0.3-0.1 0.7-0.4 0.3-0.2 0.7-0.6 0.4-0.4 0.8-0.9v-4.1z"/>
		<path class="s0" d="m169.4 20.3q0 0.6-0.3 0.9-0.3 0.3-0.8 0.3h-7.4q0 0.8 0.2 1.4 0.2 0.6 0.6 1.1 0.4 0.4 1 0.7 0.6 0.2 1.5 0.2 0.9 0 1.6-0.1 0.7-0.2 1.2-0.3 0.5-0.2 0.8-0.3 0.4-0.1 0.6-0.1 0.1 0 0.2 0 0.1 0.1 0.1 0.2 0.1 0.1 0.1 0.4 0 0.2 0 0.5 0 0.3 0 0.5 0 0.2 0 0.4-0.1 0.2-0.1 0.3-0.1 0.1-0.2 0.2-0.1 0-0.5 0.2-0.4 0.2-1 0.3-0.6 0.2-1.4 0.3-0.8 0.1-1.7 0.1-1.6 0-2.9-0.4-1.2-0.4-2-1.3-0.8-0.8-1.2-2.1-0.4-1.2-0.4-3 0-1.6 0.4-2.9 0.4-1.3 1.2-2.2 0.9-0.9 2-1.4 1.2-0.5 2.6-0.5 1.6 0 2.7 0.5 1 0.4 1.7 1.2 0.7 0.8 1.1 1.9 0.3 1.1 0.3 2.4v0.6zm-3.4-1q0.1-1.5-0.5-2.3-0.7-0.9-2-0.9-0.6 0-1.1 0.3-0.5 0.2-0.8 0.7-0.3 0.4-0.5 0.9-0.2 0.6-0.2 1.3z"/>
		<path class="s0" d="m179 15.6q0 0.5-0.1 0.9 0 0.3 0 0.5-0.1 0.1-0.2 0.2-0.1 0.1-0.2 0.1-0.1 0-0.3-0.1-0.1 0-0.3-0.1-0.1 0-0.3-0.1-0.2 0-0.5 0-0.3 0-0.6 0.1-0.3 0.1-0.6 0.3-0.3 0.3-0.6 0.7-0.4 0.4-0.7 1v7.6q0 0.2-0.1 0.3-0.1 0.1-0.3 0.2-0.2 0-0.5 0.1-0.4 0-0.9 0-0.5 0-0.8-0.1-0.3 0-0.5-0.1-0.2 0-0.3-0.1-0.1-0.1-0.1-0.3v-12.2q0-0.1 0.1-0.2 0.1-0.1 0.2-0.2 0.2-0.1 0.5-0.1 0.3-0.1 0.7-0.1 0.4 0 0.7 0.1 0.3 0 0.5 0.1 0.1 0 0.2 0.2 0.1 0.1 0.1 0.2v1.5q0.4-0.7 0.9-1.1 0.4-0.5 0.8-0.7 0.4-0.3 0.7-0.4 0.4-0.1 0.8-0.1 0.2 0 0.4 0 0.2 0.1 0.4 0.1 0.2 0.1 0.4 0.1 0.2 0.1 0.2 0.2 0.1 0 0.2 0.1 0 0.1 0 0.2 0 0.2 0.1 0.5 0 0.3 0 0.7z"/>
	</g>
</svg>