<svg version="1.2" xmlns="http://www.w3.org/2000/svg" viewBox="0 0 100 100" width="100" height="100">
	<title>logos-22</title>
	<style>
		.s0 { fill: #2B388F } 
		.s1 { fill: #2B388F } 
	</style>
	<path class="s0" d="m53.6 0.4c1.3 0.1 2.5 0.3 3.7 0.5 7.6 1.1 14.6 3.8 21 8.1 7.9 5.5 13.9 12.8 17.7 21.7 3.5 8.2 4.7 16.8 3.5 25.7-1.6 11.8-6.7 21.8-15.3 29.9-7.2 6.8-15.8 11.1-25.6 12.7-14.3 2.4-27.3-0.9-38.8-9.7-9.6-7.5-15.8-17.3-18.1-29.3-2.9-14.9 0.3-28.5 9.6-40.5 7.8-10 18-16.1 30.5-18.4 1.6-0.3 3.2-0.4 4.9-0.7 2.3 0 4.5 0 6.9 0zm-44.5 72.7c5.4 9.5 13 16.5 23.1 20.6 12.9 5.3 25.7 4.9 38.4-1 9.5-4.5 16.6-11.5 21.5-20.7 5.1-9.7 6.6-19.9 4.5-30.7-2.3-12.2-8.6-22-18.6-29.3-6.9-5.2-14.7-8.1-23.3-8.9-10.4-0.9-20.2 1.2-29 6.8-12.5 7.8-20 19.1-22.2 33.8-1.5 10.4 0.5 20.1 5.6 29.4z"/>
	<path class="s1" d="m7.7 36.9c5.7-16.7 17.2-27.1 34.4-30.6 23.3-4.7 46.7 10.9 51.7 34.1 5.2 24.1-9.3 47.2-33.2 53.1-23.9 5.9-48.5-9.5-53.8-33.5-1.7-7.8-1.5-15.4 0.9-23.1zm14.2 35.1c3.2 0.2 6.5 0.4 9.7 0.9 4.7 0.7 9 2.7 13.2 4.6 3.8 1.7 7.5 3.4 11.5 4.4 9.5 2.1 17.7-0.1 24.5-7 0.5-0.6 0.9-1.2 1.5-1.9-0.3 0.1-0.4 0.1-0.4 0.1q-0.4 0.2-0.7 0.5c-5.2 3.5-10.9 5.4-17.2 5.1-4-0.1-7.9-1.1-11.7-2.6-5.5-2-10.9-4.7-16.8-5.7-0.1 0-0.3-0.2-0.4-0.3-0.7-1.5-1.3-2.9-2.1-4.6 3.2 0.4 6.1 0.8 9 1.1 0.1-0.2 0.1-0.4 0.2-0.6q2.2-7.3 4.4-14.7c1.3-4.4 2.5-8.8 3-13.3 0.3-2.2 0.4-4.4 0.6-6.6 4 7.2 7.3 14.6 9.1 22.7 0.4 1.7 0.4 3.4 0.5 5.2 0.1 0.7-0.2 1.3-1 1.7-3.4 1.6-6.8 3.4-10.2 5.1-0.3 0.1-0.6 0.3-1 0.5 6.8-0.4 13.4-0.7 20.2-1.1-0.4 1.9-0.8 3.7-1.3 5.6 2 0.1 3.9 0.3 5.7 0.3q2 0 4-0.3c1.1-0.1 1.6-0.8 1.3-2-0.3-1.1-0.6-2.2-1.1-3.2q-11.6-25.7-23.3-51.4c-0.4-0.8-0.8-1.7-1.2-2.6-1.3 2.8-2.5 5.5-3.8 8.2q-10.4 22.9-20.9 45.9c-0.6 1.4-1.2 2.9-0.9 4.5q-2.2 0.6-4.3 1.2c-0.1 0-0.2 0.1-0.3 0.2 0 0 0.1 0 0.2 0.1zm20.8 9.5c-5.6-2.8-11.3-4.6-17.6-3.3 4.6 0.6 8.7 2.4 12.8 4.4 2.1 1.1 4.2 2.3 6.3 3.3 4.5 1.9 9.1 3 14 2.2 2.1-0.3 4.2-0.9 6.3-2-2.3 0-4.3 0-6.3 0-3.1-0.1-6.1-0.8-8.9-1.8-2.2-0.8-4.4-1.8-6.6-2.8z"/>
</svg>