<svg version="1.2" xmlns="http://www.w3.org/2000/svg" viewBox="0 0 568 165" width="568" height="165">
	<title>aid-crusader-inline-white</title>
	<style>
		.s0 { fill: #ffffff } 
	</style>
	<g>
		<g>
			<path class="s0" d="m127.1 140.2c-5.4 2.1-10.8 3.7-16.2 4-5.6 0.6-11.1 0.2-16.5-0.7l-4-0.8c-1.4-0.4-2.8-0.8-4.1-1q-2-0.6-4.1-1.1c-1.3-0.4-2.7-0.8-4-1.4-5.3-1.9-10.7-4.2-16.1-6.4-5.4-2.1-11.2-4-17.1-5.4-1.5-0.4-2.9-0.6-4.4-0.8-1.6-2.1-3.3-5.6-4.5-10.6l19 2.5c0 0 8.3-28.3 11-37.2 7.2-24.4 6.4-39.7 6.4-39.7 0 0 8.2 13.8 14.4 30.8 0 0 9.3 25 6.2 32.7 0 0-13.4 7.8-26.2 13.4l43.8-2.5c0 0-1 6.4-2.7 11.6 0.2 0.2 0.4 0.2 0.6 0.2 0.9 0.4 2.3 0.4 4 0.6 1.8 0.2 4.3 0.2 7.4 0.2 3.1 0 5.4-0.2 7.1-0.2 1.8-0.2 2.9-0.6 3.7-1.2 0.6-0.6 1-1.5 0.8-2.9-0.2-1.4-0.6-3.1-1.4-5.2 0 0-53.8-119.3-54-119.1-0.2 0.2-54 118.9-54 118.9-0.8 2.1-1.2 3.9-1.4 5.2q-0.2 1.8 0.6 2.9c-3.8 0.6-7.7 1.6-11.4 2.9 11.6-0.2 23 1 33.7 4.9 5.2 1.7 10.4 4 15.9 6.5l7.9 3.7c2.7 1.2 5.4 2.3 8.3 3.3 5.6 1.9 11.5 3.7 17.5 4.5 6 0.5 12.2 0.5 18.2-0.8 6-1.4 11.8-3.7 17.2-7.2 5.2-3.5 10.2-7.7 13.9-13.3-5 3.5-10.2 6.5-15.5 8.7z"/>
			<path class="s0" d="m93.1 160.3c-3.7 0-7.4-0.4-10.9-1-7-1.3-13.7-3.6-20.5-6.5-1.7-0.8-3.3-1.6-5-2.4-1.8-0.7-3.3-1.5-5.1-2.5-3.5-1.7-7.1-2.9-11-4-3.9-1-7.8-1.8-11.6-2-3.9-0.2-8 0-11.6 1.4 3.8 0.2 7.3 0.9 11 2.1 3.5 1 7 2.3 10.3 3.7 3.2 1.3 6.5 3.1 9.8 4.8 3.1 1.8 6.6 3.7 10.1 5.3 7 3.2 14.9 5.4 22.8 5.8 3.9 0.2 8-0.4 11.9-1.2 3.8-0.8 7.5-2.3 10.8-4.1-3.5 0.2-7.4 0.8-11 0.6z"/>
		</g>
		<g>
			<g>
				<path class="s0" d="m223.2 102.8c0.2 0.8 0.4 1.6 0.6 1.9 0 0.6 0 1-0.2 1.2-0.2 0.2-0.8 0.4-1.4 0.4-0.6 0-1.5 0.2-2.7 0.2-1.2 0-2.1 0-2.7 0-0.6 0-1.2-0.2-1.6-0.2-0.4-0.2-0.5-0.2-0.7-0.4-0.2-0.2-0.2-0.4-0.4-0.8l-3.1-9.1h-17.3l-2.9 8.9c-0.2 0.4-0.2 0.6-0.3 0.8-0.2 0.2-0.4 0.4-0.8 0.6-0.4 0.2-0.8 0.2-1.4 0.2-0.6 0-1.3 0-2.5 0-1.2 0-1.9 0-2.5-0.2-0.6 0-1-0.2-1.4-0.6-0.4-0.4-0.4-0.6-0.2-1.1 0-0.6 0.2-1.2 0.6-2l14.2-40.4c0.1-0.4 0.3-0.8 0.5-1 0.2-0.2 0.4-0.4 1-0.6 0.4-0.2 1-0.2 1.7-0.2q1.2 0 2.9 0c1.4 0 2.6 0 3.3 0 0.8 0 1.4 0.2 2 0.2 0.6 0 0.8 0.4 0.9 0.6q0.3 0.3 0.6 1.1zm-20.9-33.5l-6.6 19.4h13z"/>
				<path class="s0" d="m237.1 62.9c0 1.8-0.4 3.1-1.1 3.7-0.8 0.6-2.2 1-4.1 1-2 0-3.3-0.4-4.1-1-0.6-0.6-0.9-1.9-0.9-3.5 0-1.7 0.3-3.1 1.1-3.7 0.8-0.5 2.1-0.9 4.1-0.9 1.9 0 3.3 0.4 4 0.9 0.8 0.6 1 1.8 1 3.5zm-0.6 42.2c0 0.2 0 0.4-0.2 0.6-0.2 0.2-0.3 0.4-0.7 0.4-0.4 0.2-0.8 0.2-1.4 0.2-0.6 0-1.3 0.2-2.1 0.2-0.8 0-1.6 0-2.2-0.2-0.5 0-0.9-0.2-1.3-0.2-0.4-0.2-0.6-0.2-0.8-0.4-0.2-0.2-0.2-0.4-0.2-0.6v-31.3c0-0.2 0-0.4 0.2-0.6 0.2-0.2 0.4-0.4 0.8-0.4 0.4-0.2 0.8-0.2 1.3-0.4 0.6 0 1.4-0.2 2.2-0.2 0.8 0 1.5 0 2.1 0.2 0.6 0 1 0.2 1.4 0.4 0.4 0.2 0.5 0.2 0.7 0.4 0.2 0.2 0.2 0.4 0.2 0.6z"/>
				<path class="s0" d="m273.9 105.1c0 0.2 0 0.4-0.2 0.6-0.2 0.2-0.4 0.4-0.6 0.4-0.2 0.2-0.6 0.2-1.1 0.2-0.4 0-1.2 0-1.8 0-0.8 0-1.3 0-1.9 0-0.6 0-1-0.2-1.2-0.2-0.4-0.2-0.6-0.2-0.6-0.4-0.1-0.2-0.1-0.4-0.1-0.6v-3.5c-1.6 1.8-3.3 3.1-5.1 4.1-1.7 1-3.7 1.4-6 1.4-2.3 0-4.4-0.4-6-1.4-1.7-1-2.9-2.1-4.1-3.7-0.9-1.5-1.7-3.4-2.3-5.6-0.6-2.1-0.8-4.2-0.8-6.6 0-2.7 0.4-5.2 1-7.5 0.6-2.1 1.6-4.1 2.7-5.8 1.2-1.6 2.5-2.7 4.3-3.7 1.7-0.8 3.7-1.4 6-1.4 1.7 0 3.3 0.4 4.8 1.2 1.4 0.8 2.9 1.7 4.3 3.1v-17c0-0.2 0-0.4 0.2-0.6 0.2-0.2 0.4-0.4 0.8-0.4 0.3-0.2 0.7-0.2 1.3-0.4 0.6 0 1.4-0.2 2.1-0.2 0.8 0 1.6 0 2.2 0.2 0.6 0.2 0.9 0.2 1.3 0.4 0.4 0.2 0.6 0.4 0.8 0.4 0.2 0.2 0.2 0.4 0.2 0.6zm-8.9-21.1c-1.4-1.6-2.5-2.9-3.7-3.7-1.2-0.8-2.3-1.4-3.7-1.4-1.1 0-2.1 0.4-2.9 1-0.7 0.6-1.5 1.4-1.9 2.3-0.6 1-1 2.1-1.2 3.3-0.2 1.2-0.4 2.5-0.4 3.7 0 1.3 0.2 2.5 0.4 3.9 0.2 1.1 0.6 2.3 1 3.3 0.4 0.9 1.2 1.7 1.9 2.3 0.8 0.6 1.8 0.9 3.1 0.9 0.6 0 1.2-0.1 1.8-0.1 0.6-0.2 1.1-0.4 1.7-1 0.6-0.4 1.2-1 2-1.6 0.5-0.5 1.3-1.3 2.1-2.3z"/>
			</g>
			<g>
				<path class="s0" d="m330.8 99.7c0 0.6 0 1 0 1.6 0 0.3-0.2 0.7-0.2 0.9 0 0.4-0.2 0.6-0.2 0.8-0.2 0.2-0.3 0.4-0.5 0.8-0.2 0.2-0.8 0.6-1.6 0.9-0.8 0.4-1.5 0.8-2.7 1.2-1 0.4-2.3 0.8-3.7 1-1.3 0.2-2.9 0.4-4.4 0.4-3.1 0-5.8-0.4-8.4-1.4-2.5-1-4.2-2.5-6.2-4.3q-2.6-2.9-4-6.9c-1-2.9-1.4-6-1.4-9.9 0-3.9 0.6-7.2 1.6-10.1 0.9-2.9 2.5-5.4 4.2-7.3 1.8-2 4.1-3.5 6.6-4.7 2.5-0.9 5.4-1.5 8.5-1.5 1.4 0 2.6 0.2 3.7 0.4 1.2 0.2 2.3 0.6 3.1 0.7 1 0.4 1.9 0.8 2.7 1.2q1.2 0.6 1.8 1.2c0.4 0.4 0.5 0.5 0.5 0.7 0.2 0.2 0.2 0.4 0.2 0.8 0 0.4 0.2 0.8 0.2 1.2 0 0.4 0 0.9 0 1.5q0 1.2 0 1.8c0 0.6-0.2 0.7-0.2 1.1-0.2 0.4-0.2 0.6-0.3 0.6-0.2 0.2-0.4 0.2-0.6 0.2-0.4 0-0.8-0.2-1.4-0.6-0.6-0.4-1.1-0.7-2.1-1.3-0.8-0.6-1.8-1-2.9-1.4q-1.8-0.6-4.1-0.6c-1.7 0-3.5 0.4-4.8 1.2-1.4 0.8-2.5 1.7-3.7 3.1-1 1.3-1.7 2.9-2.3 4.8-0.6 2-0.8 4.1-0.8 6.6 0 2.7 0.2 4.9 0.8 6.8 0.6 1.9 1.3 3.5 2.3 4.8 1 1.4 2.3 2.2 3.7 2.7 1.3 0.6 3.1 1 4.8 1 1.6 0 3.1-0.2 4.3-0.6 1.1-0.4 2.1-0.7 3.1-1.3 0.7-0.4 1.5-0.8 2.1-1.4 0.6-0.4 1-0.6 1.4-0.6 0.2 0 0.3 0 0.5 0.2 0.2 0.2 0.2 0.4 0.4 0.6 0.2 0.4 0.2 0.6 0.2 1.2-0.2 0.4-0.2 0.9-0.2 1.9z"/>
				<path class="s0" d="m356.8 77.3c0 0.7 0 1.5 0 1.9 0 0.6-0.2 1-0.2 1.3-0.2 0.4-0.2 0.6-0.4 0.6-0.2 0.2-0.4 0.2-0.6 0.2-0.2 0-0.4 0-0.6-0.2-0.2-0.2-0.6-0.2-0.7-0.2-0.4-0.2-0.6-0.2-1-0.2-0.4-0.2-0.8-0.2-1.2-0.2-0.6 0-0.9 0.2-1.5 0.4-0.6 0.2-1 0.6-1.6 1-0.6 0.4-0.9 1-1.5 1.7-0.6 0.8-1.2 1.6-1.8 2.6v19.3c0 0.2 0 0.4-0.2 0.6-0.2 0.2-0.3 0.4-0.7 0.4-0.4 0.2-0.8 0.2-1.4 0.2-0.6 0-1.3 0.2-2.1 0.2-0.8 0-1.6 0-2.1-0.2-0.6 0-1-0.2-1.4-0.2-0.4-0.2-0.6-0.2-0.8-0.4-0.2-0.2-0.2-0.4-0.2-0.6v-31c0-0.2 0-0.3 0.2-0.5 0.2-0.2 0.4-0.4 0.6-0.4 0.4-0.2 0.8-0.2 1.2-0.2 0.4 0 0.9-0.2 1.7-0.2 0.8 0 1.4 0 1.7 0.2 0.6 0 0.8 0.2 1.2 0.2 0.2 0.2 0.4 0.2 0.6 0.4 0.2 0.2 0.2 0.3 0.2 0.5v3.9q1.1-1.7 2.3-2.9c0.8-0.8 1.4-1.3 1.9-1.7 0.6-0.4 1.4-0.8 2-1 0.6-0.2 1.3-0.2 1.9-0.2 0.4 0 0.6 0 1 0 0.4 0 0.8 0.2 1 0.2 0.3 0.2 0.7 0.2 0.9 0.2 0.4 0.2 0.6 0.2 0.6 0.4 0.2 0.2 0.2 0.2 0.4 0.4 0 0.2 0.2 0.4 0.2 0.5 0 0.2 0.2 0.6 0.2 1.2 0 0.2 0.2 1 0.2 1.8z"/>
				<path class="s0" d="m391.4 105.3c0 0.2 0 0.4-0.2 0.6-0.2 0.2-0.4 0.4-0.5 0.4-0.4 0.2-0.6 0.2-1.2 0.2-0.6 0-1 0.2-1.8 0.2-0.7 0-1.3 0-1.9-0.2-0.4 0-0.8-0.2-1.1-0.2-0.2-0.2-0.4-0.2-0.6-0.4-0.2-0.2-0.2-0.4-0.2-0.6v-3.7q-2.6 3-5.3 4.1c-1.7 1-3.6 1.4-5.4 1.4-2.1 0-3.8-0.4-5.4-1-1.5-0.8-2.7-1.5-3.5-2.9-0.9-1.2-1.5-2.5-1.9-4.1-0.4-1.5-0.6-3.5-0.6-6v-18.9c0-0.2 0-0.4 0.2-0.6 0.2-0.2 0.4-0.4 0.8-0.4 0.4-0.2 0.7-0.2 1.3-0.2 0.6 0 1.4-0.2 2.2-0.2 0.7 0 1.5 0 2.1 0.2 0.6 0 1 0.2 1.3 0.2 0.4 0.2 0.6 0.2 0.8 0.4 0.2 0.2 0.2 0.4 0.2 0.6v17.4c0 1.5 0.2 2.9 0.4 3.7 0.2 0.7 0.6 1.5 1 2.1 0.4 0.6 0.9 1 1.5 1.3q0.9 0.6 2.3 0.6c1.2 0 2.4-0.4 3.3-1.1 1-0.8 2.4-2 3.7-3.5v-20.4c0-0.1 0-0.3 0.2-0.5 0.2-0.2 0.4-0.4 0.8-0.4 0.4-0.2 0.8-0.2 1.3-0.2 0.6 0 1.4-0.2 2.2-0.2 0.7 0 1.5 0 2.1 0.2 0.6 0 1 0.2 1.3 0.2 0.4 0.2 0.6 0.2 0.8 0.4 0.2 0.2 0.2 0.4 0.2 0.5z"/>
				<path class="s0" d="m422 96.4c0 1.8-0.4 3.3-0.9 4.7-0.6 1.3-1.6 2.5-2.8 3.3-1.1 0.9-2.7 1.5-4.2 1.9-1.6 0.4-3.5 0.6-5.2 0.6-1.2 0-2.4-0.2-3.3-0.2q-1.5-0.3-2.9-0.6c-0.8-0.2-1.6-0.6-2.2-0.8-0.6-0.2-0.9-0.6-1.1-0.7q-0.3-0.3-0.6-1.2c-0.2-0.6-0.2-1.4-0.2-2.3 0-0.6 0-1.2 0-1.6 0-0.4 0.2-0.8 0.2-0.9 0.2-0.2 0.2-0.4 0.4-0.6 0.2-0.2 0.4-0.2 0.6-0.2 0.1 0 0.5 0.2 1.1 0.4 0.6 0.4 1.2 0.5 2 0.9 0.7 0.4 1.5 0.6 2.5 1 0.9 0.4 2.1 0.4 3.3 0.4 0.7 0 1.5-0.2 2.1-0.2 0.6 0 1.2-0.4 1.5-0.8 0.4-0.4 0.8-0.6 1-1.1 0.2-0.4 0.4-1 0.4-1.6q0-1.2-0.6-1.7c-0.4-0.6-1-1-1.7-1.4-0.8-0.4-1.6-0.8-2.4-1-0.9-0.3-1.7-0.7-2.7-0.9-0.9-0.4-1.9-0.8-2.7-1.4-0.9-0.6-1.7-1.1-2.3-1.9-0.8-0.8-1.4-1.6-1.7-2.7-0.4-1-0.6-2.4-0.6-3.7 0-1.4 0.4-2.9 0.8-4.1 0.5-1.1 1.3-2.3 2.5-3.1 1.1-0.7 2.5-1.5 3.8-1.9 1.6-0.6 3.3-0.8 5.3-0.8 0.9 0 1.9 0 2.9 0.2 0.9 0.2 1.7 0.4 2.5 0.6 0.8 0.2 1.3 0.4 1.9 0.6 0.6 0.2 0.8 0.4 1.2 0.6 0.2 0.1 0.4 0.3 0.4 0.5 0.2 0.2 0.2 0.4 0.2 0.6 0 0.2 0.2 0.6 0.2 1 0 0.4 0 0.8 0 1.3 0 0.6 0 1.2 0 1.6 0 0.4-0.2 0.8-0.2 1 0 0.2-0.2 0.3-0.4 0.3-0.2 0.2-0.4 0.2-0.6 0.2-0.2 0-0.6-0.2-1-0.3-0.4-0.2-0.9-0.6-1.7-0.8-0.6-0.4-1.4-0.6-2.3-0.8-0.8-0.2-2-0.4-2.9-0.4-0.8 0-1.6 0.2-2 0.2-0.4 0-0.9 0.4-1.3 0.8-0.4 0.4-0.6 0.6-0.8 1-0.2 0.3-0.4 0.7-0.4 1.3q0 1.2 0.6 1.7c0.4 0.6 1 1 1.7 1.4 0.8 0.4 1.6 0.8 2.6 1 0.9 0.4 1.7 0.6 2.7 0.9 0.9 0.4 1.9 0.8 2.7 1.4 0.7 0.6 1.7 1.2 2.5 1.9 0.8 0.8 1.3 1.6 1.7 2.7 0.2 1.2 0.4 2.4 0.4 3.7z"/>
				<path class="s0" d="m454.9 105.3c0 0.4-0.2 0.6-0.4 0.8-0.1 0.2-0.5 0.4-1.1 0.4-0.6 0.2-1.2 0.2-2.1 0.2-1 0-1.8 0-2.4-0.2-0.4-0.2-0.7-0.2-0.9-0.4-0.2-0.2-0.4-0.4-0.4-0.8v-2.5c-1.4 1.4-2.7 2.5-4.5 3.1-1.5 0.8-3.5 1.2-5.4 1.2-1.5 0-3.1-0.2-4.5-0.6-1.3-0.4-2.5-1-3.4-1.9-1-0.8-1.8-2-2.4-3.1-0.5-1.2-0.7-2.8-0.7-4.5 0-1.7 0.4-3.5 0.9-4.6 0.8-1.4 1.8-2.6 3.1-3.3 1.4-0.8 3.1-1.6 5.3-2 2.1-0.4 4.4-0.6 7.1-0.6h2.9v-1.9c0-1-0.2-1.7-0.4-2.5-0.2-0.8-0.5-1.4-0.9-1.7-0.4-0.6-1-0.8-1.8-1-0.7-0.2-1.7-0.4-2.7-0.4-1.5 0-2.7 0.2-3.9 0.6-1.1 0.4-2.1 0.8-3.1 0.9-0.7 0.4-1.5 0.8-2.1 1-0.6 0.2-0.9 0.6-1.3 0.6-0.2 0-0.6-0.2-0.6-0.2-0.2-0.2-0.4-0.4-0.6-0.8-0.2-0.4-0.2-0.6-0.4-1.1 0-0.4-0.2-1-0.2-1.6 0-0.8 0-1.3 0.2-1.7q0.3-0.6 0.6-1.2 0.6-0.6 1.7-1.2 1.2-0.5 2.9-1.1c1.2-0.4 2.4-0.6 3.5-0.8 1.4-0.2 2.5-0.4 3.9-0.4 2.5 0 4.5 0.2 6.2 0.8 1.7 0.4 3.1 1.2 4.3 2.1 1.1 1 1.9 2.4 2.5 3.9 0.6 1.6 0.7 3.5 0.7 5.6zm-8.5-13.1h-3.3c-1.3 0-2.7 0.1-3.6 0.3-1 0.2-1.8 0.6-2.6 1-0.5 0.4-0.9 1-1.3 1.6-0.4 0.5-0.4 1.3-0.4 1.9 0 1.3 0.4 2.3 1.2 3.1q1.1 1.2 3.4 1.2c1.2 0 2.4-0.4 3.5-1 1-0.6 2.2-1.6 3.1-2.7z"/>
				<path class="s0" d="m493.1 105.3c0 0.2 0 0.4-0.2 0.6-0.2 0.2-0.4 0.4-0.6 0.4-0.4 0.2-0.6 0.2-1.2 0.2q-0.5 0-1.7 0-1.2 0-1.7 0c-0.4 0-0.8-0.2-1.2-0.2-0.4 0-0.6-0.2-0.6-0.4-0.2-0.2-0.2-0.4-0.2-0.6v-3.5c-1.5 1.8-3.3 3.1-5 4.1-1.8 1-3.7 1.4-5.8 1.4-2.3 0-4.5-0.4-6-1.4-1.6-1-2.9-2.1-4.1-3.7-1-1.5-1.7-3.3-2.3-5.4-0.4-2.1-0.8-4.3-0.8-6.6 0-2.7 0.4-5.2 1-7.3 0.6-2.2 1.5-4.1 2.5-5.6 1-1.6 2.5-2.8 4.3-3.7 1.7-0.8 3.6-1.4 5.8-1.4 1.7 0 3.3 0.4 4.6 1 1.4 0.8 2.7 1.7 4.3 3.1v-16.7c0-0.2 0-0.4 0.2-0.5 0.2-0.2 0.4-0.4 0.7-0.4 0.4-0.2 0.8-0.2 1.4-0.4 0.6 0 1.3-0.2 2.1-0.2 0.8 0 1.6 0 2.2 0.2 0.5 0 0.9 0.2 1.3 0.4 0.4 0.2 0.6 0.4 0.8 0.4 0.2 0.1 0.2 0.3 0.2 0.5zm-8.7-20.7c-1.4-1.5-2.6-2.7-3.7-3.7-1.2-0.7-2.3-1.3-3.7-1.3-1.2 0-2.1 0.4-2.9 0.8-0.8 0.5-1.5 1.3-1.9 2.3-0.6 0.9-0.8 1.9-1.2 3.1-0.2 1.1-0.4 2.3-0.4 3.7 0 1.3 0.2 2.5 0.4 3.8 0.2 1.2 0.6 2.4 1 3.3 0.4 1 1.1 1.8 1.9 2.3 0.8 0.6 1.8 0.8 2.9 0.8 0.6 0 1.2-0.2 1.8-0.2 0.5-0.2 1.1-0.4 1.7-0.7 0.6-0.4 1.2-1 1.7-1.6 0.6-0.6 1.4-1.4 2-2.3z"/>
				<path class="s0" d="m530.3 88.9c0 0.9-0.2 1.9-0.8 2.3-0.4 0.6-1.2 0.8-2 0.8h-18.7c0 1.3 0.2 2.5 0.3 3.6 0.4 1 0.8 2 1.6 2.8 0.8 0.7 1.5 1.3 2.7 1.7 1.2 0.4 2.3 0.6 3.9 0.6 1.5 0 2.9-0.2 4-0.4 1.2-0.2 2.2-0.4 2.9-0.8 0.8-0.2 1.6-0.6 2.2-0.8 0.6-0.1 0.9-0.3 1.3-0.3 0.2 0 0.4 0 0.6 0.2 0.2 0.1 0.2 0.1 0.4 0.3 0.2 0.2 0.2 0.6 0.2 0.8 0 0.4 0 0.8 0 1.4 0 0.5 0 0.9 0 1.3 0 0.4 0 0.6-0.2 1 0 0.2-0.2 0.4-0.2 0.6-0.2 0.2-0.2 0.4-0.4 0.6q-0.3 0.2-1.1 0.5c-0.6 0.2-1.6 0.6-2.6 0.8-0.9 0.2-2.3 0.6-3.6 0.8-1.4 0.2-2.7 0.4-4.3 0.4-2.7 0-5.2-0.4-7.2-1-2.1-0.8-3.8-1.7-5.2-3.1-1.3-1.4-2.5-3.1-3.1-5.2-0.6-2.2-1-4.7-1-7.6 0-2.7 0.4-5.2 1-7.3 0.8-2.4 1.8-4.1 3.1-5.6 1.4-1.6 3.1-2.8 5-3.5 2-0.8 4.1-1.2 6.6-1.2 2.5 0 4.9 0.4 6.6 1.2 1.8 0.7 3.3 1.7 4.5 3.1 1.1 1.3 1.9 2.9 2.5 4.8 0.6 1.7 0.8 3.9 0.8 6v1.2zm-8.4-2.5c0-2.6-0.4-4.5-1.5-5.9-1-1.3-2.7-2.1-4.9-2.1q-1.7 0-2.9 0.6c-0.7 0.4-1.5 1-1.9 1.7-0.6 0.8-1 1.6-1.4 2.6-0.3 0.9-0.3 1.9-0.5 3.1z"/>
				<path class="s0" d="m557.4 77.3c0 0.7 0 1.5 0 1.9 0 0.6-0.2 1-0.2 1.3-0.2 0.4-0.2 0.6-0.4 0.6-0.2 0-0.4 0.2-0.6 0.2-0.2 0-0.4 0-0.6-0.2-0.2-0.2-0.6-0.2-0.8-0.2-0.3-0.2-0.5-0.2-0.9-0.2-0.4-0.2-0.8-0.2-1.2-0.2-0.6 0-1 0.2-1.5 0.4-0.6 0.2-1 0.6-1.6 1-0.6 0.4-1 1-1.5 1.7-0.6 0.8-1.2 1.6-1.8 2.6v19.3c0 0.2 0 0.4-0.2 0.6-0.2 0.2-0.4 0.4-0.7 0.4-0.4 0.2-0.8 0.2-1.4 0.2-0.6 0-1.4 0.2-2.1 0.2-0.8 0-1.6 0-2.2-0.2-0.5 0-0.9-0.2-1.3-0.2-0.4-0.2-0.6-0.2-0.8-0.4-0.2-0.2-0.2-0.4-0.2-0.6v-31c0-0.2 0-0.3 0.2-0.5 0.2-0.2 0.4-0.4 0.6-0.4 0.4-0.2 0.8-0.2 1.2-0.2 0.3 0 0.9-0.2 1.7-0.2 0.8 0 1.3 0 1.7 0.2 0.6 0 0.8 0.2 1.2 0.2 0.2 0.2 0.4 0.2 0.6 0.4 0.2 0.2 0.2 0.3 0.2 0.5v3.9q1.1-1.7 2.3-2.9c0.8-0.8 1.4-1.3 1.9-1.7 0.6-0.4 1.4-0.8 2-1 0.5-0.2 1.3-0.2 1.9-0.2 0.4 0 0.6 0 1 0 0.4 0 0.7 0.2 0.9 0.2 0.4 0.2 0.8 0.2 1 0.2 0.4 0.2 0.6 0.2 0.6 0.4 0.2 0.2 0.2 0.2 0.4 0.4 0 0.2 0.2 0.4 0.2 0.5 0 0.2 0.2 0.6 0.2 1.2 0.2 0.2 0.2 1 0.2 1.8z"/>
			</g>
		</g>
	</g>
</svg>