<?xml version="1.0" encoding="utf-8"?>
<!-- Generator: Adobe Illustrator 27.1.0, SVG Export Plug-In . SVG Version: 6.00 Build 0)  -->
<svg version="1.1" id="Layer_1" xmlns="http://www.w3.org/2000/svg" xmlns:xlink="http://www.w3.org/1999/xlink" x="0px" y="0px"
	 viewBox="0 0 351.9 164.1" style="enable-background:new 0 0 351.9 164.1;" xml:space="preserve">
<style type="text/css">
	.st0{fill:#2B388F;}
	.st1{fill:#FFFFFF;}
	.st2{fill:#913F88;}
	.st3{fill:#EC1C24;}
	.st4{fill:#96C93D;}
	.st5{fill:#8BC53F;}
	.st6{fill:#00A551;}
	.st7{fill:#F6921E;}
	.st8{fill:#DF1F26;}
	.st9{fill:#2F2F80;}
	.st10{fill:#9DC33B;}
	.st11{fill:#009448;}
</style>
<g>
	<g>
		<path class="st9" d="M202.2,92.6c-2.8,1.1-5.6,1.9-8.4,2.1c-2.9,0.3-5.7,0.1-8.5-0.4l-2.1-0.4c-0.7-0.2-1.4-0.4-2.1-0.5
			c-0.7-0.2-1.4-0.4-2.1-0.6c-0.7-0.2-1.4-0.4-2.1-0.7c-2.7-1-5.5-2.2-8.3-3.3c-2.8-1.1-5.8-2.1-8.8-2.8c-0.8-0.2-1.5-0.3-2.3-0.4
			c-0.8-1.1-1.7-2.9-2.3-5.5l9.8,1.3c0,0,4.3-14.6,5.7-19.2c3.7-12.5,3.4-20.5,3.4-20.5s4.2,7.1,7.4,15.9c0,0,4.8,12.9,3.2,16.9
			c0,0-6.9,4-13.5,6.9l22.6-1.3c0,0-0.5,3.3-1.4,6c0.1,0.1,0.2,0.1,0.3,0.1c0.5,0.2,1.2,0.2,2.1,0.3c0.9,0.1,2.2,0.1,3.8,0.1
			c1.6,0,2.8-0.1,3.7-0.1c0.9-0.1,1.5-0.3,1.9-0.6c0.3-0.3,0.5-0.8,0.4-1.5c-0.1-0.7-0.3-1.6-0.7-2.7c0,0-27.8-61.6-27.9-61.5
			c-0.1,0.1-27.9,61.4-27.9,61.4c-0.4,1.1-0.6,2-0.7,2.7c-0.1,0.6,0,1.1,0.3,1.5c-2,0.3-4,0.8-5.9,1.5c6-0.1,11.9,0.5,17.4,2.5
			c2.7,0.9,5.4,2.1,8.2,3.4l4.1,1.9c1.4,0.6,2.8,1.2,4.3,1.7c2.9,1,5.9,1.9,9,2.3c3.1,0.3,6.3,0.3,9.4-0.4c3.1-0.7,6.1-1.9,8.9-3.7
			c2.7-1.8,5.3-4,7.2-6.9C207.7,89.9,205,91.5,202.2,92.6z"/>
		<path class="st9" d="M184.7,103c-1.9,0-3.8-0.2-5.6-0.5c-3.6-0.7-7.1-1.9-10.6-3.4c-0.9-0.4-1.7-0.8-2.6-1.2
			c-0.9-0.4-1.7-0.8-2.6-1.3c-1.8-0.9-3.7-1.5-5.7-2.1c-2-0.5-4-0.9-6-1c-2-0.1-4.1,0-6,0.7c2,0.1,3.8,0.5,5.7,1.1
			c1.8,0.5,3.6,1.2,5.3,1.9s3.4,1.6,5.1,2.5c1.6,0.9,3.4,1.9,5.2,2.7c3.6,1.7,7.7,2.8,11.8,3c2,0.1,4.1-0.2,6.1-0.6
			c2-0.4,3.9-1.2,5.6-2.1C188.5,102.9,186.6,103.1,184.7,103z"/>
	</g>
	<g>
		<g>
			<path class="st9" d="M100.4,141.7c0.1,0.4,0.2,0.8,0.3,1c0,0.3,0,0.5-0.1,0.6c-0.1,0.1-0.4,0.2-0.7,0.2c-0.3,0-0.8,0.1-1.4,0.1
				c-0.6,0-1.1,0-1.4,0c-0.3,0-0.6-0.1-0.8-0.1c-0.2-0.1-0.3-0.1-0.4-0.2c-0.1-0.1-0.1-0.2-0.2-0.4l-1.6-4.7h-8.9l-1.5,4.6
				c-0.1,0.2-0.1,0.3-0.2,0.4c-0.1,0.1-0.2,0.2-0.4,0.3c-0.2,0.1-0.4,0.1-0.7,0.1c-0.3,0-0.7,0-1.3,0c-0.6,0-1,0-1.3-0.1
				s-0.5-0.1-0.7-0.3s-0.2-0.3-0.1-0.6c0-0.3,0.1-0.6,0.3-1l7.3-20.9c0.1-0.2,0.2-0.4,0.3-0.5s0.2-0.2,0.5-0.3
				c0.2-0.1,0.5-0.1,0.9-0.1c0.4,0,0.9,0,1.5,0c0.7,0,1.3,0,1.7,0c0.4,0,0.7,0.1,1,0.1c0.2,0.1,0.4,0.2,0.5,0.3s0.2,0.3,0.3,0.6
				L100.4,141.7z M89.5,124.4L89.5,124.4l-3.4,10h6.7L89.5,124.4z"/>
			<path class="st9" d="M107.6,121.1c0,0.9-0.2,1.6-0.6,1.9c-0.4,0.3-1.1,0.5-2.1,0.5s-1.7-0.2-2.1-0.5s-0.5-1-0.5-1.8
				c0-0.9,0.2-1.6,0.6-1.9c0.4-0.3,1.1-0.5,2.1-0.5c1,0,1.7,0.2,2.1,0.5C107.4,119.6,107.6,120.2,107.6,121.1z M107.2,142.9
				c0,0.1,0,0.2-0.1,0.3c-0.1,0.1-0.2,0.2-0.4,0.2c-0.2,0.1-0.4,0.1-0.7,0.1c-0.3,0-0.7,0.1-1.1,0.1s-0.8,0-1.1-0.1
				c-0.3,0-0.5-0.1-0.7-0.1c-0.2-0.1-0.3-0.1-0.4-0.2c-0.1-0.1-0.1-0.2-0.1-0.3v-16.2c0-0.1,0-0.2,0.1-0.3c0.1-0.1,0.2-0.2,0.4-0.2
				c0.2-0.1,0.4-0.1,0.7-0.2c0.3,0,0.7-0.1,1.1-0.1s0.8,0,1.1,0.1c0.3,0,0.5,0.1,0.7,0.2c0.2,0.1,0.3,0.1,0.4,0.2
				c0.1,0.1,0.1,0.2,0.1,0.3V142.9z"/>
			<path class="st9" d="M126.5,142.9c0,0.1,0,0.2-0.1,0.3c-0.1,0.1-0.2,0.2-0.3,0.2c-0.1,0.1-0.3,0.1-0.6,0.1s-0.6,0-0.9,0
				c-0.4,0-0.7,0-1,0s-0.5-0.1-0.6-0.1c-0.2-0.1-0.3-0.1-0.3-0.2c-0.1-0.1-0.1-0.2-0.1-0.3v-1.8c-0.8,0.9-1.7,1.6-2.6,2.1
				c-0.9,0.5-1.9,0.7-3.1,0.7c-1.2,0-2.3-0.2-3.1-0.7c-0.9-0.5-1.5-1.1-2.1-1.9c-0.5-0.8-0.9-1.8-1.2-2.9s-0.4-2.2-0.4-3.4
				c0-1.4,0.2-2.7,0.5-3.9c0.3-1.1,0.8-2.1,1.4-3c0.6-0.8,1.3-1.4,2.2-1.9c0.9-0.4,1.9-0.7,3.1-0.7c0.9,0,1.7,0.2,2.5,0.6
				c0.7,0.4,1.5,0.9,2.2,1.6V119c0-0.1,0-0.2,0.1-0.3c0.1-0.1,0.2-0.2,0.4-0.2c0.2-0.1,0.4-0.1,0.7-0.2c0.3,0,0.7-0.1,1.1-0.1
				s0.8,0,1.1,0.1s0.5,0.1,0.7,0.2c0.2,0.1,0.3,0.2,0.4,0.2c0.1,0.1,0.1,0.2,0.1,0.3L126.5,142.9L126.5,142.9z M121.9,132
				c-0.7-0.8-1.3-1.5-1.9-1.9c-0.6-0.4-1.2-0.7-1.9-0.7c-0.6,0-1.1,0.2-1.5,0.5c-0.4,0.3-0.8,0.7-1,1.2c-0.3,0.5-0.5,1.1-0.6,1.7
				c-0.1,0.6-0.2,1.3-0.2,1.9c0,0.7,0.1,1.3,0.2,2c0.1,0.6,0.3,1.2,0.5,1.7c0.2,0.5,0.6,0.9,1,1.2c0.4,0.3,0.9,0.5,1.6,0.5
				c0.3,0,0.6-0.1,0.9-0.1c0.3-0.1,0.6-0.2,0.9-0.5c0.3-0.2,0.6-0.5,1-0.8c0.3-0.3,0.7-0.7,1.1-1.2L121.9,132L121.9,132z"/>
		</g>
		<g>
			<path class="st9" d="M155.9,140c0,0.3,0,0.5,0,0.8c0,0.2-0.1,0.4-0.1,0.5s-0.1,0.3-0.1,0.4c-0.1,0.1-0.2,0.2-0.3,0.4
				c-0.1,0.1-0.4,0.3-0.8,0.5s-0.8,0.4-1.4,0.6c-0.5,0.2-1.2,0.4-1.9,0.5c-0.7,0.1-1.5,0.2-2.3,0.2c-1.6,0-3-0.2-4.3-0.7
				s-2.4-1.2-3.3-2.2c-0.9-1-1.6-2.2-2.1-3.6c-0.5-1.5-0.7-3.1-0.7-5.1c0-2,0.3-3.7,0.8-5.2c0.5-1.5,1.3-2.8,2.2-3.8
				c0.9-1,2.1-1.8,3.4-2.4c1.3-0.5,2.8-0.8,4.4-0.8c0.7,0,1.3,0.1,1.9,0.2c0.6,0.1,1.2,0.3,1.6,0.4c0.5,0.2,1,0.4,1.4,0.6
				c0.4,0.2,0.7,0.4,0.9,0.6c0.2,0.2,0.3,0.3,0.3,0.4c0.1,0.1,0.1,0.2,0.1,0.4c0,0.2,0.1,0.4,0.1,0.6s0,0.5,0,0.8c0,0.4,0,0.7,0,0.9
				s-0.1,0.4-0.1,0.6c-0.1,0.2-0.1,0.3-0.2,0.3c-0.1,0.1-0.2,0.1-0.3,0.1c-0.2,0-0.4-0.1-0.7-0.3c-0.3-0.2-0.6-0.4-1.1-0.7
				c-0.4-0.3-0.9-0.5-1.5-0.7c-0.6-0.2-1.3-0.3-2.1-0.3c-0.9,0-1.8,0.2-2.5,0.6c-0.7,0.4-1.3,0.9-1.9,1.6c-0.5,0.7-0.9,1.5-1.2,2.5
				c-0.3,1-0.4,2.1-0.4,3.4c0,1.4,0.1,2.5,0.4,3.5s0.7,1.8,1.2,2.5c0.5,0.7,1.2,1.1,1.9,1.4c0.7,0.3,1.6,0.5,2.5,0.5
				c0.8,0,1.6-0.1,2.2-0.3c0.6-0.2,1.1-0.4,1.6-0.7c0.4-0.2,0.8-0.4,1.1-0.7c0.3-0.2,0.5-0.3,0.7-0.3c0.1,0,0.2,0,0.3,0.1
				s0.1,0.2,0.2,0.3c0.1,0.2,0.1,0.3,0.1,0.6C155.9,139.3,155.9,139.6,155.9,140z"/>
			<path class="st9" d="M169.3,128.4c0,0.4,0,0.8,0,1c0,0.3-0.1,0.5-0.1,0.7c-0.1,0.2-0.1,0.3-0.2,0.3c-0.1,0.1-0.2,0.1-0.3,0.1
				s-0.2,0-0.3-0.1c-0.1-0.1-0.3-0.1-0.4-0.1c-0.2-0.1-0.3-0.1-0.5-0.1c-0.2-0.1-0.4-0.1-0.6-0.1c-0.3,0-0.5,0.1-0.8,0.2
				c-0.3,0.1-0.5,0.3-0.8,0.5s-0.5,0.5-0.8,0.9c-0.3,0.4-0.6,0.8-0.9,1.3v10c0,0.1,0,0.2-0.1,0.3s-0.2,0.2-0.4,0.2
				c-0.2,0.1-0.4,0.1-0.7,0.1c-0.3,0-0.7,0.1-1.1,0.1c-0.4,0-0.8,0-1.1-0.1s-0.5-0.1-0.7-0.1c-0.2-0.1-0.3-0.1-0.4-0.2
				s-0.1-0.2-0.1-0.3v-16c0-0.1,0-0.2,0.1-0.3s0.2-0.2,0.3-0.2c0.2-0.1,0.4-0.1,0.6-0.1c0.2,0,0.5-0.1,0.9-0.1c0.4,0,0.7,0,0.9,0.1
				c0.3,0,0.4,0.1,0.6,0.1c0.1,0.1,0.2,0.1,0.3,0.2c0.1,0.1,0.1,0.2,0.1,0.3v2c0.4-0.6,0.8-1.1,1.2-1.5c0.4-0.4,0.7-0.7,1-0.9
				c0.3-0.2,0.7-0.4,1-0.5c0.3-0.1,0.7-0.1,1-0.1c0.2,0,0.3,0,0.5,0c0.2,0,0.4,0.1,0.5,0.1c0.2,0.1,0.4,0.1,0.5,0.1
				c0.2,0.1,0.3,0.1,0.3,0.2c0.1,0.1,0.1,0.1,0.2,0.2c0,0.1,0.1,0.2,0.1,0.3s0.1,0.3,0.1,0.6C169.3,127.7,169.3,128,169.3,128.4z"/>
			<path class="st9" d="M187.2,142.9c0,0.1,0,0.2-0.1,0.3s-0.2,0.2-0.3,0.2s-0.3,0.1-0.6,0.1c-0.3,0-0.5,0.1-0.9,0.1
				c-0.4,0-0.7,0-1-0.1c-0.2,0-0.4-0.1-0.6-0.1s-0.2-0.1-0.3-0.2c-0.1-0.1-0.1-0.2-0.1-0.3v-1.9c-0.9,1-1.8,1.7-2.7,2.1
				c-0.9,0.5-1.9,0.7-2.8,0.7c-1.1,0-2-0.2-2.8-0.5c-0.8-0.4-1.4-0.8-1.8-1.5c-0.5-0.6-0.8-1.3-1-2.1s-0.3-1.8-0.3-3.1v-9.8
				c0-0.1,0-0.2,0.1-0.3c0.1-0.1,0.2-0.2,0.4-0.2c0.2-0.1,0.4-0.1,0.7-0.1c0.3,0,0.7-0.1,1.1-0.1c0.4,0,0.8,0,1.1,0.1
				c0.3,0,0.5,0.1,0.7,0.1c0.2,0.1,0.3,0.1,0.4,0.2c0.1,0.1,0.1,0.2,0.1,0.3v9c0,0.8,0.1,1.5,0.2,1.9c0.1,0.4,0.3,0.8,0.5,1.1
				c0.2,0.3,0.5,0.5,0.8,0.7c0.3,0.2,0.7,0.3,1.2,0.3c0.6,0,1.2-0.2,1.7-0.6s1.2-1,1.9-1.8v-10.6c0-0.1,0-0.2,0.1-0.3
				c0.1-0.1,0.2-0.2,0.4-0.2c0.2-0.1,0.4-0.1,0.7-0.1c0.3,0,0.7-0.1,1.1-0.1c0.4,0,0.8,0,1.1,0.1c0.3,0,0.5,0.1,0.7,0.1
				s0.3,0.1,0.4,0.2c0.1,0.1,0.1,0.2,0.1,0.3L187.2,142.9L187.2,142.9z"/>
			<path class="st9" d="M203,138.4c0,0.9-0.2,1.7-0.5,2.4c-0.3,0.7-0.8,1.3-1.4,1.7c-0.6,0.5-1.4,0.8-2.2,1
				c-0.8,0.2-1.8,0.3-2.7,0.3c-0.6,0-1.2-0.1-1.7-0.1c-0.5-0.1-1-0.2-1.5-0.3c-0.4-0.1-0.8-0.3-1.1-0.4c-0.3-0.1-0.5-0.3-0.6-0.4
				c-0.1-0.1-0.2-0.3-0.3-0.6c-0.1-0.3-0.1-0.7-0.1-1.2c0-0.3,0-0.6,0-0.8c0-0.2,0.1-0.4,0.1-0.5c0.1-0.1,0.1-0.2,0.2-0.3
				s0.2-0.1,0.3-0.1c0.1,0,0.3,0.1,0.6,0.2c0.3,0.2,0.6,0.3,1,0.5c0.4,0.2,0.8,0.3,1.3,0.5c0.5,0.2,1.1,0.2,1.7,0.2
				c0.4,0,0.8-0.1,1.1-0.1s0.6-0.2,0.8-0.4c0.2-0.2,0.4-0.3,0.5-0.6c0.1-0.2,0.2-0.5,0.2-0.8c0-0.4-0.1-0.7-0.3-0.9
				c-0.2-0.3-0.5-0.5-0.9-0.7c-0.4-0.2-0.8-0.4-1.2-0.5c-0.5-0.2-0.9-0.4-1.4-0.5c-0.5-0.2-1-0.4-1.4-0.7c-0.5-0.3-0.9-0.6-1.2-1
				c-0.4-0.4-0.7-0.8-0.9-1.4c-0.2-0.5-0.3-1.2-0.3-1.9s0.2-1.5,0.4-2.1c0.3-0.6,0.7-1.2,1.3-1.6c0.6-0.4,1.3-0.8,2-1
				c0.8-0.3,1.7-0.4,2.7-0.4c0.5,0,1,0,1.5,0.1c0.5,0.1,0.9,0.2,1.3,0.3c0.4,0.1,0.7,0.2,1,0.3c0.3,0.1,0.4,0.2,0.6,0.3
				c0.1,0.1,0.2,0.2,0.2,0.3c0.1,0.1,0.1,0.2,0.1,0.3c0,0.1,0.1,0.3,0.1,0.5c0,0.2,0,0.4,0,0.7c0,0.3,0,0.6,0,0.8
				c0,0.2-0.1,0.4-0.1,0.5c0,0.1-0.1,0.2-0.2,0.2c-0.1,0.1-0.2,0.1-0.3,0.1s-0.3-0.1-0.5-0.2s-0.5-0.3-0.9-0.4
				c-0.3-0.2-0.7-0.3-1.2-0.4c-0.4-0.1-1-0.2-1.5-0.2c-0.4,0-0.8,0.1-1,0.1s-0.5,0.2-0.7,0.4c-0.2,0.2-0.3,0.3-0.4,0.5
				c-0.1,0.2-0.2,0.4-0.2,0.7c0,0.4,0.1,0.7,0.3,0.9c0.2,0.3,0.5,0.5,0.9,0.7c0.4,0.2,0.8,0.4,1.3,0.5c0.5,0.2,0.9,0.3,1.4,0.5
				c0.5,0.2,1,0.4,1.4,0.7c0.5,0.3,0.9,0.6,1.3,1c0.4,0.4,0.7,0.8,0.9,1.4C202.9,137.1,203,137.7,203,138.4z"/>
			<path class="st9" d="M220,143c0,0.2-0.1,0.3-0.2,0.4c-0.1,0.1-0.3,0.2-0.6,0.2c-0.3,0.1-0.6,0.1-1.1,0.1c-0.5,0-0.9,0-1.2-0.1
				c-0.2-0.1-0.4-0.1-0.5-0.2c-0.1-0.1-0.2-0.2-0.2-0.4v-1.3c-0.7,0.7-1.4,1.3-2.3,1.6c-0.8,0.4-1.8,0.6-2.8,0.6
				c-0.8,0-1.6-0.1-2.3-0.3c-0.7-0.2-1.3-0.5-1.8-1c-0.5-0.4-0.9-1-1.2-1.6c-0.3-0.7-0.4-1.4-0.4-2.3c0-0.9,0.2-1.8,0.5-2.4
				c0.4-0.7,0.9-1.3,1.6-1.7c0.7-0.4,1.6-0.8,2.7-1s2.3-0.3,3.7-0.3h1.5v-1c0-0.5-0.1-0.9-0.2-1.3s-0.3-0.7-0.5-0.9
				s-0.5-0.4-0.9-0.5c-0.4-0.1-0.9-0.2-1.4-0.2c-0.8,0-1.4,0.1-2,0.3c-0.6,0.2-1.1,0.4-1.6,0.5c-0.4,0.2-0.8,0.4-1.1,0.5
				s-0.5,0.3-0.7,0.3c-0.1,0-0.3-0.1-0.3-0.1c-0.1-0.1-0.2-0.2-0.3-0.4s-0.1-0.3-0.2-0.6c0-0.2-0.1-0.5-0.1-0.8c0-0.4,0-0.7,0.1-0.9
				c0.1-0.2,0.2-0.4,0.3-0.6c0.2-0.2,0.5-0.4,0.9-0.6c0.4-0.2,0.9-0.4,1.5-0.6c0.5-0.2,1.2-0.3,1.8-0.4c0.7-0.1,1.3-0.2,2-0.2
				c1.3,0,2.3,0.1,3.2,0.4c0.9,0.2,1.6,0.6,2.2,1.1s1,1.2,1.3,2s0.4,1.8,0.4,2.9L220,143L220,143z M215.6,136.1h-1.7
				c-0.7,0-1.4,0.1-1.9,0.2c-0.5,0.1-0.9,0.3-1.3,0.5c-0.3,0.2-0.5,0.5-0.7,0.8s-0.2,0.7-0.2,1c0,0.7,0.2,1.2,0.6,1.6
				c0.4,0.4,1,0.6,1.8,0.6c0.6,0,1.2-0.2,1.8-0.5c0.5-0.3,1.1-0.8,1.6-1.4L215.6,136.1L215.6,136.1z"/>
			<path class="st9" d="M239.7,142.9c0,0.1,0,0.2-0.1,0.3c-0.1,0.1-0.2,0.2-0.3,0.2c-0.2,0.1-0.3,0.1-0.6,0.1c-0.2,0-0.5,0-0.9,0
				c-0.4,0-0.7,0-0.9,0c-0.2,0-0.4-0.1-0.6-0.1s-0.3-0.1-0.3-0.2c-0.1-0.1-0.1-0.2-0.1-0.3v-1.8c-0.8,0.9-1.7,1.6-2.6,2.1
				c-0.9,0.5-1.9,0.7-3,0.7c-1.2,0-2.3-0.2-3.1-0.7c-0.8-0.5-1.5-1.1-2.1-1.9c-0.5-0.8-0.9-1.7-1.2-2.8s-0.4-2.2-0.4-3.4
				c0-1.4,0.2-2.7,0.5-3.8c0.3-1.1,0.8-2.1,1.3-2.9c0.6-0.8,1.3-1.4,2.2-1.9c0.9-0.4,1.9-0.7,3-0.7c0.9,0,1.7,0.2,2.4,0.5
				c0.7,0.4,1.4,0.9,2.2,1.6v-8.6c0-0.1,0-0.2,0.1-0.3c0.1-0.1,0.2-0.2,0.4-0.2c0.2-0.1,0.4-0.1,0.7-0.2c0.3,0,0.7-0.1,1.1-0.1
				s0.8,0,1.1,0.1c0.3,0,0.5,0.1,0.7,0.2c0.2,0.1,0.3,0.2,0.4,0.2c0.1,0.1,0.1,0.2,0.1,0.3L239.7,142.9L239.7,142.9z M235.2,132.3
				c-0.7-0.8-1.3-1.4-1.9-1.9c-0.6-0.4-1.2-0.7-1.9-0.7c-0.6,0-1.1,0.2-1.5,0.4c-0.4,0.3-0.8,0.7-1,1.2c-0.3,0.5-0.4,1-0.6,1.6
				s-0.2,1.2-0.2,1.9c0,0.7,0.1,1.3,0.2,2c0.1,0.6,0.3,1.2,0.5,1.7c0.2,0.5,0.6,0.9,1,1.2c0.4,0.3,0.9,0.4,1.5,0.4
				c0.3,0,0.6-0.1,0.9-0.1c0.3-0.1,0.6-0.2,0.9-0.4c0.3-0.2,0.6-0.5,0.9-0.8c0.3-0.3,0.7-0.7,1-1.2L235.2,132.3L235.2,132.3z"/>
			<path class="st9" d="M259,134.5c0,0.5-0.1,1-0.4,1.2c-0.2,0.3-0.6,0.4-1,0.4h-9.7c0,0.7,0.1,1.3,0.2,1.9s0.4,1,0.8,1.4
				c0.4,0.4,0.8,0.7,1.4,0.9s1.2,0.3,2,0.3c0.8,0,1.5-0.1,2.1-0.2c0.6-0.1,1.1-0.2,1.5-0.4c0.4-0.1,0.8-0.3,1.1-0.4
				c0.3-0.1,0.5-0.2,0.7-0.2c0.1,0,0.2,0,0.3,0.1c0.1,0.1,0.1,0.1,0.2,0.2c0.1,0.1,0.1,0.3,0.1,0.4c0,0.2,0,0.4,0,0.7
				c0,0.3,0,0.5,0,0.7c0,0.2,0,0.3-0.1,0.5c0,0.1-0.1,0.2-0.1,0.3c-0.1,0.1-0.1,0.2-0.2,0.3s-0.3,0.2-0.6,0.3s-0.8,0.3-1.3,0.4
				c-0.5,0.1-1.2,0.3-1.9,0.4c-0.7,0.1-1.4,0.2-2.2,0.2c-1.4,0-2.7-0.2-3.7-0.5c-1.1-0.4-2-0.9-2.7-1.6c-0.7-0.7-1.3-1.6-1.6-2.7
				c-0.3-1.1-0.5-2.4-0.5-3.9c0-1.4,0.2-2.7,0.5-3.8c0.4-1.2,0.9-2.1,1.6-2.9c0.7-0.8,1.6-1.4,2.6-1.8s2.1-0.6,3.4-0.6
				c1.3,0,2.5,0.2,3.4,0.6c0.9,0.4,1.7,0.9,2.3,1.6c0.6,0.7,1,1.5,1.3,2.5c0.3,0.9,0.4,2,0.4,3.1v0.6H259z M254.6,133.2
				c0-1.3-0.2-2.3-0.8-3c-0.5-0.7-1.4-1.1-2.5-1.1c-0.6,0-1.1,0.1-1.5,0.3c-0.4,0.2-0.8,0.5-1,0.9c-0.3,0.4-0.5,0.8-0.7,1.3
				s-0.2,1-0.3,1.6C247.9,133.2,254.6,133.2,254.6,133.2z"/>
			<path class="st9" d="M272.9,128.4c0,0.4,0,0.8,0,1c0,0.3-0.1,0.5-0.1,0.7c-0.1,0.2-0.1,0.3-0.2,0.3s-0.2,0.1-0.3,0.1
				c-0.1,0-0.2,0-0.3-0.1c-0.1-0.1-0.3-0.1-0.4-0.1c-0.2-0.1-0.3-0.1-0.5-0.1c-0.2-0.1-0.4-0.1-0.6-0.1c-0.3,0-0.5,0.1-0.8,0.2
				c-0.3,0.1-0.5,0.3-0.8,0.5c-0.3,0.2-0.5,0.5-0.8,0.9c-0.3,0.4-0.6,0.8-0.9,1.3v10c0,0.1,0,0.2-0.1,0.3s-0.2,0.2-0.4,0.2
				c-0.2,0.1-0.4,0.1-0.7,0.1c-0.3,0-0.7,0.1-1.1,0.1s-0.8,0-1.1-0.1c-0.3,0-0.5-0.1-0.7-0.1c-0.2-0.1-0.3-0.1-0.4-0.2
				c-0.1-0.1-0.1-0.2-0.1-0.3v-16c0-0.1,0-0.2,0.1-0.3s0.2-0.2,0.3-0.2c0.2-0.1,0.4-0.1,0.6-0.1c0.2,0,0.5-0.1,0.9-0.1
				c0.4,0,0.7,0,0.9,0.1c0.3,0,0.4,0.1,0.6,0.1c0.1,0.1,0.2,0.1,0.3,0.2c0.1,0.1,0.1,0.2,0.1,0.3v2c0.4-0.6,0.8-1.1,1.2-1.5
				c0.4-0.4,0.7-0.7,1-0.9c0.3-0.2,0.7-0.4,1-0.5c0.3-0.1,0.7-0.1,1-0.1c0.2,0,0.3,0,0.5,0c0.2,0,0.4,0.1,0.5,0.1
				c0.2,0.1,0.4,0.1,0.5,0.1c0.2,0.1,0.3,0.1,0.3,0.2c0.1,0.1,0.1,0.1,0.2,0.2c0,0.1,0.1,0.2,0.1,0.3s0.1,0.3,0.1,0.6
				C272.9,127.7,272.9,128,272.9,128.4z"/>
		</g>
	</g>
</g>
</svg>
