<?xml version="1.0" encoding="UTF-8"?>
<svg version="1.1" xmlns="http://www.w3.org/2000/svg" width="150" height="150">
<path d="M0 0 C49.5 0 99 0 150 0 C150 49.5 150 99 150 150 C100.5 150 51 150 0 150 C0 100.5 0 51 0 0 Z " fill="#CCCCCC" transform="translate(0,0)"/>
<path d="M0 0 C2.64 0 5.28 0 8 0 C8 0.66 8 1.32 8 2 C6.02 2 4.04 2 2 2 C2 2.99 2 3.98 2 5 C4.97 5.495 4.97 5.495 8 6 C8.474375 5.195625 8.94875 4.39125 9.4375 3.5625 C11 1 11 1 12 0 C14.4375 -0.1875 14.4375 -0.1875 17 0 C19 2 19 2 19.265625 4.53125 C19.26046875 5.5109375 19.2553125 6.490625 19.25 7.5 C19.25515625 8.4796875 19.2603125 9.459375 19.265625 10.46875 C19 13 19 13 17 15 C13.80848491 15.4199362 12.41508925 15.26924708 9.6875 13.5 C9.130625 13.005 8.57375 12.51 8 12 C8 12.66 8 13.32 8 14 C5.29120665 15.35439668 2.99066732 15.06501451 0 15 C-0.66 13.68 -1.32 12.36 -2 11 C-1.01 11 -0.02 11 1 11 C1 11.66 1 12.32 1 13 C2.32 13 3.64 13 5 13 C5 11.35 5 9.7 5 8 C3.02 8 1.04 8 -1 8 C-1.125 2.25 -1.125 2.25 0 0 Z " fill="#F6F6F6" transform="translate(99,66)"/>
<path d="M0 0 C2.5625 0.3125 2.5625 0.3125 4.19921875 1.55078125 C5.9191583 3.77339654 5.9653522 5.02728049 5.9375 7.8125 C5.94523437 8.5859375 5.95296875 9.359375 5.9609375 10.15625 C5.47077845 12.80887544 4.69332805 13.70039381 2.5625 15.3125 C0 15.625 0 15.625 -2.4375 15.3125 C-4.4375 13.3125 -4.4375 13.3125 -4.703125 10.78125 C-4.69796875 9.8015625 -4.6928125 8.821875 -4.6875 7.8125 C-4.69265625 6.8328125 -4.6978125 5.853125 -4.703125 4.84375 C-4.33958295 1.37940808 -3.46289616 0.44396105 0 0 Z " fill="#F2F2F2" transform="translate(58.4375,65.6875)"/>
<path d="M0 0 C2.64 0 5.28 0 8 0 C8 0.66 8 1.32 8 2 C6.02 2 4.04 2 2 2 C2 2.99 2 3.98 2 5 C2.78375 4.938125 3.5675 4.87625 4.375 4.8125 C5.674375 4.9053125 5.674375 4.9053125 7 5 C9 8 9 8 8.75 10.5625 C8 13 8 13 6 15 C3.375 15.125 3.375 15.125 1 15 C0.34 13.68 -0.32 12.36 -1 11 C-0.01 11 0.98 11 2 11 C2 11.66 2 12.32 2 13 C3.32 13 4.64 13 6 13 C6 11.02 6 9.04 6 7 C3.69 7.33 1.38 7.66 -1 8 C-0.67 5.36 -0.34 2.72 0 0 Z " fill="#F6F6F6" transform="translate(44,66)"/>
<path d="M0 0 C0.99 0 1.98 0 3 0 C3 0.66 3 1.32 3 2 C3.66 2 4.32 2 5 2 C5 1.34 5 0.68 5 0 C6.32 0.33 7.64 0.66 9 1 C8.34 1.66 7.68 2.32 7 3 C7.36276645 5.82957829 8.09694764 8.29084291 9 11 C7.68 10.67 6.36 10.34 5 10 C5 9.34 5 8.68 5 8 C4.34 8 3.68 8 3 8 C2.67 8.99 2.34 9.98 2 11 C1.01 10.67 0.02 10.34 -1 10 C-0.34 9.01 0.32 8.02 1 7 C0.68269476 3.36060068 0.68269476 3.36060068 0 0 Z " fill="#F5F5F5" transform="translate(71,70)"/>
<path d="M0 0 C2.5 0.25 2.5 0.25 4.5 2.25 C4.765625 4.78125 4.765625 4.78125 4.75 7.75 C4.75515625 8.7296875 4.7603125 9.709375 4.765625 10.71875 C4.5 13.25 4.5 13.25 2.5 15.25 C0.375 14.875 0.375 14.875 -1.5 14.25 C-1.005 13.92 -0.51 13.59 0 13.25 C2.38179561 10.07427253 1.69168226 7.14753934 1.5 3.25 C0.18 3.58 -1.14 3.91 -2.5 4.25 C-2.83 6.56 -3.16 8.87 -3.5 11.25 C-3.83 11.25 -4.16 11.25 -4.5 11.25 C-4.55399736 9.79207116 -4.59279177 8.33357288 -4.625 6.875 C-4.65980469 5.65683594 -4.65980469 5.65683594 -4.6953125 4.4140625 C-4.39501711 1.08678962 -3.24459633 0.32445963 0 0 Z " fill="#F8F8F8" transform="translate(113.5,65.75)"/>
<path d="M0 0 C0 4.95 0 9.9 0 15 C-0.99 15 -1.98 15 -3 15 C-3.33 12.03 -3.66 9.06 -4 6 C-4.66 6 -5.32 6 -6 6 C-6 5.01 -6 4.02 -6 3 C-2.66666667 0 -2.66666667 0 0 0 Z " fill="#F4F4F4" transform="translate(39,66)"/>
<path d="M0 0 C2.0625 0.4375 2.0625 0.4375 4 1 C4.125 8.75 4.125 8.75 3 11 C1.68 10.67 0.36 10.34 -1 10 C-1.02689216 8.52093108 -1.04634621 7.04172517 -1.0625 5.5625 C-1.07410156 4.73878906 -1.08570312 3.91507812 -1.09765625 3.06640625 C-1 1 -1 1 0 0 Z " fill="#CFCFCF" transform="translate(112,68)"/>
<path d="M0 0 C1.32 0 2.64 0 4 0 C4 3.63 4 7.26 4 11 C2.68 11 1.36 11 0 11 C0 7.37 0 3.74 0 0 Z " fill="#CECECE" transform="translate(57,68)"/>
<path d="M0 0 C0.33 0 0.66 0 1 0 C1.33 2.97 1.66 5.94 2 9 C3.32 9 4.64 9 6 9 C6.33 7.02 6.66 5.04 7 3 C7.33 3 7.66 3 8 3 C8.125 6.375 8.125 6.375 8 10 C6 12 6 12 3.5 12.25 C1 12 1 12 -1 10 C-1.23046875 8.125 -1.23046875 8.125 -1.1875 6 C-1.18105469 5.29875 -1.17460938 4.5975 -1.16796875 3.875 C-1 2 -1 2 0 0 Z " fill="#F9F9F9" transform="translate(55,69)"/>
<path d="M0 0 C0.66 0 1.32 0 2 0 C2 4.95 2 9.9 2 15 C1.34 15 0.68 15 0 15 C-0.33 11.7 -0.66 8.4 -1 5 C-1.66 5 -2.32 5 -3 5 C-2.67 4.01 -2.34 3.02 -2 2 C-1.34 2 -0.68 2 0 2 C0 1.34 0 0.68 0 0 Z " fill="#FAFAFA" transform="translate(91,66)"/>
<path d="M0 0 C0.99 0.33 1.98 0.66 3 1 C3.1953125 3.01822917 3.390625 5.03645833 3.5859375 7.0546875 C3.86374749 9.22668245 3.86374749 9.22668245 6 11 C3 12 3 12 0.75 11.125 C-1 9 -1 9 -1.03125 6.79296875 C-0.7718296 4.50502498 -0.43599695 2.26054938 0 0 Z " fill="#EDEDED" transform="translate(108,69)"/>
<path d="M0 0 C1.32 0.66 2.64 1.32 4 2 C3.01 2 2.02 2 1 2 C1 5.3 1 8.6 1 12 C0.67 12 0.34 12 0 12 C-0.144375 10.906875 -0.28875 9.81375 -0.4375 8.6875 C-0.88288104 5.06877013 -0.88288104 5.06877013 -2 2 C-1.34 1.34 -0.68 0.68 0 0 Z " fill="#ECECEC" transform="translate(56,66)"/>
</svg>
