<?xml version="1.0" encoding="UTF-8"?>
<svg version="1.1" xmlns="http://www.w3.org/2000/svg" width="400" height="600">
<path d="M0 0 C132 0 264 0 400 0 C400 198 400 396 400 600 C268 600 136 600 0 600 C0 402 0 204 0 0 Z " fill="#CCCCCC" transform="translate(0,0)"/>
<path d="M0 0 C4.39771143 2.48566298 6.0799365 5.40901017 8 10 C8.33685708 12.73415665 8.5241817 15.15052873 8.5 17.875 C8.49577026 18.93291748 8.49577026 18.93291748 8.49145508 20.01220703 C8.31298388 25.75380458 7.09145725 29.92006798 3 34 C-1.01063966 36.67375977 -4.285018 36.82035715 -9 36 C-12.33872378 33.44267966 -14.5145986 30.91546597 -16 27 C-16.21921297 24.18439439 -16.32465693 21.50061249 -16.3125 18.6875 C-16.32861328 17.95337891 -16.34472656 17.21925781 -16.36132812 16.46289062 C-16.36657607 10.54845665 -15.28174171 5.72053819 -11.375 1.0625 C-7.60852644 -0.62250133 -4.04858203 -0.64458641 0 0 Z " fill="#F9F9F9" transform="translate(300,278)"/>
<path d="M0 0 C3.30411676 2.71409591 5.38257623 6.40301814 6.13769531 10.58422852 C6.28568292 12.88130825 6.2963311 15.13638864 6.25 17.4375 C6.26546875 18.20578125 6.2809375 18.9740625 6.296875 19.765625 C6.25834708 25.42922993 4.955217 28.76824591 1.75 33.4375 C-1.20009373 35.86079128 -4.5276367 35.86186396 -8.2890625 35.75 C-11.52136709 35.2348917 -13.06850075 33.8059849 -15.25 31.4375 C-18.09702848 26.76368569 -18.71588327 22.80971081 -18.625 17.4375 C-18.63660156 16.75171875 -18.64820313 16.0659375 -18.66015625 15.359375 C-18.62614278 9.41835614 -17.06728133 5.41054831 -13.0625 1.0625 C-8.69223272 -1.46254332 -4.92237887 -1.23059472 0 0 Z " fill="#FAFAFA" transform="translate(274.25,278.5625)"/>
<path d="M0 0 C4.25313071 2.17181143 6.02203925 5.06047457 7.4921875 9.59765625 C9.26104363 17.96570641 8.60574155 25.70757588 4 33 C1.41074397 36.05162318 0.1302315 35.987597 -3.9375 36.375 C-7.71977425 36.19924376 -10.0940164 35.57387119 -13 33 C-15.62181086 27.92777996 -16.47384436 23.73297313 -16.375 18 C-16.39240234 16.99066406 -16.39240234 16.99066406 -16.41015625 15.9609375 C-16.37652966 10.15474639 -15.02899711 5.80276719 -11.6171875 1.08984375 C-8.19261681 -1.21801911 -3.92765223 -0.54672919 0 0 Z " fill="#F9F9F9" transform="translate(136,278)"/>
<path d="M0 0 C3.61964799 2.15638604 5.39631488 4.16083501 7 8 C7.40691758 11.11572272 7.32446535 14.23529199 7.3125 17.375 C7.32861328 18.21289062 7.34472656 19.05078125 7.36132812 19.9140625 C7.36603938 25.90677676 6.42187453 30.20552939 2.375 34.875 C-1.37797675 36.65272583 -4.93721255 36.78353758 -9 36 C-12.83333854 33.0638258 -15.61682052 29.77370421 -16.29052734 24.89697266 C-16.33983478 22.4724253 -16.37130322 20.05008548 -16.375 17.625 C-16.39949219 16.78710938 -16.42398438 15.94921875 -16.44921875 15.0859375 C-16.47527739 9.56150628 -15.72789196 6.34696427 -12 2 C-7.97297943 -0.68468038 -4.7315637 -0.68187737 0 0 Z " fill="#FAFAFA" transform="translate(164,278)"/>
<path d="M0 0 C2.9375 1.125 2.9375 1.125 5 3 C6.3125 6.1875 6.3125 6.1875 7 9 C5.02 9 3.04 9 1 9 C0.67 7.68 0.34 6.36 0 5 C-3.37436186 4.66619186 -3.37436186 4.66619186 -7 5 C-9.87637713 7.58873942 -10.47765853 10.23914141 -11 14 C-10.01 13.67 -9.02 13.34 -8 13 C-2.64519163 12.65452849 0.6384043 12.53637989 5 16 C7.83909637 20.25864456 7.51085825 24.00316775 7 29 C5.69883504 32.28715357 4.81910603 33.50853638 1.8125 35.3125 C-3.2017356 36.53820204 -7.23865644 37.01766517 -11.8125 34.375 C-16.33022416 29.47004234 -17.55810956 24.67201006 -17.5 18.125 C-17.49718018 17.41972168 -17.49436035 16.71444336 -17.49145508 15.98779297 C-17.31298388 10.24619542 -16.09145725 6.07993202 -12 2 C-7.94581842 -0.70278772 -4.75493686 -0.52646928 0 0 Z " fill="#FAFAFA" transform="translate(245,278)"/>
<path d="M0 0 C1.65 0 3.3 0 5 0 C5 7.59 5 15.18 5 23 C6.65 23 8.3 23 10 23 C10 24.32 10 25.64 10 27 C8.35 27 6.7 27 5 27 C5 29.97 5 32.94 5 36 C3.35 36 1.7 36 0 36 C0 33.03 0 30.06 0 27 C-4.95 27 -9.9 27 -15 27 C-13.8753874 19.12771178 -13.8753874 19.12771178 -11.6015625 16.2109375 C-10.88226563 15.26347656 -10.88226563 15.26347656 -10.1484375 14.296875 C-9.64570312 13.66265625 -9.14296875 13.0284375 -8.625 12.375 C-7.63615052 11.09258583 -6.64912653 9.80876168 -5.6640625 8.5234375 C-5.19516602 7.92370117 -4.72626953 7.32396484 -4.24316406 6.70605469 C-2.83472424 4.86267354 -2.83472424 4.86267354 -1.4609375 2.0390625 C-0.73777344 1.02972656 -0.73777344 1.02972656 0 0 Z " fill="#FBFBFB" transform="translate(106,278)"/>
<path d="M0 0 C3 0.4375 3 0.4375 4.8125 1.75 C7.4563391 5.5070345 7.19725803 9.30648941 7.25 13.75 C7.27578125 15.04550781 7.3015625 16.34101563 7.328125 17.67578125 C6.96878194 21.79539281 6.0148456 25.4226544 3 28.4375 C0.125 28.8125 0.125 28.8125 -3 28.4375 C-6.8063338 24.05310148 -6.45034356 19.37089394 -6.375 13.875 C-6.38660156 13.02486328 -6.39820313 12.17472656 -6.41015625 11.29882812 C-6.39307367 7.66877949 -6.35997322 5.12797495 -4.6640625 1.875 C-3 0.4375 -3 0.4375 0 0 Z " fill="#CDCDCD" transform="translate(268,281.5625)"/>
<path d="M0 0 C2.1328125 1.39453125 2.1328125 1.39453125 4 4 C4.60018302 7.34142553 4.55805226 10.61361804 4.5 14 C4.51546875 14.90234375 4.5309375 15.8046875 4.546875 16.734375 C4.50802903 23.29934329 4.50802903 23.29934329 2.125 26.5859375 C0 28 0 28 -2.5 28.625 C-5 28 -5 28 -7.1328125 25.46484375 C-9.28666688 21.46804703 -9.53170799 18.35419086 -9.375 13.9375 C-9.37371094 13.24333984 -9.37242187 12.54917969 -9.37109375 11.83398438 C-9.30263563 7.82918434 -8.89431942 4.55352827 -7 1 C-4.4086487 -0.29567565 -2.87704151 -0.34250494 0 0 Z " fill="#CDCDCD" transform="translate(298,282)"/>
<path d="M0 0 C2.11141946 4.30695922 2.33422597 8.28980863 2.3125 13 C2.32861328 13.69867188 2.34472656 14.39734375 2.36132812 15.1171875 C2.36556711 19.61051288 1.69485305 22.39776604 -1 26 C-2 27 -2 27 -4.3125 27.4375 C-7 27 -7 27 -9.3125 24.875 C-12.92116609 18.75341664 -11.83490659 9.3340724 -10.125 2.6875 C-7.98284375 -2.42987326 -4.83508072 -0.80584679 0 0 Z " fill="#CCCCCC" transform="translate(164,283)"/>
<path d="M0 0 C3.625 0.375 3.625 0.375 7 1 C9.35397751 5.66087548 9.3667617 9.95887354 9.375 15.0625 C9.39949219 15.86494141 9.42398438 16.66738281 9.44921875 17.49414062 C9.4783772 23.35012909 9.4783772 23.35012909 7.13671875 26.53125 C4.48226563 28.35588322 3.1581058 28.5668395 0 28 C-2.3001668 26.43917253 -2.8951574 25.42153956 -3.56640625 22.72265625 C-4.69024365 15.66576736 -4.56525557 8.69816733 -2 2 C-1.34 1.34 -0.68 0.68 0 0 Z " fill="#CCCCCC" transform="translate(129,282)"/>
<path d="M0 0 C2.75 -0.375 2.75 -0.375 6 0 C10 4.84210526 10 4.84210526 10 8 C10.66 8 11.32 8 12 8 C12.28875 7.236875 12.5775 6.47375 12.875 5.6875 C14 3 14 3 16 0 C19.125 -0.1875 19.125 -0.1875 22 0 C20.5140084 4.59306496 18.14985318 7.43569245 15 11 C16.39394033 15.46060905 18.88204987 18.63232556 21.7578125 22.23046875 C23 24 23 24 23 26 C20.3125 26.5 20.3125 26.5 17 26 C15.39809638 24.02041179 14.25347296 22.00666808 13.078125 19.75 C12.54445312 18.88375 12.54445312 18.88375 12 18 C11.34 18 10.68 18 10 18 C9.19758878 19.30246459 8.45666572 20.64320181 7.75 22 C6.44140625 24.21875 6.44140625 24.21875 5 26 C1.6875 26.5 1.6875 26.5 -1 26 C0.59043379 20.91061189 3.7446951 17.12543357 7 13 C6.1028125 11.453125 6.1028125 11.453125 5.1875 9.875 C3.33606301 6.63992683 1.63454714 3.35082164 0 0 Z " fill="#FAFAFA" transform="translate(189,288)"/>
<path d="M0 0 C2.375 0.9375 2.375 0.9375 4 3 C4.5652141 6.09714256 4.57087684 8.90342562 4 12 C1.92961453 14.53047113 0.68106885 14.88081295 -2.5 15.4375 C-5 15 -5 15 -7.3125 13.5 C-9.83210805 9.76724733 -9.49582992 7.4624693 -9 3 C-6.88807224 -0.75453824 -4.01205827 -0.49127244 0 0 Z " fill="#CDCDCD" transform="translate(243,295)"/>
<path d="M0 0 C0.33 0 0.66 0 1 0 C1 4.62 1 9.24 1 14 C-2.3 14 -5.6 14 -9 14 C-7.3235828 10.64716559 -5.57726551 7.80553154 -3.4375 4.75 C-2.81746094 3.85796875 -2.19742188 2.9659375 -1.55859375 2.046875 C-1.04425781 1.37140625 -0.52992187 0.6959375 0 0 Z " fill="#CECECE" transform="translate(105,287)"/>
</svg>
