<svg width="35" height="30" viewBox="0 0 35 30" fill="none" xmlns="http://www.w3.org/2000/svg">
<path d="M15.4327 30C23.5495 30 30.1295 23.4509 30.1295 15.3721C30.1295 7.29337 23.5495 0.744263 15.4327 0.744263C7.31585 0.744263 0.73584 7.29337 0.73584 15.3721C0.73584 23.4509 7.31585 30 15.4327 30Z" fill="#00B04C"/>
<path d="M27.1652 15.3566L15.4321 3.67865L3.69906 15.3566L15.4321 27.0346L27.1652 15.3566Z" fill="#FFCC02"/>
<path d="M15.4326 20.82C18.4556 20.82 20.9062 18.3809 20.9062 15.3721C20.9062 12.3633 18.4556 9.92419 15.4326 9.92419C12.4096 9.92419 9.95898 12.3633 9.95898 15.3721C9.95898 18.3809 12.4096 20.82 15.4326 20.82Z" fill="#0051A3"/>
<path d="M20.6047 17.088C19.6565 16.3158 18.3204 15.6295 17.1136 15.3721C14.7863 14.8573 12.1141 15.5866 10.2178 17.0451C9.82987 15.8869 9.95916 15.0718 9.95916 15.0718C12.1572 13.6133 14.9156 13.0986 17.5015 13.6991C18.7514 13.9565 19.872 14.4713 20.9064 15.1576C20.8633 15.2005 20.9926 16.0584 20.6047 17.088Z" fill="white"/>
<path d="M29.0523 21.8067C32.3609 21.8067 35.0431 19.1371 35.0431 15.844C35.0431 12.5509 32.3609 9.88135 29.0523 9.88135C25.7437 9.88135 23.0615 12.5509 23.0615 15.844C23.0615 19.1371 25.7437 21.8067 29.0523 21.8067Z" fill="white"/>
<path d="M24.3975 14.171H33.6638L29.0522 18.761L24.3975 14.171Z" fill="#A6A8AB"/>
</svg>
