<svg width="35" height="30" viewBox="0 0 35 30" fill="none" xmlns="http://www.w3.org/2000/svg">
<path d="M14.6969 30C22.8137 30 29.3937 23.4509 29.3937 15.3721C29.3937 7.29337 22.8137 0.744263 14.6969 0.744263C6.58 0.744263 0 7.29337 0 15.3721C0 23.4509 6.58 30 14.6969 30Z" fill="#00B04C"/>
<path d="M26.4298 15.3576L14.6968 3.67963L2.96371 15.3576L14.6968 27.0356L26.4298 15.3576Z" fill="#FFCC02"/>
<path d="M14.6968 20.82C17.7197 20.82 20.1704 18.3809 20.1704 15.3721C20.1704 12.3633 17.7197 9.92419 14.6968 9.92419C11.6738 9.92419 9.22314 12.3633 9.22314 15.3721C9.22314 18.3809 11.6738 20.82 14.6968 20.82Z" fill="#0051A3"/>
<path d="M19.8688 17.088C18.9207 16.3158 17.5846 15.6295 16.3778 15.3721C14.0504 14.8573 11.3783 15.5866 9.48192 17.0451C9.09403 15.8869 9.22332 15.0718 9.22332 15.0718C11.4214 13.6133 14.1797 13.0986 16.7657 13.6991C18.0156 13.9565 19.1362 14.4713 20.1705 15.1576C20.1274 15.2005 20.2567 16.0584 19.8688 17.088Z" fill="white"/>
<path d="M28.316 21.8067C31.6246 21.8067 34.3068 19.1371 34.3068 15.844C34.3068 12.5509 31.6246 9.88135 28.316 9.88135C25.0074 9.88135 22.3252 12.5509 22.3252 15.844C22.3252 19.1371 25.0074 21.8067 28.316 21.8067Z" fill="white"/>
<path d="M32.9275 17.5599H23.6611L28.3159 12.9699L32.9275 17.5599Z" fill="#A6A8AB"/>
</svg>
