<svg width="28" height="28" viewBox="0 0 28 28" fill="none" xmlns="http://www.w3.org/2000/svg">
<path d="M14 28C21.732 28 28 21.732 28 14C28 6.26801 21.732 0 14 0C6.26801 0 0 6.26801 0 14C0 21.732 6.26801 28 14 28Z" fill="#00B14C"/>
<path d="M24.2558 13.9602L14 3.70447L3.74422 13.9602L14 24.216L24.2558 13.9602Z" fill="#FFDD00"/>
<path d="M14 19.376C16.9691 19.376 19.376 16.9691 19.376 14C19.376 11.0309 16.9691 8.62399 14 8.62399C11.0309 8.62399 8.62402 11.0309 8.62402 14C8.62402 16.9691 11.0309 19.376 14 19.376Z" fill="#0071BB"/>
<path d="M19.096 15.736C18.48 15.232 17.584 14.672 16.072 14.056C13.944 13.16 10.528 13.496 8.62401 14.336C8.62401 14.336 8.56801 14 8.62401 13.552C8.68001 13.048 8.73601 12.712 8.73601 12.712C11.256 11.76 13.944 11.48 16.744 12.6C17.752 12.992 18.592 13.496 19.376 14.168C19.376 14.168 19.376 14.392 19.32 14.952C19.208 15.456 19.096 15.736 19.096 15.736Z" fill="white"/>
</svg>
