<svg width="30" height="30" viewBox="0 0 30 30" fill="none" xmlns="http://www.w3.org/2000/svg">
<path d="M14.6968 29.2557C22.8137 29.2557 29.3937 22.7066 29.3937 14.6279C29.3937 6.54911 22.8137 0 14.6968 0C6.58 0 0 6.54911 0 14.6279C0 22.7066 6.58 29.2557 14.6968 29.2557Z" fill="white"/>
<path d="M8.31836 1.4585H13.8351V2.91699H23.4893C20.9895 1.07242 17.9726 0 14.6971 0C12.4128 0 10.2147 0.514763 8.31836 1.4585Z" fill="#EC1C24"/>
<path d="M13.792 7.29249H27.3683C26.7649 6.22007 25.9891 5.27633 25.1702 4.4184H13.792V7.29249Z" fill="#EC1C24"/>
<path d="M13.792 11.668H29.0491C28.8336 10.6813 28.5319 9.69472 28.1441 8.79388H13.792V11.668Z" fill="#EC1C24"/>
<path d="M13.7918 13.3409H0.0430986C-6.58285e-07 13.7699 0 14.156 0 14.585C0 15.0568 0.043098 15.5716 0.0861972 16.0435H29.3075C29.3506 15.5716 29.3937 15.0997 29.3937 14.585C29.3937 14.0702 29.3506 13.5983 29.3075 13.1265H13.8349V13.3409H13.7918Z" fill="#EC1C24"/>
<path d="M1.20697 20.419H28.1009C28.4888 19.5181 28.8336 18.5315 29.006 17.5449H0.258789C0.517385 18.5744 0.819078 19.5181 1.20697 20.419Z" fill="#EC1C24"/>
<path d="M4.18049 24.8374H25.1267C25.9887 23.9794 26.7214 22.9928 27.3248 21.9633H1.98242C2.58581 22.9928 3.3616 23.9794 4.18049 24.8374Z" fill="#EC1C24"/>
<path d="M14.697 29.2128C17.9726 29.2128 21.0326 28.1404 23.4462 26.3387H5.90479C8.36144 28.1404 11.3784 29.2128 14.697 29.2128Z" fill="#EC1C24"/>
<path d="M8.31803 1.4585C7.71464 1.75877 7.15435 2.05905 6.59406 2.44513L6.72336 2.7454L7.49914 2.87409L6.93885 3.38886L7.06815 4.11811L6.37856 3.77493L5.68898 4.11811L5.81827 3.38886L5.60277 3.17437C4.82699 3.77493 4.0943 4.50418 3.44781 5.23343L3.70641 5.74819L4.48219 5.87688L3.9219 6.39164L4.0512 7.12089L3.36161 6.77772L2.67203 7.12089L2.80132 6.39164L2.67203 6.26295C2.11174 7.0351 1.63764 7.89304 1.24975 8.79387L1.68074 8.83677L1.12045 9.35153L1.24975 10.0808L0.818757 9.8663C0.732558 10.1666 0.603259 10.5098 0.51706 10.81L0.560159 10.7242L0.904954 11.4106L1.68074 11.5393L1.12045 12.0111L1.24975 12.7404L0.560159 12.3972L0.129166 12.6117C0.0860667 12.8691 0.0429688 13.0836 0.0429688 13.3409H13.7916V1.4585H8.31803ZM4.0512 12.7833L3.36161 12.4401L2.67203 12.7833L2.80132 12.054L2.24103 11.5393L3.01682 11.4106L3.36161 10.7242L3.70641 11.4106L4.48219 11.5393L3.9219 12.054L4.0512 12.7833ZM3.9219 9.35153L4.0512 10.0808L3.36161 9.73761L2.67203 10.0808L2.80132 9.35153L2.24103 8.83677L3.01682 8.70808L3.36161 8.02173L3.70641 8.70808L4.48219 8.83677L3.9219 9.35153ZM7.06815 12.7833L6.37856 12.4401L5.68898 12.7833L5.81827 12.054L5.25798 11.5393L6.03376 11.4106L6.37856 10.7242L6.72336 11.4106L7.49914 11.5393L6.93885 12.054L7.06815 12.7833ZM6.93885 9.35153L7.06815 10.0808L6.37856 9.73761L5.68898 10.0808L5.81827 9.35153L5.25798 8.83677L6.03376 8.70808L6.37856 8.02173L6.72336 8.70808L7.49914 8.83677L6.93885 9.35153ZM6.93885 6.34875L7.06815 7.078L6.37856 6.73482L5.68898 7.078L5.81827 6.34875L5.25798 5.83398L6.03376 5.70529L6.37856 5.01894L6.72336 5.70529L7.49914 5.83398L6.93885 6.34875ZM9.9558 12.7833L9.26621 12.4401L8.57663 12.7833L8.70592 12.054L8.14563 11.5393L8.92142 11.4106L9.26621 10.7242L9.61101 11.4106L10.3868 11.5393L9.8265 12.054L9.9558 12.7833ZM9.8265 9.35153L9.9558 10.0808L9.26621 9.73761L8.57663 10.0808L8.70592 9.35153L8.14563 8.83677L8.92142 8.70808L9.26621 8.02173L9.61101 8.70808L10.3868 8.83677L9.8265 9.35153ZM9.8265 6.34875L9.9558 7.078L9.26621 6.73482L8.57663 7.078L8.70592 6.34875L8.14563 5.83398L8.92142 5.70529L9.26621 5.01894L9.61101 5.70529L10.3868 5.83398L9.8265 6.34875ZM9.8265 3.38886L9.9558 4.11811L9.26621 3.77493L8.57663 4.11811L8.70592 3.38886L8.14563 2.87409L8.92142 2.7454L9.26621 2.05905L9.61101 2.7454L10.3868 2.87409L9.8265 3.38886ZM12.7573 12.7833L12.0677 12.4401L11.3781 12.7833L11.5074 12.054L10.9471 11.5393L11.7229 11.4106L12.0677 10.7242L12.4125 11.4106L13.1882 11.5393L12.628 12.054L12.7573 12.7833ZM12.628 9.35153L12.7573 10.0808L12.0677 9.73761L11.3781 10.0808L11.5074 9.35153L10.9471 8.83677L11.7229 8.70808L12.0677 8.02173L12.4125 8.70808L13.1882 8.83677L12.628 9.35153ZM12.628 6.34875L12.7573 7.078L12.0677 6.73482L11.3781 7.078L11.5074 6.34875L10.9471 5.83398L11.7229 5.70529L12.0677 5.01894L12.4125 5.70529L13.1882 5.83398L12.628 6.34875ZM12.628 3.38886L12.7573 4.11811L12.0677 3.77493L11.3781 4.11811L11.5074 3.38886L10.9471 2.87409L11.7229 2.7454L12.0677 2.05905L12.4125 2.7454L13.1882 2.87409L12.628 3.38886Z" fill="#0051A3"/>
</svg>
