<svg width="36" height="30" viewBox="0 0 36 30" fill="none" xmlns="http://www.w3.org/2000/svg">
<path d="M15.4503 29.2557C23.5671 29.2557 30.1471 22.7066 30.1471 14.6279C30.1471 6.54911 23.5671 0 15.4503 0C7.33342 0 0.753418 6.54911 0.753418 14.6279C0.753418 22.7066 7.33342 29.2557 15.4503 29.2557Z" fill="white"/>
<path d="M9.07178 1.4585H14.5885V2.91699H24.2427C21.743 1.07242 18.726 0 15.4505 0C13.1662 0 10.9681 0.514763 9.07178 1.4585Z" fill="#EC1C24"/>
<path d="M14.5454 7.29249H28.1217C27.5183 6.22007 26.7425 5.27633 25.9236 4.4184H14.5454V7.29249Z" fill="#EC1C24"/>
<path d="M14.5454 11.668H29.8026C29.5871 10.6813 29.2854 9.69472 28.8975 8.79388H14.5454V11.668Z" fill="#EC1C24"/>
<path d="M14.5452 13.3409H0.796517C0.753417 13.7699 0.753418 14.156 0.753418 14.585C0.753418 15.0568 0.796516 15.5716 0.839615 16.0435H30.0609C30.104 15.5716 30.1471 15.0997 30.1471 14.585C30.1471 14.0702 30.104 13.5983 30.0609 13.1265H14.5883V13.3409H14.5452Z" fill="#EC1C24"/>
<path d="M1.96039 20.419H28.8543C29.2422 19.5181 29.587 18.5315 29.7594 17.5449H1.01221C1.2708 18.5744 1.5725 19.5181 1.96039 20.419Z" fill="#EC1C24"/>
<path d="M4.93391 24.8374H25.8801C26.7421 23.9794 27.4748 22.9928 28.0782 21.9633H2.73584C3.33923 22.9928 4.11502 23.9794 4.93391 24.8374Z" fill="#EC1C24"/>
<path d="M15.4505 29.2128C18.726 29.2128 21.786 28.1404 24.1996 26.3387H6.6582C9.11486 28.1404 12.1318 29.2128 15.4505 29.2128Z" fill="#EC1C24"/>
<path d="M9.07145 1.4585C8.46806 1.75877 7.90777 2.05905 7.34747 2.44513L7.47677 2.7454L8.25256 2.87409L7.69227 3.38886L7.82157 4.11811L7.13198 3.77493L6.44239 4.11811L6.57169 3.38886L6.35619 3.17437C5.5804 3.77493 4.84772 4.50418 4.20123 5.23343L4.45982 5.74819L5.23561 5.87688L4.67532 6.39164L4.80462 7.12089L4.11503 6.77772L3.42544 7.12089L3.55474 6.39164L3.42544 6.26295C2.86515 7.0351 2.39106 7.89304 2.00317 8.79387L2.43416 8.83677L1.87387 9.35153L2.00317 10.0808L1.57217 9.8663C1.48598 10.1666 1.35668 10.5098 1.27048 10.81L1.31358 10.7242L1.65837 11.4106L2.43416 11.5393L1.87387 12.0111L2.00317 12.7404L1.31358 12.3972L0.882584 12.6117C0.839485 12.8691 0.796387 13.0836 0.796387 13.3409H14.5451V1.4585H9.07145ZM4.80462 12.7833L4.11503 12.4401L3.42544 12.7833L3.55474 12.054L2.99445 11.5393L3.77023 11.4106L4.11503 10.7242L4.45982 11.4106L5.23561 11.5393L4.67532 12.054L4.80462 12.7833ZM4.67532 9.35153L4.80462 10.0808L4.11503 9.73761L3.42544 10.0808L3.55474 9.35153L2.99445 8.83677L3.77023 8.70808L4.11503 8.02173L4.45982 8.70808L5.23561 8.83677L4.67532 9.35153ZM7.82157 12.7833L7.13198 12.4401L6.44239 12.7833L6.57169 12.054L6.0114 11.5393L6.78718 11.4106L7.13198 10.7242L7.47677 11.4106L8.25256 11.5393L7.69227 12.054L7.82157 12.7833ZM7.69227 9.35153L7.82157 10.0808L7.13198 9.73761L6.44239 10.0808L6.57169 9.35153L6.0114 8.83677L6.78718 8.70808L7.13198 8.02173L7.47677 8.70808L8.25256 8.83677L7.69227 9.35153ZM7.69227 6.34875L7.82157 7.078L7.13198 6.73482L6.44239 7.078L6.57169 6.34875L6.0114 5.83398L6.78718 5.70529L7.13198 5.01894L7.47677 5.70529L8.25256 5.83398L7.69227 6.34875ZM10.7092 12.7833L10.0196 12.4401L9.33004 12.7833L9.45934 12.054L8.89905 11.5393L9.67484 11.4106L10.0196 10.7242L10.3644 11.4106L11.1402 11.5393L10.5799 12.054L10.7092 12.7833ZM10.5799 9.35153L10.7092 10.0808L10.0196 9.73761L9.33004 10.0808L9.45934 9.35153L8.89905 8.83677L9.67484 8.70808L10.0196 8.02173L10.3644 8.70808L11.1402 8.83677L10.5799 9.35153ZM10.5799 6.34875L10.7092 7.078L10.0196 6.73482L9.33004 7.078L9.45934 6.34875L8.89905 5.83398L9.67484 5.70529L10.0196 5.01894L10.3644 5.70529L11.1402 5.83398L10.5799 6.34875ZM10.5799 3.38886L10.7092 4.11811L10.0196 3.77493L9.33004 4.11811L9.45934 3.38886L8.89905 2.87409L9.67484 2.7454L10.0196 2.05905L10.3644 2.7454L11.1402 2.87409L10.5799 3.38886ZM13.5107 12.7833L12.8211 12.4401L12.1315 12.7833L12.2608 12.054L11.7005 11.5393L12.4763 11.4106L12.8211 10.7242L13.1659 11.4106L13.9417 11.5393L13.3814 12.054L13.5107 12.7833ZM13.3814 9.35153L13.5107 10.0808L12.8211 9.73761L12.1315 10.0808L12.2608 9.35153L11.7005 8.83677L12.4763 8.70808L12.8211 8.02173L13.1659 8.70808L13.9417 8.83677L13.3814 9.35153ZM13.3814 6.34875L13.5107 7.078L12.8211 6.73482L12.1315 7.078L12.2608 6.34875L11.7005 5.83398L12.4763 5.70529L12.8211 5.01894L13.1659 5.70529L13.9417 5.83398L13.3814 6.34875ZM13.3814 3.38886L13.5107 4.11811L12.8211 3.77493L12.1315 4.11811L12.2608 3.38886L11.7005 2.87409L12.4763 2.7454L12.8211 2.05905L13.1659 2.7454L13.9417 2.87409L13.3814 3.38886Z" fill="#0051A3"/>
<path d="M29.0699 20.5905C32.3785 20.5905 35.0607 17.9209 35.0607 14.6278C35.0607 11.3347 32.3785 8.66516 29.0699 8.66516C25.7613 8.66516 23.0791 11.3347 23.0791 14.6278C23.0791 17.9209 25.7613 20.5905 29.0699 20.5905Z" fill="white"/>
<path d="M24.415 12.912H33.6814L29.0698 17.502L24.415 12.912Z" fill="#A6A8AB"/>
</svg>
