<svg width="35" height="30" viewBox="0 0 35 30" fill="none" xmlns="http://www.w3.org/2000/svg">
<path d="M14.6969 29.2557C22.8137 29.2557 29.3937 22.7066 29.3937 14.6279C29.3937 6.54911 22.8137 0 14.6969 0C6.58 0 0 6.54911 0 14.6279C0 22.7066 6.58 29.2557 14.6969 29.2557Z" fill="white"/>
<path d="M8.31836 1.4585H13.792V2.91699H23.4462C20.9895 1.07242 17.9726 0 14.6971 0C12.4128 0 10.2147 0.514763 8.31836 1.4585Z" fill="#EC1C24"/>
<path d="M13.792 7.29249H27.3683C26.7649 6.22007 25.9891 5.27633 25.1702 4.4184H13.792V7.29249Z" fill="#EC1C24"/>
<path d="M13.792 11.668H29.0491C28.8336 10.6813 28.5319 9.69472 28.1441 8.79388H13.792V11.668Z" fill="#EC1C24"/>
<path d="M13.7918 13.3409H0.0430993C0 13.7699 0 14.156 0 14.585C0 15.0568 0.0430993 15.5716 0.0861985 16.0435H29.3075C29.3506 15.5716 29.3937 15.0997 29.3937 14.585C29.3937 14.0702 29.3506 13.5983 29.3075 13.1265H13.7918V13.3409Z" fill="#EC1C24"/>
<path d="M1.20684 20.419H28.1008C28.4887 19.5181 28.8335 18.5315 29.0059 17.5449H0.301758C0.517254 18.5744 0.818949 19.5181 1.20684 20.419Z" fill="#EC1C24"/>
<path d="M4.18048 24.8374H25.1267C25.9887 23.9794 26.7214 22.9928 27.3248 21.9633H1.98242C2.58581 22.9928 3.3616 23.9794 4.18048 24.8374Z" fill="#EC1C24"/>
<path d="M14.697 29.2128C17.9726 29.2128 21.0326 28.1404 23.4462 26.3387H5.90479C8.36144 28.1404 11.3784 29.2128 14.697 29.2128Z" fill="#EC1C24"/>
<path d="M8.31803 1.4585C7.71464 1.75877 7.15435 2.05905 6.59406 2.44513L6.72336 2.7454L7.49914 2.87409L6.93885 3.38886L7.06815 4.11811L6.37856 3.77493L5.68897 4.11811L5.81827 3.38886L5.60277 3.13148C4.82699 3.73203 4.0943 4.46128 3.44781 5.19053L3.70641 5.70529L4.48219 5.83398L3.9219 6.34875L4.0512 7.07799L3.36161 6.73482L2.67202 7.07799L2.80132 6.34875L2.67202 6.22006C2.11173 6.9922 1.63764 7.85014 1.24975 8.75098L1.68074 8.79387L1.12045 9.30864L1.24975 10.0379L0.818756 9.8234C0.732557 10.1237 0.603259 10.4669 0.517061 10.7671L0.56016 10.7242L0.904954 11.4106L1.68074 11.5393L1.12045 12.0111L1.24975 12.7404L0.56016 12.4401L0.129167 12.6546C0.086068 12.912 0.0429688 13.1265 0.0429688 13.3838H13.7916V1.4585H8.31803ZM4.0512 12.7833L3.36161 12.4401L2.67202 12.7833L2.80132 12.0111L2.24103 11.4964L3.01682 11.3677L3.36161 10.7242L3.70641 11.4106L4.48219 11.5393L3.9219 12.0111L4.0512 12.7833ZM3.9219 9.35153L4.0512 10.0808L3.36161 9.73761L2.67202 10.0808L2.80132 9.35153L2.24103 8.83677L3.01682 8.70808L3.36161 8.02173L3.70641 8.70808L4.48219 8.83677L3.9219 9.35153ZM7.06815 12.7833L6.37856 12.4401L5.68897 12.7833L5.81827 12.054L5.25798 11.5393L6.03377 11.4106L6.37856 10.7242L6.72336 11.4106L7.49914 11.5393L6.93885 12.0111L7.06815 12.7833ZM6.93885 9.35153L7.06815 10.0808L6.37856 9.73761L5.68897 10.0808L5.81827 9.35153L5.25798 8.83677L6.03377 8.70808L6.37856 8.02173L6.72336 8.70808L7.49914 8.83677L6.93885 9.35153ZM6.93885 6.34875L7.06815 7.07799L6.37856 6.73482L5.68897 7.07799L5.81827 6.34875L5.25798 5.83398L6.03377 5.70529L6.37856 5.01894L6.72336 5.70529L7.49914 5.83398L6.93885 6.34875ZM9.9558 12.7833L9.26621 12.4401L8.61972 12.7833L8.74902 12.054L8.18873 11.4964L8.96452 11.3677L9.30931 10.6813L9.65411 11.3677L10.4299 11.4964L9.8265 12.0111L9.9558 12.7833ZM9.8265 9.35153L9.9558 10.0808L9.26621 9.73761L8.61972 10.0808L8.74902 9.35153L8.18873 8.79387L8.96452 8.66518L9.30931 7.97883L9.65411 8.66518L10.4299 8.79387L9.8265 9.35153ZM9.8265 6.34875L9.9558 7.07799L9.26621 6.73482L8.61972 7.12089L8.74902 6.39164L8.18873 5.83398L8.96452 5.70529L9.30931 5.01894L9.65411 5.70529L10.4299 5.83398L9.8265 6.34875ZM9.8265 3.38886L9.9558 4.11811L9.26621 3.77493L8.61972 4.11811L8.74902 3.38886L8.18873 2.8312L8.96452 2.70251L9.30931 2.01616L9.65411 2.70251L10.4299 2.8312L9.8265 3.38886ZM12.7573 12.7833L12.0677 12.4401L11.3781 12.7833L11.5074 12.054L10.9471 11.5393L11.7229 11.4106L12.0677 10.7242L12.4125 11.4106L13.1882 11.5393L12.628 12.0111L12.7573 12.7833ZM12.628 9.35153L12.7573 10.0808L12.0677 9.73761L11.3781 10.0808L11.5074 9.35153L10.9471 8.83677L11.7229 8.70808L12.0677 8.02173L12.4125 8.70808L13.1882 8.83677L12.628 9.35153ZM12.628 6.34875L12.7573 7.07799L12.0677 6.73482L11.3781 7.07799L11.5074 6.34875L10.9471 5.83398L11.7229 5.70529L12.0677 5.01894L12.4125 5.70529L13.1882 5.83398L12.628 6.34875ZM12.628 3.38886L12.7573 4.11811L12.0677 3.77493L11.3781 4.11811L11.5074 3.38886L10.9471 2.87409L11.7229 2.7454L12.0677 2.05905L12.4125 2.7454L13.1882 2.87409L12.628 3.38886Z" fill="#0051A3"/>
<path d="M28.316 20.5905C31.6246 20.5905 34.3068 17.9209 34.3068 14.6278C34.3068 11.3347 31.6246 8.66516 28.316 8.66516C25.0074 8.66516 22.3252 11.3347 22.3252 14.6278C22.3252 17.9209 25.0074 20.5905 28.316 20.5905Z" fill="white"/>
<path d="M32.9275 16.3008H23.6611L28.3159 11.7108L32.9275 16.3008Z" fill="#A6A8AB"/>
</svg>
