<?xml version="1.0" standalone="no"?>
<!DOCTYPE svg PUBLIC "-//W3C//DTD SVG 20010904//EN"
 "http://www.w3.org/TR/2001/REC-SVG-20010904/DTD/svg10.dtd">
<svg version="1.0" xmlns="http://www.w3.org/2000/svg"
 width="275.000000pt" height="183.000000pt" viewBox="0 0 275.000000 183.000000"
 preserveAspectRatio="xMidYMid meet">

<g transform="translate(0.000000,183.000000) scale(0.100000,-0.100000)"
fill="#000000" stroke="none">
<path d="M1 1728 l0 -103 167 -82 c92 -45 212 -96 267 -112 401 -120 394 -118
436 -99 19 9 44 19 56 23 34 10 28 33 -22 83 -25 24 -45 48 -45 53 0 14 -127
266 -140 279 -3 3 -13 17 -23 33 l-17 27 -340 0 -340 0 1 -102z"/>
<path d="M1010 1823 c0 -10 127 -237 164 -293 16 -25 40 -57 54 -72 21 -23 28
-25 55 -17 18 5 45 18 60 30 64 47 81 -22 19 -80 -35 -34 -124 -69 -182 -74
-27 -2 -25 -15 3 -19 14 -2 23 -11 25 -25 5 -31 17 -29 53 10 17 17 28 26 24
20 -3 -7 -1 -13 4 -13 6 0 11 6 11 13 0 13 79 93 91 92 4 0 16 8 26 18 11 9
22 15 24 12 3 -2 15 18 28 45 13 27 28 47 33 44 6 -4 8 2 4 13 -4 12 -1 25 8
32 7 6 17 32 20 56 4 25 11 47 16 50 4 3 6 14 3 25 -3 11 0 20 6 20 6 0 11 7
11 16 0 8 4 13 8 10 5 -3 13 17 18 45 l11 49 -118 0 -117 0 19 -37 c10 -21 19
-44 19 -53 0 -8 9 -28 20 -45 11 -16 17 -38 14 -47 -3 -10 -1 -33 5 -53 9 -32
7 -36 -19 -55 -37 -26 -75 -25 -102 2 -34 34 -128 167 -128 181 0 7 -9 20 -20
30 -11 9 -20 23 -20 31 0 26 -42 46 -97 46 -29 0 -53 -3 -53 -7z"/>
<path d="M1865 1810 c-3 -11 -11 -20 -16 -20 -5 0 -9 -7 -9 -16 0 -18 -55
-134 -99 -212 -33 -56 -37 -67 -22 -58 5 3 3 -13 -4 -37 -7 -23 -12 -67 -11
-97 1 -45 4 -55 20 -58 10 -2 16 0 12 6 -4 6 3 8 16 5 l23 -5 -24 21 c-19 17
-22 27 -17 55 6 31 9 33 42 30 20 -1 41 -7 46 -12 6 -6 16 -8 22 -6 6 2 19
-13 28 -35 16 -37 20 -39 70 -45 29 -4 83 -11 120 -17 58 -9 75 -8 130 10 35
11 133 41 218 66 85 25 197 60 247 78 l93 32 0 168 0 167 -152 -1 c-91 0 -158
-5 -165 -11 -9 -7 -13 -7 -13 1 0 8 -62 11 -212 11 l-213 0 -30 -52 c-16 -28
-35 -60 -41 -70 -9 -15 -13 -16 -17 -6 -3 7 -6 3 -6 -9 -1 -14 -7 -23 -17 -23
-8 0 -12 -4 -9 -10 3 -5 -1 -10 -9 -10 -21 0 -13 48 19 117 30 66 30 63 6 63
-11 0 -23 -9 -26 -20z m740 -10 c-5 -14 -2 -20 9 -20 9 0 16 9 16 21 0 11 4
18 10 14 14 -9 -10 -55 -29 -55 -27 0 -41 15 -34 38 3 12 12 22 20 22 10 0 12
-6 8 -20z m-95 -31 c0 -5 -7 -9 -15 -9 -8 0 -15 7 -15 15 0 9 6 12 15 9 8 -4
15 -10 15 -15z m68 -42 c2 -28 -1 -37 -12 -37 -9 0 -16 -7 -16 -15 0 -18 -29
-19 -52 -2 -21 17 -13 70 11 65 11 -3 15 -13 13 -33 l-2 -30 25 30 c16 19 21
33 15 39 -14 14 -12 28 3 24 6 -3 13 -21 15 -41z m-112 -3 c-3 -9 -6 -20 -6
-25 0 -6 -4 -7 -10 -4 -16 10 -12 45 6 45 11 0 14 -5 10 -16z m-47 -15 c-16
-10 -23 -4 -14 10 3 6 11 8 17 5 6 -4 5 -9 -3 -15z m284 -35 c8 -8 -3 -34 -14
-34 -5 0 -9 9 -9 20 0 19 11 26 23 14z m-214 -49 c1 -5 -6 -2 -15 7 -10 9 -13
21 -8 29 5 9 9 8 15 -7 4 -10 8 -23 8 -29z m-314 25 c3 -5 1 -10 -4 -10 -6 0
-11 5 -11 10 0 6 2 10 4 10 3 0 8 -4 11 -10z m269 -21 c-8 -13 -24 -1 -24 18
0 13 3 13 15 3 8 -7 12 -16 9 -21z m-67 -83 c-7 -13 -15 -22 -19 -19 -5 2 -5
10 -1 16 4 7 8 15 9 20 1 4 2 10 3 13 0 3 5 3 10 0 5 -4 4 -16 -2 -30z m-47
-6 c0 -5 -4 -10 -10 -10 -5 0 -10 5 -10 10 0 6 5 10 10 10 6 0 10 -4 10 -10z
m-30 -83 c0 -16 -35 -1 -38 16 -3 16 -1 17 17 5 12 -7 21 -17 21 -21z m168 21
c20 -20 13 -28 -13 -16 -14 6 -25 15 -25 20 0 12 24 10 38 -4z m-258 -68 c0
-5 -4 -10 -10 -10 -5 0 -10 5 -10 10 0 6 5 10 10 10 6 0 10 -4 10 -10z"/>
<path d="M1425 1400 c-3 -5 -1 -10 4 -10 6 0 11 5 11 10 0 6 -2 10 -4 10 -3 0
-8 -4 -11 -10z"/>
<path d="M1810 1350 c14 -4 34 -8 45 -8 16 0 15 2 -5 8 -14 4 -34 8 -45 8 -16
0 -15 -2 5 -8z"/>
<path d="M1338 1303 c6 -2 12 -14 12 -26 0 -16 3 -18 12 -9 13 13 -6 43 -26
41 -7 0 -6 -2 2 -6z"/>
<path d="M1742 1288 c2 -16 -2 -22 -12 -21 -28 5 -19 -52 12 -76 14 -12 28
-21 31 -21 6 0 -8 63 -17 78 -3 6 -1 14 5 18 8 4 7 9 -2 15 -10 6 -11 9 -1 9
6 0 12 5 12 10 0 6 -7 10 -16 10 -10 0 -14 -7 -12 -22z"/>
<path d="M1835 1295 c61 -36 107 -56 113 -51 3 3 0 6 -7 6 -8 0 -11 8 -8 19 4
15 -2 20 -37 24 -22 3 -52 9 -66 12 -22 6 -22 5 5 -10z"/>
<path d="M1398 1273 c6 -2 12 -14 12 -24 0 -11 5 -17 10 -14 13 8 -6 45 -23
44 -9 0 -9 -2 1 -6z"/>
<path d="M1263 1257 c-6 -6 -14 -19 -18 -27 -8 -13 -7 -13 8 -1 9 7 17 10 17
6 0 -4 7 -2 16 6 13 10 17 10 25 -2 15 -23 10 -48 -16 -93 -14 -24 -23 -45
-20 -48 3 -2 0 -19 -6 -36 -11 -33 -27 -40 -47 -20 -8 8 -15 8 -26 -1 -11 -9
-14 -8 -12 6 0 10 7 22 14 26 6 4 12 14 12 21 0 8 9 16 19 19 15 3 19 13 18
41 -1 25 -5 35 -13 32 -8 -3 -11 1 -8 12 6 21 -20 -30 -40 -78 l-15 -35 6 35
c8 56 -14 15 -28 -50 -6 -30 -16 -68 -22 -83 l-10 -29 -13 32 c-16 38 -14 57
9 90 13 19 14 26 5 30 -20 8 -14 60 9 85 24 28 37 68 20 62 -7 -2 -33 -43 -58
-93 -25 -49 -56 -109 -69 -133 -20 -38 -22 -48 -12 -74 13 -34 10 -42 -13 -34
-8 4 -15 17 -15 31 0 14 -4 28 -10 31 -5 3 -10 21 -10 38 -1 28 -2 30 -11 13
-7 -11 -9 -45 -5 -87 l6 -69 -50 25 c-28 14 -67 41 -88 59 -20 18 -74 52 -120
75 -66 33 -106 45 -205 62 -67 11 -142 25 -167 32 -44 11 -44 11 -15 17 24 4
14 9 -55 23 -131 28 -224 46 -237 46 -10 1 -13 -35 -13 -145 l0 -146 23 6 c42
12 393 27 542 22 181 -5 265 -20 300 -52 15 -13 29 -24 34 -24 4 0 13 -28 20
-62 8 -39 16 -57 21 -49 10 17 20 2 30 -45 10 -41 -5 -55 -21 -20 -16 35 -58
41 -188 27 -176 -20 -239 -31 -396 -71 -82 -21 -186 -43 -231 -49 -44 -5 -92
-15 -107 -20 l-27 -11 0 -284 0 -284 103 45 c120 52 213 97 317 152 41 22 131
67 200 99 69 32 164 84 211 114 48 31 97 61 109 68 22 12 22 11 16 -16 -12
-49 -56 -154 -113 -268 -29 -60 -53 -114 -53 -120 0 -7 -21 -28 -46 -47 l-46
-34 78 -3 c42 -2 81 1 85 5 5 5 10 25 13 46 3 21 9 44 14 50 19 22 52 121 43
127 -5 3 -3 14 5 24 10 14 14 16 14 5 1 -10 4 -9 11 4 6 10 8 25 5 33 -3 8 -1
14 4 14 6 0 10 6 10 14 0 7 7 19 14 26 8 6 20 36 27 66 9 41 16 54 31 54 10 0
18 5 18 10 0 6 11 15 24 22 18 7 27 22 31 49 10 59 75 142 75 96 0 -9 5 -17
11 -19 9 -3 7 -14 -4 -38 -25 -55 -29 -80 -18 -94 8 -9 5 -29 -10 -72 -12 -32
-25 -64 -30 -70 -5 -6 -6 -14 -2 -17 3 -4 1 -7 -5 -7 -7 0 -12 -8 -12 -18 0
-10 -7 -28 -16 -40 -9 -13 -20 -46 -24 -75 -5 -29 -14 -72 -20 -97 -6 -25 -11
-52 -12 -60 0 -8 -5 -21 -11 -28 -7 -9 62 -12 342 -12 193 0 351 2 351 4 0 3
-7 12 -16 21 -9 9 -20 31 -23 48 -4 18 -13 32 -21 32 -9 0 -14 9 -13 23 2 13
-3 22 -11 22 -17 0 -29 27 -16 35 21 13 10 35 -17 36 -16 0 -22 3 -15 6 19 7
14 57 -8 86 -11 14 -20 30 -20 36 0 7 9 21 20 33 11 12 20 27 20 32 0 6 -5 4
-10 -4 -6 -10 -10 -11 -10 -2 0 6 -8 12 -17 12 -15 0 -16 -2 -3 -10 12 -8 11
-10 -7 -10 -12 0 -25 5 -28 10 -3 6 0 10 7 10 10 0 9 3 -2 10 -12 8 -12 10 4
16 36 14 88 10 99 -8 18 -27 -1 -33 -22 -7 -11 13 -20 18 -21 12 0 -7 4 -13 9
-13 5 0 11 -8 13 -17 2 -10 12 -18 22 -18 13 0 23 -11 29 -30 6 -16 21 -48 35
-70 14 -22 25 -45 25 -52 0 -7 3 -10 7 -8 4 2 22 -17 41 -43 18 -26 40 -55 49
-64 8 -9 31 -42 50 -72 l35 -56 413 0 412 0 0 125 0 125 -33 0 c-40 0 -232 46
-389 94 -165 50 -184 54 -366 65 -174 11 -239 29 -261 69 -9 17 -7 24 11 36
12 9 18 16 12 16 -5 0 -18 -6 -29 -14 -11 -7 -45 -21 -75 -31 -30 -9 -91 -35
-135 -55 -80 -38 -154 -62 -230 -75 -22 -3 -48 -8 -57 -11 -16 -5 -17 -2 -2
37 25 73 72 137 108 149 18 5 59 33 91 60 33 28 62 50 66 50 4 0 17 15 28 33
44 72 102 114 133 96 26 -14 50 0 45 27 -3 16 0 21 10 17 8 -3 12 -12 9 -19
-3 -8 1 -14 10 -14 11 0 15 -6 11 -20 -3 -13 0 -20 8 -20 22 0 45 12 40 20 -3
4 10 15 28 24 l32 17 -35 -7 -35 -7 24 20 c32 26 23 58 -14 49 -18 -5 -24 -3
-23 6 2 7 -4 12 -12 10 -10 -2 -7 4 8 18 27 26 28 30 2 23 -17 -5 -18 -1 -13
33 5 32 4 36 -10 31 -11 -4 -17 -1 -17 8 0 8 -5 15 -11 15 -5 0 -7 5 -4 10 3
6 1 10 -4 10 -6 0 -11 9 -11 21 0 11 -4 18 -10 14 -6 -3 -5 -15 3 -32 10 -22
8 -28 -12 -44 -15 -13 -18 -19 -9 -19 30 0 47 -33 41 -78 -6 -44 -16 -54 -27
-26 -6 15 -8 15 -26 -1 -18 -17 -20 -17 -26 -1 -6 15 -8 14 -18 -6 -7 -13 -19
-22 -29 -20 -10 2 -17 -4 -17 -13 0 -10 5 -13 13 -9 6 4 2 -3 -10 -15 -13 -12
-23 -27 -23 -34 0 -7 -20 -32 -44 -57 -71 -72 -84 -82 -96 -75 -6 3 -9 2 -8
-3 4 -13 -60 -64 -72 -57 -18 11 -10 30 21 47 16 10 27 13 24 8 -3 -6 -2 -10
3 -10 22 0 31 75 10 83 -7 2 -10 8 -5 12 4 5 13 3 19 -3 16 -16 61 -16 54 1
-2 6 -10 29 -17 50 -7 20 -16 37 -20 37 -5 0 -18 -13 -31 -30 -25 -35 -36 -37
-54 -12 -8 10 -13 12 -14 5 0 -7 -8 -13 -17 -13 -9 0 -25 -8 -35 -17 -17 -15
-20 -15 -28 -3 -19 30 -11 49 23 52 25 2 33 8 35 27 3 20 0 23 -17 18 -19 -4
-21 -1 -21 33 0 39 21 67 40 55 6 -4 9 -13 6 -21 -6 -17 34 -29 68 -20 20 5
24 14 29 58 3 29 9 68 13 86 4 22 3 32 -6 32 -7 0 -10 -6 -7 -13 3 -7 -3 -13
-12 -13 -9 -1 -24 -4 -33 -9 -24 -10 -34 18 -19 54 14 33 43 36 65 6 18 -25
22 -21 31 29 6 28 5 37 -4 32 -6 -4 -24 -2 -40 5 -28 13 -29 14 -15 41 8 16
19 26 23 23 5 -3 12 3 15 12 6 15 8 15 16 3 6 -8 10 -26 10 -40 0 -14 3 -20 8
-14 7 12 62 -12 165 -70 26 -15 47 -23 47 -18 0 5 -7 13 -16 16 -8 3 -13 10
-10 15 8 12 -20 34 -33 27 -5 -4 -15 2 -21 11 -8 12 -13 14 -16 6 -4 -9 -11
-9 -30 -1 -20 10 -24 17 -19 37 5 23 4 24 -8 9 -12 -15 -14 -15 -26 0 -11 15
-11 15 -6 -2 5 -16 3 -17 -10 -6 -8 7 -15 19 -15 26 0 16 -44 37 -72 36 -10 0
-18 5 -18 11 0 17 -45 20 -57 4z m-1010 -104 c-7 -2 -19 -2 -25 0 -7 3 -2 5
12 5 14 0 19 -2 13 -5z m791 -158 c-4 -8 -10 -13 -15 -10 -4 3 -6 12 -3 20 4
8 10 13 15 10 4 -3 6 -12 3 -20z m206 -2 c0 -25 -1 -26 -16 -11 -9 9 -13 21
-10 27 13 20 26 11 26 -16z m-77 0 c8 -7 -31 -53 -44 -53 -9 0 -1 29 14 48 11
13 20 15 30 5z m131 -26 c14 -13 23 -27 19 -31 -4 -3 -17 4 -30 16 -13 12 -23
16 -23 10 0 -7 5 -12 10 -12 6 0 10 -6 10 -14 0 -18 -37 -9 -44 11 -3 7 -2 11
3 8 5 -3 12 4 16 15 8 25 9 25 39 -3z m-187 -129 c-3 -8 -6 -5 -6 6 -1 11 2
17 5 13 3 -3 4 -12 1 -19z m493 -27 c0 -5 -7 -11 -14 -14 -10 -4 -13 -1 -9 9
6 15 23 19 23 5z m-40 -425 c0 -3 -4 -8 -10 -11 -5 -3 -10 -1 -10 4 0 6 5 11
10 11 6 0 10 -2 10 -4z m-229 -73 c13 -15 12 -15 -8 -4 -24 12 -29 21 -14 21
5 0 15 -7 22 -17z m54 -23 c3 -5 -1 -10 -9 -10 -8 0 -18 5 -21 10 -3 6 1 10 9
10 8 0 18 -4 21 -10z m1185 -260 c0 -5 -4 -10 -10 -10 -5 0 -10 5 -10 10 0 6
5 10 10 10 6 0 10 -4 10 -10z"/>
<path d="M1781 1254 c0 -11 3 -14 6 -6 3 7 2 16 -1 19 -3 4 -6 -2 -5 -13z"/>
<path d="M1792 1228 c-27 -27 -14 -40 36 -32 57 8 67 14 24 14 -19 0 -31 5
-29 11 3 17 -17 21 -31 7z"/>
<path d="M1796 1147 c3 -10 9 -15 12 -12 3 3 0 11 -7 18 -10 9 -11 8 -5 -6z"/>
<path d="M1673 1113 c-13 -43 -13 -45 6 -34 7 5 11 22 9 40 l-3 33 -12 -39z"/>
<path d="M1720 1114 c0 -16 7 -51 15 -77 8 -27 14 -52 14 -55 -1 -4 -1 -18 0
-32 1 -19 3 -22 10 -11 8 12 11 8 17 -15 4 -16 18 -53 30 -83 13 -29 24 -59
24 -67 0 -22 -28 -43 -51 -37 -16 5 -20 3 -14 -6 4 -8 -1 -18 -14 -27 -12 -9
-19 -19 -17 -23 3 -4 -8 -23 -23 -42 l-29 -34 -12 27 -13 27 -36 -27 c-20 -16
-57 -41 -83 -58 -46 -28 -68 -64 -30 -49 9 3 41 13 71 21 30 7 56 15 58 18 2
2 -4 12 -14 22 -20 19 -22 19 45 -2 13 -4 22 2 30 20 6 15 31 36 57 48 25 12
47 30 51 40 3 10 12 18 20 18 8 0 14 10 14 23 0 23 35 53 45 37 3 -5 1 -11 -5
-15 -5 -3 -10 -10 -10 -14 0 -5 18 1 41 12 54 27 102 13 156 -46 33 -36 53
-47 114 -65 99 -29 349 -79 429 -87 36 -3 82 -8 103 -10 l37 -5 0 280 0 280
-32 0 c-73 -1 -224 -21 -320 -44 -57 -14 -139 -32 -183 -41 -44 -9 -91 -24
-105 -33 -14 -9 -32 -17 -40 -17 -44 -4 -50 -6 -50 -16 0 -5 5 -7 12 -3 7 5 8
3 3 -7 -18 -28 -40 -49 -52 -49 -7 0 -13 -5 -13 -11 0 -6 -7 -8 -16 -5 -10 4
-13 2 -8 -6 5 -8 2 -9 -9 -5 -10 3 -17 2 -17 -3 0 -12 -53 -40 -76 -40 -13 0
-14 3 -4 15 10 12 10 15 -3 15 -21 0 -25 8 -32 61 l-6 44 20 -37 c12 -20 26
-40 33 -44 10 -6 11 -4 1 7 -18 19 -17 53 1 46 10 -4 13 -1 10 8 -3 7 -14 15
-25 18 -10 3 -21 11 -23 19 -22 76 -31 98 -42 102 -8 3 -14 12 -14 19 0 8 -9
22 -20 32 -20 18 -20 17 -20 -11z"/>
<path d="M975 1094 c-9 -14 -14 -28 -12 -31 3 -2 11 6 18 19 6 12 17 26 23 30
8 6 8 8 0 8 -7 0 -19 -12 -29 -26z"/>
<path d="M1814 1076 c-11 -8 -15 -18 -10 -23 5 -4 11 -2 13 5 6 15 33 16 33 0
0 -6 2 -9 5 -6 7 7 -5 38 -14 38 -4 0 -16 -6 -27 -14z"/>
<path d="M1835 1030 c-3 -5 -1 -10 4 -10 6 0 11 5 11 10 0 6 -2 10 -4 10 -3 0
-8 -4 -11 -10z"/>
<path d="M1865 969 c-4 -5 1 -19 10 -29 20 -22 12 -42 -12 -33 -11 4 -14 3 -9
-5 9 -15 17 -15 38 2 15 11 16 18 7 45 -11 32 -23 39 -34 20z"/>
<path d="M1905 960 c12 -41 27 -60 20 -25 -4 17 -11 35 -17 40 -7 7 -8 2 -3
-15z"/>
<path d="M1387 949 c7 -7 15 -10 18 -7 3 3 -2 9 -12 12 -14 6 -15 5 -6 -5z"/>
<path d="M1475 915 c33 -16 61 -19 68 -7 3 4 -5 7 -16 7 -12 1 -35 4 -52 7
l-30 7 30 -14z"/>
<path d="M1370 850 c8 -5 24 -9 35 -9 l20 0 -20 9 c-11 5 -27 9 -35 9 -13 1
-13 0 0 -9z"/>
<path d="M1442 841 c-11 -7 -10 -9 3 -15 9 -3 23 1 31 9 14 13 13 15 -3 15
-10 0 -24 -4 -31 -9z"/>
<path d="M1405 781 c-3 -5 -2 -12 3 -15 5 -3 9 1 9 9 0 17 -3 19 -12 6z"/>
<path d="M1619 719 l-24 -20 23 11 c13 6 30 9 39 6 21 -8 39 4 22 15 -21 13
-35 11 -60 -12z"/>
<path d="M1553 680 c-18 -11 -33 -22 -33 -25 0 -2 16 5 35 16 19 12 35 23 35
25 0 6 -3 5 -37 -16z"/>
<path d="M1489 633 c-13 -16 -12 -17 4 -4 16 13 21 21 13 21 -2 0 -10 -8 -17
-17z"/>
</g>
</svg>
