<?xml version="1.0" standalone="no"?>
<!DOCTYPE svg PUBLIC "-//W3C//DTD SVG 20010904//EN"
 "http://www.w3.org/TR/2001/REC-SVG-20010904/DTD/svg10.dtd">
<svg version="1.0" xmlns="http://www.w3.org/2000/svg"
 width="740.000000pt" height="493.000000pt" viewBox="0 0 740.000000 493.000000"
 preserveAspectRatio="xMidYMid meet">

<g transform="translate(0.000000,493.000000) scale(0.100000,-0.100000)"
fill="#000000" stroke="none">
<path d="M1316 4848 c-16 -243 -31 -1988 -17 -1972 5 5 14 27 21 49 7 22 23
58 35 80 13 22 26 57 29 77 4 20 22 55 41 77 18 23 36 53 40 68 6 27 67 96
174 196 54 51 43 56 -29 15 l-35 -20 30 26 c16 14 43 28 60 32 43 9 97 38 121
66 47 51 137 249 121 264 -3 3 -1 20 5 37 43 138 45 185 41 765 l-3 322 -314
0 -314 0 -6 -82z"/>
<path d="M2511 4683 c2 -186 -1 -248 -10 -251 -7 -2 -34 3 -60 12 -49 16 -181
13 -181 -5 0 -4 -15 -11 -32 -14 -31 -7 -82 -35 -64 -35 5 0 -8 -16 -30 -36
-21 -20 -30 -30 -19 -23 19 13 19 12 -1 -11 -31 -36 -41 -55 -23 -44 24 15 38
13 32 -4 -5 -14 -3 -14 15 2 32 28 27 12 -8 -26 -22 -23 -29 -27 -24 -13 l7
20 -16 -20 c-18 -22 -23 -50 -7 -40 6 4 7 -1 3 -11 -5 -13 -8 -14 -11 -5 -3
10 -10 7 -24 -10 l-19 -24 6 25 c5 23 5 23 -11 -4 -15 -27 -15 -30 0 -38 25
-14 20 -31 -5 -17 -19 10 -21 9 -15 -18 4 -18 0 -42 -13 -69 -11 -22 -29 -78
-41 -125 -43 -169 -118 -328 -187 -397 -18 -19 -33 -38 -33 -42 0 -9 -40 -25
-52 -22 -5 1 -8 -3 -8 -8 0 -6 6 -10 14 -10 7 0 24 -8 37 -19 32 -25 249 -52
249 -31 0 4 19 1 42 -7 28 -10 43 -11 48 -3 8 13 100 17 160 7 33 -5 39 -4 22
3 l-23 10 21 39 c11 22 20 47 20 55 0 24 20 29 41 10 13 -12 19 -30 19 -61 0
-23 4 -43 10 -43 5 0 7 6 4 14 -3 8 -1 17 4 20 13 8 3 55 -18 86 -9 14 -21 66
-28 122 -11 94 -11 100 14 175 l26 78 83 33 c96 37 101 38 110 15 4 -12 -2
-25 -20 -40 -18 -16 -21 -23 -11 -23 25 0 19 -14 -14 -33 -35 -21 -38 -37 -10
-44 24 -6 24 -12 5 -37 -13 -17 -13 -21 4 -33 24 -16 17 -49 -16 -80 -27 -25
-29 -52 -8 -93 20 -40 51 -48 74 -19 19 23 41 19 41 -8 0 -9 12 -27 28 -42
l27 -26 -35 -3 c-19 -2 -63 6 -98 16 -34 11 -60 16 -57 12 3 -5 0 -12 -6 -16
-8 -4 -7 -9 2 -15 12 -7 12 -9 0 -9 -8 0 -26 -14 -40 -30 -23 -27 -40 -34 -91
-40 -37 -4 42 -18 108 -19 46 -1 71 -5 67 -11 -3 -5 -15 -10 -26 -10 -30 0
-22 -17 12 -24 63 -12 153 -1 232 29 10 4 17 3 17 -4 0 -6 -13 -14 -30 -17
-16 -4 -35 -13 -41 -20 -14 -17 -16 -17 51 1 30 8 66 15 80 15 21 0 28 8 42
47 9 26 15 49 13 51 -10 10 -47 -13 -55 -34 -5 -13 -14 -24 -20 -24 -16 0 -12
13 15 42 14 15 25 35 25 44 0 16 2 16 20 -1 17 -15 20 -16 20 -2 0 18 28 16
40 -3 20 -32 129 0 154 45 16 29 27 35 67 35 20 0 38 3 41 6 3 3 -25 37 -62
75 -59 60 -73 69 -103 69 -20 0 -38 4 -41 9 -3 4 -17 6 -31 4 -13 -3 -22 -9
-20 -13 3 -5 1 -11 -4 -14 -5 -4 -12 3 -16 14 -4 14 -15 20 -36 20 -36 0 -36
4 0 38 l29 27 -8 340 c-5 187 -9 456 -9 598 l-1 257 -166 0 -165 0 2 -247z
m271 -633 c2 -22 0 -40 -4 -40 -5 0 -8 18 -8 40 0 22 2 40 4 40 2 0 6 -18 8
-40z m-691 -57 c-12 -20 -14 -14 -5 12 4 9 9 14 11 11 3 -2 0 -13 -6 -23z
m680 -16 c-10 -9 -11 -8 -5 6 3 10 9 15 12 12 3 -3 0 -11 -7 -18z m22 -187
c-7 -28 -13 -25 -13 6 0 14 4 23 9 20 5 -3 7 -15 4 -26z m-43 -99 c0 -13 -2
-14 -34 -1 -28 10 -33 29 -15 47 9 9 17 6 30 -12 11 -13 19 -28 19 -34z m-233
-93 c2 -37 0 -40 -13 -26 -10 10 -13 24 -8 41 9 40 20 33 21 -15z m521 -54
c12 -8 20 -20 16 -25 -4 -6 -10 -7 -17 0 -7 5 -23 11 -36 13 -14 1 -26 9 -29
16 -5 17 39 15 66 -4z m-81 -80 c-3 -3 -12 -4 -19 -1 -8 3 -5 6 6 6 11 1 17
-2 13 -5z"/>
<path d="M2056 4235 c-9 -26 -7 -32 5 -12 6 10 9 21 6 23 -2 3 -7 -2 -11 -11z"/>
<path d="M3212 3998 c-7 -7 -12 -18 -12 -25 0 -14 -10 -16 -80 -17 -61 -1 -61
-26 -1 -43 25 -7 49 -17 55 -23 20 -20 62 -11 84 20 28 38 28 41 -8 34 -33 -7
-37 1 -15 30 8 11 15 23 15 28 0 12 -24 10 -38 -4z"/>
<path d="M3157 3769 c-4 -16 -9 -18 -32 -9 -24 9 -26 8 -20 -10 4 -12 1 -27
-5 -35 -13 -16 -11 -18 43 -29 17 -4 31 -16 37 -31 5 -14 18 -25 28 -25 10 0
27 -7 38 -15 31 -23 44 -18 44 18 0 35 -25 67 -51 67 -21 0 -39 21 -39 45 0
11 -9 26 -19 32 -16 10 -20 9 -24 -8z"/>
<path d="M3562 3619 c2 -6 8 -10 13 -10 5 0 11 4 13 10 2 6 -4 11 -13 11 -9 0
-15 -5 -13 -11z"/>
<path d="M3388 3587 c-16 -13 -28 -28 -28 -34 0 -6 -7 -16 -15 -23 -8 -7 -15
-20 -15 -30 0 -10 7 -23 15 -30 22 -18 18 -30 -9 -30 -28 0 -43 -16 -48 -50
-4 -30 -34 -39 -42 -12 -9 26 -44 62 -61 62 -9 0 -15 -10 -15 -26 0 -32 -17
-64 -34 -64 -7 0 -18 11 -24 25 -10 21 -9 27 3 31 8 4 15 12 15 19 0 27 -22
27 -49 1 -15 -14 -32 -26 -39 -26 -21 0 -13 -23 21 -55 55 -53 68 -75 94 -159
31 -100 48 -122 39 -49 l-7 53 48 45 c28 27 53 43 62 40 10 -4 11 -9 3 -17 -6
-6 -8 -17 -5 -24 9 -24 32 -15 39 14 11 53 11 53 56 46 24 -4 48 -10 53 -15 6
-4 17 -4 25 1 23 15 38 12 60 -10 28 -28 26 -60 -3 -60 -13 0 -29 -6 -35 -12
-10 -10 -18 -6 -40 19 -24 29 -32 32 -63 27 -27 -5 -40 -14 -54 -41 -24 -44
-10 -56 55 -48 113 15 157 8 240 -34 26 -14 23 -40 -5 -51 -14 -6 -42 -22 -61
-36 -19 -15 -49 -35 -67 -45 -82 -45 -75 -44 -100 -21 -29 27 -64 28 -97 2
-32 -25 -40 -25 -40 -1 0 10 -7 21 -15 25 -8 3 -15 12 -15 19 0 8 -7 21 -17
28 -15 13 -15 10 -9 -36 11 -80 17 -105 26 -105 4 0 10 7 14 15 3 8 10 15 17
15 6 0 9 -7 5 -15 -7 -19 39 -21 51 -2 11 18 41 28 48 17 9 -14 -66 -60 -98
-60 -19 0 -28 -4 -25 -12 3 -7 13 -41 24 -76 13 -43 24 -62 34 -60 17 2 51
-15 73 -36 19 -20 10 -74 -14 -81 -14 -5 -19 -17 -21 -43 l-1 -37 -4 33 c-2
18 -8 30 -13 27 -27 -17 31 -149 88 -202 43 -40 53 -56 27 -47 -8 3 -25 -6
-40 -22 -14 -15 -25 -23 -25 -17 0 5 5 14 12 21 9 9 7 13 -6 18 -10 4 -22 2
-29 -5 -13 -13 -27 -14 -27 -2 0 5 16 15 35 22 45 17 44 29 -2 30 -66 2 -68 3
-71 33 -2 18 0 26 7 21 6 -3 11 -1 11 4 0 6 -32 34 -70 62 -66 47 -90 74 -90
97 0 6 10 8 21 5 19 -5 20 -3 14 18 -4 13 -22 39 -41 58 -19 18 -31 38 -28 43
4 6 0 14 -7 19 -12 8 -12 11 1 19 10 7 11 12 4 18 -6 4 -10 21 -9 37 0 17 -3
33 -8 36 -13 9 -47 -1 -47 -15 0 -6 -16 -42 -35 -81 -33 -68 -34 -72 -23 -126
11 -53 10 -57 -20 -113 -37 -66 -40 -107 -12 -143 16 -21 20 -41 20 -103 0
-64 4 -83 23 -111 12 -19 32 -38 45 -44 12 -5 24 -15 26 -22 8 -19 9 -210 2
-222 -11 -17 5 -81 19 -81 9 0 11 13 8 44 -3 24 0 52 6 62 9 15 11 3 9 -61 -4
-77 -3 -81 24 -103 38 -32 35 -43 -9 -36 -21 3 -49 1 -63 -4 l-25 -10 30 -7
c73 -17 183 -62 236 -97 58 -39 67 -51 76 -100 3 -23 1 -27 -13 -21 -10 3 -15
2 -12 -3 8 -12 -43 -11 -62 1 -27 17 -74 16 -87 -2 -12 -15 -13 -15 -13 -1 0
9 -4 20 -10 23 -6 3 -7 -1 -4 -9 3 -9 2 -16 -4 -16 -5 0 -13 -10 -17 -22 -4
-14 -8 -18 -12 -10 -2 6 -9 12 -14 12 -6 0 -8 -4 -5 -9 3 -5 -1 -14 -9 -21 -8
-7 -15 -20 -15 -29 0 -13 -2 -13 -9 -3 -6 10 -10 8 -15 -11 -3 -14 -13 -27
-21 -31 -11 -4 -14 -2 -9 7 6 9 5 9 -8 0 -8 -7 -18 -10 -21 -6 -4 3 -7 1 -7
-6 0 -8 -7 -11 -15 -7 -8 3 -15 0 -15 -5 0 -6 -9 -9 -20 -6 -11 3 -18 1 -14
-4 3 -5 0 -9 -6 -9 -6 0 -10 10 -8 23 2 17 -2 22 -19 21 -23 -1 -22 7 6 40 15
18 15 19 -4 14 -11 -3 -29 -9 -40 -13 -16 -7 -18 -6 -7 6 19 21 14 31 -10 18
-18 -10 -24 -8 -40 14 -10 14 -34 35 -53 47 -33 20 -36 20 -89 5 -31 -9 -56
-21 -56 -26 0 -5 -7 -9 -15 -9 -9 0 -18 -7 -21 -15 -8 -19 -24 -19 -24 0 0 12
-4 13 -26 3 -17 -8 -24 -18 -21 -30 3 -10 2 -16 -2 -14 -4 3 -13 0 -21 -5 -12
-7 -13 -11 -2 -18 11 -7 11 -9 -2 -14 -8 -3 -17 -1 -20 6 -4 7 -4 0 -1 -15 3
-16 0 -28 -8 -31 -9 -4 -9 -7 1 -18 9 -9 12 -10 12 -1 0 7 6 12 14 12 23 0 7
-36 -21 -51 -15 -8 -62 -49 -105 -92 -43 -43 -78 -73 -78 -67 0 13 27 40 89
91 24 20 42 42 39 49 -3 9 -8 8 -21 -4 -14 -14 -17 -15 -17 -3 0 9 14 27 30
40 17 14 30 29 30 32 0 13 -45 -7 -63 -27 -10 -12 -20 -18 -24 -14 -4 3 -1 12
5 18 7 7 12 17 12 22 0 6 -7 2 -15 -8 -8 -11 -18 -16 -22 -12 -12 12 12 40 55
64 48 27 55 46 15 36 -36 -8 -95 -52 -88 -65 12 -18 -12 -9 -31 13 -10 12 -14
18 -8 15 7 -4 26 7 44 23 26 25 29 30 13 30 -18 0 -62 -25 -74 -43 -4 -6 -21
-10 -38 -11 -22 -1 -31 -6 -31 -18 0 -10 -4 -19 -10 -19 -5 -1 -13 -2 -17 -4
-37 -10 -62 -15 -84 -19 -14 -2 -46 -11 -71 -19 -47 -16 -83 -13 -106 10 -18
18 -25 17 -57 -8 -22 -18 -29 -20 -36 -8 -5 8 -9 24 -9 37 0 27 -11 28 -35 2
-10 -11 -22 -17 -26 -14 -10 6 -1 54 12 69 5 5 9 14 9 20 0 5 -11 -3 -23 -19
l-23 -29 -2 60 c-1 52 2 64 23 87 14 15 25 32 25 38 0 7 -7 3 -16 -8 -15 -18
-15 -18 -9 4 7 23 -8 31 -21 11 -4 -8 -9 -7 -15 2 -10 16 -12 56 -3 46 4 -3
23 9 42 28 20 19 33 37 29 41 -9 9 -87 -43 -87 -59 -1 -17 -16 12 -24 46 -5
21 -4 27 5 21 9 -5 10 -2 5 11 -5 13 -1 24 13 35 19 14 25 38 22 88 -1 24 -31
31 -31 7 0 -8 -4 -15 -8 -15 -13 0 -32 -48 -26 -64 3 -9 -1 -13 -12 -13 -13 2
-20 -8 -25 -33 -7 -37 -28 -92 -28 -75 -1 24 29 128 42 148 9 14 16 63 20 137
8 147 30 341 41 359 7 11 3 13 -22 8 -18 -4 -32 -2 -32 3 0 15 70 24 83 11 6
-6 17 -30 23 -52 10 -33 10 -40 -1 -35 -17 6 -24 -21 -18 -75 2 -24 5 -59 7
-77 5 -47 11 -47 32 0 10 24 27 55 38 70 20 28 20 28 -1 50 -51 56 -71 138
-54 220 10 48 9 59 -13 113 -13 33 -27 78 -30 100 -7 38 -5 41 24 52 41 15 38
36 -11 83 l-40 38 -44 -29 c-52 -35 -99 -101 -109 -151 -7 -39 -56 -113 -56
-85 0 9 4 17 9 17 6 0 9 18 8 40 -1 22 -4 40 -7 40 -8 0 -58 -101 -62 -125 -4
-26 -40 -31 -81 -12 -49 23 -87 31 -87 18 0 -6 11 -17 25 -23 14 -6 25 -15 25
-19 0 -4 8 -10 18 -12 12 -3 11 -5 -6 -6 -13 0 -32 4 -43 10 -11 5 -28 9 -37
7 -12 -2 -7 -9 19 -24 30 -18 36 -27 37 -58 1 -26 -3 -39 -15 -43 -13 -5 -8
-11 22 -24 37 -17 40 -17 47 -1 4 11 7 6 7 -15 1 -18 -3 -33 -9 -33 -5 0 -10
5 -10 11 0 6 -6 9 -12 7 -14 -5 -19 -58 -6 -58 4 0 8 -10 7 -22 0 -13 -3 -18
-5 -12 -3 6 -16 9 -30 6 -23 -4 -24 -6 -8 -23 12 -13 15 -28 10 -54 -6 -28 -4
-35 9 -35 8 0 15 6 15 13 1 19 30 -24 30 -44 0 -12 -6 -17 -19 -14 -11 2 -29
1 -40 -2 -18 -5 -19 -7 -7 -27 8 -11 18 -41 22 -66 6 -40 8 -42 15 -20 5 18 7
9 8 -33 1 -32 8 -74 16 -94 20 -49 20 -49 -22 -46 -35 3 -36 2 -13 -8 55 -23
66 -44 65 -120 -1 -38 2 -72 7 -75 20 -12 6 -33 -24 -36 l-32 -3 32 -31 c25
-23 38 -48 53 -103 10 -41 24 -80 30 -87 15 -18 59 -18 59 -1 0 22 -39 204
-50 232 -13 33 -13 38 1 29 6 -3 4 7 -5 24 -19 38 -30 96 -16 87 5 -3 10 -12
10 -20 0 -22 30 -34 62 -25 23 7 30 5 39 -12 6 -11 8 -22 6 -25 -3 -2 3 -13
14 -24 29 -29 25 -50 -11 -47 -36 3 -43 17 -24 53 17 34 17 35 -19 28 -25 -5
-28 -9 -22 -32 20 -88 39 -136 61 -158 13 -13 22 -28 19 -33 -3 -4 0 -21 6
-37 6 -15 17 -89 25 -163 11 -114 11 -154 -1 -255 -8 -66 -15 -178 -16 -250
-1 -182 -16 -274 -18 -113 -1 148 -19 442 -34 573 l-12 99 -33 7 c-18 4 -34 4
-36 0 -2 -3 2 -62 10 -131 16 -156 18 -306 3 -316 -7 -4 -9 -23 -7 -48 3 -22
2 -100 -2 -172 -5 -98 -11 -136 -23 -154 -10 -15 -17 -44 -17 -72 0 -26 -3
-49 -7 -51 -5 -3 -8 45 -8 106 l0 112 -30 6 -30 7 33 1 32 1 0 103 c-1 230
-28 528 -66 725 -26 130 -25 187 2 266 20 57 16 65 -14 30 -26 -30 -78 -60
-116 -66 -24 -4 -75 -51 -94 -86 -11 -21 -14 -75 -13 -242 1 -149 -3 -243 -14
-305 -8 -49 -15 -116 -15 -147 0 -32 -4 -58 -9 -58 -8 0 -21 117 -21 193 0 31
-3 38 -15 33 -22 -8 -31 22 -11 37 15 11 14 14 -13 24 l-30 11 -7 -44 c-3 -25
-3 -59 1 -77 3 -18 10 -98 14 -179 4 -81 12 -153 18 -160 10 -12 16 -35 30
-116 3 -18 9 -35 14 -38 5 -3 9 -63 9 -133 l0 -127 -35 -34 c-19 -19 -35 -38
-35 -42 0 -4 21 -8 48 -8 l47 0 -3 205 c-2 137 1 205 8 205 6 0 10 -40 10
-107 0 -60 3 -152 7 -205 l6 -98 44 0 43 0 1 108 c0 111 17 121 18 11 1 -31 4
-71 7 -88 l7 -31 222 0 222 0 7 50 c4 30 12 50 19 50 16 0 72 -58 80 -82 5
-14 18 -18 56 -18 l49 0 10 47 11 48 -2 -47 -2 -48 65 0 c56 1 63 2 48 14 -12
9 -18 27 -18 53 0 23 -6 46 -14 52 -8 7 -16 31 -18 55 l-3 44 65 6 c36 3 88 6
116 6 l51 0 2 -92 c3 -137 3 -138 65 -138 l51 0 -4 120 -3 120 31 0 c18 0 33
-6 35 -12 3 -11 28 -133 42 -206 l4 -22 208 2 207 3 3 27 c2 15 14 34 28 43
22 14 25 23 23 63 -5 89 0 132 16 132 8 0 16 -13 20 -32 16 -96 22 -153 18
-168 -3 -10 3 -30 13 -45 l17 -26 218 2 c120 1 216 5 214 9 -9 15 31 38 70 42
38 3 40 2 40 -24 l-1 -28 142 0 141 0 7 132 c7 125 9 135 33 160 15 16 32 28
38 28 16 0 105 93 105 111 0 18 -19 39 -36 39 -15 0 -98 -80 -114 -109 -22
-42 -30 -20 -30 84 l0 106 28 -20 c15 -11 48 -26 74 -33 46 -12 49 -11 77 16
l29 28 52 -23 c49 -21 54 -21 65 -6 15 20 25 21 57 4 14 -7 23 -19 21 -27 -3
-10 -2 -11 4 -4 12 18 48 21 66 5 15 -12 17 -11 17 6 0 18 8 19 98 18 207 -2
232 -4 232 -20 0 -17 16 -20 24 -6 4 5 49 9 101 8 73 -2 98 -6 106 -17 8 -13
11 -13 24 4 8 10 21 16 29 13 12 -5 13 -20 9 -81 -6 -74 -6 -75 20 -81 14 -4
34 -4 45 -1 25 8 29 58 27 291 -1 129 0 151 8 113 10 -44 27 -66 27 -34 0 7 9
25 20 39 l21 26 -23 15 c-22 14 -177 56 -206 56 -8 0 -20 -7 -26 -16 -10 -14
-15 -13 -40 7 -23 18 -27 27 -22 53 3 17 10 60 17 96 14 78 14 65 2 267 -9
154 -3 263 22 362 6 23 5 24 -47 18 -41 -5 -47 -4 -29 4 36 14 93 51 88 55 -2
3 -43 -14 -90 -36 -77 -36 -94 -40 -159 -39 -40 1 -84 5 -98 9 -15 5 15 7 75
3 93 -5 99 -4 78 11 -16 12 -49 17 -130 18 -59 1 -115 0 -123 -2 -11 -4 -16 4
-18 24 l-4 28 31 -21 c26 -18 31 -20 31 -7 0 9 5 16 11 16 6 0 8 9 3 23 -12
36 -5 71 18 88 l22 17 -34 31 c-19 17 -38 31 -43 31 -5 0 -22 14 -38 31 -28
30 -54 33 -43 5 7 -18 -17 -65 -45 -90 -12 -11 -21 -27 -21 -37 0 -16 -3 -15
-24 5 -24 25 -43 62 -26 51 6 -3 10 4 10 16 0 28 71 99 99 99 12 0 34 -14 48
-30 54 -65 129 -75 196 -28 19 13 47 22 71 23 36 1 41 4 44 25 6 40 32 62 67
57 16 -3 43 2 59 10 20 11 31 12 39 4 20 -20 28 -12 22 22 -9 44 7 80 64 146
26 31 58 83 71 116 14 33 33 73 43 88 10 15 16 34 13 43 -3 9 5 25 22 39 15
14 40 36 55 50 15 14 36 25 45 25 18 0 150 86 169 110 17 22 80 53 96 47 8 -3
17 -27 21 -56 4 -28 8 -51 10 -51 2 0 42 18 88 39 130 61 125 62 133 -4 4 -30
5 -64 2 -74 -3 -13 -1 -18 9 -14 8 3 16 -10 24 -39 19 -72 22 -82 37 -105 19
-29 55 -95 89 -163 22 -43 29 -77 36 -160 5 -58 12 -139 16 -180 l7 -75 85 -9
c114 -11 156 -10 215 4 32 8 169 13 380 15 182 2 340 4 352 4 13 1 24 10 28
22 11 32 26 8 19 -29 -5 -27 -9 -30 -21 -20 -11 9 -16 9 -23 -2 -6 -9 2 -28
21 -56 38 -56 75 -84 110 -84 15 0 31 -5 34 -10 4 -6 3 -10 -2 -9 -4 1 -20 1
-35 0 -22 -1 -25 -5 -21 -23 3 -13 10 -28 14 -34 5 -6 4 -35 -2 -65 -15 -84
-15 -93 2 -97 12 -2 19 9 28 42 15 60 36 74 26 17 -5 -30 -3 -41 6 -41 10 0
10 -3 1 -12 -20 -20 -14 -25 33 -32 25 -4 45 -12 45 -17 0 -6 30 -8 78 -4 158
12 182 16 182 31 0 11 -20 14 -100 14 l-100 0 0 40 0 40 100 0 100 0 0 60 0
60 -94 0 c-67 0 -96 4 -99 13 -6 19 11 68 33 92 11 12 20 30 20 41 0 35 16 46
79 51 l61 6 0 553 0 554 -37 -1 c-36 -1 -93 -14 -83 -19 3 -2 23 -4 45 -5 53
-2 57 -26 10 -53 -28 -17 -35 -28 -35 -52 0 -37 -17 -39 -30 -2 -6 15 -15 36
-20 47 -6 11 -12 31 -13 45 -4 29 -42 39 -78 20 -15 -9 -24 -9 -32 -1 -6 6
-22 11 -36 11 l-24 0 22 -24 22 -23 -38 -16 c-23 -9 -42 -12 -48 -6 -16 15
-67 10 -81 -8 -13 -17 -16 -16 -39 11 -23 25 -28 27 -43 13 -22 -18 -87 -28
-100 -15 -6 6 -16 7 -22 3 -9 -6 -9 -10 1 -16 11 -7 9 -13 -8 -31 -28 -27 -37
-20 -61 50 -24 66 -29 71 -41 39 -8 -20 -19 -27 -48 -32 -46 -7 -68 -18 -68
-34 0 -17 -26 -31 -57 -31 -17 0 -35 -11 -51 -30 l-26 -30 -7 45 c-7 47 -12
53 -33 33 -10 -11 -15 -9 -27 7 -15 20 -15 20 -34 -5 -28 -36 -26 -68 5 -80
27 -10 31 -32 16 -72 -5 -13 -14 -42 -20 -65 -7 -26 -18 -43 -26 -43 -8 0 -15
5 -15 10 0 6 -17 10 -38 10 -37 0 -38 1 -50 47 -7 26 -27 76 -43 112 -17 36
-33 78 -36 93 -3 15 -12 28 -19 28 -7 0 -27 14 -44 30 -36 35 -71 41 -63 10 3
-11 0 -21 -6 -21 -15 -2 -30 -6 -33 -9 -2 -1 -27 -4 -57 -5 -38 -3 -58 -9 -72
-24 -21 -22 -49 -28 -49 -11 0 6 5 10 12 10 6 0 8 3 5 7 -8 8 -66 -47 -67 -63
0 -7 -9 -22 -20 -35 -16 -20 -19 -21 -20 -6 0 9 5 17 12 17 6 0 8 3 5 7 -4 3
-18 -6 -31 -20 -14 -15 -31 -27 -38 -27 -8 1 -5 7 7 15 33 25 105 98 105 106
0 5 21 32 46 61 61 68 83 119 96 226 13 112 3 154 -57 220 -25 27 -45 55 -45
61 0 6 -4 11 -9 11 -5 0 -19 16 -32 34 -51 75 -152 100 -315 78 -72 -10 -170
-42 -184 -60 -6 -8 -53 -31 -118 -58 -51 -21 -108 -83 -121 -132 -14 -51 22
-123 43 -85 7 13 10 13 17 2 6 -10 9 -7 9 11 0 22 1 23 16 8 13 -13 22 -14 46
-6 20 7 37 7 53 0 13 -6 32 -8 43 -5 17 4 25 -5 47 -51 15 -31 30 -56 35 -56
14 0 32 -58 25 -82 -20 -68 -40 -97 -67 -98 -28 0 -25 6 -69 -138 -7 -24 -22
-48 -33 -54 -34 -17 -66 -50 -59 -61 3 -6 -6 -8 -26 -5 -18 3 -31 0 -32 -6 -2
-28 -18 34 -18 71 -1 23 -6 54 -13 70 -6 15 -12 31 -12 35 -4 33 -46 8 -46
-28 0 -12 -3 -25 -8 -27 -11 -7 -47 25 -66 58 -16 28 -17 28 -12 5 2 -14 9
-42 14 -62 14 -52 -3 -48 -30 7 -12 25 -28 45 -35 45 -7 0 -13 -4 -13 -8 0 -5
-6 -16 -13 -26 -10 -14 -18 -15 -40 -7 -24 9 -29 7 -54 -24 -27 -34 -63 -47
-63 -24 0 6 -7 9 -15 5 -9 -3 -19 3 -26 15 -8 16 -14 18 -22 10 -6 -6 -18 -11
-27 -11 -19 0 -70 -50 -70 -68 0 -7 -4 -12 -9 -12 -5 0 -15 26 -21 58 -16 79
-17 82 -39 82 -13 0 -26 -12 -37 -36 -14 -29 -21 -34 -40 -30 -13 4 -34 1 -48
-5 -20 -9 -29 -9 -41 1 -14 12 -18 11 -26 -1 -5 -8 -9 -20 -9 -26 0 -7 -13
-19 -30 -28 -16 -9 -30 -22 -30 -31 0 -8 -13 -17 -29 -20 -17 -4 -38 -15 -47
-25 -9 -11 -23 -19 -29 -19 -15 0 -65 -63 -65 -82 1 -8 6 -6 15 6 14 19 15 19
15 -7 0 -23 -3 -27 -23 -22 -16 4 -29 -1 -44 -17 -12 -13 -29 -29 -38 -36 -9
-8 -15 -21 -13 -30 4 -18 -5 -17 248 -21 95 -1 103 -3 85 -17 -11 -8 -51 -24
-90 -35 -68 -21 -95 -34 -95 -49 0 -12 124 12 150 30 51 34 93 33 48 -2 -23
-17 -23 -17 17 -11 22 3 55 12 73 19 43 17 41 1 -3 -20 -34 -17 -60 -41 -31
-30 9 3 16 1 16 -5 0 -6 -6 -11 -14 -11 -7 0 -38 -24 -67 -54 -30 -29 -70 -62
-89 -71 -24 -13 -30 -20 -20 -23 24 -8 31 -26 12 -33 -12 -4 -6 -9 23 -19 58
-18 105 -41 105 -51 0 -5 -7 -5 -17 -2 -11 5 -14 3 -9 -6 5 -7 17 -11 27 -8
10 3 23 -1 30 -9 8 -10 8 -14 0 -14 -13 0 -45 -24 -88 -68 -18 -18 -33 -30
-34 -25 -5 41 -1 60 14 71 22 17 22 32 -1 32 -12 0 -25 -14 -37 -40 -10 -22
-24 -45 -31 -51 -9 -8 -10 -18 -3 -36 8 -21 6 -30 -11 -48 -14 -15 -18 -25
-11 -30 7 -3 10 -1 9 6 -4 19 43 41 59 27 7 -6 13 -16 14 -22 0 -16 104 -101
123 -101 8 0 21 -6 27 -12 17 -17 -30 -34 -79 -29 -20 3 -84 8 -142 12 -98 6
-107 9 -134 35 -17 16 -34 29 -39 29 -17 0 0 81 20 95 10 8 35 17 56 20 l37 7
-22 28 c-13 16 -28 29 -34 29 -16 1 -80 74 -89 100 -4 12 -11 18 -17 15 -8 -5
-9 -1 -5 10 4 9 3 14 -2 11 -5 -3 -12 3 -14 12 -4 17 -5 17 -6 0 -2 -26 36
-127 55 -148 17 -18 14 -19 -95 -19 -72 0 -110 4 -106 10 4 6 -8 10 -28 10
-36 0 -47 12 -47 52 0 18 -5 20 -32 15 -18 -3 -42 -9 -52 -13 -17 -6 -18 -4
-11 17 4 13 9 41 12 61 5 37 5 37 -27 33 -23 -3 -29 -1 -22 8 6 7 10 47 10 90
1 66 -2 78 -14 73 -21 -8 -42 15 -40 43 1 31 37 45 63 26 10 -8 39 -15 66 -15
39 0 47 3 47 18 0 10 -4 22 -9 27 -15 16 -16 48 -3 73 15 27 9 40 -26 53 -34
13 -17 29 43 40 46 9 49 8 104 -36 31 -25 58 -40 59 -34 2 5 -16 35 -40 66
-23 31 -38 58 -33 60 41 13 80 41 83 58 3 26 -32 49 -56 37 -9 -5 -29 -12 -44
-16 -24 -5 -31 -1 -52 33 -14 21 -40 48 -59 60 -26 16 -34 27 -30 41 3 11 12
20 20 20 11 0 13 7 9 25 -6 22 -3 25 19 25 26 0 33 14 15 25 -8 5 -8 11 0 20
12 14 5 41 -17 67 -17 19 -10 38 14 38 10 0 14 -6 10 -19 -3 -13 3 -22 20 -30
30 -14 33 -14 33 0 0 7 -8 17 -17 24 -16 12 -16 15 7 38 14 13 35 29 48 36 29
16 28 39 -3 51 -14 5 -30 22 -36 37 -6 16 -16 35 -23 43 -7 8 -16 27 -20 43
-4 15 -22 45 -41 66 -28 31 -32 40 -20 45 20 7 19 25 -2 32 -10 3 -27 10 -38
14 -68 28 -101 20 -167 -41 -16 -16 -35 -26 -41 -22 -6 4 4 19 26 38 28 25 39
44 49 86 6 30 24 73 40 97 45 69 32 95 -24 49z m1660 -207 c-12 -16 -27 -30
-32 -29 -6 0 -5 3 2 6 6 2 12 11 12 18 0 8 8 19 18 24 25 15 25 14 0 -19z
m-1865 -110 c-8 -29 -21 -25 -15 5 2 14 8 23 12 20 5 -3 6 -14 3 -25z m37 16
c0 -3 -4 -8 -10 -11 -5 -3 -10 -1 -10 4 0 6 5 11 10 11 6 0 10 -2 10 -4z
m2254 -205 c3 -5 -8 -11 -24 -15 -17 -3 -33 -14 -36 -23 -3 -10 -10 -27 -14
-38 -14 -33 -22 -95 -12 -95 5 0 23 7 40 16 35 17 44 56 16 72 -14 8 -14 10 1
22 10 8 19 10 25 4 13 -13 16 -73 5 -99 -7 -18 -7 -19 9 -4 10 9 21 38 25 65
l9 49 1 -40 c1 -50 -32 -103 -84 -130 l-37 -20 -19 24 c-15 19 -19 36 -17 88
3 56 7 69 34 99 30 32 67 44 78 25z m-1904 -191 c0 -5 -11 -10 -25 -10 -14 0
-25 5 -25 10 0 6 11 10 25 10 14 0 25 -4 25 -10z m-135 -30 c3 -5 -3 -10 -15
-10 -12 0 -18 5 -15 10 3 6 10 10 15 10 5 0 12 -4 15 -10z m68 -180 c20 0 23
-25 4 -33 -17 -6 -66 3 -73 14 -10 16 8 31 30 25 11 -3 29 -6 39 -6z m137 -70
c0 -5 -4 -10 -10 -10 -5 0 -10 5 -10 10 0 6 5 10 10 10 6 0 10 -4 10 -10z
m-2090 -118 c0 -41 -3 -53 -10 -42 -13 20 -13 113 0 105 6 -3 10 -32 10 -63z
m3098 -91 c10 -6 7 -10 -12 -15 -22 -5 -24 -10 -17 -29 13 -33 0 -50 -32 -41
-24 5 -28 3 -33 -25 -7 -32 -40 -51 -65 -35 -9 5 -10 2 -6 -9 5 -12 1 -17 -13
-17 -11 0 -20 -8 -22 -22 -4 -25 -23 -35 -31 -15 -3 8 -8 39 -12 70 -7 54 -6
56 27 89 19 18 43 38 54 45 22 14 142 17 162 4z m-3260 -29 c2 -7 -3 -12 -12
-12 -9 0 -16 7 -16 16 0 17 22 14 28 -4z m4847 -2 c-3 -5 -10 -10 -16 -10 -5
0 -9 5 -9 10 0 6 7 10 16 10 8 0 12 -4 9 -10z m555 -40 c0 -5 -5 -12 -11 -15
-6 -4 -8 -13 -5 -21 5 -12 2 -12 -17 -3 -21 12 -21 11 -4 -8 22 -25 21 -30 -4
-43 -29 -16 -49 4 -49 47 0 24 5 36 19 41 29 10 71 11 71 2z m-3692 -39 l33
-29 -19 -35 -19 -36 -15 32 c-20 41 -32 97 -21 97 4 -1 23 -14 41 -29z m4192
7 c0 -16 -3 -19 -11 -11 -6 6 -8 16 -5 22 11 17 16 13 16 -11z m-1057 -18 c3
-11 1 -20 -4 -20 -5 0 -9 9 -9 20 0 11 2 20 4 20 2 0 6 -9 9 -20z m-3062 -142
c-23 -6 -37 -6 -44 1 -8 8 2 11 34 10 l44 -1 -34 -10z m-49 -91 c-8 -31 -19 0
-13 36 4 31 5 31 11 7 3 -14 4 -33 2 -43z m163 23 c-8 -16 -15 -36 -15 -45 0
-8 -4 -15 -10 -15 -16 0 -12 20 11 56 25 42 35 45 14 4z m-57 -130 c0 -66 -4
-120 -9 -120 -5 0 -9 54 -9 120 0 66 4 120 9 120 5 0 9 -53 9 -120z m207 65
c-10 -19 -21 -35 -26 -35 -13 0 -11 7 14 50 26 47 35 36 12 -15z m-328 -77
c-3 -7 -5 -2 -5 12 0 14 2 19 5 13 2 -7 2 -19 0 -25z m3874 -81 c-8 -8 -11 -7
-11 4 0 20 13 34 18 19 3 -7 -1 -17 -7 -23z m149 3 c0 -27 24 -25 43 3 l15 22
15 -35 c13 -31 13 -36 -1 -47 -22 -18 -29 -16 -35 7 -6 25 -37 27 -38 3 0 -10
-11 -40 -24 -68 l-25 -50 6 65 c6 69 21 120 35 120 5 0 9 -9 9 -20z m147 -15
c-4 -8 -17 -15 -29 -15 l-23 1 24 20 c26 21 37 19 28 -6z m-271 -60 c27 -62
29 -69 14 -60 -15 10 -60 102 -53 109 11 11 14 7 39 -49z m54 35 c-9 -17 -30
-28 -30 -16 0 2 -3 11 -6 20 -5 12 0 16 20 16 24 0 25 -2 16 -20z m-2792 -37
c-3 -55 -21 -65 -26 -15 -4 39 3 62 18 62 7 0 10 -18 8 -47z m-1038 -34 c0
-52 -2 -60 -16 -55 -9 3 -20 6 -25 6 -5 0 -9 5 -9 10 0 6 7 10 15 10 11 0 15
12 15 45 0 25 5 45 10 45 6 0 10 -27 10 -61z m1070 -8 c0 -10 -3 -21 -6 -24
-13 -12 -21 3 -17 28 6 27 23 24 23 -4z m2882 -3 c-7 -7 -12 -8 -12 -2 0 14
12 26 19 19 2 -3 -1 -11 -7 -17z m-5717 -108 c4 -6 -12 -9 -42 -9 -47 2 -47 2
-13 9 19 4 38 8 42 9 4 0 10 -3 13 -9z m165 -91 c3 -1 -6 -4 -20 -8 -30 -9
-50 -3 -50 14 0 11 8 11 32 4 18 -5 35 -9 38 -10z m-374 -135 c-5 -13 -9 -14
-21 -4 -12 10 -16 9 -21 -5 -5 -11 -1 -21 9 -27 19 -10 22 -33 7 -43 -11 -7
-28 32 -37 80 -3 20 -2 26 5 17 7 -10 13 -7 27 15 18 27 18 27 28 6 5 -12 7
-29 3 -39z m1344 -37 c0 -5 -6 -7 -14 -4 -8 3 -17 -2 -21 -11 -6 -16 -7 -16
-16 0 -14 26 9 49 33 34 10 -6 18 -15 18 -19z m976 -164 c3 -18 11 -33 16 -33
6 0 8 -6 5 -14 -3 -8 -2 -16 3 -18 6 -2 24 -51 41 -110 29 -97 34 -106 51 -97
10 5 18 14 18 19 0 15 26 12 39 -4 19 -22 23 -184 6 -231 -7 -22 -19 -39 -24
-38 -10 3 -8 -159 4 -291 3 -29 1 -46 -4 -40 -5 5 -11 43 -14 84 -8 129 -56
436 -76 492 -11 29 -29 89 -41 133 -11 44 -25 89 -30 100 -17 42 -60 155 -60
162 0 18 61 -87 66 -114z m-1251 57 c3 -6 -10 -36 -29 -68 -19 -31 -42 -76
-52 -100 -28 -72 -27 -39 1 39 46 128 63 156 80 129z m-1102 -63 c-5 -53 -7
-57 -32 -56 -25 0 -26 0 -3 9 17 7 22 17 22 44 0 33 9 70 16 64 2 -2 0 -29 -3
-61z m753 -22 c27 -22 55 -47 62 -57 7 -10 22 -18 33 -18 10 0 19 -3 20 -7 0
-5 2 -20 4 -35 2 -17 -2 -29 -12 -32 -13 -5 -14 -4 -3 9 8 10 9 15 2 15 -7 0
-9 8 -5 18 6 15 5 15 -10 4 -8 -8 -13 -21 -10 -30 3 -10 1 -13 -4 -7 -4 6 -18
11 -31 13 -20 3 -22 0 -16 -35 l5 -38 -23 45 c-26 50 -45 61 -50 30 -2 -11 -7
-19 -13 -18 -5 2 -9 7 -7 12 3 8 -21 -7 -38 -24 -3 -3 -15 -10 -27 -17 -17
-10 -24 -9 -33 2 -6 8 -18 11 -26 8 -8 -3 -14 0 -14 6 0 6 -10 11 -21 11 -18
0 -19 -2 -9 -15 7 -9 11 -17 9 -18 -2 -1 -11 -8 -20 -15 -25 -18 -52 29 -59
103 -7 65 1 82 55 117 25 16 45 18 111 16 77 -3 83 -5 130 -43z m200 -35 c-15
-22 -31 -40 -36 -40 -16 0 -11 16 14 42 12 14 26 34 31 44 5 13 9 15 12 6 3
-7 -7 -31 -21 -52z m1354 -45 c0 -14 -2 -25 -4 -25 -2 0 -6 11 -8 25 -3 14 -1
25 3 25 5 0 9 -11 9 -25z m-2333 -27 c-3 -7 -5 -2 -5 12 0 14 2 19 5 13 2 -7
2 -19 0 -25z m90 -50 c-3 -8 -6 -5 -6 6 -1 11 2 17 5 13 3 -3 4 -12 1 -19z
m706 -103 c18 -18 52 -103 45 -111 -6 -5 -78 107 -78 120 0 11 18 6 33 -9z
m-716 -57 c-2 -13 -4 -5 -4 17 -1 22 1 32 4 23 2 -10 2 -28 0 -40z m-300 0
c-3 -8 -6 -5 -6 6 -1 11 2 17 5 13 3 -3 4 -12 1 -19z m2 -39 c-15 -9 -32 -2
-24 11 3 5 13 6 21 3 12 -4 13 -8 3 -14z m1358 -21 c-2 -7 -10 -31 -18 -53 -8
-22 -18 -43 -24 -47 -6 -4 -10 -60 -10 -133 l1 -125 -26 0 c-25 0 -28 6 -59
118 -18 64 -35 123 -38 130 -3 8 8 12 39 12 57 0 88 9 88 26 0 20 32 84 43 84
5 0 7 -6 4 -12z m-120 -5 c-20 -2 -52 -2 -70 0 -17 2 0 4 38 4 39 0 53 -2 32
-4z m1269 -80 c11 -61 11 -79 1 -85 -24 -15 -27 -7 -27 84 0 50 3 88 6 85 4
-4 13 -41 20 -84z m-1376 -255 c0 -5 -16 -8 -36 -8 -29 0 -35 3 -30 16 3 9 9
27 12 40 3 13 10 24 15 24 4 0 3 14 -3 31 -7 20 -13 27 -18 19 -5 -8 -11 -1
-18 19 -6 18 -7 29 -2 26 5 -3 12 0 16 6 6 10 64 -147 64 -173z m1395 115 c3
-27 8 -64 10 -84 5 -35 4 -37 -31 -44 -20 -3 -38 -4 -41 -2 -10 11 10 149 24
163 24 23 31 16 38 -33z m1362 -35 c-3 -7 -5 -2 -5 12 0 14 2 19 5 13 2 -7 2
-19 0 -25z m-1202 -87 c3 -112 -9 -137 -18 -38 -6 61 1 152 10 143 3 -3 6 -50
8 -105z m-2170 -16 c0 -5 -10 -11 -22 -13 -16 -2 -23 2 -23 13 0 11 7 15 23
13 12 -2 22 -7 22 -13z m2025 -25 c0 -16 -4 -30 -9 -30 -21 0 -21 -35 0 -53
33 -27 15 -32 -25 -7 -49 30 -46 19 4 -14 37 -24 40 -30 40 -72 l0 -47 -35 39
c-20 21 -41 57 -47 79 -6 22 -15 45 -20 51 -4 6 -5 25 -2 42 5 24 13 32 33 35
59 9 61 8 61 -23z m158 -94 c5 -25 -6 -66 -18 -66 -6 0 -10 21 -10 46 0 32 4
44 13 42 6 -3 14 -13 15 -22z m-1841 -78 c-3 -7 -5 -2 -5 12 0 14 2 19 5 13 2
-7 2 -19 0 -25z m1843 -105 c0 -48 -3 -64 -10 -53 -17 26 -12 120 7 120 2 0 3
-30 3 -67z m-1906 -9 c20 -8 21 -54 2 -54 -20 0 -49 47 -33 53 6 3 13 6 14 6
1 1 8 -2 17 -5z"/>
<path d="M2040 1070 c-9 -6 -10 -10 -3 -10 6 0 15 5 18 10 8 12 4 12 -15 0z"/>
<path d="M3554 3575 c-4 -8 -15 -15 -26 -15 -28 0 -80 -29 -75 -43 8 -23 135
-4 173 25 7 5 10 18 7 28 -7 25 -70 29 -79 5z"/>
<path d="M3280 3530 c-8 -5 -11 -12 -7 -16 4 -4 13 -2 19 4 15 15 7 24 -12 12z"/>
<path d="M3435 3450 c-3 -5 1 -10 9 -10 9 0 16 5 16 10 0 6 -4 10 -9 10 -6 0
-13 -4 -16 -10z"/>
<path d="M3540 3400 c20 -13 60 -13 60 0 0 6 -17 10 -37 10 -28 0 -34 -3 -23
-10z"/>
<path d="M5035 3119 c-10 -15 34 -59 53 -52 13 5 12 9 -6 24 -12 9 -22 22 -22
28 0 14 -17 14 -25 0z"/>
<path d="M4968 2928 c8 -8 17 -8 34 0 22 10 21 11 -11 11 -27 1 -32 -2 -23
-11z"/>
<path d="M3642 2916 c-31 -15 -25 -73 11 -99 30 -23 36 -20 61 27 l19 35 -29
25 c-32 28 -30 28 -62 12z"/>
<path d="M5010 2850 c-9 -5 -9 -9 -1 -14 6 -4 9 -13 5 -19 -3 -7 0 -5 8 4 7 9
19 14 27 11 8 -3 12 1 9 8 -5 16 -30 21 -48 10z"/>
<path d="M1605 2739 c-32 -59 -17 -57 20 2 27 42 29 49 17 49 -5 0 -21 -23
-37 -51z"/>
<path d="M5242 2579 c-3 -27 -30 -72 -54 -92 -23 -18 -23 -18 8 -3 43 21 56
40 51 78 -2 18 -5 26 -5 17z"/>
<path d="M5373 2427 c-35 -17 -63 -35 -63 -39 0 -14 15 -8 69 26 87 56 85 61
-6 13z"/>
<path d="M5071 2288 c-11 -28 -21 -60 -21 -72 -1 -11 -7 -32 -15 -46 -22 -38
-18 -49 5 -12 11 18 20 39 20 47 0 8 5 26 12 40 8 19 14 22 20 13 6 -9 7 -5 3
9 -3 12 -1 31 4 42 6 11 7 22 2 25 -5 3 -18 -17 -30 -46z"/>
<path d="M3965 2220 c-27 -11 -58 -19 -68 -20 -12 0 -17 -6 -15 -17 5 -25 71
-20 105 7 16 13 41 20 67 20 23 0 51 7 62 15 17 13 14 14 -41 14 -33 0 -82 -9
-110 -19z"/>
<path d="M3695 2221 c-6 -10 82 -27 91 -18 4 3 3 10 -1 16 -8 13 -82 15 -90 2z"/>
<path d="M3848 2153 c6 -2 18 -2 25 0 6 3 1 5 -13 5 -14 0 -19 -2 -12 -5z"/>
<path d="M5770 2079 c0 -5 5 -7 10 -4 6 3 10 8 10 11 0 2 -4 4 -10 4 -5 0 -10
-5 -10 -11z"/>
<path d="M4991 2044 c0 -11 3 -14 6 -6 3 7 2 16 -1 19 -3 4 -6 -2 -5 -13z"/>
<path d="M5767 1933 c-4 -65 -10 -140 -13 -168 l-7 -50 28 25 c15 14 31 33 36
42 11 20 2 48 -15 48 -9 0 -13 30 -13 106 -1 58 -3 108 -6 110 -2 2 -7 -49
-10 -113z"/>
<path d="M5382 2015 c-9 -20 -9 -23 3 -18 8 3 15 14 15 24 0 25 -5 24 -18 -6z"/>
<path d="M2961 1999 c-31 -24 -39 -34 -29 -40 22 -15 54 -10 82 12 24 19 38
58 16 44 -5 -3 -10 -1 -10 4 0 18 -14 13 -59 -20z"/>
<path d="M4010 1967 c0 -11 8 -29 17 -39 16 -18 17 -17 30 13 18 43 17 46 -17
46 -23 0 -30 -5 -30 -20z"/>
<path d="M1696 1923 c-4 -9 -9 -44 -11 -77 l-4 -61 8 52 c5 29 12 64 15 78 7
28 2 34 -8 8z"/>
<path d="M4946 1868 c-17 -74 -15 -103 2 -46 13 42 25 118 19 118 -3 0 -12
-32 -21 -72z"/>
<path d="M5337 1924 c-4 -4 -7 -19 -6 -33 l0 -26 10 24 c10 26 8 47 -4 35z"/>
<path d="M4196 1868 c-37 -43 -44 -58 -26 -58 6 0 10 6 10 13 0 7 14 29 31 50
42 51 29 47 -15 -5z"/>
<path d="M2858 1893 c6 -2 18 -2 25 0 6 3 1 5 -13 5 -14 0 -19 -2 -12 -5z"/>
<path d="M5381 1853 c0 -28 2 -54 7 -57 4 -2 6 14 4 37 -5 68 -10 76 -11 20z"/>
<path d="M2905 1834 c-44 -8 -111 -18 -148 -24 -38 -6 -79 -17 -90 -26 -21
-15 -21 -16 15 -10 37 7 43 -2 24 -33 -7 -11 3 -12 60 -7 85 9 145 22 153 33
7 9 108 46 126 46 7 0 10 9 7 19 -5 22 -32 22 -147 2z"/>
<path d="M2336 1771 c-7 -11 17 -21 47 -21 21 1 21 1 -3 15 -30 17 -37 18 -44
6z"/>
<path d="M4921 1764 c0 -11 3 -14 6 -6 3 7 2 16 -1 19 -3 4 -6 -2 -5 -13z"/>
<path d="M771 1745 c-1 -17 -3 -18 -11 -5 -5 8 -10 10 -10 5 0 -6 5 -16 11
-22 9 -9 6 -23 -11 -57 -21 -44 -22 -53 -15 -219 4 -95 4 -183 0 -196 -6 -21
-7 -21 -21 -4 -12 16 -13 5 -14 -83 0 -66 -4 -104 -12 -113 -9 -8 -12 -43 -11
-114 1 -70 -1 -96 -7 -82 -8 15 -9 10 -5 -20 3 -22 10 -112 15 -200 6 -88 15
-189 20 -225 5 -36 11 -81 14 -100 4 -32 15 -85 36 -180 4 -19 16 -56 26 -83
18 -47 19 -47 64 -47 25 0 51 5 58 12 7 7 12 9 12 5 0 -10 53 44 72 75 15 22
15 27 3 32 -8 3 -15 15 -15 26 0 12 -12 32 -27 46 -27 24 -27 25 -5 19 21 -6
23 -5 13 13 -16 30 -28 35 -41 15 -10 -16 -11 -15 -6 7 3 14 6 28 6 33 0 11
30 8 30 -3 0 -5 4 -10 9 -10 8 0 2 44 -19 140 -5 25 -9 48 -10 53 0 4 -4 7
-10 7 -5 0 -10 -13 -10 -30 0 -16 -5 -30 -11 -30 -14 0 -2 90 14 106 9 9 9 77
0 101 -6 16 -8 15 -14 -7 -4 -14 -5 3 -2 38 5 55 4 62 -11 56 -13 -5 -16 1
-17 27 -1 19 -8 -11 -16 -66 -8 -59 -13 -149 -10 -217 2 -87 0 -118 -9 -118
-12 0 -22 26 -33 85 -3 17 -5 305 -3 640 1 336 -2 633 -7 660 -5 28 -9 41 -10
30z m126 -1207 c-3 -7 -5 -2 -5 12 0 14 2 19 5 13 2 -7 2 -19 0 -25z m13 -455
c0 -5 -5 -15 -10 -23 -8 -12 -10 -11 -10 8 0 12 5 22 10 22 6 0 10 -3 10 -7z
m-95 -9 c13 -5 14 -8 3 -15 -19 -13 -28 -11 -28 6 0 17 2 18 25 9z"/>
<path d="M2660 1750 c0 -5 4 -10 9 -10 6 0 13 5 16 10 3 6 -1 10 -9 10 -9 0
-16 -4 -16 -10z"/>
<path d="M4886 1649 c-15 -86 -29 -217 -28 -249 1 -19 -3 -46 -8 -60 -5 -14
-11 -91 -14 -171 -3 -100 -9 -156 -19 -175 -8 -16 -17 -42 -20 -59 -4 -19 2
-11 19 25 14 30 28 74 31 97 3 24 9 40 14 38 16 -10 19 15 6 47 -15 36 -15 91
2 243 25 212 34 366 17 264z"/>
<path d="M6190 1632 c-60 -21 -76 -22 -216 -18 l-152 5 -6 -37 c-3 -20 -6 -43
-6 -49 0 -17 96 -17 242 -2 92 10 113 9 154 -5 l48 -16 30 27 c17 16 32 29 34
30 8 3 -38 81 -50 85 -7 2 -42 -7 -78 -20z"/>
<path d="M1701 1630 c-25 -22 -17 -25 23 -10 14 5 26 14 26 20 0 16 -23 11
-49 -10z"/>
<path d="M1803 1643 c9 -2 25 -2 35 0 9 3 1 5 -18 5 -19 0 -27 -2 -17 -5z"/>
<path d="M1105 1620 c-10 -11 -16 -22 -13 -25 3 -3 13 4 23 15 10 11 16 22 13
25 -3 3 -13 -4 -23 -15z"/>
<path d="M2754 1614 c-12 -8 -44 -23 -73 -33 -66 -23 -68 -26 -28 -38 31 -9
39 -7 90 26 52 33 64 51 41 57 -5 2 -18 -4 -30 -12z"/>
<path d="M6590 1622 c-105 -2 -154 -7 -177 -18 -18 -8 -33 -18 -33 -22 0 -4
47 -22 103 -40 l102 -33 180 3 180 3 3 24 c2 13 1 38 -2 55 l-6 31 -102 0
c-57 0 -168 -1 -248 -3z"/>
<path d="M1062 1530 l0 -65 11 43 c7 29 7 49 -1 65 -9 18 -11 10 -10 -43z"/>
<path d="M6353 1472 c-6 -4 17 -7 50 -7 34 0 78 -3 97 -7 33 -7 33 -6 -5 7
-44 15 -123 19 -142 7z"/>
<path d="M2595 1450 c3 -5 8 -10 11 -10 2 0 4 5 4 10 0 6 -5 10 -11 10 -5 0
-7 -4 -4 -10z"/>
<path d="M6375 1423 c-10 -3 -29 -12 -41 -19 -12 -8 -29 -12 -38 -8 -9 3 -16
2 -16 -4 0 -10 58 -14 315 -26 50 -3 81 -2 70 0 -11 3 -58 16 -105 29 -95 27
-155 36 -185 28z m2 -29 c-3 -3 -12 -4 -19 -1 -8 3 -5 6 6 6 11 1 17 -2 13 -5z
m56 -1 c-7 -2 -21 -2 -30 0 -10 3 -4 5 12 5 17 0 24 -2 18 -5z"/>
<path d="M2170 1410 c-8 -5 -10 -10 -5 -10 6 0 17 5 25 10 8 5 11 10 5 10 -5
0 -17 -5 -25 -10z"/>
<path d="M1975 1399 c-4 -6 -5 -12 -2 -15 2 -3 7 2 10 11 7 17 1 20 -8 4z"/>
<path d="M2100 1396 c0 -2 7 -7 16 -10 8 -3 12 -2 9 4 -6 10 -25 14 -25 6z"/>
<path d="M6133 1393 c15 -2 37 -2 50 0 12 2 0 4 -28 4 -27 0 -38 -2 -22 -4z"/>
<path d="M2074 1371 c4 -5 1 -12 -4 -14 -6 -3 -5 -4 2 -3 15 3 23 26 8 26 -6
0 -9 -4 -6 -9z"/>
<path d="M1988 1363 c6 -2 18 -2 25 0 6 3 1 5 -13 5 -14 0 -19 -2 -12 -5z"/>
<path d="M2120 1345 c0 -8 2 -15 4 -15 2 0 6 7 10 15 3 8 1 15 -4 15 -6 0 -10
-7 -10 -15z"/>
<path d="M5753 1169 c-12 -63 -25 -171 -29 -242 -3 -70 -10 -129 -15 -132 -12
-8 -109 196 -109 229 0 36 -21 42 -74 20 -41 -17 -47 -25 -96 -126 -29 -60
-56 -110 -60 -113 -6 -4 -127 32 -174 51 -17 7 -18 4 -12 -29 6 -34 5 -38 -21
-49 -15 -6 -31 -11 -35 -10 -4 1 -16 -10 -27 -25 -23 -29 -14 -53 19 -53 10 0
30 -14 43 -30 14 -16 31 -30 37 -30 7 0 10 -7 6 -15 -3 -8 0 -15 7 -15 8 0 7
-4 -3 -11 -11 -8 -9 -9 10 -3 14 4 31 9 37 11 7 3 16 -3 20 -12 4 -13 -4 -26
-28 -46 -19 -16 -40 -29 -46 -29 -7 0 -13 -5 -13 -10 0 -6 -11 -15 -25 -20
-16 -6 -25 -17 -25 -32 0 -12 -9 -32 -21 -44 -25 -27 -32 -114 -10 -122 8 -3
11 0 7 7 -4 6 4 32 18 58 14 27 27 55 29 64 3 8 24 25 48 36 73 35 133 61 156
68 12 3 24 14 26 23 4 16 5 16 6 0 0 -10 9 -18 19 -18 16 -1 16 -1 0 -11 -23
-13 -25 -54 -2 -45 9 3 20 6 25 6 5 0 30 20 56 45 l48 44 -29 30 c-17 18 -24
31 -17 35 6 4 11 2 11 -3 0 -6 5 -11 10 -11 6 0 10 9 10 19 0 31 19 35 32 7 6
-14 14 -26 18 -26 4 0 11 32 14 71 6 56 4 73 -7 82 -9 7 -17 39 -21 82 -3 39
-9 82 -12 98 -4 15 -2 27 3 27 5 0 18 -37 27 -82 10 -46 22 -94 26 -108 l8
-25 1 28 c1 16 5 26 10 22 8 -4 7 -53 -2 -135 -1 -8 2 -64 6 -125 7 -101 6
-118 -18 -210 -15 -55 -38 -129 -52 -164 -25 -63 -25 -65 -9 -118 l17 -53 915
0 914 0 0 635 0 635 -542 0 c-299 0 -665 3 -813 6 l-270 7 -22 -114z m-243
-435 c0 -35 -3 -45 -14 -41 -7 3 -19 0 -25 -6 -8 -8 -11 -5 -11 11 0 15 5 20
15 16 11 -5 15 1 15 23 0 26 7 43 17 43 2 0 3 -21 3 -46z m-73 -76 c-3 -8 -6
-5 -6 6 -1 11 2 17 5 13 3 -3 4 -12 1 -19z m8 -87 c3 -5 1 -12 -5 -16 -5 -3
-10 1 -10 9 0 18 6 21 15 7z"/>
<path d="M5525 1110 c-3 -5 -1 -10 4 -10 6 0 11 5 11 10 0 6 -2 10 -4 10 -3 0
-8 -4 -11 -10z"/>
<path d="M5535 1093 c-20 -5 -45 -30 -45 -45 0 -4 18 2 40 13 22 12 40 25 40
30 0 9 -3 10 -35 2z"/>
<path d="M5063 821 c-24 -31 -31 -91 -12 -91 15 0 41 67 37 97 l-3 25 -22 -31z"/>
<path d="M5007 572 c-23 -25 -22 -29 8 -34 26 -5 34 13 17 40 -7 10 -12 8 -25
-6z"/>
<path d="M4290 490 c0 -5 7 -10 15 -10 8 0 15 5 15 10 0 6 -7 10 -15 10 -8 0
-15 -4 -15 -10z"/>
<path d="M5037 487 c-5 -14 20 -83 28 -76 2 2 1 23 -2 47 -6 42 -16 54 -26 29z"/>
<path d="M5396 413 c-3 -10 -8 -34 -11 -54 -6 -33 -11 -37 -43 -43 -26 -4 -52
-22 -99 -68 -35 -34 -63 -68 -63 -75 0 -7 -7 -13 -15 -13 -8 0 -15 -4 -15 -10
0 -17 31 -11 54 10 11 11 37 35 57 53 20 17 41 42 47 53 10 20 84 48 96 37 2
-3 -13 -22 -35 -42 -41 -41 -42 -55 -2 -44 21 5 24 2 21 -13 -2 -13 -10 -18
-27 -16 -15 2 -28 -4 -38 -17 -8 -12 -18 -19 -22 -17 -11 7 -66 -52 -57 -61 4
-4 21 0 37 10 38 21 98 24 77 4 -7 -7 -22 -17 -33 -21 -19 -8 -19 -9 5 -16 30
-10 28 -11 -27 -16 -51 -4 -113 -29 -113 -43 0 -7 61 -11 180 -11 l180 0 0 26
c0 14 -4 23 -9 20 -22 -14 -18 47 9 134 16 52 30 103 30 113 0 9 5 17 10 17 6
0 10 9 10 21 l0 20 -27 -20 c-14 -12 -40 -40 -56 -62 -38 -51 -45 -40 -39 58
4 57 1 77 -9 84 -21 13 -39 11 -39 -5 0 -8 -5 -18 -12 -22 -8 -5 -9 0 -6 14 7
26 -8 40 -16 15z m26 -58 c0 -5 -5 -11 -11 -13 -6 -2 -11 4 -11 13 0 9 5 15
11 13 6 -2 11 -8 11 -13z m-2 -265 c-8 -5 -22 -10 -30 -10 -13 0 -13 1 0 10 8
5 22 10 30 10 13 0 13 -1 0 -10z"/>
<path d="M5025 340 c-31 -31 -30 -49 3 -31 27 15 30 14 35 -6 3 -10 5 1 6 25
0 23 -2 42 -6 41 -5 0 -21 -13 -38 -29z"/>
<path d="M5052 240 c-7 -11 -19 -20 -27 -20 -8 0 -16 -6 -17 -12 0 -7 -2 -17
-3 -23 -2 -5 -4 -30 -5 -55 l-2 -45 -13 40 -13 40 -1 -63 c-1 -46 -5 -64 -16
-68 -12 -5 -13 -10 -4 -20 8 -10 39 -14 115 -14 97 0 104 1 104 20 0 11 -4 20
-10 20 -5 0 -10 6 -10 13 0 7 -11 28 -24 48 -14 20 -31 62 -40 93 -18 69 -18
70 -34 46z"/>
<path d="M700 190 c0 -5 5 -10 11 -10 5 0 7 5 4 10 -3 6 -8 10 -11 10 -2 0 -4
-4 -4 -10z"/>
<path d="M407 59 c-9 -6 -27 -12 -38 -14 -24 -5 -49 -23 -49 -36 0 -5 36 -9
80 -9 78 0 80 1 80 25 0 14 -8 29 -19 35 -24 12 -31 12 -54 -1z"/>
<path d="M0 31 c0 -30 1 -31 50 -31 28 0 50 2 50 4 0 8 -54 43 -77 50 -20 7
-23 4 -23 -23z"/>
<path d="M3371 14 c0 -11 3 -14 6 -6 3 7 2 16 -1 19 -3 4 -6 -2 -5 -13z"/>
<path d="M168 3 c6 -2 18 -2 25 0 6 3 1 5 -13 5 -14 0 -19 -2 -12 -5z"/>
</g>
</svg>
