<?xml version="1.0" standalone="no"?>
<!DOCTYPE svg PUBLIC "-//W3C//DTD SVG 20010904//EN"
 "http://www.w3.org/TR/2001/REC-SVG-20010904/DTD/svg10.dtd">
<svg version="1.0" xmlns="http://www.w3.org/2000/svg"
 width="850.000000pt" height="490.000000pt" viewBox="0 0 850.000000 490.000000"
 preserveAspectRatio="xMidYMid meet">

<g transform="translate(0.000000,490.000000) scale(0.100000,-0.100000)"
fill="#000000" stroke="none">
<path d="M8248 4763 c-15 -16 -37 -36 -48 -46 -31 -27 -24 -77 12 -89 50 -17
148 70 148 130 0 41 -74 44 -112 5z"/>
<path d="M3500 4655 c0 -28 12 -32 29 -11 10 12 8 17 -8 26 -19 9 -21 8 -21
-15z"/>
<path d="M3679 4334 c-5 -15 -8 -29 -5 -31 2 -2 8 10 14 26 13 38 5 41 -9 5z"/>
<path d="M5577 4300 c-6 -24 8 -37 17 -15 7 19 26 19 26 0 0 -8 5 -15 10 -15
25 0 -1 42 -28 47 -13 1 -22 -4 -25 -17z"/>
<path d="M6862 3791 c-10 -6 -10 -10 1 -20 12 -9 16 -8 20 3 7 19 -4 27 -21
17z"/>
<path d="M8481 3768 c-8 -16 -18 -28 -22 -28 -5 0 -4 -12 2 -27 13 -34 13
-129 -1 -163 -5 -14 -14 -59 -18 -100 -8 -71 -8 -75 15 -98 15 -15 28 -21 34
-15 5 5 8 103 7 234 -3 200 -5 221 -17 197z"/>
<path d="M2491 3670 c-6 -21 -11 -44 -11 -52 0 -30 78 -12 110 27 18 21 -3 43
-52 54 -35 8 -36 7 -47 -29z"/>
<path d="M2441 3624 c0 -11 3 -14 6 -6 3 7 2 16 -1 19 -3 4 -6 -2 -5 -13z"/>
<path d="M310 3593 c-35 -24 -59 -52 -82 -96 -10 -21 -34 -47 -53 -58 -34 -21
-85 -79 -85 -99 0 -17 68 -41 108 -38 l37 3 0 69 0 69 75 47 c76 47 83 59 65
108 -6 17 -36 15 -65 -5z"/>
<path d="M1764 3592 c-34 -22 -74 -68 -74 -86 0 -16 -42 -62 -65 -70 -30 -11
-88 -83 -81 -101 7 -19 37 -31 103 -40 50 -6 53 -6 64 19 7 14 16 26 21 26 4
0 8 7 8 16 0 43 34 85 105 129 40 26 76 52 78 59 9 23 -36 55 -84 61 -33 5
-51 1 -75 -13z"/>
<path d="M5940 3582 c-20 -9 -54 -23 -77 -30 -32 -9 -44 -19 -52 -42 -9 -28
-9 -29 9 -20 13 7 21 7 25 0 3 -5 11 -10 16 -10 6 0 7 6 3 13 -5 7 0 6 11 -3
10 -8 16 -10 12 -3 -9 15 20 21 55 12 56 -15 195 -21 217 -10 29 16 27 47 -5
76 -33 31 -47 31 -86 3 l-31 -22 -23 27 c-27 32 -30 32 -74 9z"/>
<path d="M7364 3205 c-10 -7 -16 -17 -12 -21 15 -14 -25 -64 -52 -64 -17 0
-21 -3 -12 -9 10 -6 9 -10 -7 -14 -29 -7 -28 -52 2 -71 12 -8 47 -19 77 -25
30 -6 87 -18 125 -26 92 -19 255 -19 300 -1 18 8 38 23 43 33 13 24 26 133 16
133 -5 0 -47 -17 -94 -37 -74 -33 -94 -38 -160 -37 -101 1 -134 19 -167 90
-29 63 -34 68 -59 49z"/>
<path d="M6664 3107 c-13 -15 5 -90 21 -89 6 1 27 -3 48 -9 67 -18 112 34 74
85 -17 24 -126 33 -143 13z"/>
<path d="M371 2980 c-24 -15 -71 -34 -103 -40 -55 -12 -62 -11 -103 9 -37 19
-48 20 -67 10 -13 -7 -40 -12 -60 -10 l-38 2 0 -81 0 -80 40 0 c22 0 66 -9 98
-21 31 -12 79 -28 105 -36 60 -19 76 -43 72 -110 -5 -84 -20 -114 -98 -190
-83 -82 -106 -91 -138 -57 -13 14 -34 24 -51 24 l-28 0 0 -121 c0 -111 1 -121
18 -114 20 8 77 25 101 30 9 2 42 10 73 20 56 16 57 17 72 69 9 29 23 59 31
66 10 8 14 28 13 59 -1 39 5 56 44 116 26 39 67 91 92 116 25 26 47 57 49 70
3 13 14 69 26 124 28 134 28 138 -14 158 -49 24 -83 20 -134 -13z"/>
<path d="M5960 2950 c-12 -7 -12 -12 0 -34 17 -32 24 -32 38 -3 6 12 11 16 11
10 1 -14 31 -18 31 -4 0 23 -57 45 -80 31z"/>
<path d="M1129 2940 c-9 -5 -60 -8 -115 -6 -115 4 -134 -5 -134 -63 0 -20 -11
-53 -25 -76 -58 -95 -54 -117 27 -158 81 -41 116 -117 93 -202 -11 -42 -81
-128 -121 -150 -31 -16 -40 -17 -88 -5 -62 15 -114 8 -148 -19 l-23 -19 24
-49 c13 -26 29 -70 37 -98 26 -102 57 -201 67 -220 7 -11 28 -51 47 -89 44
-85 67 -97 113 -58 17 15 45 36 60 46 31 19 31 27 11 192 -6 50 -5 52 31 79
42 33 37 41 -31 59 -70 18 -85 46 -58 112 16 37 27 50 49 56 39 10 55 33 55
81 0 32 7 46 35 72 76 72 188 115 303 115 74 0 108 15 173 75 25 24 66 53 90
65 56 29 58 33 47 83 -4 23 -11 57 -14 75 -7 35 -54 82 -83 82 -9 0 -32 -11
-51 -25 -19 -14 -52 -30 -74 -36 -77 -21 -197 13 -232 66 -17 26 -38 31 -65
15z"/>
<path d="M7031 2824 c-25 -32 -28 -92 -6 -100 28 -11 64 6 90 43 29 44 30 47
9 67 -24 25 -69 20 -93 -10z"/>
<path d="M8469 2795 c-36 -20 -167 -55 -204 -55 -16 0 -57 -13 -91 -29 -34
-16 -84 -32 -112 -36 -28 -4 -70 -19 -94 -34 -24 -15 -66 -36 -93 -46 -28 -10
-76 -40 -108 -66 -42 -36 -71 -50 -112 -59 -30 -6 -69 -19 -87 -28 -36 -18
-193 -25 -258 -11 -19 4 -73 13 -120 19 -204 28 -209 29 -265 57 l-50 25 -125
-12 c-113 -11 -130 -16 -180 -46 -63 -39 -77 -40 -140 -15 l-45 19 -58 -64
c-70 -76 -153 -121 -256 -137 l-71 -11 0 -62 0 -62 33 8 c17 4 49 15 69 24 21
9 45 16 54 16 28 0 86 -32 121 -67 27 -27 33 -42 33 -74 0 -45 -22 -71 -113
-138 -26 -18 -47 -36 -47 -40 0 -3 18 -19 41 -34 22 -16 57 -52 79 -80 106
-142 116 -321 25 -467 -21 -34 -29 -56 -22 -58 7 -2 32 -12 57 -22 55 -22 147
-50 166 -50 8 0 23 -5 33 -12 16 -10 26 -7 60 15 46 31 101 35 125 11 19 -19
19 -19 4 -47 -6 -12 -11 -35 -10 -52 2 -35 -35 -83 -83 -107 -65 -33 -86 -46
-110 -71 -32 -31 -106 -67 -141 -67 -34 0 -58 14 -127 73 -60 52 -86 90 -80
119 2 9 -3 30 -11 47 -9 16 -16 39 -16 49 0 18 -1 18 -52 1 -66 -23 -195 -25
-265 -4 -28 8 -73 31 -101 50 l-50 34 -70 -92 c-68 -89 -70 -93 -56 -119 22
-42 31 -42 83 2 60 51 125 73 175 59 20 -5 56 -30 81 -54 56 -56 58 -83 9
-178 -42 -83 -40 -107 8 -80 18 10 34 21 36 25 2 4 17 1 33 -7 24 -13 29 -22
29 -53 0 -20 -7 -45 -15 -55 -10 -14 -11 -26 -3 -50 6 -18 14 -36 19 -41 9
-10 -8 -43 -36 -70 -11 -10 -48 -32 -82 -48 -35 -17 -63 -36 -63 -44 0 -8 -13
-17 -30 -21 -16 -3 -30 -8 -30 -12 0 -16 239 -191 262 -191 7 0 30 -8 50 -19
20 -10 59 -21 87 -25 28 -4 69 -14 93 -24 58 -22 338 -21 488 3 58 9 166 25
240 36 343 49 905 146 1015 175 55 15 190 50 300 78 l200 51 3 942 2 941 -68
7 c-100 10 -125 32 -130 117 -4 57 -1 67 22 95 29 35 61 49 129 58 l47 6 0
100 c0 54 -1 99 -2 99 -2 -1 -15 -7 -29 -15z m-1178 -746 c59 -59 69 -154 23
-214 -44 -59 -159 -92 -228 -65 -36 13 -76 78 -78 127 -1 49 20 81 81 120 88
57 165 69 202 32z m242 -819 c-3 -11 -9 -20 -14 -20 -5 0 -9 9 -9 20 0 11 6
20 14 20 9 0 12 -7 9 -20z m313 -24 c27 -27 34 -42 34 -74 0 -34 -5 -44 -35
-66 -61 -47 -137 -74 -163 -57 -17 10 -43 110 -36 136 4 11 22 37 42 58 31 32
42 37 80 37 37 0 50 -6 78 -34z m-1366 -646 c13 -9 13 -11 0 -20 -22 -15 -54
-8 -58 13 -4 19 32 24 58 7z"/>
<path d="M2429 2743 c-1 -4 -1 -12 0 -16 1 -5 2 -56 2 -113 0 -84 3 -106 15
-111 24 -9 29 4 31 85 2 93 -5 140 -19 120 -6 -9 -8 -6 -6 11 3 21 -20 45 -23
24z"/>
<path d="M2390 2598 c0 -85 4 -148 9 -148 5 0 12 10 14 23 2 12 5 3 6 -20 0
-24 5 -43 10 -43 5 0 11 -14 15 -32 3 -17 8 -29 10 -27 8 10 13 138 4 133 -5
-3 -15 0 -23 6 -11 9 -15 37 -15 114 0 74 -4 107 -15 122 -13 17 -14 3 -15
-128z"/>
<path d="M2493 2690 c0 -30 2 -43 4 -27 2 15 2 39 0 55 -2 15 -4 2 -4 -28z"/>
<path d="M2352 2681 c-10 -43 -10 -66 0 -120 l13 -66 3 63 c2 34 2 88 0 120
l-3 57 -13 -54z"/>
<path d="M2577 2577 c-4 -10 -9 -44 -13 -75 l-5 -57 16 35 c9 19 15 53 13 75
-2 29 -5 35 -11 22z"/>
<path d="M2490 2554 c0 -14 4 -23 9 -20 5 3 7 15 4 26 -7 28 -13 25 -13 -6z"/>
<path d="M1910 2556 c-1 -20 24 -86 32 -86 5 0 6 10 2 23 -9 29 -33 75 -34 63z"/>
<path d="M1871 2524 c0 -11 3 -14 6 -6 3 7 2 16 -1 19 -3 4 -6 -2 -5 -13z"/>
<path d="M6180 2527 c-3 -3 -30 -8 -59 -11 -57 -7 -81 -16 -42 -16 14 0 21 -5
19 -12 -3 -8 -29 -15 -64 -18 -52 -4 -59 -8 -62 -27 -4 -29 -24 -29 -37 -1 -6
13 -17 24 -26 26 -13 2 -18 -8 -22 -50 -6 -64 3 -74 80 -84 119 -15 234 26
312 111 l44 48 -24 12 c-26 14 -111 29 -119 22z"/>
<path d="M4570 2491 c0 -5 9 -12 20 -16 19 -6 19 -6 -1 -28 -17 -19 -18 -23
-5 -25 16 -4 22 -43 9 -56 -8 -7 -9 -11 -12 -37 0 -5 -6 -7 -11 -4 -6 4 -18 1
-27 -7 -13 -10 -15 -10 -9 0 4 7 -7 4 -25 -7 -18 -11 -37 -17 -42 -14 -7 4 -7
-1 -2 -13 4 -10 8 -31 8 -46 0 -17 7 -30 21 -36 11 -6 15 -11 8 -11 -7 -1 -10
-6 -7 -11 8 -13 -13 -76 -37 -112 -19 -28 -24 -63 -8 -53 6 3 10 0 10 -8 0 -8
12 -26 26 -41 26 -25 26 -26 5 -26 -13 0 -21 -6 -21 -16 0 -13 -8 -15 -38 -12
l-38 3 -2 -40 c-1 -22 -3 -51 -4 -65 -3 -26 2 -27 37 -14 19 7 19 7 3 -9 -9
-9 -25 -17 -35 -17 -17 -1 -17 -1 0 -11 9 -5 17 -18 16 -27 0 -10 -3 -12 -6
-4 -8 19 -18 14 -21 -10 -1 -21 3 -23 43 -23 32 0 45 -4 45 -14 0 -9 10 -4 27
13 15 15 36 32 48 38 18 10 19 10 6 -5 -7 -10 -9 -17 -3 -17 13 0 23 26 16 44
-3 8 0 17 7 22 8 4 10 3 5 -4 -4 -7 -2 -12 3 -12 6 0 11 4 11 9 0 5 6 16 13
23 46 50 50 58 38 72 -10 12 -8 19 8 35 12 12 21 24 21 27 0 3 9 17 20 32 l20
25 -1 -50 c-1 -27 1 -55 5 -62 4 -6 -2 -25 -14 -41 l-22 -30 45 30 c39 26 62
58 58 83 -1 4 3 7 9 7 6 0 10 9 10 20 0 11 -4 20 -10 20 -5 0 -10 5 -10 10 0
6 7 10 16 10 14 0 14 2 -1 16 -8 9 -22 13 -31 10 -11 -4 -14 -1 -12 12 2 9 10
17 17 17 8 0 16 6 19 14 3 10 0 12 -13 7 -17 -6 -17 -5 -1 16 27 37 30 49 15
59 -8 5 -9 9 -4 9 6 0 11 30 12 73 l1 72 -9 -60 c-15 -91 -30 -145 -40 -139
-13 8 -11 42 3 46 11 4 30 181 21 205 -8 20 -34 2 -27 -19 3 -10 0 -26 -7 -34
-7 -8 -14 -30 -16 -47 -3 -30 -29 -97 -38 -97 -2 0 -1 9 2 20 5 18 -14 110
-23 110 -1 0 -14 -4 -28 -10 -21 -7 -26 -6 -26 5 0 8 -5 15 -11 15 -6 0 -9 -7
-6 -14 4 -10 1 -13 -7 -10 -8 3 -17 1 -20 -4 -6 -10 -54 -4 -61 8 -3 4 10 11
28 14 37 7 67 36 67 65 0 33 11 51 31 51 10 0 19 5 19 10 0 6 7 10 15 10 8 0
15 4 15 9 0 12 -29 23 -41 15 -13 -8 -11 20 3 34 12 12 0 16 -39 15 -7 -1 -13
3 -13 8 0 5 -4 9 -10 9 -5 0 -10 -4 -10 -9z m30 -372 c0 -12 -29 -24 -37 -16
-3 4 -3 13 0 21 6 16 37 11 37 -5z m40 -29 c0 -5 -2 -10 -4 -10 -3 0 -8 5 -11
10 -3 6 -1 10 4 10 6 0 11 -4 11 -10z m-70 -61 c0 -5 -4 -8 -9 -5 -5 4 -12 0
-14 -6 -3 -8 -6 -6 -6 5 -1 9 6 17 14 17 8 0 15 -5 15 -11z m194 -111 c-3 -4
-10 -8 -15 -8 -6 0 -7 5 -3 12 5 7 2 9 -9 5 -11 -4 -14 -2 -11 8 5 11 10 12
24 3 10 -7 16 -16 14 -20z m-29 -17 c3 -5 1 -12 -5 -16 -5 -3 -10 1 -10 9 0
18 6 21 15 7z m-251 -35 c-3 -9 -17 -16 -32 -16 -28 0 -25 6 10 25 28 14 30
13 22 -9z m43 18 c-3 -3 -12 -4 -19 -1 -8 3 -5 6 6 6 11 1 17 -2 13 -5z m108
-43 c-3 -6 -11 -11 -17 -11 -6 0 -6 6 2 15 14 17 26 13 15 -4z m-63 -13 c-7
-7 -12 -8 -12 -2 0 14 12 26 19 19 2 -3 -1 -11 -7 -17z m-12 -44 c-8 -8 -23
-20 -34 -26 -14 -6 -11 -1 8 16 32 29 45 34 26 10z m-129 -27 c-10 -9 -11 -8
-5 6 3 10 9 15 12 12 3 -3 0 -11 -7 -18z"/>
<path d="M6329 2456 c-69 -88 -154 -137 -269 -155 l-65 -10 66 3 c84 4 161 38
226 99 42 39 92 107 80 107 -2 0 -20 -20 -38 -44z"/>
<path d="M3323 2455 c-3 -9 -3 -18 -1 -21 3 -3 8 4 11 16 6 23 -1 27 -10 5z"/>
<path d="M2596 2443 c-6 -14 -5 -15 5 -6 7 7 10 15 7 18 -3 3 -9 -2 -12 -12z"/>
<path d="M2586 2380 c-40 -56 -50 -94 -15 -59 13 13 29 19 40 16 17 -5 18 -3
7 11 -10 12 -10 14 0 8 9 -5 12 4 12 33 0 23 -2 41 -4 41 -2 0 -20 -23 -40
-50z"/>
<path d="M2565 2394 c-9 -15 -12 -23 -6 -20 11 7 35 46 28 46 -3 0 -12 -12
-22 -26z"/>
<path d="M2646 2355 c-4 -33 -4 -109 -2 -170 4 -89 3 -100 -4 -60 -6 28 -13
60 -15 73 l-6 23 -29 -23 c-33 -26 -37 -58 -20 -168 17 -108 56 -196 96 -221
19 -12 37 -19 40 -16 3 3 -2 33 -11 67 -18 70 -15 92 4 28 26 -84 91 -211 136
-260 29 -32 45 -60 45 -77 0 -14 10 -46 21 -71 l20 -45 -22 22 -22 21 -18 -35
c-14 -27 -16 -40 -8 -55 8 -16 6 -25 -9 -41 -10 -12 -22 -30 -26 -41 -6 -18
-7 -18 -26 -1 -20 18 -20 17 -20 -11 0 -16 8 -41 17 -54 16 -24 16 -24 0 -11
-18 15 -20 11 -17 -34 3 -42 37 -105 74 -136 30 -26 32 -26 61 -11 161 83 372
40 496 -102 29 -32 39 -38 50 -29 23 18 72 24 108 13 19 -5 36 -9 37 -7 2 1
-6 23 -17 47 l-19 45 20 -25 c11 -14 22 -33 25 -42 4 -11 35 -24 92 -39 47
-13 81 -25 75 -27 -6 -2 -43 5 -81 16 l-70 20 9 -23 c9 -23 7 -24 -33 -27
l-42 -3 28 -14 c15 -8 26 -20 23 -27 -8 -20 14 -28 27 -11 10 14 19 14 60 5
40 -10 54 -19 77 -54 35 -49 40 -69 20 -69 -15 0 -40 -18 -40 -29 0 -4 11 -4
24 -2 24 4 52 -15 40 -27 -4 -3 -10 -24 -14 -47 -7 -37 -5 -41 16 -46 13 -3
22 -13 22 -22 -1 -10 2 -34 7 -54 7 -35 6 -37 -22 -40 -15 -2 17 -10 73 -17
70 -10 154 -12 280 -8 209 7 250 14 246 43 -3 21 77 113 114 132 19 10 39 70
37 110 0 6 3 12 7 12 4 0 11 11 14 25 5 20 13 25 36 25 23 0 30 4 30 20 0 25
-18 26 -37 3 -8 -10 -12 -12 -8 -5 9 17 -6 15 -115 -13 -100 -26 -150 -31
-150 -16 0 5 40 18 88 29 105 25 202 60 202 73 0 6 5 7 10 4 6 -3 10 -1 10 5
0 6 4 9 9 5 5 -3 14 10 20 28 7 19 25 55 41 80 l30 47 -69 -35 c-67 -33 -257
-96 -290 -94 -9 0 22 11 68 25 146 43 298 111 349 155 72 64 201 103 295 92
21 -3 43 0 52 7 12 10 10 18 -16 56 -16 24 -34 44 -38 44 -4 0 -16 -9 -26 -20
-10 -11 -23 -20 -29 -20 -6 0 1 12 17 25 32 29 32 31 8 85 l-19 42 -48 -44
c-78 -69 -194 -155 -194 -144 0 2 28 25 63 49 34 25 86 69 115 97 44 43 51 54
42 70 -6 12 -8 41 -4 69 7 55 -12 135 -27 109 -4 -8 -9 -35 -11 -60 -2 -30 -7
-44 -15 -41 -22 8 -51 -17 -64 -54 -6 -21 -23 -48 -36 -61 -18 -17 -23 -29
-19 -47 3 -13 3 -30 0 -39 -6 -15 -86 -70 -187 -125 -62 -35 -99 -79 -55 -66
12 4 61 27 108 52 46 25 79 38 71 29 -25 -30 -236 -125 -346 -155 -232 -64
-450 -67 -685 -10 -81 20 -228 70 -260 89 -112 65 -198 120 -228 147 -20 18
12 0 71 -39 59 -39 110 -68 113 -65 3 3 -8 24 -25 48 -17 23 -31 47 -31 54 0
15 -43 55 -59 55 -10 0 -12 11 -7 43 7 44 -5 75 -66 173 -69 110 -99 165 -93
173 3 5 0 13 -6 17 -8 5 -9 3 -4 -6 6 -9 4 -11 -4 -6 -7 5 -10 14 -7 22 3 7 0
16 -6 20 -7 4 -8 3 -4 -4 4 -7 5 -12 2 -12 -3 0 -29 36 -57 80 -29 44 -56 80
-61 80 -4 0 -8 6 -8 13 0 6 -15 29 -33 49 -25 28 -38 36 -54 32 -27 -7 -85 26
-78 43 2 8 -8 26 -24 41 -22 21 -30 42 -39 96 -12 75 -32 112 -32 60 0 -91 54
-308 115 -459 5 -14 5 -17 -2 -10 -49 48 -138 417 -135 564 0 36 -28 70 -59
71 -9 0 -20 10 -26 22 -8 19 -11 13 -17 -37z m11 -307 c-3 -8 -6 -5 -6 6 -1
11 2 17 5 13 3 -3 4 -12 1 -19z m297 -431 c25 -43 41 -75 36 -72 -11 7 -90
139 -90 151 0 11 4 5 54 -79z m1425 -741 c-2 -2 -20 -6 -39 -10 -25 -4 -31 -3
-20 4 14 9 69 15 59 6z m-502 -12 c-3 -3 -12 -4 -19 -1 -8 3 -5 6 6 6 11 1 17
-2 13 -5z m360 -10 c-3 -3 -12 -4 -19 -1 -8 3 -5 6 6 6 11 1 17 -2 13 -5z
m-339 -126 c8 -19 8 -28 1 -28 -6 0 -7 -4 -4 -10 3 -5 2 -10 -4 -10 -16 0 -53
80 -46 98 5 14 8 13 24 -4 9 -10 23 -31 29 -46z"/>
<path d="M3310 2401 c0 -15 -15 -31 -52 -55 -24 -16 -28 -25 -28 -67 0 -26 -5
-51 -11 -55 -7 -4 2 -19 25 -40 21 -19 39 -34 42 -34 2 0 4 22 4 49 0 27 7 84
15 127 8 43 13 80 10 82 -3 3 -5 0 -5 -7z"/>
<path d="M2595 2314 c1 -10 5 -26 8 -34 3 -8 8 -22 10 -30 3 -8 6 -1 6 16 1
16 -5 38 -12 49 -13 17 -14 17 -12 -1z"/>
<path d="M5880 2317 c26 -15 110 -34 98 -22 -3 4 -21 10 -40 14 -18 5 -44 11
-58 15 l-25 7 25 -14z"/>
<path d="M5846 2292 c-4 -10 -22 -45 -42 -78 -30 -48 -39 -76 -49 -154 -8 -52
-17 -111 -21 -130 -6 -31 -6 -33 8 -22 9 7 18 25 21 41 3 15 24 47 46 70 30
31 42 53 47 86 6 41 9 45 34 45 15 0 33 7 40 15 7 9 21 13 31 10 17 -6 19 0
19 49 0 53 -1 56 -25 56 -14 0 -42 7 -62 15 -44 18 -40 19 -47 -3z"/>
<path d="M5450 2255 c0 -8 4 -15 10 -15 5 0 7 7 4 15 -4 8 -8 15 -10 15 -2 0
-4 -7 -4 -15z"/>
<path d="M5480 2230 c0 -5 5 -10 11 -10 5 0 7 5 4 10 -3 6 -8 10 -11 10 -2 0
-4 -4 -4 -10z"/>
<path d="M4355 2180 c-3 -5 -1 -10 4 -10 6 0 11 5 11 10 0 6 -2 10 -4 10 -3 0
-8 -4 -11 -10z"/>
<path d="M4428 2169 c-10 -5 -18 -17 -18 -24 0 -9 -10 -15 -24 -15 -27 0 -50
-22 -37 -36 5 -5 11 -18 13 -28 3 -19 4 -19 21 -2 16 17 17 16 17 -3 0 -12 6
-21 14 -21 17 0 39 26 32 38 -3 6 1 15 9 22 31 26 6 88 -27 69z"/>
<path d="M3437 2151 c6 -7 9 -20 6 -27 -3 -8 -3 -14 0 -14 14 0 14 30 -1 41
-14 11 -15 11 -5 0z"/>
<path d="M3496 2118 c-4 -27 -12 -47 -18 -45 -7 1 -14 -6 -16 -15 -2 -11 2
-18 11 -18 8 0 17 -10 21 -23 3 -13 16 -35 30 -50 13 -14 26 -30 27 -36 2 -5
11 -11 19 -13 8 -2 22 -13 31 -26 16 -22 16 -22 34 -2 17 19 17 20 -6 39 -13
11 -19 20 -13 21 5 0 15 -5 21 -11 17 -17 46 34 41 70 -2 17 -1 28 3 26 4 -3
12 2 19 10 9 10 9 15 1 15 -6 0 -11 -3 -11 -7 0 -5 -15 -9 -34 -10 -36 -3 -45
9 -61 81 -4 17 -9 25 -13 19 -4 -6 -16 -11 -27 -10 -14 1 -21 -5 -24 -23 -4
-22 -6 -20 -16 15 l-12 40 -7 -47z m35 -91 c8 -15 7 -16 -8 -6 -11 6 -18 24
-19 42 -1 31 -1 31 8 7 6 -14 14 -33 19 -43z m67 -23 c2 -1 -8 -1 -22 0 -26 1
-32 7 -19 19 3 4 13 1 22 -5 9 -7 17 -13 19 -14z"/>
<path d="M5696 2144 c-9 -8 -16 -30 -16 -47 0 -18 -14 -86 -30 -152 -35 -142
-36 -146 -11 -142 45 7 66 52 96 207 21 108 20 150 -4 150 -11 0 -27 -7 -35
-16z"/>
<path d="M3466 2103 c-6 -14 -5 -15 5 -6 7 7 10 15 7 18 -3 3 -9 -2 -12 -12z"/>
<path d="M5420 2102 c0 -39 -73 -281 -109 -363 -27 -63 -36 -91 -29 -103 5 -9
10 -37 11 -61 0 -25 4 -45 8 -45 10 0 57 81 103 177 41 85 61 106 32 32 -9
-23 -15 -43 -12 -46 2 -2 26 12 54 31 27 20 54 36 60 36 28 0 92 195 92 279 0
29 -3 33 -21 28 -12 -3 -32 1 -45 10 -20 12 -25 13 -28 2 -3 -8 -13 -43 -24
-79 -19 -61 -20 -62 -16 -20 3 25 7 59 9 75 4 27 0 32 -34 48 -47 21 -51 21
-51 -1z"/>
<path d="M2030 2075 c0 -66 -134 -256 -203 -289 -47 -21 -132 -20 -183 3 -23
10 -44 24 -48 29 -9 15 -160 72 -190 72 -20 0 -33 -12 -59 -53 -42 -65 -64
-75 -186 -79 -73 -3 -96 -8 -106 -21 -6 -9 -15 -14 -18 -10 -4 3 -7 -3 -7 -14
0 -11 24 -51 54 -88 53 -66 54 -70 40 -96 -8 -16 -14 -42 -14 -59 0 -16 -3
-30 -8 -30 -4 0 -13 -9 -20 -21 -21 -33 6 -64 67 -79 28 -7 49 -15 47 -19 -3
-4 5 -8 16 -8 26 -2 98 -76 98 -100 0 -10 -13 -34 -30 -53 -16 -19 -29 -42
-30 -50 0 -8 -9 -39 -20 -68 -11 -29 -20 -66 -20 -83 0 -44 -36 -106 -73 -125
-50 -27 -239 -55 -360 -55 -122 1 -121 2 -93 -88 11 -38 11 -52 -2 -95 -8 -28
-19 -57 -25 -64 -16 -20 -26 -94 -16 -119 11 -28 -7 -70 -32 -78 -31 -10 -58
13 -70 58 -11 44 -64 122 -131 195 -21 22 -53 72 -73 111 -20 39 -40 73 -46
76 -5 4 -19 -1 -31 -9 -12 -9 -29 -16 -37 -16 -24 0 -141 -64 -141 -77 0 -7
18 -45 39 -86 35 -67 39 -83 46 -179 6 -94 0 -177 -21 -276 -6 -32 -40 -62
-68 -62 -12 0 -35 11 -50 25 l-26 24 0 -60 0 -59 1727 2 1727 3 3 69 c2 38 7
96 12 130 12 83 -6 127 -59 151 -40 18 -40 18 -80 -9 -173 -114 -398 -91 -534
54 -95 102 -132 233 -104 368 l16 77 -27 22 c-14 12 -48 29 -76 38 -76 25
-134 62 -201 127 -55 53 -67 60 -128 73 -85 18 -155 56 -210 115 -43 46 -96
136 -96 162 0 7 13 -14 29 -47 53 -111 185 -206 306 -219 45 -5 42 -4 -24 14
-41 11 -93 31 -116 44 -57 34 -122 107 -153 174 -24 51 -27 69 -27 162 1 87 5
113 23 153 33 73 121 159 195 192 34 16 57 30 50 32 -23 8 -128 -51 -176 -99
-69 -69 -108 -159 -117 -267 l-7 -86 -2 66 c-3 161 98 319 244 380 55 23 55
23 49 58 -9 57 -15 72 -25 66 -13 -9 -94 30 -139 65 -46 36 -50 37 -50 5z
m-388 -368 c48 -37 85 -109 75 -148 -10 -38 -56 -103 -91 -127 -41 -28 -124
-29 -181 -3 -37 17 -42 24 -58 78 -32 115 -32 141 -6 170 36 39 96 63 161 63
49 0 62 -5 100 -33z m325 -299 c-3 -8 -6 -5 -6 6 -1 11 2 17 5 13 3 -3 4 -12
1 -19z m252 -529 c14 -11 39 -39 54 -62 24 -35 27 -48 22 -84 -7 -57 -15 -74
-39 -96 -47 -42 -72 -48 -142 -36 -65 11 -66 11 -94 -16 -32 -30 -51 -35 -175
-39 -44 -2 -92 -8 -107 -14 -15 -6 -56 -52 -96 -105 -99 -134 -149 -168 -267
-182 -33 -4 -93 -18 -134 -31 -57 -19 -85 -23 -128 -17 -67 7 -83 21 -127 106
-40 78 -38 93 16 143 43 41 101 70 176 87 71 16 121 47 145 88 28 50 209 164
277 175 21 3 55 1 75 -6 20 -7 71 -13 113 -15 47 -1 89 -8 108 -18 36 -18 47
-12 59 33 9 33 82 91 141 111 53 18 77 14 123 -22z"/>
<path d="M3665 2070 c-3 -5 -2 -10 4 -10 5 0 13 5 16 10 3 6 2 10 -4 10 -5 0
-13 -4 -16 -10z"/>
<path d="M5261 2044 c0 -11 3 -14 6 -6 3 7 2 16 -1 19 -3 4 -6 -2 -5 -13z"/>
<path d="M5341 1981 c-30 -106 -32 -118 -17 -130 11 -9 17 2 34 56 32 103 37
140 18 140 -11 0 -22 -21 -35 -66z"/>
<path d="M2452 2018 c-7 -7 -12 -23 -13 -37 -1 -24 -2 -23 -11 7 -10 29 -15
32 -49 32 -42 0 -45 -6 -33 -68 6 -28 10 -31 58 -37 28 -4 62 -12 75 -17 13
-4 25 -7 27 -5 5 5 -26 121 -35 130 -4 4 -12 2 -19 -5z m-5 -90 c-3 -8 -6 -5
-6 6 -1 11 2 17 5 13 3 -3 4 -12 1 -19z"/>
<path d="M4849 1970 c-26 -28 -62 -142 -48 -150 8 -6 6 -15 -6 -34 -21 -32
-25 -33 -18 -3 3 13 -12 -2 -36 -35 -23 -32 -44 -58 -46 -58 -2 0 -1 10 3 22
4 18 2 20 -14 13 -10 -4 -27 -7 -37 -7 -15 1 -66 -40 -67 -53 0 -3 0 -11 0
-18 0 -8 -7 -14 -16 -14 -10 0 -14 7 -11 19 3 10 1 21 -4 24 -5 3 -9 -4 -9
-15 0 -24 -7 -25 -46 -11 -19 8 -30 8 -38 0 -7 -7 -3 -10 12 -10 23 0 32 -20
10 -20 -7 -1 3 -8 22 -16 34 -15 34 -16 15 -30 -11 -9 -19 -20 -17 -25 1 -5
-2 -9 -7 -9 -5 0 -11 -7 -15 -15 -4 -12 4 -15 42 -15 45 0 48 2 82 51 19 28
43 60 53 72 18 22 18 21 1 -5 -9 -16 -12 -28 -7 -28 18 0 102 72 109 94 4 11
17 37 29 56 55 88 83 149 87 193 6 51 2 55 -23 27z"/>
<path d="M2415 1886 c39 -8 79 -17 90 -21 11 -3 7 1 -9 10 -16 10 -56 19 -90
21 l-61 4 70 -14z"/>
<path d="M2267 1849 c-99 -23 -181 -94 -230 -197 -27 -58 -32 -78 -32 -147 1
-65 5 -91 27 -136 35 -76 90 -135 157 -168 57 -29 111 -46 111 -36 0 21 -50
86 -77 100 -30 16 -83 80 -83 100 0 4 10 -7 23 -26 30 -44 113 -101 105 -71
-1 4 1 17 6 29 4 12 3 30 -3 40 -6 12 -6 37 0 68 9 46 7 51 -13 67 -13 9 -32
24 -43 33 -28 23 3 6 41 -22 l30 -22 12 32 c7 19 36 59 65 91 43 45 53 63 50
84 -3 26 -3 26 6 5 12 -26 19 -28 44 -8 11 8 17 23 16 37 -2 13 0 28 3 34 4 6
3 28 -3 48 -11 40 -6 63 6 27 7 -25 18 -27 34 -7 10 12 2 18 -44 35 -59 22
-140 26 -208 10z m106 -39 c3 -12 0 -20 -8 -20 -8 0 -11 8 -8 20 3 11 7 20 8
20 1 0 5 -9 8 -20z m-85 -215 c-2 -25 -8 -31 -32 -33 -50 -6 -59 34 -25 108
l20 45 20 -45 c11 -24 19 -58 17 -75z m-138 -56 c0 -5 4 -8 8 -5 5 3 9 -1 9
-8 0 -11 -4 -12 -19 -3 -20 13 -24 27 -8 27 6 0 10 -5 10 -11z m79 -108 c34
-52 39 -70 16 -51 -9 7 -13 15 -10 18 2 3 -12 28 -32 56 -20 28 -29 45 -20 38
9 -8 30 -35 46 -61z m-92 -43 c-3 -8 -6 -5 -6 6 -1 11 2 17 5 13 3 -3 4 -12 1
-19z"/>
<path d="M6140 1843 c53 -36 128 -122 155 -177 21 -43 30 -79 35 -144 7 -85 7
-86 8 -22 2 70 -14 144 -42 199 -27 51 -95 120 -141 142 -31 15 -34 15 -15 2z"/>
<path d="M4324 1828 c-4 -6 -3 -8 3 -5 6 4 14 -3 18 -16 4 -14 8 -17 12 -9 12
29 -17 56 -33 30z"/>
<path d="M4880 1832 c0 -19 -102 -165 -152 -218 -27 -29 -75 -72 -105 -95
l-54 -42 28 -23 c35 -29 44 -29 76 -4 40 32 168 80 212 80 l40 0 39 83 c62
129 61 125 33 99 l-24 -23 7 46 c4 25 10 48 13 51 8 9 -23 39 -42 40 -9 1 -28
5 -43 9 -17 4 -28 3 -28 -3z"/>
<path d="M6086 1786 c-9 -19 -16 -43 -16 -54 0 -31 46 -80 83 -87 17 -4 37
-10 42 -13 10 -6 85 -10 85 -4 0 9 -36 71 -57 100 -24 32 -98 92 -113 92 -4 0
-15 -15 -24 -34z"/>
<path d="M3596 1758 c-3 -13 -6 -42 -6 -65 0 -40 2 -43 36 -52 19 -5 42 -7 50
-4 8 3 14 0 14 -6 0 -6 7 -11 15 -11 8 0 15 -5 15 -11 0 -5 4 -8 9 -5 5 3 12
-1 15 -10 4 -9 13 -14 22 -10 8 3 13 2 10 -3 -3 -4 6 -14 19 -21 14 -7 25 -17
25 -22 0 -14 18 -9 24 8 4 10 2 13 -7 9 -6 -4 -4 0 6 8 18 15 24 32 7 22 -5
-3 -10 0 -10 8 0 26 -41 67 -91 93 -28 13 -53 22 -58 20 -4 -3 -18 2 -30 10
-17 13 -20 19 -10 30 9 11 9 14 0 14 -7 0 -9 5 -6 10 3 6 -5 10 -18 10 -17 0
-27 -7 -31 -22z"/>
<path d="M3655 1730 c3 -5 8 -10 11 -10 2 0 4 5 4 10 0 6 -5 10 -11 10 -5 0
-7 -4 -4 -10z"/>
<path d="M6 1722 c-3 -3 -6 -36 -6 -74 l0 -68 50 25 c28 14 50 30 50 36 0 5 4
8 9 4 15 -9 23 13 12 33 -9 18 -105 55 -115 44z"/>
<path d="M4242 1718 c-19 -19 -14 -26 13 -20 14 2 25 11 25 18 0 17 -22 18
-38 2z"/>
<path d="M4290 1712 c0 -15 6 -18 29 -14 35 5 32 27 -4 30 -18 1 -25 -3 -25
-16z"/>
<path d="M3230 1685 c1 -15 22 -39 57 -63 29 -20 32 -21 26 -5 -13 35 -36 64
-48 59 -7 -2 -18 1 -24 7 -6 6 -11 7 -11 2z"/>
<path d="M2447 1636 c-23 -20 -29 -35 -34 -80 -3 -31 -3 -56 0 -56 11 0 46 70
36 75 -5 4 -9 14 -9 23 0 14 2 13 13 -2 13 -18 15 -17 35 11 16 23 18 33 10
41 -16 16 -19 15 -51 -12z"/>
<path d="M5357 1581 c-31 -53 -45 -87 -39 -94 5 -7 14 -32 21 -55 10 -37 16
-43 32 -39 19 5 20 2 15 -31 -7 -44 6 -98 24 -94 7 1 3 -9 -8 -25 -31 -44 -38
-91 -15 -112 10 -10 24 -16 30 -14 7 3 22 -5 35 -16 12 -12 27 -21 34 -21 6 0
17 -7 24 -15 11 -14 15 -14 33 2 11 10 41 46 68 81 l48 63 -40 52 c-38 51 -71
133 -84 210 -8 52 -31 58 -64 19 -39 -48 -55 -41 -29 13 l22 45 -23 24 c-13
14 -26 39 -30 57 -6 32 -6 32 -54 -50z"/>
<path d="M3216 1630 c29 -56 96 -150 104 -145 6 3 10 1 10 -6 0 -7 3 -9 7 -5
5 4 -1 14 -11 22 -11 8 -16 14 -12 14 5 0 -7 17 -25 38 -19 20 -44 51 -57 67
-13 17 -20 23 -16 15z"/>
<path d="M3349 1625 c-4 -3 5 -24 19 -46 21 -33 27 -37 35 -24 9 18 -19 59
-34 50 -4 -3 -9 2 -11 11 -2 9 -6 13 -9 9z"/>
<path d="M4270 1620 c-13 -8 -12 -10 3 -10 9 0 17 5 17 10 0 12 -1 12 -20 0z"/>
<path d="M4335 1600 c-19 -8 -19 -9 3 -9 12 -1 22 4 22 9 0 6 -1 10 -2 9 -2 0
-12 -4 -23 -9z"/>
<path d="M2383 1589 c-8 -8 -13 -41 -13 -88 0 -71 1 -74 15 -53 21 28 18 161
-2 141z"/>
<path d="M2496 1591 c-4 -5 3 -7 14 -4 23 6 26 13 6 13 -8 0 -17 -4 -20 -9z"/>
<path d="M2478 1558 c-9 -7 -24 -26 -34 -43 l-19 -30 29 19 c29 18 29 18 47
-5 10 -13 19 -27 19 -32 0 -4 9 -2 19 5 21 13 21 42 0 76 -15 25 -37 28 -61
10z"/>
<path d="M2339 1540 c-20 -32 -12 -165 9 -151 9 5 12 31 10 92 -3 81 -4 83
-19 59z"/>
<path d="M4450 1539 c0 -5 5 -7 10 -4 6 3 10 8 10 11 0 2 -4 4 -10 4 -5 0 -10
-5 -10 -11z"/>
<path d="M6035 1483 c-72 -89 -68 -78 -30 -99 19 -10 37 -15 41 -12 11 11 33
133 26 140 -4 4 -21 -9 -37 -29z"/>
<path d="M2308 1494 c-16 -24 -26 -101 -18 -139 4 -22 8 -32 9 -23 0 9 6 18
11 20 7 2 10 32 8 78 -2 41 -6 70 -10 64z"/>
<path d="M5595 1457 c16 -98 87 -204 169 -252 58 -33 86 -40 86 -21 0 8 -9 17
-20 21 -36 12 -63 62 -63 121 0 51 -8 67 -22 44 -8 -13 -45 6 -45 24 0 7 -11
18 -25 24 -16 8 -25 20 -25 35 0 16 -9 26 -31 34 l-31 12 7 -42z"/>
<path d="M6077 1422 c-14 -64 -14 -67 5 -80 21 -15 37 -51 43 -96 2 -15 6 -30
9 -33 10 -10 99 84 122 129 13 26 24 49 24 51 0 2 -21 2 -48 -1 -46 -4 -49 -3
-94 46 l-46 49 -15 -65z"/>
<path d="M5555 1433 c9 -53 59 -154 91 -183 25 -23 25 -22 -6 24 -36 53 -70
134 -70 166 0 10 -5 22 -11 25 -7 5 -8 -5 -4 -32z"/>
<path d="M3379 1453 c0 -4 -2 -17 -5 -28 -2 -11 -6 -35 -10 -53 -5 -28 0 -43
37 -97 24 -36 52 -67 62 -71 9 -3 17 -10 17 -15 0 -5 3 -8 8 -6 7 2 12 -6 12
-24 0 -5 -6 -7 -12 -3 -8 5 -7 -1 3 -16 30 -49 201 -116 365 -144 97 -17 284
-32 284 -23 0 8 -135 35 -235 47 -120 14 -145 25 -175 71 -13 22 -29 39 -35
39 -6 0 -19 16 -28 35 -11 22 -13 35 -6 35 8 0 7 5 -1 15 -11 13 -10 14 4 9
37 -14 12 8 -36 32 -85 42 -218 125 -218 134 0 5 20 -5 45 -22 65 -46 68 -26
5 30 -60 53 -80 67 -81 55z"/>
<path d="M2395 1440 c-3 -5 -2 -10 4 -10 5 0 13 5 16 10 3 6 2 10 -4 10 -5 0
-13 -4 -16 -10z"/>
<path d="M6311 1389 c-15 -50 -42 -97 -85 -148 l-30 -36 33 30 c55 50 110 153
99 187 -2 6 -10 -9 -17 -33z"/>
<path d="M3510 1336 c0 -7 82 -47 87 -42 7 6 -46 40 -68 43 -11 2 -19 1 -19
-1z"/>
<path d="M5694 1201 c46 -51 186 -97 271 -88 37 3 36 4 -11 5 -70 3 -172 35
-222 72 -47 34 -63 39 -38 11z"/>
<path d="M4163 1142 c-18 -10 -32 -21 -32 -26 1 -5 -5 -13 -13 -17 -8 -6 2 -9
30 -9 23 0 42 5 42 10 0 6 7 10 16 10 13 0 14 3 5 13 -6 8 -8 16 -5 19 14 15
-14 14 -43 0z"/>
<path d="M6060 1140 c-30 -10 -48 -18 -39 -19 20 -1 81 19 94 30 11 11 13 11
-55 -11z"/>
<path d="M5205 1143 c18 -16 64 -33 70 -24 2 5 -6 12 -19 15 -13 3 -32 9 -43
12 -11 5 -14 4 -8 -3z"/>
<path d="M4958 1127 c-103 -39 -191 -115 -232 -200 -35 -75 -32 -86 4 -15 59
113 164 189 296 211 76 13 151 1 229 -38 27 -13 51 -22 54 -20 2 3 -27 19 -65
37 -59 28 -82 33 -159 35 -58 2 -103 -2 -127 -10z"/>
<path d="M5286 1113 c-3 -3 2 -12 12 -19 20 -16 32 -17 32 -4 0 12 -35 31 -44
23z"/>
<path d="M4963 1081 c-93 -34 -154 -88 -202 -178 -11 -21 -10 -22 16 -10 16 7
48 23 73 36 55 29 98 37 79 15 -7 -9 -32 -27 -56 -41 l-44 -25 24 -24 c21 -21
28 -23 56 -13 25 9 31 16 31 40 0 57 38 107 102 133 l36 15 -5 -38 c-6 -47 11
-82 71 -140 l45 -44 21 36 c22 36 40 48 40 26 0 -8 5 -7 16 2 12 10 15 25 11
56 -3 32 0 49 13 66 18 21 17 22 -8 40 -95 64 -224 83 -319 48z"/>
<path d="M2990 1065 c-30 -9 -68 -24 -85 -35 -40 -26 -29 -25 31 2 72 33 228
33 299 0 72 -33 122 -70 154 -114 16 -22 32 -35 35 -30 3 6 -15 33 -40 61 -94
104 -260 153 -394 116z"/>
<path d="M4393 1027 c-11 -17 7 -19 49 -4 l43 16 -43 -1 c-24 -1 -46 -6 -49
-11z"/>
<path d="M2983 1017 c-46 -17 -49 -24 -20 -53 15 -15 27 -33 27 -40 0 -7 7
-20 16 -29 15 -14 19 -13 50 15 19 16 45 30 59 30 27 0 81 -42 90 -71 4 -10
11 -16 17 -13 6 4 8 2 5 -4 -4 -5 1 -24 10 -40 17 -30 14 -50 -5 -38 -6 3 -24
31 -41 61 -36 63 -67 83 -100 66 -21 -12 -48 -51 -34 -51 4 0 23 -13 41 -28
l33 -28 -41 0 c-29 -1 -45 -6 -52 -17 -12 -23 -22 -21 -67 9 -32 21 -43 24
-60 15 -26 -14 -124 -14 -138 0 -17 17 -37 -61 -36 -136 3 -174 136 -316 320
-341 99 -13 259 52 256 104 0 12 -1 38 -2 57 -1 32 -3 35 -20 25 -24 -12 -168
-14 -175 -1 -3 4 26 11 65 14 104 9 148 45 97 79 -19 13 -21 18 -10 31 11 13
10 15 -9 10 -18 -5 -20 -3 -15 16 3 11 9 30 12 41 6 23 21 25 43 6 23 -19 83
-38 93 -28 5 5 11 24 14 43 5 30 2 37 -18 47 -22 12 -22 12 0 6 36 -9 30 51
-10 107 -43 57 -71 81 -136 114 -76 38 -74 25 2 -23 35 -22 69 -49 75 -60 11
-20 10 -20 -32 0 -73 35 -159 100 -145 110 20 12 -123 8 -159 -5z m-40 -273
c3 -3 -8 -33 -24 -67 -44 -94 -38 -120 31 -133 24 -5 36 -3 44 8 10 14 15 13
40 -9 30 -26 28 -32 -16 -51 -23 -9 -28 -9 -28 2 0 8 -16 16 -41 20 -46 7 -89
44 -89 77 0 25 59 159 70 159 4 0 9 -3 13 -6z"/>
<path d="M4343 1014 c0 -8 6 -14 14 -14 7 0 13 4 13 9 0 5 -6 11 -13 14 -8 3
-14 -1 -14 -9z"/>
<path d="M4162 998 c3 -7 12 -14 22 -14 13 -2 13 -1 1 3 -8 2 -13 9 -10 14 4
5 1 9 -5 9 -7 0 -10 -6 -8 -12z"/>
<path d="M5017 958 c-27 -27 -27 -30 -25 -132 3 -97 5 -105 24 -109 29 -5 61
8 99 42 l32 28 -29 34 c-39 46 -60 87 -68 129 l-6 35 -27 -27z"/>
<path d="M4916 831 c-28 -19 -28 -19 -8 -30 12 -6 29 -25 39 -41 15 -26 19
-28 24 -13 7 20 -5 81 -18 94 -5 5 -21 0 -37 -10z"/>
<path d="M2721 822 c-24 -44 -35 -140 -23 -202 47 -257 294 -400 534 -310 29
11 69 33 88 50 l35 30 -58 -34 c-76 -45 -141 -60 -237 -54 -136 8 -256 89
-316 215 -35 73 -44 193 -21 272 15 53 15 64 -2 33z"/>
<path d="M3552 764 c-16 -17 -7 -50 15 -58 17 -7 33 9 33 32 0 6 -6 12 -14 12
-8 0 -16 6 -18 14 -3 12 -5 12 -16 0z"/>
<path d="M3553 673 c1 -15 7 -27 12 -25 14 3 12 45 -2 49 -8 3 -11 -6 -10 -24z"/>
<path d="M3752 635 c3 -11 -2 -32 -9 -47 -12 -24 -11 -28 1 -28 18 0 32 69 16
84 -9 8 -11 6 -8 -9z"/>
<path d="M4897 566 c-3 -8 1 -20 9 -26 12 -10 14 -8 14 14 0 28 -14 35 -23 12z"/>
<path d="M5030 565 c-10 -12 -10 -15 3 -15 8 0 17 7 21 15 3 8 2 15 -3 15 -5
0 -14 -7 -21 -15z"/>
<path d="M4867 506 c-14 -30 -14 -36 -1 -47 18 -14 30 -4 39 32 4 16 1 30 -8
37 -11 9 -17 5 -30 -22z"/>
<path d="M4988 508 c-8 -7 -25 -28 -38 -47 -19 -27 -20 -35 -9 -42 8 -5 19 -9
24 -9 9 0 65 91 65 105 0 10 -26 5 -42 -7z"/>
<path d="M3748 433 c7 -3 16 -2 19 1 4 3 -2 6 -13 5 -11 0 -14 -3 -6 -6z"/>
<path d="M4840 431 c0 -5 7 -12 16 -15 14 -5 15 -4 4 9 -14 17 -20 19 -20 6z"/>
<path d="M4570 409 c-73 -58 -150 -73 -150 -28 0 18 -5 19 -82 12 -144 -14
-555 -8 -568 8 -10 12 -82 21 -75 10 3 -6 1 -11 -5 -11 -6 0 -8 -5 -5 -10 4
-6 11 -8 16 -5 17 11 9 -8 -13 -33 -13 -14 -17 -22 -9 -17 9 5 12 4 8 -2 -10
-17 -45 -22 -56 -9 -11 14 -81 9 -81 -5 0 -5 -6 -9 -14 -9 -9 0 -13 -10 -12
-29 1 -16 0 -29 -3 -29 -20 2 -20 -5 -2 -28 15 -19 18 -31 11 -49 -10 -25 9
-44 59 -60 19 -6 23 -4 18 8 -4 12 4 17 34 22 22 4 43 4 46 1 4 -3 2 -6 -4 -6
-8 0 -8 -8 0 -25 7 -14 18 -23 25 -20 7 3 11 1 8 -4 -3 -5 1 -11 8 -14 9 -4
14 -17 13 -33 -2 -20 -8 -28 -25 -29 -12 -1 -22 2 -22 7 0 5 -5 6 -10 3 -30
-18 21 -24 219 -25 l219 0 23 32 c13 18 26 35 29 38 14 13 50 70 50 80 0 6 4
9 8 6 9 -6 64 28 62 38 -2 14 50 67 60 61 5 -3 10 1 10 9 0 9 8 16 18 16 10 0
23 5 30 12 7 7 12 8 12 3 0 -6 5 -3 10 5 8 13 10 12 10 -2 0 -10 5 -18 11 -18
18 0 80 64 74 78 -3 7 0 10 6 7 11 -8 45 19 60 47 12 23 10 22 -21 -3z m-760
-389 c12 -8 11 -10 -7 -10 -12 0 -25 5 -28 10 -8 13 15 13 35 0z"/>
<path d="M4914 385 c11 -8 25 -15 30 -15 6 0 2 7 -8 15 -11 8 -25 15 -30 15
-6 0 -2 -7 8 -15z"/>
<path d="M4878 326 c4 -61 21 -67 47 -15 20 38 19 44 -10 57 -39 18 -40 16
-37 -42z"/>
<path d="M4758 303 c-46 -47 -104 -58 -110 -21 -3 25 -1 27 -83 -67 -27 -32
-59 -65 -69 -74 -19 -16 -30 -28 -74 -79 -36 -42 -42 -51 -42 -57 0 -3 28 -5
63 -5 54 0 63 3 64 19 3 34 32 91 47 91 8 0 18 9 21 20 3 11 9 21 13 21 4 1
17 3 29 4 12 1 29 10 38 19 13 12 21 14 30 6 9 -8 15 -8 20 0 3 5 3 10 -2 10
-4 0 -2 4 6 9 8 5 16 16 17 25 3 20 41 73 61 84 8 5 14 15 12 21 -3 7 -20 -5
-41 -26z m-60 -85 c-3 -7 -13 -15 -24 -17 -16 -3 -17 -1 -5 13 16 19 34 21 29
4z"/>
<path d="M4851 266 c-1 -11 -9 -29 -19 -40 -10 -12 -23 -42 -30 -67 -6 -25
-25 -61 -42 -79 -16 -17 -30 -38 -30 -46 0 -8 -3 -13 -7 -13 -19 3 -33 -2 -33
-11 0 -5 18 -10 40 -10 l41 0 36 75 c31 67 38 75 63 75 19 0 29 -6 33 -20 3
-11 14 -20 25 -20 20 0 31 -22 25 -50 -4 -17 -51 -41 -103 -51 -22 -4 6 -7 78
-8 l112 -1 0 31 c0 26 3 29 20 24 20 -6 24 2 23 43 -1 7 10 15 22 18 26 6 40
30 24 39 -5 4 -18 -4 -28 -16 -16 -19 -21 -21 -34 -11 -9 8 -18 9 -21 3 -8
-12 -83 -2 -120 17 l-30 14 23 13 c22 11 22 12 5 20 -22 9 -22 9 -52 0 -20 -6
-21 -4 -12 19 6 16 6 35 0 48 -8 20 -9 21 -9 4z"/>
<path d="M8475 151 c-11 -5 -25 -6 -31 -4 -6 2 -21 -7 -35 -20 -13 -13 -33
-29 -44 -35 -19 -11 -19 -11 5 -12 25 0 25 0 -8 -26 -18 -14 -29 -31 -25 -36
4 -7 0 -9 -10 -5 -10 3 -17 2 -17 -3 0 -6 40 -10 95 -10 l95 0 0 80 c0 44 -1
80 -2 79 -2 0 -12 -4 -23 -8z"/>
<path d="M3520 116 c0 -9 6 -16 13 -16 8 0 7 -3 -3 -9 -8 -6 -17 -8 -21 -5 -8
5 -19 -31 -19 -63 0 -21 5 -23 45 -23 46 0 54 12 32 48 -5 7 -3 12 5 12 9 0 9
3 -2 10 -8 5 -15 13 -15 18 0 5 -8 16 -17 26 -16 15 -18 15 -18 2z"/>
<path d="M5892 86 c-35 -28 -52 -36 -84 -36 -40 0 -41 0 -23 20 10 11 13 20 7
20 -6 0 -13 -4 -16 -9 -7 -11 -88 -51 -102 -51 -6 0 -19 -7 -30 -15 -17 -13
-6 -14 106 -13 125 2 125 2 178 36 55 37 65 52 33 52 -11 0 -21 7 -23 16 -2
13 -12 9 -46 -20z"/>
<path d="M5200 60 c0 -5 4 -10 9 -10 6 0 13 5 16 10 3 6 -1 10 -9 10 -9 0 -16
-4 -16 -10z"/>
<path d="M5187 20 c-5 -19 0 -20 68 -20 53 0 76 4 85 15 18 22 7 27 -26 14
-43 -18 -113 -19 -107 -2 3 7 1 13 -5 13 -5 0 -12 -9 -15 -20z"/>
</g>
</svg>
