<?xml version="1.0" standalone="no"?>
<!DOCTYPE svg PUBLIC "-//W3C//DTD SVG 20010904//EN"
 "http://www.w3.org/TR/2001/REC-SVG-20010904/DTD/svg10.dtd">
<svg version="1.0" xmlns="http://www.w3.org/2000/svg"
 width="300.000000pt" height="200.000000pt" viewBox="0 0 300.000000 200.000000"
 preserveAspectRatio="xMidYMid meet">

<g transform="translate(0.000000,200.000000) scale(0.100000,-0.100000)"
fill="#000000" stroke="none">
<path d="M950 1976 c0 -14 7 -31 15 -39 8 -8 11 -18 7 -22 -4 -4 7 0 25 9 17
9 35 20 38 26 3 5 17 10 31 10 17 0 24 5 24 20 0 18 -7 20 -70 20 -67 0 -70
-1 -70 -24z"/>
<path d="M1425 1908 c3 -51 8 -122 11 -158 l6 -65 -28 35 c-44 57 -128 120
-188 140 -57 21 -132 27 -122 11 3 -5 -5 -11 -17 -15 -36 -9 -78 -46 -75 -66
2 -9 -2 -23 -8 -31 -7 -8 -13 -23 -16 -34 -2 -15 -13 -21 -37 -23 -31 -3 -33
-2 -22 12 11 13 11 16 0 16 -22 0 -37 -13 -41 -35 -1 -11 -11 -29 -20 -39 -10
-11 -18 -26 -18 -33 0 -20 45 4 60 32 14 26 41 37 61 25 9 -6 4 -17 -20 -40
l-32 -32 22 -45 c15 -32 24 -41 30 -32 5 8 2 23 -7 37 -18 28 -18 28 22 36 29
6 32 5 32 -19 0 -14 -5 -28 -9 -31 -5 -3 -7 -9 -4 -15 10 -15 157 2 204 23 36
17 45 18 52 7 14 -23 10 -39 -16 -63 -14 -13 -25 -28 -25 -34 0 -6 -13 -13
-30 -17 -34 -8 -46 -21 -32 -38 5 -7 14 -33 21 -60 12 -50 4 -83 -25 -100 -8
-4 -14 -14 -14 -22 0 -7 -9 -17 -20 -20 -11 -3 -20 -13 -20 -21 0 -8 9 -22 20
-31 11 -10 20 -23 20 -30 0 -22 -31 -14 -67 17 -36 32 -63 39 -63 16 0 -23
-28 -40 -44 -27 -17 14 -22 -1 -25 -89 -1 -36 -4 -66 -6 -68 -2 -2 -24 17 -49
42 -25 25 -48 46 -50 46 -11 0 48 -91 67 -105 31 -22 66 -20 60 3 -3 12 4 22
21 30 28 13 55 6 72 -17 10 -13 15 -13 38 2 14 10 38 35 52 57 22 34 28 37 40
25 16 -16 19 -29 4 -20 -6 3 -4 -6 2 -22 l13 -27 3 24 c2 14 9 31 14 38 7 8 7
17 -2 27 -10 12 -10 15 0 15 10 0 10 3 0 15 -10 12 -8 16 12 24 26 10 97 84
99 104 5 56 10 73 24 83 8 6 15 14 15 18 0 5 9 15 20 24 11 10 28 42 39 72
l19 55 -5 -96 c-6 -108 -6 -109 81 -109 l38 0 -6 103 c-15 230 -36 515 -42
560 l-6 47 -45 0 -45 0 7 -92z"/>
<path d="M2295 1649 c-19 -35 -30 -47 -35 -39 -5 7 -6 19 -3 27 3 9 0 11 -10
7 -9 -3 -18 -12 -21 -20 -3 -8 -30 -25 -61 -39 -99 -46 -118 -115 -63 -230 28
-60 33 -80 32 -140 -1 -71 -43 -216 -64 -223 -5 -2 -10 -11 -10 -20 0 -14 -2
-14 -9 -3 -7 11 -11 10 -20 -7 -13 -25 -14 -52 -2 -52 5 0 11 9 14 20 3 14 10
18 21 14 13 -5 16 -19 15 -61 -2 -58 -11 -72 -35 -52 -8 6 -17 10 -19 7 -9 -9
16 -75 34 -92 20 -18 21 -16 -18 -150 -12 -44 -16 -75 -11 -85 5 -9 14 -65 19
-124 5 -60 12 -112 15 -115 3 -3 17 5 31 18 20 19 27 21 40 10 21 -18 19 -50
-7 -77 -12 -13 -16 -23 -10 -23 6 0 16 8 21 18 5 10 21 24 35 32 28 15 35 45
12 53 -8 3 -18 27 -22 54 -4 26 -13 62 -20 79 -7 17 -16 54 -20 83 -7 51 -6
53 14 46 17 -5 21 -3 16 9 -11 28 4 65 23 60 11 -3 31 8 50 26 18 16 36 30 42
30 14 0 91 -112 84 -123 -3 -5 -20 -7 -38 -4 l-33 5 28 -26 c15 -15 31 -38 35
-52 4 -14 12 -30 16 -36 6 -8 4 -14 -5 -17 -9 -4 -20 -32 -28 -67 -12 -58 -13
-60 -39 -55 -19 4 -28 1 -33 -10 -5 -13 1 -15 35 -11 31 3 42 1 46 -12 4 -9
14 -28 22 -41 30 -47 23 -79 -23 -110 -45 -31 -111 -66 -140 -75 -10 -4 -17
-9 -14 -11 3 -3 40 7 84 21 126 41 144 44 151 27 6 -16 -15 -62 -37 -80 -12
-10 51 -12 303 -13 l317 0 0 485 c0 317 -3 485 -10 485 -5 0 -10 -4 -10 -10 0
-5 -9 -10 -20 -10 -12 0 -20 -7 -21 -17 0 -14 -2 -13 -9 4 -6 14 -15 21 -23
17 -11 -4 -18 9 -27 48 -39 176 -52 234 -70 331 -27 141 -54 211 -102 263 -42
45 -79 61 -218 90 -83 18 -105 18 -120 -1 -7 -8 -16 -15 -21 -15 -5 0 -9 7 -9
15 0 29 -17 15 -45 -36z"/>
<path d="M732 1588 c-31 -34 -42 -72 -42 -148 0 -38 -3 -75 -6 -84 -12 -31
-24 -15 -24 32 0 70 -14 82 -28 23 -12 -52 -5 -154 9 -145 5 3 9 -12 9 -33 0
-27 -3 -34 -9 -24 -8 12 -11 9 -16 -12 -4 -15 -11 -25 -15 -22 -10 6 -33 -59
-28 -78 2 -10 29 0 92 35 49 26 97 48 107 48 27 0 53 44 45 76 -5 19 -4 24 6
18 10 -6 10 -5 1 7 -13 16 -25 85 -25 139 0 19 -2 29 -5 22 -2 -6 -9 -10 -14
-6 -5 3 -6 10 -2 17 10 16 15 72 6 63 -5 -4 -13 -22 -19 -39 -11 -30 -11 -28
-9 26 1 31 4 60 7 63 8 7 -2 44 -11 44 -4 0 -17 -10 -29 -22z m-82 -295 c-11
-17 -11 -17 -6 0 3 10 6 24 7 30 0 9 2 9 5 0 3 -7 0 -20 -6 -30z"/>
<path d="M810 1548 c-12 -22 -12 -22 6 -6 10 10 15 20 12 24 -4 3 -12 -5 -18
-18z"/>
<path d="M901 1493 c-23 -19 -19 -31 16 -51 22 -12 23 -11 21 28 -1 45 -6 48
-37 23z"/>
<path d="M1960 1310 c0 -5 7 -10 16 -10 8 0 12 5 9 10 -3 6 -10 10 -16 10 -5
0 -9 -4 -9 -10z"/>
<path d="M1312 1073 c20 -5 32 -35 23 -62 -4 -13 8 -36 37 -72 l43 -54 8 53
c8 47 10 51 22 36 11 -15 13 -76 4 -109 -4 -13 53 -126 80 -161 12 -15 21 -33
21 -40 0 -18 13 -24 30 -14 11 7 11 12 -2 32 -15 23 -48 165 -48 207 0 22 -50
81 -68 81 -5 0 -12 10 -16 23 -7 31 -42 70 -64 72 -9 1 -33 4 -52 7 -19 3 -27
3 -18 1z"/>
<path d="M1277 1014 c4 -33 12 -63 20 -69 7 -5 15 -29 17 -52 2 -23 11 -52 20
-65 9 -12 16 -20 16 -16 0 25 -65 244 -76 257 -1 2 0 -23 3 -55z"/>
<path d="M1978 889 c-10 -5 -18 -15 -18 -22 0 -15 35 -38 44 -30 10 10 7 35
-3 29 -5 -4 -7 3 -4 14 6 23 5 23 -19 9z"/>
<path d="M1347 784 c-4 -10 -10 -25 -13 -33 -4 -8 -2 -11 4 -7 11 6 52 -30 52
-46 0 -12 -37 -28 -65 -28 -20 0 -26 4 -22 15 4 8 2 17 -3 20 -5 3 -7 19 -5
35 3 18 0 28 -5 25 -6 -4 -10 1 -10 10 0 9 -5 13 -11 9 -7 -4 -9 -25 -4 -60 8
-67 -5 -83 -59 -78 -37 3 -106 -18 -106 -32 0 -4 3 -5 6 -1 6 5 23 -7 76 -55
21 -19 25 -28 14 -28 -37 0 -141 75 -227 165 -27 28 -49 44 -49 35 0 -8 35
-48 78 -90 43 -41 96 -96 116 -123 21 -26 41 -45 46 -42 5 3 11 1 15 -5 9 -14
25 -2 19 14 -3 7 2 16 10 19 19 8 20 -3 4 -38 -7 -15 -17 -24 -25 -21 -36 14
-1 -49 56 -101 37 -34 27 -44 -19 -18 -17 10 -57 14 -123 15 -89 0 -98 -2 -95
-17 3 -15 13 -17 65 -15 54 3 69 0 131 -32 73 -38 106 -67 108 -95 3 -44 5
-51 14 -51 6 0 10 18 10 41 0 22 7 54 17 69 15 26 15 33 0 87 -25 94 -29 139
-22 234 6 75 10 89 24 89 10 0 18 -6 19 -12 0 -7 12 -56 26 -108 14 -52 26
-106 26 -119 0 -22 43 -109 60 -121 17 -12 19 -62 4 -102 -8 -24 -20 -61 -25
-83 -6 -22 -14 -44 -19 -49 -13 -13 11 -56 31 -56 13 0 23 15 35 57 23 76 27
80 79 88 29 4 45 11 45 20 0 8 -17 47 -38 87 -20 40 -46 95 -57 122 -11 27
-34 79 -52 115 -21 43 -29 70 -23 80 10 19 -21 104 -48 135 -11 12 -29 39 -39
60 -17 33 -21 36 -26 20z"/>
<path d="M736 718 c-7 -32 -11 -36 -26 -28 -35 19 -41 10 -13 -16 15 -14 22
-22 15 -19 -11 6 -12 3 -4 -11 5 -11 12 -44 16 -74 4 -30 11 -59 16 -66 5 -6
11 -36 12 -68 2 -51 6 -61 36 -87 56 -49 77 -59 138 -64 48 -4 53 -3 28 5 -36
11 -71 57 -56 72 12 12 -18 138 -34 138 -8 0 -10 -13 -8 -37 3 -28 2 -33 -5
-18 -5 11 -21 31 -35 44 -27 25 -33 59 -16 91 7 14 3 27 -17 56 -15 22 -30 57
-33 79 l-7 40 -7 -37z"/>
<path d="M800 742 c0 -11 31 -74 35 -70 1 2 0 20 -3 41 -2 23 -10 37 -18 37
-8 0 -14 -4 -14 -8z"/>
<path d="M476 725 c-3 -9 -2 -14 3 -11 5 3 11 -3 14 -13 2 -11 14 -24 25 -30
18 -9 20 -7 24 24 2 20 0 35 -7 35 -5 0 -20 3 -31 6 -14 4 -23 0 -28 -11z"/>
<path d="M844 640 c3 -14 6 -35 6 -47 0 -14 6 -23 15 -23 8 0 15 5 15 10 0 6
-4 10 -10 10 -5 0 -10 10 -10 23 0 12 -5 29 -11 37 -8 12 -9 10 -5 -10z"/>
<path d="M531 558 c2 -46 -1 -118 -5 -160 -5 -51 -5 -78 2 -78 5 0 13 10 17
23 6 21 7 21 16 -8 5 -16 7 -38 5 -47 -4 -16 -2 -16 20 -1 29 19 29 14 3 65
-15 29 -19 50 -14 72 12 52 9 99 -8 159 -25 82 -39 73 -36 -25z"/>
<path d="M1574 629 c-8 -13 13 -29 39 -29 15 0 16 3 7 20 -12 22 -35 26 -46 9z"/>
<path d="M1616 558 c-22 -31 -20 -38 9 -38 15 0 31 -9 41 -25 23 -35 38 -31
19 5 -8 16 -15 36 -15 44 0 8 -9 20 -19 26 -16 8 -23 6 -35 -12z"/>
<path d="M1931 529 c-17 -17 -31 -40 -31 -52 0 -21 1 -20 17 3 9 14 27 37 41
53 35 37 11 34 -27 -4z"/>
<path d="M420 486 c0 -8 -13 -29 -29 -47 -17 -18 -47 -66 -68 -107 -41 -80
-87 -126 -136 -136 -18 -4 -47 -17 -67 -30 -29 -18 -41 -21 -68 -14 -30 8 -33
12 -30 41 3 30 5 32 54 38 53 7 117 36 108 51 -3 4 2 5 10 2 9 -3 19 3 26 16
10 19 10 20 -7 12 -10 -5 -24 -7 -32 -4 -7 2 -17 -2 -22 -9 -7 -12 -9 -12 -9
0 0 9 -9 5 -25 -12 -25 -24 -72 -43 -82 -33 -3 2 9 12 26 21 41 21 39 39 -7
53 -27 8 -41 20 -49 39 -9 22 -11 -9 -12 -144 -1 -132 2 -173 12 -173 6 0 62
7 122 15 61 8 176 15 256 15 l146 0 7 39 c3 21 13 44 21 51 18 15 20 54 3 68
-17 12 -66 9 -96 -7 -25 -13 -62 -6 -62 12 0 7 6 21 13 32 30 43 36 81 24 154
-6 39 -14 71 -19 71 -4 0 -8 -6 -8 -14z"/>
<path d="M1040 280 c-33 -7 -32 -7 17 -9 28 0 55 4 58 9 7 11 -22 11 -75 0z"/>
<path d="M2028 274 c-3 -5 -8 -22 -12 -39 -4 -16 -15 -39 -25 -50 -18 -20 -51
-114 -51 -144 0 -9 -5 -22 -12 -29 -9 -9 -3 -12 28 -12 l41 0 17 58 c22 76 37
192 27 210 -5 8 -10 11 -13 6z"/>
<path d="M935 250 c8 -13 35 -13 55 0 11 7 5 10 -23 10 -23 0 -36 -4 -32 -10z"/>
<path d="M1170 231 c0 -10 50 -25 57 -18 2 3 -10 9 -26 15 -17 6 -31 7 -31 3z"/>
<path d="M2253 229 c-6 -6 -9 -18 -6 -25 3 -8 1 -14 -5 -14 -6 0 -15 -13 -21
-30 -13 -39 5 -40 42 -2 41 43 31 112 -10 71z"/>
<path d="M1028 213 c7 -3 16 -2 19 1 4 3 -2 6 -13 5 -11 0 -14 -3 -6 -6z"/>
<path d="M1110 185 c46 -18 61 -18 30 0 -14 8 -34 14 -45 14 -13 0 -8 -5 15
-14z"/>
<path d="M1265 190 c3 -5 11 -10 16 -10 6 0 7 5 4 10 -3 6 -11 10 -16 10 -6 0
-7 -4 -4 -10z"/>
<path d="M653 175 c-7 -8 -13 -19 -13 -25 0 -5 -4 -10 -10 -10 -5 0 -14 -10
-20 -22 -9 -20 -9 -21 2 -7 15 18 54 30 74 22 9 -3 -1 -15 -31 -35 -25 -17
-44 -32 -42 -34 2 -3 25 5 51 16 52 22 86 27 47 7 -43 -21 -37 -37 13 -37 36
0 44 -3 40 -15 -4 -8 -1 -15 6 -15 6 0 8 -4 5 -10 -4 -7 48 -10 149 -10 128 0
156 3 156 14 0 15 -30 27 -155 67 -38 12 -95 34 -126 50 -49 25 -58 26 -71 13
-13 -13 -15 -13 -15 1 0 8 5 15 11 15 5 0 1 7 -10 15 -24 18 -45 18 -61 0z"/>
<path d="M602 153 c-20 -17 -55 -103 -46 -112 9 -10 28 21 30 47 1 15 3 30 3
34 1 4 11 16 23 28 27 24 18 27 -10 3z"/>
<path d="M1205 108 c-5 -13 -11 -42 -14 -65 -7 -41 -6 -43 17 -43 22 0 24 3
18 31 -3 17 0 45 9 65 13 32 13 34 -4 34 -10 0 -22 -10 -26 -22z"/>
<path d="M1280 104 c0 -3 16 -24 35 -46 19 -23 32 -44 29 -49 -4 -7 84 -4 91
3 11 11 -16 29 -43 30 -21 1 -41 11 -63 35 -31 31 -49 41 -49 27z"/>
</g>
</svg>
